<svg xmlns="http://www.w3.org/2000/svg" width="14" height="11.078" id="svg-arrow-white"><defs><clipPath id="arrow-white"><path d="M0 0h14v11.078H0z" data-name="Rectangle 70"/></clipPath></defs><g clip-path="url(#arrow-white)" data-name="Group 63"><path fill="#7A97AB" d="M13.721 4.86 9.182.321a.963.963 0 0 0-1.449 1.27.974.974 0 0 0 .087.089l2.894 2.9H.963a.964.964 0 1 0 0 1.927h9.75L7.821 9.4a.963.963 0 0 0 .567 1.679h.076a.963.963 0 0 0 .715-.319l4.541-4.541a.966.966 0 0 0 0-1.359" data-name="Path 135"/></g></svg>