<svg xmlns="http://www.w3.org/2000/svg" xmlns:xlink="https://www.w3.org/1999/xlink" width="45.257" height="29.652" viewBox="0 0 45.257 29.652">
  <defs>
    <clipPath id="clip-path">
      <rect id="Rectangle_149" data-name="Rectangle 149" width="45.257" height="29.652" fill="none"/>
    </clipPath>
  </defs>
  <g id="Group_252" data-name="Group 252" transform="translate(0)">
    <g id="Group_251" data-name="Group 251" transform="translate(0 0)" clip-path="url(#clip-path)">
      <path id="Path_220" data-name="Path 220" d="M41.868,0H3.389A3.389,3.389,0,0,0,0,3.389V26.262a3.389,3.389,0,0,0,3.389,3.389H41.868a3.389,3.389,0,0,0,3.389-3.389V3.389A3.389,3.389,0,0,0,41.868,0" fill="#ff4b55"/>
      <path id="Path_221" data-name="Path 221" d="M43.639,50.222l.744,2.231,2.351.018a.317.317,0,0,1,.186.572l-1.891,1.4.709,2.242a.317.317,0,0,1-.486.353l-1.913-1.367-1.913,1.367a.317.317,0,0,1-.486-.353l.709-2.242-1.891-1.4a.317.317,0,0,1,.186-.572l2.351-.018.744-2.231a.317.317,0,0,1,.6,0" transform="translate(-36.125 -45.586)" fill="#ffe15a"/>
      <path id="Path_222" data-name="Path 222" d="M169.536,58.159l.533.727.861-.269a.122.122,0,0,1,.135.187l-.527.732.522.736a.121.121,0,0,1-.136.186l-.859-.275-.538.724a.122.122,0,0,1-.219-.072l0-.9-.855-.288a.122.122,0,0,1,0-.231l.857-.283.01-.9a.122.122,0,0,1,.22-.07" transform="translate(-153.484 -52.973)" fill="#ffe15a"/>
      <path id="Path_223" data-name="Path 223" d="M143.464,26l.9.1.383-.817a.122.122,0,0,1,.229.027l.184.883.9.111a.122.122,0,0,1,.045.226l-.783.448.171.886a.122.122,0,0,1-.2.113l-.668-.606-.79.436a.122.122,0,0,1-.17-.156l.37-.823-.659-.616a.121.121,0,0,1,.1-.209" transform="translate(-130.66 -22.984)" fill="#ffe15a"/>
      <path id="Path_224" data-name="Path 224" d="M144.883,132.523l-.533.727-.861-.269a.121.121,0,0,0-.135.187l.527.732-.522.736a.122.122,0,0,0,.136.186l.859-.275.538.724a.122.122,0,0,0,.219-.072l0-.9.855-.288a.122.122,0,0,0,0-.231l-.857-.282-.01-.9a.122.122,0,0,0-.22-.07" transform="translate(-130.661 -120.763)" fill="#ffe15a"/>
      <path id="Path_225" data-name="Path 225" d="M169.846,101.844l-.9.1-.383-.817a.122.122,0,0,0-.229.027l-.184.883-.9.111a.122.122,0,0,0-.045.226l.783.448-.171.886a.122.122,0,0,0,.2.113l.668-.606.79.436a.122.122,0,0,0,.17-.156l-.37-.823.659-.616a.121.121,0,0,0-.1-.209" transform="translate(-152.377 -92.122)" fill="#ffe15a"/>
    </g>
  </g>
</svg>
