<svg xmlns="http://www.w3.org/2000/svg" xmlns:xlink="https://www.w3.org/1999/xlink" width="45.257" height="29.652" viewBox="0 0 45.257 29.652">
  <defs>
    <clipPath id="clip-path">
      <rect id="Rectangle_148" data-name="Rectangle 148" width="45.257" height="29.652" fill="none"/>
    </clipPath>
  </defs>
  <g id="Group_250" data-name="Group 250" transform="translate(0 0)">
    <g id="Group_249" data-name="Group 249" transform="translate(0 0)" clip-path="url(#clip-path)">
      <path id="Path_218" data-name="Path 218" d="M41.868,0H3.389A3.389,3.389,0,0,0,0,3.389V26.262a3.389,3.389,0,0,0,3.389,3.389H41.868a3.389,3.389,0,0,0,3.389-3.389V3.389A3.389,3.389,0,0,0,41.868,0" fill="#f5f5f5"/>
      <path id="Path_219" data-name="Path 219" d="M167.483,70.624a8.583,8.583,0,1,1-8.583,8.583,8.583,8.583,0,0,1,8.583-8.583" transform="translate(-144.854 -64.381)" fill="#ff4b55"/>
    </g>
  </g>
</svg>
