<svg xmlns="http://www.w3.org/2000/svg" width="67.529" height="66.87" viewBox="0 0 67.529 66.87">
  <path id="Path_1676" data-name="Path 1676" d="M-23.218-131.03a12.113,12.113,0,0,1,6.519,1.868,17.262,17.262,0,0,1,5.237,5.237,27.137,27.137,0,0,1,3.479,7.983,38.725,38.725,0,0,1,1.245,10.107,50.474,50.474,0,0,1-2.2,15.2,61.1,61.1,0,0,1-5.347,12.415,48.425,48.425,0,0,1-6.592,9.045,28.417,28.417,0,0,1-5.859,5.017h-.146l-5.859-5.713v-2.71a22.143,22.143,0,0,0,2.893-3.04,23.135,23.135,0,0,0,2.93-4.871,37.408,37.408,0,0,0,2.307-6.848,38.171,38.171,0,0,0,.952-8.972,17.67,17.67,0,0,0-.732-5.457,15.756,15.756,0,0,0-1.868-3.918,23.608,23.608,0,0,0-2.417-3.04,30.948,30.948,0,0,1-2.417-2.893,14.354,14.354,0,0,1-1.868-3.479,13.431,13.431,0,0,1-.732-4.724q0-5.347,2.93-8.276a10.118,10.118,0,0,1,7.471-2.93Zm40.576,0a12.113,12.113,0,0,1,6.519,1.868,17.262,17.262,0,0,1,5.237,5.237,27.137,27.137,0,0,1,3.479,7.983,38.725,38.725,0,0,1,1.245,10.107,50.474,50.474,0,0,1-2.2,15.2,61.1,61.1,0,0,1-5.347,12.415A48.425,48.425,0,0,1,19.7-69.177a28.417,28.417,0,0,1-5.859,5.017H13.7L7.837-69.873v-2.71a22.143,22.143,0,0,0,2.893-3.04,23.135,23.135,0,0,0,2.93-4.871,37.408,37.408,0,0,0,2.307-6.848,38.171,38.171,0,0,0,.952-8.972,17.67,17.67,0,0,0-.732-5.457,15.756,15.756,0,0,0-1.868-3.918,23.608,23.608,0,0,0-2.417-3.04,30.948,30.948,0,0,1-2.417-2.893A14.354,14.354,0,0,1,7.617-115.1a13.431,13.431,0,0,1-.732-4.724q0-5.347,2.93-8.276a10.118,10.118,0,0,1,7.471-2.93Z" transform="translate(33.691 131.03)" fill="#e8e8e8" opacity="0.2"/>
</svg>
