<?xml version="1.0" encoding="UTF-8"?>
<svg xmlns="http://www.w3.org/2000/svg" xmlns:xlink="http://www.w3.org/1999/xlink" width="53" height="53" viewBox="0 0 53 53">
  <defs>
    <clipPath id="clip-path">
      <rect id="Rectangle_643" data-name="Rectangle 643" width="51.968" height="51.968" fill="#fff"></rect>
    </clipPath>
  </defs>
  <g id="Group_3405" data-name="Group 3405" transform="translate(-356 -1764)">
    <g id="Group_2505" data-name="Group 2505" transform="translate(357 1764)">
      <g id="Group_2504" data-name="Group 2504" clip-path="url(#clip-path)">
        <path id="Path_278" data-name="Path 278" d="M153.728,101.788H139.463V97.1a1.208,1.208,0,1,0-2.416,0V103a1.209,1.209,0,0,0,1.208,1.208H152.52V120.4H138.255a1.209,1.209,0,0,0-1.208,1.208v14.265H120.856V121.6a1.209,1.209,0,0,0-1.208-1.208H115.6a1.208,1.208,0,1,0,0,2.416h2.841v14.265a1.209,1.209,0,0,0,1.208,1.208h18.607a1.209,1.209,0,0,0,1.208-1.208V122.811h14.265a1.209,1.209,0,0,0,1.208-1.208V103a1.209,1.209,0,0,0-1.208-1.208" transform="translate(-102.968 -86.316)" fill="#fff"></path>
        <path id="Path_279" data-name="Path 279" d="M8.1,34.08H2.416V17.888H16.68a1.209,1.209,0,0,0,1.208-1.208V2.416H34.08V6.05a1.208,1.208,0,0,0,2.416,0V1.208A1.209,1.209,0,0,0,35.288,0H16.68a1.209,1.209,0,0,0-1.208,1.208V15.472H1.208A1.209,1.209,0,0,0,0,16.68V35.288A1.209,1.209,0,0,0,1.208,36.5H8.1a1.208,1.208,0,1,0,0-2.416" fill="#fff"></path>
      </g>
    </g>
    <rect id="Rectangle_3886" data-name="Rectangle 3886" width="53" height="53" transform="translate(356 1764)" fill="#fff" opacity="0"></rect>
  </g>
</svg>
