<?xml version="1.0" encoding="UTF-8"?>
<svg xmlns="http://www.w3.org/2000/svg" xmlns:xlink="http://www.w3.org/1999/xlink" width="53" height="53" viewBox="0 0 53 53">
  <defs>
    <clipPath id="clip-path">
      <rect id="Rectangle_649" data-name="Rectangle 649" width="51.547" height="51.968" fill="#fff"></rect>
    </clipPath>
  </defs>
  <g id="Group_3406" data-name="Group 3406" transform="translate(-828 -1764)">
    <g id="Group_2518" data-name="Group 2518" transform="translate(829 1764)">
      <g id="Group_2517" data-name="Group 2517" clip-path="url(#clip-path)">
        <path id="Path_295" data-name="Path 295" d="M95.567,346.169h-4.33a1.172,1.172,0,1,0,0,2.343h4.33a1.172,1.172,0,1,0,0-2.343" transform="translate(-81.098 -311.704)" fill="#fff"></path>
        <path id="Path_296" data-name="Path 296" d="M366.646,236.407h-4.33a1.172,1.172,0,1,0,0,2.343h4.33a1.172,1.172,0,1,0,0-2.343" transform="translate(-325.188 -212.87)" fill="#fff"></path>
        <path id="Path_297" data-name="Path 297" d="M293.72,1.352a1.2,1.2,0,0,0-.884-.391H270.489A1.195,1.195,0,0,0,269.3,2.27l3.852,40.058a2.779,2.779,0,0,0,2.528,2.513v5.2a2.794,2.794,0,0,0,2.791,2.791h6.385a2.794,2.794,0,0,0,2.791-2.791v-5.2a2.779,2.779,0,0,0,2.528-2.513L294.025,2.27a1.2,1.2,0,0,0-.3-.918m-8.464,45.9h-7.188v-2.4h7.188Zm-7.187,2.389h7.188v.4a.4.4,0,0,1-.4.4H278.47a.4.4,0,0,1-.4-.4ZM271.8,3.35h19.717l-.154,1.6H271.958Zm19.333,3.991L287.8,42.1a.4.4,0,0,1-.4.363H275.93a.4.4,0,0,1-.4-.363L272.188,7.341Z" transform="translate(-242.483 -0.865)" fill="#fff"></path>
        <path id="Path_298" data-name="Path 298" d="M328.2,152.431h7.981a2.794,2.794,0,0,0,2.791-2.791v-1.6a2.794,2.794,0,0,0-2.791-2.791H328.2a2.794,2.794,0,0,0-2.791,2.791v1.6a2.794,2.794,0,0,0,2.791,2.791m-.4-2.791v-1.6a.4.4,0,0,1,.4-.4h7.981a.4.4,0,0,1,.4.4v1.6a.4.4,0,0,1-.4.4H328.2a.4.4,0,0,1-.4-.4" transform="translate(-293.01 -130.791)" fill="#fff"></path>
        <path id="Path_299" data-name="Path 299" d="M18.967,9.931v-7A2.94,2.94,0,0,0,16.034,0H8.573A2.94,2.94,0,0,0,5.641,2.932v7A6.821,6.821,0,0,0,0,16.639V49.281a2.694,2.694,0,0,0,2.687,2.687H21.921a2.694,2.694,0,0,0,2.687-2.687V16.638a6.82,6.82,0,0,0-5.641-6.707m3.3,31.092v8.259a.345.345,0,0,1-.344.344H2.688a.345.345,0,0,1-.344-.344v-8.26ZM7.984,9.828V6.272h8.637V9.828Zm0-5.9v-1a.591.591,0,0,1,.589-.589h7.461a.591.591,0,0,1,.589.589v1ZM2.343,20.775V16.639A4.48,4.48,0,0,1,6.813,12.17H17.795a4.48,4.48,0,0,1,4.47,4.469v4.136Zm19.922,17.9H2.343V23.118H22.264Z" fill="#fff"></path>
        <path id="Path_300" data-name="Path 300" d="M57.9,262.212h7.981a2.794,2.794,0,0,0,2.791-2.791v-1.6a2.794,2.794,0,0,0-2.791-2.791H57.9a2.794,2.794,0,0,0-2.791,2.791v1.6a2.794,2.794,0,0,0,2.791,2.791m-.4-2.791v-1.6a.4.4,0,0,1,.4-.4h7.981a.4.4,0,0,1,.4.4v1.6a.4.4,0,0,1-.4.4H57.9a.4.4,0,0,1-.4-.4" transform="translate(-49.62 -229.642)" fill="#fff"></path>
      </g>
    </g>
    <rect id="Rectangle_3887" data-name="Rectangle 3887" width="53" height="53" transform="translate(828 1764)" fill="#fff" opacity="0"></rect>
  </g>
</svg>
