<?xml version="1.0" encoding="UTF-8"?>
<svg xmlns="http://www.w3.org/2000/svg" xmlns:xlink="http://www.w3.org/1999/xlink" width="53" height="53" viewBox="0 0 53 53">
  <defs>
    <clipPath id="clip-path">
      <rect id="Rectangle_645" data-name="Rectangle 645" width="50.329" height="51.968" fill="#fff"></rect>
    </clipPath>
  </defs>
  <g id="Group_3404" data-name="Group 3404" transform="translate(-909 -1428)">
    <g id="Group_2509" data-name="Group 2509" transform="translate(910 1428)">
      <g id="Group_2508" data-name="Group 2508" clip-path="url(#clip-path)">
        <path id="Path_283" data-name="Path 283" d="M26.966,32.8a1.2,1.2,0,0,0,2.391.114,54.131,54.131,0,0,0-.768-12.594,30.544,30.544,0,0,0-3.409-9.9,3.993,3.993,0,0,1,.3-4.881c1.369-1.449,3.739-1.671,5.9-.552a16.332,16.332,0,0,1,6.815,5.926,1.2,1.2,0,0,0,2-1.31,18.8,18.8,0,0,0-8.077-6.92A26.915,26.915,0,0,0,19.859,0C16.885.012,14.2.251,11.692,1.73a1.2,1.2,0,1,0,1.214,2.063,11.719,11.719,0,0,1,6.954-1.4,39.916,39.916,0,0,1,5.163.447,6.436,6.436,0,0,0-1.279,1.047A6.027,6.027,0,0,0,22.236,6.7,9.977,9.977,0,0,0,15.388,3.99a7.45,7.45,0,0,0-5.261,2.334,8.48,8.48,0,0,0-2.373,5.959,35.409,35.409,0,0,0,1.7,9.906c.493,1.788,1,3.633,1.381,5.681a4.909,4.909,0,0,0-.629-.333c-.4-2.136-.915-4.012-1.418-5.827a33.623,33.623,0,0,1-1.636-9.427A8.977,8.977,0,0,1,9.91,5.9a1.2,1.2,0,0,0-.836-2.047H9.068a1.188,1.188,0,0,0-.842.346,11.352,11.352,0,0,0-3.465,8.088A35.536,35.536,0,0,0,6.487,22.358c.417,1.506.848,3.062,1.2,4.761a8.615,8.615,0,0,0-2.808.71,10.664,10.664,0,0,0-3.847,2.665,4.813,4.813,0,0,0-.6,1.113,1.2,1.2,0,1,0,2.232.865,2.444,2.444,0,0,1,.293-.56,8.607,8.607,0,0,1,2.75-1.822c1.174-.515,2.82-.949,4-.1,1.084.787,1.757,2.6,1.757,4.742s-.673,3.956-1.757,4.742c-1.176.853-2.822.418-4-.1a8.6,8.6,0,0,1-2.75-1.822c-.362-.493-.528-.276-.568-1.334a1.209,1.209,0,0,0-1.241-1.151A1.2,1.2,0,0,0,0,36.316a3.973,3.973,0,0,0,1.031,2.661,10.662,10.662,0,0,0,3.847,2.665,8.257,8.257,0,0,0,3.2.722,5.052,5.052,0,0,0,3.033-.949c1.691-1.227,2.742-3.782,2.745-6.668v-.012a45.916,45.916,0,0,0-2.093-13.183,33.528,33.528,0,0,1-1.617-9.269A6.1,6.1,0,0,1,11.835,8a5.049,5.049,0,0,1,3.553-1.614,7.869,7.869,0,0,1,5.823,2.66c4.108,4.308,6.269,12.977,5.754,23.752" transform="translate(0 0)" fill="#fff"></path>
        <path id="Path_284" data-name="Path 284" d="M348.647,441.145a1.247,1.247,0,1,0,1.247,1.247,1.248,1.248,0,0,0-1.247-1.247" transform="translate(-312.757 -397.153)" fill="#fff"></path>
        <path id="Path_285" data-name="Path 285" d="M348.647,411.137a1.247,1.247,0,1,0,1.247,1.247,1.248,1.248,0,0,0-1.247-1.247" transform="translate(-312.757 -370.137)" fill="#fff"></path>
        <path id="Path_286" data-name="Path 286" d="M348.647,381.13a1.247,1.247,0,1,0,1.247,1.247,1.248,1.248,0,0,0-1.247-1.247" transform="translate(-312.757 -343.123)" fill="#fff"></path>
        <path id="Path_287" data-name="Path 287" d="M323.641,426.141a1.247,1.247,0,1,0,1.247,1.247,1.248,1.248,0,0,0-1.247-1.247" transform="translate(-290.244 -383.645)" fill="#fff"></path>
        <path id="Path_288" data-name="Path 288" d="M323.641,396.133a1.247,1.247,0,1,0,1.247,1.247,1.248,1.248,0,0,0-1.247-1.247" transform="translate(-290.244 -356.63)" fill="#fff"></path>
        <path id="Path_289" data-name="Path 289" d="M373.653,426.141a1.247,1.247,0,1,0,1.247,1.247,1.248,1.248,0,0,0-1.247-1.247" transform="translate(-335.269 -383.645)" fill="#fff"></path>
        <path id="Path_290" data-name="Path 290" d="M373.653,396.133a1.247,1.247,0,1,0,1.247,1.247,1.248,1.248,0,0,0-1.247-1.247" transform="translate(-335.269 -356.63)" fill="#fff"></path>
        <path id="Path_291" data-name="Path 291" d="M331.848,259.267a1.2,1.2,0,0,0-1.2-1.2h-6.388a1.2,1.2,0,0,0,0,2.394h6.388a1.2,1.2,0,0,0,1.2-1.2" transform="translate(-290.849 -232.335)" fill="#fff"></path>
        <path id="Path_292" data-name="Path 292" d="M323.65,208.058h-6.388a1.2,1.2,0,0,0,0,2.394h6.388a1.2,1.2,0,1,0,0-2.394" transform="translate(-284.546 -187.31)" fill="#fff"></path>
        <path id="Path_293" data-name="Path 293" d="M312.844,159.243a1.2,1.2,0,0,0-1.2-1.2h-6.388a1.2,1.2,0,0,0,0,2.394h6.388a1.2,1.2,0,0,0,1.2-1.2" transform="translate(-273.74 -142.285)" fill="#fff"></path>
        <path id="Path_294" data-name="Path 294" d="M271.541,131.832a24.515,24.515,0,0,0-1.505-3.99,1.2,1.2,0,1,0-2.148,1.056c4.388,8.927,3.619,20.865,2.424,29.729a6.3,6.3,0,0,1-6.227,5.438h-5.506a3.3,3.3,0,0,1-3.212-4.013,58.325,58.325,0,0,0,1.4-8.242,1.2,1.2,0,0,0-2.384-.213,55.978,55.978,0,0,1-1.35,7.942,5.689,5.689,0,0,0,5.55,6.919h5.506a8.7,8.7,0,0,0,8.6-7.512c.358-2.653.607-5.263.741-7.759a11.353,11.353,0,0,0-1.884-19.356m1.884,11a51.477,51.477,0,0,0-1-7.614,8.963,8.963,0,0,1,1.116,12.587c.021-1.723-.017-3.394-.112-4.974" transform="translate(-227.675 -114.49)" fill="#fff"></path>
      </g>
    </g>
    <rect id="Rectangle_3885" data-name="Rectangle 3885" width="53" height="53" transform="translate(909 1428)" fill="#fff" opacity="0"></rect>
  </g>
</svg>
