<?xml version="1.0" encoding="UTF-8"?>
<svg xmlns="http://www.w3.org/2000/svg" width="260" height="80.763" viewBox="0 0 260 80.763">
  <g id="ClinChoice_Tag_Grey_Rgb" data-name="ClinChoice Tag Grey_Rgb" transform="translate(-23.7 -23.4)">
    <g id="Group_1" data-name="Group 1" transform="translate(24.699 87.052)">
      <path id="Path_1" data-name="Path 1" d="M29.128,122.63h-3a.873.873,0,0,1-.932-.932v-.466a.873.873,0,0,1,.932-.932h8.722a.825.825,0,0,1,.866.932v.466a.858.858,0,0,1-.866.932h-3v12.584a.858.858,0,0,1-.866.932H30.06a.873.873,0,0,1-.932-.932Z" transform="translate(-25.2 -119.434)" fill="#7a97ab"></path>
      <path id="Path_2" data-name="Path 2" d="M44.2,120.332a.873.873,0,0,1,.932-.932H46a.825.825,0,0,1,.866.932v4.661a4.948,4.948,0,0,1,3-1.132c2.464,0,3.8,1.465,3.8,3.995v7.124a.873.873,0,0,1-.932.932h-.8a.873.873,0,0,1-.932-.932v-6.791c0-1.465-.466-2.131-1.665-2.131a3.649,3.649,0,0,0-2.464,1.132v7.723a.858.858,0,0,1-.866.932h-.866a.873.873,0,0,1-.932-.932S44.2,120.332,44.2,120.332Z" transform="translate(-31.55 -119.134)" fill="#7a97ab"></path>
      <path id="Path_3" data-name="Path 3" d="M61.867,130.96a4.664,4.664,0,0,1,4.794-4.86,4.754,4.754,0,0,1,4.86,4.86v1.531a.573.573,0,0,1-.533.533H64.463v.533a2.3,2.3,0,0,0,2.53,2.6,10.568,10.568,0,0,0,2.53-.333c.533-.133,1,0,1.132.533l.067.4a.808.808,0,0,1-.666,1.065,10.688,10.688,0,0,1-3.129.466c-3.6,0-5.127-2.4-5.127-4.86V130.96h.067Zm7.058.2v-.4c0-1.2-.533-2.464-2.2-2.464s-2.2,1.265-2.2,2.464v.4Z" transform="translate(-37.431 -121.373)" fill="#7a97ab"></path>
      <path id="Path_4" data-name="Path 4" d="M87,134.082c.133-.6.533-.732,1.065-.6a12.954,12.954,0,0,0,3.2.533c1.8,0,2.6-.932,2.6-2.264,0-3.329-6.858-2.264-6.858-7.524,0-2.73,2.2-4.328,5.26-4.328a9.784,9.784,0,0,1,3.063.533.831.831,0,0,1,.6,1.132l-.133.466a.84.84,0,0,1-1.132.533,7.007,7.007,0,0,0-2.33-.4c-1.6,0-2.4.8-2.4,2.064,0,2.93,6.858,2.264,6.858,7.524,0,2.73-2.131,4.528-5.393,4.528a12.676,12.676,0,0,1-3.662-.6.825.825,0,0,1-.666-1.132Z" transform="translate(-45.853 -119.301)" fill="#7a97ab"></path>
      <path id="Path_5" data-name="Path 5" d="M104.964,126.593l-1-.133c-.6-.067-.866-.266-.866-.8v-.266c0-.533.333-.732.932-.732h1v-2.73a.873.873,0,0,1,.932-.932h.8a.873.873,0,0,1,.932.932v2.73h1.8c.533,0,.932.266.932.8v.333c0,.533-.333.8-.932.8h-1.8v6.192c0,1.132.6,1.6,1.465,1.6a3.254,3.254,0,0,0,.866-.067c.466-.067.866,0,.932.533l.133.6a.752.752,0,0,1-.732,1,7.65,7.65,0,0,1-1.4.133c-2.53,0-3.928-1.332-3.928-3.6l-.067-6.392Z" transform="translate(-51.233 -119.668)" fill="#7a97ab"></path>
      <path id="Path_6" data-name="Path 6" d="M121.993,131.094h1.332v-.533c0-1.465-.466-2.264-2.131-2.264a6.8,6.8,0,0,0-2.33.333.787.787,0,0,1-1.065-.6l-.133-.4a.861.861,0,0,1,.666-1.132,10.15,10.15,0,0,1,2.863-.4c3.129,0,4.727,1.864,4.727,4.328v6.791a.823.823,0,0,1-.866.932h-.533c-.533,0-.866-.133-.932-.732l-.067-.333a3.823,3.823,0,0,1-3.063,1.4,3.533,3.533,0,0,1-3.862-3.729C116.733,132.026,119,131.094,121.993,131.094Zm-.932,5.06a3.305,3.305,0,0,0,2.33-1.065v-2.064h-1.2c-1.531,0-2.8.266-2.8,1.665C119.4,135.621,119.929,136.154,121.061,136.154Z" transform="translate(-55.745 -121.373)" fill="#7a97ab"></path>
      <path id="Path_7" data-name="Path 7" d="M134.8,127.265a.873.873,0,0,1,.932-.932h.4c.533,0,.932.2,1,.732l.067.333a4.778,4.778,0,0,1,3.262-1.4c2.464,0,3.8,1.465,3.8,3.995v7.124a.873.873,0,0,1-.932.932h-.8a.873.873,0,0,1-.932-.932v-6.791c0-1.465-.466-2.131-1.665-2.131a3.525,3.525,0,0,0-2.464,1.132v7.723a.858.858,0,0,1-.866.932h-.866a.873.873,0,0,1-.932-.932v-9.787Z" transform="translate(-61.827 -121.339)" fill="#7a97ab"></path>
      <path id="Path_8" data-name="Path 8" d="M152.6,128.655c0-3.063,1.6-4.794,4.261-4.794a4.093,4.093,0,0,1,2.8,1.132v-4.661a.873.873,0,0,1,.932-.932h.866a.825.825,0,0,1,.866.932V134.98a.823.823,0,0,1-.866.932h-.533c-.533,0-.866-.133-.932-.666l-.067-.333a4.669,4.669,0,0,1-3.063,1.332c-2.663,0-4.261-1.8-4.261-4.794v-2.8Zm7.058,4.128v-5.526a3.483,3.483,0,0,0-2.4-1.2c-1.465,0-2,.932-2,2.93v1.931c0,2,.6,2.93,2,2.93A3.453,3.453,0,0,0,159.658,132.783Z" transform="translate(-67.775 -119.134)" fill="#7a97ab"></path>
      <path id="Path_9" data-name="Path 9" d="M175.893,131.094h1.332v-.533c0-1.465-.466-2.264-2.131-2.264a6.8,6.8,0,0,0-2.33.333.787.787,0,0,1-1.065-.6l-.133-.4a.861.861,0,0,1,.666-1.132,10.15,10.15,0,0,1,2.863-.4c3.129,0,4.727,1.864,4.727,4.328v6.791a.823.823,0,0,1-.866.932h-.533c-.533,0-.866-.133-.932-.732l-.067-.333a3.823,3.823,0,0,1-3.063,1.4,3.533,3.533,0,0,1-3.862-3.729C170.633,132.026,172.9,131.094,175.893,131.094Zm-.932,5.06a3.3,3.3,0,0,0,2.33-1.065v-2.064h-1.2c-1.531,0-2.8.266-2.8,1.665C173.3,135.621,173.829,136.154,174.961,136.154Z" transform="translate(-73.757 -121.373)" fill="#7a97ab"></path>
      <path id="Path_10" data-name="Path 10" d="M188.8,127.3a.873.873,0,0,1,.932-.932h.466c.533,0,.8.333.932.866l.067.666a3.916,3.916,0,0,1,3-1.8c.4,0,1.132.067.932,1.265-.133,1.065-.533,1-1.065,1a3.966,3.966,0,0,0-2.6,1.665v7.191a.858.858,0,0,1-.866.932h-.866a.873.873,0,0,1-.932-.932V127.3Z" transform="translate(-79.873 -121.373)" fill="#7a97ab"></path>
      <path id="Path_11" data-name="Path 11" d="M200.5,128.655c0-3.063,1.6-4.794,4.261-4.794a4.093,4.093,0,0,1,2.8,1.132v-4.661a.873.873,0,0,1,.932-.932h.866a.825.825,0,0,1,.866.932V134.98a.823.823,0,0,1-.866.932h-.533c-.533,0-.866-.133-.932-.666l-.067-.333a4.669,4.669,0,0,1-3.063,1.332c-2.663,0-4.261-1.8-4.261-4.794Zm7.058,4.128v-5.526a3.483,3.483,0,0,0-2.4-1.2c-1.465,0-2,.932-2,2.93v1.931c0,2,.6,2.93,2,2.93A3.334,3.334,0,0,0,207.558,132.783Z" transform="translate(-83.783 -119.134)" fill="#7a97ab"></path>
      <path id="Path_12" data-name="Path 12" d="M226.4,131.36c0-3.129,1.864-5.26,4.994-5.26,3.2,0,4.994,2.131,4.994,5.26v1.8c0,3.262-1.864,5.26-4.994,5.26s-4.994-2.064-4.994-5.26Zm4.994,4.794c1.8,0,2.4-1.2,2.4-3.2v-1.4c0-2-.533-3.2-2.4-3.2s-2.33,1.2-2.33,3.2v1.4C229.063,134.955,229.6,136.154,231.394,136.154Z" transform="translate(-92.438 -121.373)" fill="#7a97ab"></path>
      <path id="Path_13" data-name="Path 13" d="M245.131,125.924l-1-.133c-.533-.067-.932-.266-.932-.8v-.266c0-.533.333-.732.932-.732h1v-1.332c0-2.2,1.465-3.662,3.995-3.662a6.868,6.868,0,0,1,1.332.133.8.8,0,0,1,.666,1.065l-.067.4a.857.857,0,0,1-1,.732,3,3,0,0,0-.866-.067c-.866,0-1.465.4-1.465,1.531v1.2h1.465c.533,0,.932.266.932.8v.333c0,.533-.333.8-.932.8h-1.465v8.922a.873.873,0,0,1-.932.932H246a.873.873,0,0,1-.932-.932l.067-8.922Z" transform="translate(-98.053 -119)" fill="#7a97ab"></path>
      <path id="Path_14" data-name="Path 14" d="M263.5,124.595c0-2.53,1.6-4.195,4.794-4.195h3.4a.873.873,0,0,1,.932.932v.466a.873.873,0,0,1-.932.932H268.36c-1.6,0-2.131.732-2.131,2.131v2.2h4.794a.873.873,0,0,1,.932.932v.466a.825.825,0,0,1-.932.866H266.23v2.6c0,1.4.466,2.064,2.131,2.064h3.462a.873.873,0,0,1,.932.932v.466a.873.873,0,0,1-.932.932H268.36c-3.2,0-4.794-1.665-4.794-4.195v-7.524H263.5Z" transform="translate(-104.837 -119.468)" fill="#7a97ab"></path>
      <path id="Path_15" data-name="Path 15" d="M283.422,132.159l-2.93-4.661c-.266-.466-.067-1,.466-1h1.065a1.428,1.428,0,0,1,1.265.732l1.665,2.663,1.664-2.663a1.428,1.428,0,0,1,1.265-.732h1a.553.553,0,0,1,.466.932l-2.93,4.661,3.262,5.193c.333.533.067,1-.466,1h-1.132a1.28,1.28,0,0,1-1.2-.8l-2-3.129-2.064,3.2a1.231,1.231,0,0,1-1.132.732h-1c-.533,0-.8-.466-.466-1Z" transform="translate(-110.377 -121.506)" fill="#7a97ab"></path>
      <path id="Path_16" data-name="Path 16" d="M296.9,131.427c0-3.063,1.665-5.327,5.06-5.327a10.142,10.142,0,0,1,2.863.4c.533.133.866.533.666,1.065l-.133.466a.938.938,0,0,1-1.2.533,8.653,8.653,0,0,0-2.064-.266c-1.931,0-2.53,1.4-2.53,3.262v1.2c0,1.931.6,3.329,2.53,3.329a8.511,8.511,0,0,0,2.2-.266c.533-.133.932,0,1.065.533l.133.466a.846.846,0,0,1-.666,1.132,10.142,10.142,0,0,1-2.863.4c-3.4,0-5.06-2.264-5.06-5.326Z" transform="translate(-115.999 -121.373)" fill="#7a97ab"></path>
      <path id="Path_17" data-name="Path 17" d="M312.967,130.96a4.664,4.664,0,0,1,4.794-4.86,4.754,4.754,0,0,1,4.86,4.86v1.531a.573.573,0,0,1-.533.533h-6.525v.533a2.3,2.3,0,0,0,2.53,2.6,10.568,10.568,0,0,0,2.53-.333c.533-.133,1,0,1.132.533l.067.4a.808.808,0,0,1-.666,1.065,10.3,10.3,0,0,1-3.129.466c-3.6,0-5.127-2.4-5.127-4.86V130.96h.067Zm6.991.2v-.4c0-1.2-.533-2.464-2.2-2.464s-2.2,1.265-2.2,2.464v.4Z" transform="translate(-121.346 -121.373)" fill="#7a97ab"></path>
      <path id="Path_18" data-name="Path 18" d="M331.1,120.332a.873.873,0,0,1,.932-.932h.8a.873.873,0,0,1,.932.932v12.85a1.009,1.009,0,0,0,.266.8.675.675,0,0,1,.266.866l-.2.666c-.067.4-.333.732-1,.6a2.282,2.282,0,0,1-2-2.6Z" transform="translate(-127.428 -119.134)" fill="#7a97ab"></path>
      <path id="Path_19" data-name="Path 19" d="M339.6,120.332a.873.873,0,0,1,.932-.932h.8a.873.873,0,0,1,.932.932v12.85a1.009,1.009,0,0,0,.266.8.675.675,0,0,1,.266.866l-.2.666c-.067.4-.333.732-1,.6a2.282,2.282,0,0,1-2-2.6Z" transform="translate(-130.268 -119.134)" fill="#7a97ab"></path>
      <path id="Path_20" data-name="Path 20" d="M347.367,130.96a4.664,4.664,0,0,1,4.794-4.86,4.754,4.754,0,0,1,4.86,4.86v1.531a.573.573,0,0,1-.533.533h-6.525v.533a2.3,2.3,0,0,0,2.53,2.6,10.568,10.568,0,0,0,2.53-.333c.533-.133,1,0,1.132.533l.067.4a.808.808,0,0,1-.666,1.065,10.3,10.3,0,0,1-3.129.466c-3.6,0-5.127-2.4-5.127-4.86V130.96h.067Zm6.991.2v-.4c0-1.2-.533-2.464-2.2-2.464s-2.2,1.265-2.2,2.464v.4Z" transform="translate(-132.842 -121.373)" fill="#7a97ab"></path>
      <path id="Path_21" data-name="Path 21" d="M365.5,127.265a.873.873,0,0,1,.932-.932h.4c.533,0,.932.2,1,.732l.067.333a4.778,4.778,0,0,1,3.263-1.4c2.464,0,3.8,1.465,3.8,3.995v7.124a.873.873,0,0,1-.932.932h-.8a.873.873,0,0,1-.932-.932v-6.791c0-1.465-.466-2.131-1.665-2.131a3.525,3.525,0,0,0-2.464,1.132v7.723a.858.858,0,0,1-.866.932h-.866a.873.873,0,0,1-.932-.932v-9.787Z" transform="translate(-138.924 -121.339)" fill="#7a97ab"></path>
      <path id="Path_22" data-name="Path 22" d="M383.2,131.427c0-3.063,1.665-5.327,5.06-5.327a10.141,10.141,0,0,1,2.863.4c.533.133.866.533.666,1.065l-.133.466a.938.938,0,0,1-1.2.533,8.653,8.653,0,0,0-2.064-.266c-1.931,0-2.53,1.4-2.53,3.262v1.2c0,1.931.6,3.329,2.53,3.329a8.51,8.51,0,0,0,2.2-.266c.533-.133.932,0,1.065.533l.133.466a.846.846,0,0,1-.666,1.132,10.141,10.141,0,0,1-2.863.4c-3.4,0-5.06-2.264-5.06-5.326Z" transform="translate(-144.839 -121.373)" fill="#7a97ab"></path>
      <path id="Path_23" data-name="Path 23" d="M399.267,130.96a4.664,4.664,0,0,1,4.794-4.86,4.754,4.754,0,0,1,4.86,4.86v1.531a.573.573,0,0,1-.533.533h-6.525v.533a2.3,2.3,0,0,0,2.53,2.6,10.568,10.568,0,0,0,2.53-.333c.533-.133,1,0,1.132.533l.067.4a.808.808,0,0,1-.666,1.065,10.3,10.3,0,0,1-3.129.466c-3.6,0-5.127-2.4-5.127-4.86V130.96h.067Zm7.058.2v-.4c0-1.2-.533-2.464-2.2-2.464s-2.2,1.265-2.2,2.464v.4Z" transform="translate(-150.186 -121.373)" fill="#7a97ab"></path>
    </g>
    <g id="Group_4" data-name="Group 4" transform="translate(23.7 23.4)">
      <path id="Path_24" data-name="Path 24" d="M24.3,80.289a5.778,5.778,0,0,0,1.332,2.064l9.388,9.388a6.118,6.118,0,0,0,2.064,1.332l8.789-8.789L33.089,71.5Z" transform="translate(-23.901 -39.474)" fill="#0083ad"></path>
      <path id="Path_25" data-name="Path 25" d="M24.1,58.3a5.343,5.343,0,0,0-.4,2V73.813a5.1,5.1,0,0,0,.4,2l8.789-8.789Z" transform="translate(-23.7 -35.063)" fill="#004a98"></path>
      <path id="Path_26" data-name="Path 26" d="M45.4,99.722H58.913a5.1,5.1,0,0,0,2-.4L52.189,90.6,43.4,99.389A6.973,6.973,0,0,0,45.4,99.722Z" transform="translate(-30.283 -45.857)" fill="#63cfe3"></path>
      <path id="Path_27" data-name="Path 27" d="M25.632,50.479A6.118,6.118,0,0,0,24.3,52.543l8.789,8.789,2.863-2.863a12.377,12.377,0,0,0,0-17.444h0a.608.608,0,0,0-.8,0Z" transform="translate(-23.901 -29.24)" fill="#773dbd"></path>
      <path id="Path_28" data-name="Path 28" d="M56.6,84.217l8.789,8.789a5.778,5.778,0,0,0,2.064-1.332l9.388-9.388a6.118,6.118,0,0,0,1.332-2.064L69.317,71.5Z" transform="translate(-34.695 -39.474)" fill="#00bbb4"></path>
      <path id="Path_29" data-name="Path 29" d="M79.915,50.446l-9.521-9.521a.608.608,0,0,0-.8,0h0a12.377,12.377,0,0,0,0,17.444l2.863,2.863,8.789-8.789A6.985,6.985,0,0,0,79.915,50.446Z" transform="translate(-37.836 -29.206)" fill="#7a97ab"></path>
      <path id="Path_30" data-name="Path 30" d="M84.422,58.3,75.7,67.089l8.789,8.789a5.343,5.343,0,0,0,.4-2V60.3A7.243,7.243,0,0,0,84.422,58.3Z" transform="translate(-41.078 -35.063)" fill="#008aab"></path>
      <circle id="Ellipse_1" data-name="Ellipse 1" cx="5.593" cy="5.593" r="5.593" transform="translate(16.312)" fill="#ff9e18"></circle>
      <g id="Group_3" data-name="Group 3" transform="translate(57.26 14.848)">
        <g id="Group_2" data-name="Group 2">
          <path id="Path_31" data-name="Path 31" d="M109.7,59.784c0-8.19,4.794-12.784,12.584-12.784a32.487,32.487,0,0,1,8.323,1.065,1.515,1.515,0,0,1,1.132,2l-.333,1.6a1.487,1.487,0,0,1-2.064,1.065,27.248,27.248,0,0,0-6.325-.8c-4.994,0-7.324,2.663-7.324,8.323v9.122c0,5.593,2.264,8.256,7.324,8.256a24.164,24.164,0,0,0,6.525-.866,1.371,1.371,0,0,1,1.864,1.132l.333,1.665a1.641,1.641,0,0,1-1.132,2,33.875,33.875,0,0,1-8.323,1.065c-7.857,0-12.584-4.461-12.584-12.717C109.7,69.9,109.7,59.784,109.7,59.784Z" transform="translate(-109.7 -46.134)" fill="#004a98"></path>
          <path id="Path_32" data-name="Path 32" d="M149.3,47.8a1.887,1.887,0,0,1,2-2h1.8a1.887,1.887,0,0,1,2,2V75.762a1.983,1.983,0,0,0,.533,1.665,1.6,1.6,0,0,1,.666,1.864l-.4,1.4c-.2.866-.666,1.531-2.2,1.265-2.131-.466-4.328-1.6-4.328-5.593L149.3,47.8Z" transform="translate(-122.934 -45.733)" fill="#004a98"></path>
          <path id="Path_33" data-name="Path 33" d="M166.2,48.9a3.332,3.332,0,0,1,6.658,0,3.241,3.241,0,0,1-3.329,3.262A3.2,3.2,0,0,1,166.2,48.9Zm.466,9.122a1.887,1.887,0,0,1,2-2h1.8a1.836,1.836,0,0,1,1.931,2V79.59a1.836,1.836,0,0,1-1.931,2h-1.8a1.887,1.887,0,0,1-2-2Z" transform="translate(-128.582 -45.7)" fill="#004a98"></path>
          <path id="Path_34" data-name="Path 34" d="M182.733,62.9a1.887,1.887,0,0,1,2-2h.932c1.2,0,2,.466,2.131,1.6l.067.8a10.579,10.579,0,0,1,7.124-3c5.393,0,8.256,3.262,8.256,8.656V84.469a1.887,1.887,0,0,1-2,2h-1.8a1.887,1.887,0,0,1-2-2V69.755c0-3.129-1-4.594-3.729-4.594-2,0-3.6.932-5.393,2.53V84.469a1.836,1.836,0,0,1-1.931,2h-1.8a1.887,1.887,0,0,1-2-2V62.9Z" transform="translate(-134.062 -50.579)" fill="#004a98"></path>
          <path id="Path_35" data-name="Path 35" d="M221.1,59.784c0-8.19,4.794-12.784,12.584-12.784a32.487,32.487,0,0,1,8.323,1.065,1.515,1.515,0,0,1,1.132,2l-.333,1.6a1.487,1.487,0,0,1-2.064,1.065,27.249,27.249,0,0,0-6.325-.8c-4.994,0-7.324,2.663-7.324,8.323v9.122c0,5.593,2.264,8.256,7.324,8.256a24.164,24.164,0,0,0,6.525-.866,1.371,1.371,0,0,1,1.864,1.132l.333,1.665a1.641,1.641,0,0,1-1.132,2,33.875,33.875,0,0,1-8.323,1.065c-7.857,0-12.584-4.461-12.584-12.717Z" transform="translate(-146.928 -46.134)" fill="#004a98"></path>
          <path id="Path_36" data-name="Path 36" d="M260.667,47.8a1.887,1.887,0,0,1,2-2h1.8a1.836,1.836,0,0,1,1.931,2v10.12a10.727,10.727,0,0,1,6.525-2.53c5.393,0,8.256,3.262,8.256,8.656V79.557a1.887,1.887,0,0,1-2,2h-1.8a1.887,1.887,0,0,1-2-2V64.909c0-3.2-1-4.594-3.662-4.594-1.931,0-3.6.932-5.393,2.53V79.623a1.836,1.836,0,0,1-1.931,2h-1.8a1.887,1.887,0,0,1-2-2V47.8Z" transform="translate(-160.129 -45.733)" fill="#004a98"></path>
          <path id="Path_37" data-name="Path 37" d="M297.1,71.752c0-6.858,3.995-11.452,10.919-11.452s10.986,4.594,10.986,11.452v3.862c0,7.058-4.061,11.452-10.919,11.452S297.167,82.6,297.167,75.614V71.752Zm10.919,10.453c3.928,0,5.193-2.53,5.193-6.991V72.151c0-4.328-1.2-6.991-5.193-6.991-3.928,0-5.127,2.663-5.127,6.991v3.063C302.893,79.675,304.091,82.205,308.019,82.205Z" transform="translate(-172.327 -50.579)" fill="#004a98"></path>
          <path id="Path_38" data-name="Path 38" d="M335.3,48.9a3.332,3.332,0,0,1,6.658,0,3.241,3.241,0,0,1-3.329,3.262A3.2,3.2,0,0,1,335.3,48.9Zm.4,9.122a1.887,1.887,0,0,1,2-2h1.8a1.836,1.836,0,0,1,1.931,2V79.59a1.836,1.836,0,0,1-1.931,2h-1.8a1.887,1.887,0,0,1-2-2Z" transform="translate(-185.093 -45.7)" fill="#004a98"></path>
          <path id="Path_39" data-name="Path 39" d="M350.6,71.885c0-6.658,3.6-11.585,10.986-11.585a23.313,23.313,0,0,1,6.192.866,1.826,1.826,0,0,1,1.465,2.4l-.266,1.065a1.873,1.873,0,0,1-2.53,1.132,20.594,20.594,0,0,0-4.528-.533c-4.195,0-5.46,3-5.46,7.124v2.663c0,4.261,1.265,7.257,5.46,7.257a15.235,15.235,0,0,0,4.727-.666,1.728,1.728,0,0,1,2.4,1.2l.266,1a1.827,1.827,0,0,1-1.465,2.464,21.209,21.209,0,0,1-6.192.866c-7.391,0-10.986-4.994-10.986-11.652v-3.6H350.6Z" transform="translate(-190.206 -50.579)" fill="#004a98"></path>
          <path id="Path_40" data-name="Path 40" d="M382.6,70.886c0-5.526,3.8-10.586,10.52-10.586a10.332,10.332,0,0,1,10.52,10.586v3.329a1.181,1.181,0,0,1-1.132,1.2H388.326v1.132c0,2.4.866,5.726,5.46,5.726a23.39,23.39,0,0,0,5.46-.732c1.2-.266,2.131,0,2.464,1.265l.2.932a1.856,1.856,0,0,1-1.4,2.4,23.431,23.431,0,0,1-6.725,1.065C386,87.2,382.6,82.006,382.6,76.612Zm15.38.466v-.866c0-2.6-1.2-5.327-4.794-5.327s-4.86,2.73-4.86,5.327v.866Z" transform="translate(-200.9 -50.579)" fill="#004a98"></path>
        </g>
      </g>
    </g>
  </g>
</svg>
