<svg xmlns="http://www.w3.org/2000/svg" xmlns:xlink="https://www.w3.org/1999/xlink" width="61" height="61" viewBox="0 0 61 61">
  <defs>
    <filter id="Ellipse_14" x="0" y="0" width="61" height="61" filterUnits="userSpaceOnUse">
      <feOffset dy="4" input="SourceAlpha"/>
      <feGaussianBlur stdDeviation="3.5" result="blur"/>
      <feFlood flood-opacity="0.161"/>
      <feComposite operator="in" in2="blur"/>
      <feComposite in="SourceGraphic"/>
    </filter>
    <clipPath id="clip-path">
      <rect id="Rectangle_139" data-name="Rectangle 139" width="19.414" height="15.362" fill="#fff"/>
    </clipPath>
  </defs>
  <g id="Group_230" data-name="Group 230" transform="translate(-1238.5 -2234.5)">
    <g transform="matrix(1, 0, 0, 1, 1238.5, 2234.5)" filter="url(#Ellipse_14)">
      <circle id="Ellipse_14-2" data-name="Ellipse 14" cx="20" cy="20" r="20" transform="translate(10.5 6.5)" fill="#ff9e18"/>
    </g>
    <g id="Group_220" data-name="Group 220" transform="translate(1259.535 2252.853)" clip-path="url(#clip-path)">
      <path id="Path_199" data-name="Path 199" d="M19.027,6.739,12.733.445a1.336,1.336,0,0,0-2.01,1.761,1.35,1.35,0,0,0,.121.124l4.014,4.019H1.336a1.336,1.336,0,1,0,0,2.672h13.52l-4.01,4.01a1.336,1.336,0,0,0,.787,2.328c.035,0,.07,0,.106,0a1.335,1.335,0,0,0,.991-.442l6.3-6.3a1.339,1.339,0,0,0,0-1.884" transform="translate(0 0)" fill="#fff"/>
    </g>
  </g>
</svg>
