<svg xmlns="http://www.w3.org/2000/svg" width="29.496" height="29.496"><defs><clipPath id="a618a"><path fill="#ff9e18" d="M0 0h23.287v18.427H0z" data-name="Rectangle 61"/></clipPath></defs><g data-name="Group 180"><g clip-path="url(#a618a)" data-name="Group 54" transform="rotate(-45 19.876 8.233)"><path fill="#ff9e18" d="M22.822 8.084 15.273.534a1.603 1.603 0 0 0-2.411 2.112 1.62 1.62 0 0 0 .145.148l4.814 4.82H1.6a1.603 1.603 0 1 0 0 3.205h16.22l-4.81 4.81a1.6 1.6 0 0 0 .943 2.792c.042 0 .084.005.127.005a1.6 1.6 0 0 0 1.189-.53l7.554-7.554a1.606 1.606 0 0 0 0-2.26" data-name="Path 133"/></g></g></svg>