<?xml version="1.0" encoding="UTF-8"?>
<svg xmlns="http://www.w3.org/2000/svg" xmlns:xlink="http://www.w3.org/1999/xlink" width="138.743" height="146.26" viewBox="0 0 138.743 146.26">
  <defs>
    <clipPath id="clip-path">
      <rect id="Rectangle_3929" data-name="Rectangle 3929" width="138.743" height="146.259" fill="#004a98"></rect>
    </clipPath>
  </defs>
  <g id="Group_3551" data-name="Group 3551" transform="translate(-996.34 -2983.734)">
    <g id="Group_3548" data-name="Group 3548" transform="translate(996.34 2983.734)">
      <g id="Group_3547" data-name="Group 3547" transform="translate(0 0)" clip-path="url(#clip-path)">
        <path id="Path_1678" data-name="Path 1678" d="M135.983,75.651a65.43,65.43,0,0,0-9.839-34.577c-.012-.03-.018-.06-.031-.09a2.268,2.268,0,0,0-.375-.547,65.145,65.145,0,0,0-54.585-30.35c-.051,0-.1-.009-.153-.009h-.028l-.033,0c-.061,0-.123,0-.184,0A2.249,2.249,0,0,0,68.5,12.325c0,.037.009.072.01.108s-.01.072-.01.108V50.9c-3.2-.052-6.4-.186-9.543-.457a2.249,2.249,0,0,0-.387,4.482c3.273.283,6.6.421,9.929.474V95.888A137.357,137.357,0,0,0,41.96,98.863,109.241,109.241,0,0,1,39.715,81.3a2.249,2.249,0,1,0-4.492.214,114.521,114.521,0,0,0,2.333,18.377,117.689,117.689,0,0,0-19.194,6.59,60.958,60.958,0,0,1-8.337-30.83,62.031,62.031,0,0,1,.9-10.564A2.249,2.249,0,0,0,6.5,64.319a66.446,66.446,0,0,0-.972,11.333c0,36.158,29.262,65.575,65.228,65.575a65.139,65.139,0,0,0,54.964-30.332,2.206,2.206,0,0,0,.393-.573,1,1,0,0,0,.033-.094,65.411,65.411,0,0,0,9.839-34.576M123.147,106.48a117.6,117.6,0,0,0-19.164-6.58,118,118,0,0,0,2.443-24.249,117.721,117.721,0,0,0-2.452-24.246,117.667,117.667,0,0,0,19.173-6.583,61.168,61.168,0,0,1,0,61.657M73,136.571V100.386a132.745,132.745,0,0,1,25.552,2.865C93.722,121.859,84.168,135,73,136.571m0-40.683V55.415a137.4,137.4,0,0,0,26.569-2.982,112.836,112.836,0,0,1,2.356,23.219,113.225,113.225,0,0,1-2.345,23.222A137.259,137.259,0,0,0,73,95.888m0-81.155c11.148,1.573,20.7,14.737,25.54,33.321A132.859,132.859,0,0,1,73,50.917ZM120.711,40.98a113.176,113.176,0,0,1-17.755,6.044C99.53,33.779,93.769,23.1,86.6,16.7A60.93,60.93,0,0,1,120.711,40.98M68.5,100.386v36.179c-10.988-1.589-20.614-14.72-25.5-33.327a132.8,132.8,0,0,1,25.5-2.852M20.8,110.322a113.425,113.425,0,0,1,17.8-6.055c3.467,13.311,9.28,23.99,16.458,30.38A60.932,60.932,0,0,1,20.8,110.322M86.627,134.6c7.169-6.4,12.924-17.064,16.343-30.316a113.421,113.421,0,0,1,17.742,6.041A60.935,60.935,0,0,1,86.627,134.6" transform="translate(2.76 5.033)" fill="#004a98"></path>
        <path id="Path_1679" data-name="Path 1679" d="M32.4,82.87a4.773,4.773,0,0,0,3.836-1.909L58.216,51.887A32.367,32.367,0,0,0,32.4,0,32.367,32.367,0,0,0,6.58,51.887L28.562,80.961A4.774,4.774,0,0,0,32.4,82.87M7.448,19.952A27.36,27.36,0,0,1,32.4,4.5,27.358,27.358,0,0,1,57.348,19.952a27.357,27.357,0,0,1-2.719,29.221L32.648,78.247a.312.312,0,0,1-.5,0L10.166,49.173A27.36,27.36,0,0,1,7.448,19.952" transform="translate(0 0.001)" fill="#fff"></path>
        <path id="Path_1680" data-name="Path 1680" d="M45.747,27.42A18.109,18.109,0,1,0,27.638,45.529,18.13,18.13,0,0,0,45.747,27.42m-31.719,0A13.611,13.611,0,1,1,27.638,41.031,13.627,13.627,0,0,1,14.027,27.42" transform="translate(4.759 4.651)" fill="#fff"></path>
      </g>
    </g>
  </g>
</svg>
