<?xml version="1.0" encoding="UTF-8"?>
<svg xmlns="http://www.w3.org/2000/svg" xmlns:xlink="http://www.w3.org/1999/xlink" id="Group_2507" data-name="Group 2507" width="54.533" height="54.978" viewBox="0 0 54.533 54.978">
  <defs>
    <clipPath id="clip-path">
      <rect id="Rectangle_649" data-name="Rectangle 649" width="54.533" height="54.978" fill="#fff"></rect>
    </clipPath>
  </defs>
  <g id="Group_2517" data-name="Group 2517" clip-path="url(#clip-path)">
    <path id="Path_295" data-name="Path 295" d="M95.885,346.169H91.3a1.24,1.24,0,1,0,0,2.479h4.581a1.24,1.24,0,1,0,0-2.479" transform="translate(-80.579 -309.708)" fill="#fff"></path>
    <path id="Path_296" data-name="Path 296" d="M366.964,236.407h-4.581a1.24,1.24,0,1,0,0,2.479h4.581a1.24,1.24,0,1,0,0-2.479" transform="translate(-323.105 -211.507)" fill="#fff"></path>
    <path id="Path_297" data-name="Path 297" d="M295.135,1.375A1.267,1.267,0,0,0,294.2.961H270.558A1.264,1.264,0,0,0,269.3,2.346l4.075,42.378a2.94,2.94,0,0,0,2.674,2.658v5.5A2.956,2.956,0,0,0,279,55.837h6.755a2.956,2.956,0,0,0,2.953-2.953v-5.5a2.94,2.94,0,0,0,2.674-2.658l4.075-42.378a1.266,1.266,0,0,0-.323-.971m-8.954,48.557h-7.6V47.394h7.6Zm-7.6,2.528h7.6v.425a.425.425,0,0,1-.425.425H279a.425.425,0,0,1-.425-.425ZM271.95,3.489h20.859l-.163,1.694H272.113ZM292.4,7.711l-3.536,36.771a.423.423,0,0,1-.423.384h-12.13a.423.423,0,0,1-.423-.384L272.356,7.711Z" transform="translate(-240.93 -0.86)" fill="#fff"></path>
    <path id="Path_298" data-name="Path 298" d="M328.361,152.847H336.8a2.956,2.956,0,0,0,2.953-2.953v-1.689a2.956,2.956,0,0,0-2.953-2.953h-8.443a2.956,2.956,0,0,0-2.953,2.953v1.689a2.956,2.956,0,0,0,2.953,2.953m-.425-2.953v-1.689a.425.425,0,0,1,.425-.425H336.8a.425.425,0,0,1,.425.425v1.689a.425.425,0,0,1-.425.425h-8.443a.425.425,0,0,1-.425-.425" transform="translate(-291.133 -129.954)" fill="#fff"></path>
    <path id="Path_299" data-name="Path 299" d="M20.065,10.506V3.1a3.11,3.11,0,0,0-3.1-3.1H9.069a3.11,3.11,0,0,0-3.1,3.1v7.406A7.216,7.216,0,0,0,0,17.6V52.136a2.85,2.85,0,0,0,2.843,2.842H23.19a2.85,2.85,0,0,0,2.843-2.843V17.6a7.215,7.215,0,0,0-5.968-7.1M23.554,43.4v8.738a.365.365,0,0,1-.364.364H2.844a.365.365,0,0,1-.364-.364V43.4ZM8.447,10.4V6.636h9.138V10.4Zm0-6.241V3.1a.625.625,0,0,1,.623-.623h7.893a.625.625,0,0,1,.623.623V4.156ZM2.479,21.978V17.6a4.74,4.74,0,0,1,4.728-4.728H18.825A4.739,4.739,0,0,1,23.554,17.6v4.376ZM23.555,40.92H2.479V24.457H23.554Z" fill="#fff"></path>
    <path id="Path_300" data-name="Path 300" d="M58.059,262.628H66.5a2.956,2.956,0,0,0,2.953-2.953v-1.689a2.956,2.956,0,0,0-2.953-2.952H58.059a2.956,2.956,0,0,0-2.953,2.952v1.689a2.956,2.956,0,0,0,2.953,2.953m-.425-2.953v-1.689a.425.425,0,0,1,.425-.425H66.5a.425.425,0,0,1,.425.425v1.689a.425.425,0,0,1-.425.425H58.059a.425.425,0,0,1-.425-.425" transform="translate(-49.302 -228.172)" fill="#fff"></path>
  </g>
</svg>
