<?xml version="1.0" encoding="UTF-8"?>
<svg xmlns="http://www.w3.org/2000/svg" xmlns:xlink="http://www.w3.org/1999/xlink" id="icn1" width="136" height="136" viewBox="0 0 136 136">
  <defs>
    <clipPath id="clip-path">
      <rect id="Rectangle_4171" data-name="Rectangle 4171" width="136" height="136" fill="none"></rect>
    </clipPath>
  </defs>
  <g id="Group_3667" data-name="Group 3667" clip-path="url(#clip-path)">
    <path id="Path_1879" data-name="Path 1879" d="M68,0A68,68,0,1,1,0,68,68,68,0,0,1,68,0" fill="#fff"></path>
    <path id="Path_1880" data-name="Path 1880" d="M93.3,79.551l5.558-7,.119.12a4.975,4.975,0,0,0,6,.8l1.4-.809a4.968,4.968,0,0,0,1.88-6.688l-.07-.1L99.258,50.432a4.937,4.937,0,0,0-3.017-2.319,5.006,5.006,0,0,0-3.774.5l-1.4.807a4.974,4.974,0,0,0-2.447,3.827l-.018.2-3.214-1.286a15.714,15.714,0,0,0-5.865-1.13H73.88a15.867,15.867,0,0,0-6.9,1.615l-.04.02-9.722-1.212a15.9,15.9,0,0,0-7.144.752l-2.731.956-.026-.181a4.917,4.917,0,0,0-2.4-3.56l-1.388-.807a5.008,5.008,0,0,0-3.773-.5,4.933,4.933,0,0,0-3.017,2.318L27.805,65.88a4.934,4.934,0,0,0-.5,3.773,5,5,0,0,0,2.318,3.018l1.4.808a4.949,4.949,0,0,0,2.474.663,5.008,5.008,0,0,0,1.538-.273l.1-.036,4.251,5.629-.025.075a5.116,5.116,0,0,0,4.834,6.77,2.166,2.166,0,0,0,.243-.009l.146-.017.02.148a5.1,5.1,0,0,0,5.054,4.463.8.8,0,0,0,.116-.014.977.977,0,0,1,.142-.019l.138-.005.016.138a5.09,5.09,0,0,0,5.052,4.486,1.264,1.264,0,0,0,.135-.01c.04-.005.081-.009.121-.011l.137-.006.018.138a5.106,5.106,0,0,0,5.059,4.475,3.193,3.193,0,0,0,.448-.021,5.121,5.121,0,0,0,3.489-1.809l2.223-2.65,1.911,1.745A5.1,5.1,0,0,0,77.148,94.5l.027-.146.147.024a5.084,5.084,0,0,0,.765.07h.029a5.038,5.038,0,0,0,4.845-3.585l.046-.154.152.058A5.1,5.1,0,0,0,85,91.107h.248a5.055,5.055,0,0,0,4.563-6.841l-.055-.146.149-.049A4.937,4.937,0,0,0,93.3,79.6Zm-.669-27.435,1.4-.809a1.857,1.857,0,0,1,2.537.68l8.92,15.449a1.862,1.862,0,0,1-.679,2.541l-1.4.807a1.857,1.857,0,0,1-2.535-.679L91.952,54.651a1.857,1.857,0,0,1,.68-2.535M35.114,70.105a1.855,1.855,0,0,1-2.535.679l-1.4-.807a1.847,1.847,0,0,1-.868-1.129,1.867,1.867,0,0,1,.188-1.412l8.922-15.455a1.854,1.854,0,0,1,2.544-.673l1.4.808a1.86,1.86,0,0,1,.68,2.535Zm10.629,12.37a2.028,2.028,0,0,1-1.366.712c-.058.005-.115.007-.173.007a2.03,2.03,0,0,1-1.148-.358l0,.009-.145-.117a1.993,1.993,0,0,1-.71-1.365,2.021,2.021,0,0,1,.463-1.468l3.991-4.756a2.01,2.01,0,1,1,3.077,2.584Zm5.475,4.583a2,2,0,0,1-1.367.716,1.748,1.748,0,0,1-.177.008,2.031,2.031,0,0,1-1.252-.434h0l-.053-.035a2.01,2.01,0,0,1-.25-2.833l5.129-6.111a2.012,2.012,0,0,1,3.085,2.584Zm5.46,4.593a2.017,2.017,0,0,1-2.789.284h-.021l-.042-.035a2.018,2.018,0,0,1-.248-2.833l3.988-4.751a2,2,0,0,1,1.361-.709h.183a2.012,2.012,0,0,1,1.54,3.3Zm8.316,1.217-2.857,3.37a2,2,0,0,1-1.366.711,1.707,1.707,0,0,1-.175.008,2.017,2.017,0,0,1-2.009-1.836,1.992,1.992,0,0,1,.464-1.467l2.857-3.377a2,2,0,0,1,1.364-.711h.184a2.01,2.01,0,0,1,1.538,3.3m24.7-12.259-.053.05a2,2,0,0,1-1.349.6,1.886,1.886,0,0,1-1.333-.447l-4.713-4.394a1.557,1.557,0,0,0-2.127,2.274l6.248,5.818a2.011,2.011,0,0,1-1.265,3.5,1.931,1.931,0,0,1-1.439-.514l-6.22-5.8a1.557,1.557,0,1,0-2.13,2.271l4.135,3.89a2.01,2.01,0,0,1-2.7,2.969l-4.126-3.881a1.557,1.557,0,1,0-2.139,2.262l3,2.85a2.033,2.033,0,0,1,.129,2.851,2.01,2.01,0,0,1-1.394.654c-.028,0-.056,0-.086,0a2.012,2.012,0,0,1-1.358-.531l-2.391-2.182.023-.087a5.052,5.052,0,0,0-4.089-6.244l-.146-.024.023-.148a5.308,5.308,0,0,0,.048-1.2A5.061,5.061,0,0,0,60,80.575l-.148-.024.023-.147a5.188,5.188,0,0,0,.048-1.194A5.105,5.105,0,0,0,53.2,74.819l-.142.048-.049-.142a5.084,5.084,0,0,0-8.727-1.581l-3.04,3.61-3.629-4.81.056-.088a1.144,1.144,0,0,1,.089-.113.614.614,0,0,0,.065-.083l8.573-14.871,4.695-1.644a12.759,12.759,0,0,1,5.74-.607l5.762.72-4.742,2.979a6.417,6.417,0,0,0,5.824,11.38l11.158-4.53L89.558,77.773a2.018,2.018,0,0,1,.136,2.836M92,75.866a4.754,4.754,0,0,0-.389-.431L76.138,62.109a1.553,1.553,0,0,0-1.6-.263l-12.03,4.888a3.305,3.305,0,0,1-3-5.861L67.125,56.1a12.7,12.7,0,0,1,6.76-1.946h5.636a12.629,12.629,0,0,1,4.717.908l5.655,2.264.026.044,7.17,12.417-4.968,6.23Z" fill="#00bbb4"></path>
  </g>
</svg>
