<?xml version="1.0" encoding="UTF-8"?>
<svg xmlns="http://www.w3.org/2000/svg" xmlns:xlink="http://www.w3.org/1999/xlink" id="icn1" width="136" height="136" viewBox="0 0 136 136">
  <defs>
    <clipPath id="clip-path">
      <rect id="Rectangle_4196" data-name="Rectangle 4196" width="136" height="136" fill="none"></rect>
    </clipPath>
  </defs>
  <g id="Group_3691" data-name="Group 3691" clip-path="url(#clip-path)">
    <path id="Path_1974" data-name="Path 1974" d="M68,0A68,68,0,1,1,0,68,68,68,0,0,1,68,0" fill="#fff"></path>
    <path id="Path_1975" data-name="Path 1975" d="M43.229,76.4a1.526,1.526,0,0,0,1.02,2.589H56.511a1.514,1.514,0,1,0,0-3.029H47.957l6.926-6.917a6.66,6.66,0,0,0-9.425-9.412l-2.231,2.228A1.514,1.514,0,0,0,45.368,64L47.6,61.774a3.661,3.661,0,0,1,6.156,1.988,3.583,3.583,0,0,1-1.017,3.145Z" fill="#00bbb4"></path>
    <path id="Path_1976" data-name="Path 1976" d="M66.492,78.993a1.517,1.517,0,0,0,1.515-1.514V71.787l.578,0a1.518,1.518,0,0,0,1.5-1.528,1.517,1.517,0,0,0-1.514-1.5v0c-.078-.005-.211,0-.451,0h-.114V58.09a1.524,1.524,0,0,0-2.774-.847l-8.2,12.271a1.444,1.444,0,0,0-.077,1.535,1.5,1.5,0,0,0,1.32.825H58.3l6.675-.059v5.664a1.516,1.516,0,0,0,1.514,1.514M64.978,63.077v5.708l-3.837.035Z" fill="#00bbb4"></path>
    <path id="Path_1977" data-name="Path 1977" d="M84.437,77.48a1.472,1.472,0,0,0,1.515,1.492h0a1.455,1.455,0,0,0,1.512-1.493V70.938c0-2.308,3.388-8.623,5.519-12.056A1.522,1.522,0,0,0,91.7,56.564H82a1.514,1.514,0,0,0,0,3.028H89.04c-1.779,3.111-4.6,8.5-4.6,11.346Z" fill="#00bbb4"></path>
    <path id="Path_1978" data-name="Path 1978" d="M71.148,83.772a1.664,1.664,0,0,0,.423.055,1.434,1.434,0,0,0,1.422-1.117l7.515-28.629a1.473,1.473,0,0,0-1.087-1.827,1.457,1.457,0,0,0-1.843,1.059L70.063,81.944a1.472,1.472,0,0,0,1.085,1.828" fill="#00bbb4"></path>
    <path id="Path_1979" data-name="Path 1979" d="M104.867,66.5h-4.6a1.457,1.457,0,0,0-1.493,1.512,1.476,1.476,0,0,0,1.5,1.517h3.047A35.249,35.249,0,0,1,94.03,91.867l-2.144-2.141a1.515,1.515,0,0,0-2.141,2.143l2.142,2.138a35.35,35.35,0,0,1-22.372,9.268V99.09a1.514,1.514,0,1,0-3.029,0v4.185a35.351,35.351,0,0,1-22.373-9.268l2.143-2.139a1.443,1.443,0,0,0-.014-2.12,1.464,1.464,0,0,0-2.127-.023l-.072.072c-.287.288-1.385,1.384-2.072,2.07a35.239,35.239,0,0,1-9.282-22.339h3.046a1.514,1.514,0,1,0,0-3.029H32.689A35.236,35.236,0,0,1,41.971,44.16L44.116,46.3a1.5,1.5,0,0,0,1.069.443h0a1.514,1.514,0,0,0,1.069-2.586L44.113,42.02a35.345,35.345,0,0,1,22.373-9.268v3.04a1.514,1.514,0,1,0,3.029,0V32.751A34.92,34.92,0,0,1,90.263,40.6l-4.23.181a1.514,1.514,0,0,0,.131,3.026l7.872-.338a1.524,1.524,0,0,0,.56-.108,1.481,1.481,0,0,0,1.017-1.478l-.355-7.993a1.483,1.483,0,0,0-1.592-1.421,1.457,1.457,0,0,0-1.433,1.56l.2,4.434A37.8,37.8,0,0,0,72.385,29.89a39.222,39.222,0,0,0-36.375,16.9,38.464,38.464,0,0,0,.546,43.267,38.676,38.676,0,0,0,16.9,13.311,39.232,39.232,0,0,0,14.89,2.964,38.384,38.384,0,0,0,38.032-38.317,1.515,1.515,0,0,0-1.514-1.514" fill="#00bbb4"></path>
  </g>
</svg>
