<?xml version="1.0" encoding="UTF-8"?>
<svg xmlns="http://www.w3.org/2000/svg" xmlns:xlink="http://www.w3.org/1999/xlink" width="136" height="136" viewBox="0 0 136 136">
  <defs>
    <clipPath id="clip-path">
      <rect id="Rectangle_633" data-name="Rectangle 633" width="60.689" height="72.059" fill="#00bbb4"></rect>
    </clipPath>
  </defs>
  <g id="icn1" transform="translate(0 -0.404)">
    <circle id="Ellipse_19" data-name="Ellipse 19" cx="68" cy="68" r="68" transform="translate(0 0.404)" fill="#fff"></circle>
    <g id="Group_2484" data-name="Group 2484" transform="translate(37.933 27.248)">
      <g id="Group_2483" data-name="Group 2483" clip-path="url(#clip-path)">
        <path id="Path_234" data-name="Path 234" d="M60.689,124.914a5.737,5.737,0,0,0-1.984-4.34,5.745,5.745,0,0,0-3.764-10.088H37.848l1.973-7.447a13.66,13.66,0,0,0-.433-8.423,9.772,9.772,0,0,0-4.407-5.261c-2.11-1.054-3.8-1.222-5.18-.514-1.878.967-2.471,3.221-2.832,5.51-.874,5.523-1.938,9.17-3.556,12.194a21.472,21.472,0,0,1-6.221,7.122,3.911,3.911,0,0,0-3.774-2.9H3.9a3.909,3.909,0,0,0-3.9,3.9v28.317a3.909,3.909,0,0,0,3.9,3.9H13.42a3.912,3.912,0,0,0,3.781-2.926,34.72,34.72,0,0,0,14.806,4.063H51.638a5.745,5.745,0,0,0,4.816-8.883,5.749,5.749,0,0,0,2.252-9.89,5.737,5.737,0,0,0,1.984-4.34M14.51,142.986a1.1,1.1,0,0,1-1.09,1.09H3.9a1.1,1.1,0,0,1-1.09-1.09V114.669a1.1,1.1,0,0,1,1.09-1.09H13.42a1.1,1.1,0,0,1,1.09,1.09v28.317Zm40.432-23.82H49.025a1.407,1.407,0,1,0,0,2.815h5.918a2.933,2.933,0,0,1,0,5.866H49.025a1.407,1.407,0,1,0,0,2.815h5.918a2.935,2.935,0,0,1,0,5.87H49.025a1.407,1.407,0,0,0,0,2.815h2.614a2.933,2.933,0,0,1,0,5.866H32.006c-4.048,0-11.232-1.977-14.682-4.5V117.021a24.993,24.993,0,0,0,8.571-9.149c1.775-3.318,2.928-7.23,3.855-13.082.129-.82.472-3,1.34-3.447.5-.257,1.434-.069,2.633.529,2.276,1.136,4.715,5.4,3.377,10.444l-2.442,9.216c0,.01,0,.02-.006.03-.007.027-.013.055-.018.083s-.007.043-.01.065-.005.045-.007.068,0,.055,0,.082c0,.011,0,.021,0,.032s0,.016,0,.024c0,.029,0,.058,0,.087s0,.037.005.056.007.052.012.078.008.042.012.063.011.043.017.065.013.047.021.071.013.036.02.054.019.05.03.074.016.033.024.05.024.048.037.071.02.034.03.05.026.042.041.062.026.036.04.053.027.035.041.052.033.037.05.055l.04.042c.019.018.039.036.059.054l.042.036c.02.016.042.032.063.047l.048.034.062.038.06.033.057.027.074.032.051.018c.028.01.056.019.085.027l.022.007.03.006c.027.007.055.013.083.018l.065.01.069.007.08,0,.033,0H54.941a2.933,2.933,0,1,1,0,5.866" transform="translate(0 -75.969)" fill="#00bbb4"></path>
        <path id="Path_235" data-name="Path 235" d="M55.294,302.706a1.409,1.409,0,1,0,1.407,1.411v-.008a1.4,1.4,0,0,0-1.407-1.4" transform="translate(-46.303 -260.103)" fill="#00bbb4"></path>
        <path id="Path_236" data-name="Path 236" d="M319.167,36.866a1.4,1.4,0,0,0,.933-.354l2.5-2.218a1.407,1.407,0,1,0-1.867-2.106l-2.5,2.218a1.407,1.407,0,0,0,.934,2.46" transform="translate(-273.038 -27.353)" fill="#00bbb4"></path>
        <path id="Path_237" data-name="Path 237" d="M119.273,34.294l2.5,2.218a1.407,1.407,0,1,0,1.867-2.106l-2.5-2.218a1.407,1.407,0,1,0-1.868,2.106" transform="translate(-102.08 -27.353)" fill="#00bbb4"></path>
        <path id="Path_238" data-name="Path 238" d="M228.572,6.159a1.407,1.407,0,0,0,1.407-1.407V1.408a1.407,1.407,0,0,0-2.815,0V4.752a1.407,1.407,0,0,0,1.407,1.407" transform="translate(-195.194 -0.001)" fill="#00bbb4"></path>
        <path id="Path_239" data-name="Path 239" d="M81.766,121.158l3.343.14h.06a1.407,1.407,0,0,0,.058-2.814l-3.343-.14a1.407,1.407,0,1,0-.118,2.812" transform="translate(-69.099 -101.689)" fill="#00bbb4"></path>
        <path id="Path_240" data-name="Path 240" d="M350.159,119.949a1.407,1.407,0,0,0,1.405,1.349h.06l3.343-.14a1.407,1.407,0,0,0-.117-2.812l-3.343.14a1.408,1.408,0,0,0-1.347,1.465" transform="translate(-300.877 -101.688)" fill="#00bbb4"></path>
      </g>
    </g>
  </g>
</svg>
