<?xml version="1.0" encoding="UTF-8"?>
<svg xmlns="http://www.w3.org/2000/svg" xmlns:xlink="http://www.w3.org/1999/xlink" id="icn1" width="136" height="136" viewBox="0 0 136 136">
  <defs>
    <clipPath id="clip-path">
      <rect id="Rectangle_4209" data-name="Rectangle 4209" width="136" height="136" fill="none"></rect>
    </clipPath>
  </defs>
  <g id="Group_3700" data-name="Group 3700" clip-path="url(#clip-path)">
    <path id="Path_2034" data-name="Path 2034" d="M68,0A68,68,0,1,1,0,68,68,68,0,0,1,68,0" fill="#fff"></path>
    <path id="Path_2035" data-name="Path 2035" d="M68,42.3A6.3,6.3,0,1,0,61.7,36,6.3,6.3,0,0,0,68,42.3M64.667,36A3.333,3.333,0,1,1,68,39.336,3.337,3.337,0,0,1,64.667,36" fill="#00bbb4"></path>
    <path id="Path_2036" data-name="Path 2036" d="M92.953,73.665h0a2.6,2.6,0,0,1-.768-1.85v-7.63a2.6,2.6,0,0,1,.768-1.851l7.008-6.995a3.9,3.9,0,0,0,0-5.527,3.92,3.92,0,0,0-5.53,0l-2.6,2.6a1.481,1.481,0,0,0,1.045,2.53h0a1.471,1.471,0,0,0,1.046-.433l2.6-2.6a.953.953,0,0,1,1.344,0,.942.942,0,0,1,0,1.334L90.86,60.237a5.541,5.541,0,0,0-1.638,3.948v7.63a5.543,5.543,0,0,0,1.638,3.948l7.009,6.994a.943.943,0,0,1,0,1.334.952.952,0,0,1-1.344,0l-8.47-8.453a12.289,12.289,0,0,0-2.778-2.079,18.172,18.172,0,0,0,0-11.117,12.231,12.231,0,0,0,2.778-2.079l2.213-2.21a1.481,1.481,0,0,0-1.044-2.529h0a1.468,1.468,0,0,0-1.046.433l-2.214,2.209a9.344,9.344,0,0,1-1.832,1.422,18.414,18.414,0,0,0-7.816-7.817,9.338,9.338,0,0,1,1.422-1.831l8.453-8.47a3.92,3.92,0,0,0,0-5.53,3.9,3.9,0,0,0-5.528,0l-7,7.008a2.6,2.6,0,0,1-1.85.768h-7.63a2.6,2.6,0,0,1-1.851-.769l-1.168-1.169a1.471,1.471,0,0,0-1.047-.435h0a1.481,1.481,0,0,0-1.049,2.527l1.168,1.171a5.541,5.541,0,0,0,3.948,1.638h7.63a5.545,5.545,0,0,0,3.948-1.638l6.994-7.009a.942.942,0,0,1,1.334,0,.953.953,0,0,1,0,1.345l-8.452,8.47a12.219,12.219,0,0,0-2.079,2.776,18.564,18.564,0,0,0-11.119,0,12.244,12.244,0,0,0-2.078-2.776l-8.454-8.47a.955.955,0,0,1,0-1.345.942.942,0,0,1,1.334,0l2.195,2.2a1.482,1.482,0,1,0,2.1-2.094l-2.2-2.2a3.9,3.9,0,0,0-5.528,0,3.921,3.921,0,0,0,0,5.53l8.454,8.47a9.373,9.373,0,0,1,1.424,1.833,18.337,18.337,0,0,0-7.781,7.747,9.329,9.329,0,0,1-1.721-1.354l-8.471-8.453a3.92,3.92,0,0,0-5.53,0,3.9,3.9,0,0,0,0,5.527l7.009,6.995a2.6,2.6,0,0,1,.768,1.851v7.63a2.6,2.6,0,0,1-.768,1.851L36.186,80.66a3.91,3.91,0,0,0,5.53,5.529l8.47-8.454a9.4,9.4,0,0,1,1.722-1.355,18.33,18.33,0,0,0,7.78,7.747,9.353,9.353,0,0,1-1.423,1.834l-1.631,1.633a1.482,1.482,0,0,0,2.1,2.093l1.629-1.633a12.246,12.246,0,0,0,2.081-2.778,18.169,18.169,0,0,0,11.116,0,12.289,12.289,0,0,0,2.079,2.778l8.454,8.47a.952.952,0,0,1,0,1.344.94.94,0,0,1-1.333,0l-7-7.008a5.541,5.541,0,0,0-3.948-1.638h-7.63a5.539,5.539,0,0,0-3.948,1.638l-6.994,7.008a.942.942,0,0,1-1.334,0,.952.952,0,0,1,0-1.344l3.193-3.2A1.481,1.481,0,0,0,54.053,90.8h0A1.469,1.469,0,0,0,53,91.232l-3.192,3.2a3.92,3.92,0,0,0,0,5.53,3.9,3.9,0,0,0,5.528,0l6.995-7.008a2.6,2.6,0,0,1,1.851-.768h7.631a2.6,2.6,0,0,1,1.85.768l7,7.008a3.9,3.9,0,0,0,5.528,0,3.92,3.92,0,0,0,0-5.53L77.736,85.96a9.289,9.289,0,0,1-1.424-1.833,18.325,18.325,0,0,0,7.816-7.816,9.331,9.331,0,0,1,1.833,1.424l8.47,8.453a3.91,3.91,0,1,0,5.531-5.528ZM81.442,60.943a15.349,15.349,0,0,1,1.737,6.629,5.145,5.145,0,0,1-2.017-2.466c-.039-.1-.924-2.538.28-4.163M60.667,77.056a3.4,3.4,0,0,1,2.471-.064,3.332,3.332,0,0,1,1.681,1.639,5.381,5.381,0,0,0,2.921,2.581,5.462,5.462,0,0,0,3.234-.038c.689-.173.851-.187,1.021-.088a2.084,2.084,0,0,1,.7,1.355A15.165,15.165,0,0,1,58.8,80.075a4,4,0,0,1,1.863-3.019M70.254,78.3a2.7,2.7,0,0,1-1.6.093c-.549-.178-.816-.53-1.338-1.352a6.171,6.171,0,0,0-3.138-2.824,6.31,6.31,0,0,0-4.79.164,6.11,6.11,0,0,0-3.018,3.374A15.031,15.031,0,0,1,52.962,70.1a7.56,7.56,0,0,0,1.684.207,4.47,4.47,0,0,0,2.593-.748c1.731-1.194,1.881-3.24,2-4.884.106-1.439.209-2.341.757-2.744.382-.28.894-.193,2.058.087.259.063.515.125.782.182a1.482,1.482,0,1,0,.618-2.9c-.239-.05-.486-.11-.705-.164-1.326-.319-2.976-.718-4.507.405-1.687,1.239-1.838,3.276-1.958,4.914-.1,1.416-.2,2.3-.729,2.663-.5.344-1.455.3-2.707-.125A15.2,15.2,0,0,1,67.11,52.842a3.71,3.71,0,0,1,2.336,2.7c.146,1.6-1.575,2.819-2.106,3.156a1.481,1.481,0,1,0,1.588,2.5c2.373-1.506,3.67-3.722,3.469-5.926a5.361,5.361,0,0,0-.588-1.973,15.215,15.215,0,0,1,7.946,5.1,5.94,5.94,0,0,0-.576.626c-2.222,2.8-1.054,6.412-.8,7.108a8.48,8.48,0,0,0,4.539,4.676,15.292,15.292,0,0,1-7.482,10.422,4.433,4.433,0,0,0-1.959-2.71,3.328,3.328,0,0,0-1.706-.46,6.124,6.124,0,0,0-1.52.239M46.926,71.815v-7.63a5.541,5.541,0,0,0-1.638-3.948L38.28,53.243a.94.94,0,0,1,0-1.334.952.952,0,0,1,1.345,0l8.47,8.453a12.28,12.28,0,0,0,2.653,2.011,18.067,18.067,0,0,0-.894,5.61V68a18.065,18.065,0,0,0,.894,5.627,12.3,12.3,0,0,0-2.653,2.01l-8.47,8.454a.953.953,0,0,1-1.344,0,.94.94,0,0,1,0-1.334l7.009-7a5.545,5.545,0,0,0,1.638-3.948" fill="#00bbb4"></path>
    <path id="Path_2037" data-name="Path 2037" d="M104.071,61.7H95.924A2.224,2.224,0,0,0,93.7,63.926v8.148A2.224,2.224,0,0,0,95.924,74.3h8.147a2.225,2.225,0,0,0,2.222-2.222V63.926a2.225,2.225,0,0,0-2.222-2.222m-.741,9.629H96.664V64.667h6.666Z" fill="#00bbb4"></path>
    <path id="Path_2038" data-name="Path 2038" d="M40.077,73.888A2.223,2.223,0,0,0,42.3,71.665v-7.33a2.222,2.222,0,0,0-3.14-2.024l-8.177,3.712a2.171,2.171,0,0,0,0,3.954l8.177,3.711a2.215,2.215,0,0,0,.92.2M33.793,68l5.542-2.515v5.03Z" fill="#00bbb4"></path>
    <path id="Path_2039" data-name="Path 2039" d="M72.063,94.442h0a1.487,1.487,0,0,0-1.282-.74H65.221a1.489,1.489,0,0,0-1.284.741l-2.779,4.814a1.481,1.481,0,0,0,0,1.482l2.78,4.815a1.488,1.488,0,0,0,1.283.74H70.78a1.489,1.489,0,0,0,1.283-.741l2.779-4.814a1.486,1.486,0,0,0,0-1.482Zm-2.139,2.222L71.849,100l-1.925,3.333H66.076L64.152,100l1.924-3.333Z" fill="#00bbb4"></path>
    <path id="Path_2040" data-name="Path 2040" d="M77.282,68.4a4.7,4.7,0,0,0-1.841-3.363,4.059,4.059,0,0,0-3.193-.991,3.172,3.172,0,0,0-2.03,1.442,3.009,3.009,0,0,1-1.193,1.067,3.569,3.569,0,0,1-.824.275,3.105,3.105,0,0,0-1.793.983,3.956,3.956,0,0,0-.324,4.676A3.634,3.634,0,0,0,69.253,73.9a10.175,10.175,0,0,0,2.494-.375c.947-.246,5.661-1.647,5.535-5.12m-2.961.108c.027.762-1.693,1.723-3.316,2.142h0c-2.13.551-2.5.126-2.507.122a1.04,1.04,0,0,1,.126-.992c.061-.02.2-.054.262-.068a6.468,6.468,0,0,0,1.437-.494,5.9,5.9,0,0,0,2.262-1.948c.051-.068.172-.229.242-.308a1.674,1.674,0,0,1,.755.381,1.836,1.836,0,0,1,.739,1.164" fill="#00bbb4"></path>
  </g>
</svg>
