<?xml version="1.0" encoding="UTF-8"?>
<svg xmlns="http://www.w3.org/2000/svg" xmlns:xlink="http://www.w3.org/1999/xlink" id="icn1" width="136" height="136" viewBox="0 0 136 136">
  <defs>
    <clipPath id="clip-path">
      <rect id="Rectangle_4244" data-name="Rectangle 4244" width="136" height="136" fill="none"></rect>
    </clipPath>
  </defs>
  <g id="Group_3724" data-name="Group 3724" clip-path="url(#clip-path)">
    <path id="Path_2202" data-name="Path 2202" d="M68,0A68,68,0,1,1,0,68,68,68,0,0,1,68,0" fill="#fff"></path>
    <path id="Path_2203" data-name="Path 2203" d="M105.886,71.766A17.741,17.741,0,0,0,76.807,58.1a17.679,17.679,0,0,0-11.18-4.1V39.055a3.938,3.938,0,0,0-3.917-3.916H39.064a3.936,3.936,0,0,0-3.916,3.916v9.8l-4.772,11.9a4.206,4.206,0,0,0-.261,1.434V75.124a6.423,6.423,0,0,0,1.287,3.86l.83,1.108a6.229,6.229,0,0,1,1.142,4.767l-1.987,18.205a1.4,1.4,0,0,0,1.387,1.554H46.622a1.378,1.378,0,0,0,1.041-.474A1.362,1.362,0,0,0,48,103.05L45.646,83.844a1.133,1.133,0,0,1,.18-.827l.7-1.044H50.8a34.41,34.41,0,0,0,2.322,3.489H48.987v2.8h6.458c7.351,8.165,18.018,14.3,21.362,14.3,3.427,0,14.163-6.139,21.439-14.3h6.382v-2.8h-4.084c3.545-4.728,5.342-9.334,5.342-13.7M45.749,66.282l-2.857,4.77a1.424,1.424,0,0,0,.209,1.707l.685.683a3.055,3.055,0,0,1,.311.341l-.005.005.081.1a4.889,4.889,0,0,1,1.039,3v.529a4.859,4.859,0,0,1-.818,2.713L43.5,81.461a3.849,3.849,0,0,0-.615,2.79l2.144,17.566H34.342L36.148,85.25a9.087,9.087,0,0,0-1.675-6.839L33.644,77.3a3.623,3.623,0,0,1-.727-2.179V62.189a1.083,1.083,0,0,1,.078-.423l2.153-5.377V63.7a2.665,2.665,0,0,0,.771,1.875l1.461,1.46a2.69,2.69,0,0,0,3.256.4l1.659-1.006,2.275-1.357a.876.876,0,0,1,1.051.143.85.85,0,0,1,.128,1.068m.181,5.341q-.036-.036-.072-.075l2.3-3.823a3.68,3.68,0,0,0-.552-4.5,3.793,3.793,0,0,0-4.488-.548l-.136.083V42.972H57.793V71.623Zm1.861,7.549a7.519,7.519,0,0,0,.223-1.757v-.53a7.764,7.764,0,0,0-.419-2.461h11.6a1.4,1.4,0,0,0,1.4-1.4V41.572a1.4,1.4,0,0,0-1.4-1.4H41.581a1.4,1.4,0,0,0-1.4,1.4V64.426l-.893.543-1.338-1.327V39.055a1.116,1.116,0,0,1,1.115-1.115H61.71a1.117,1.117,0,0,1,1.116,1.115v39a1.118,1.118,0,0,1-1.116,1.116ZM76.807,99.766c-1.8,0-10.442-4.456-17.521-11.5h7.455a1.378,1.378,0,0,0,1.277-.826L71.592,79.4,76.735,94.86a1.4,1.4,0,0,0,1.326.952h.061a1.413,1.413,0,0,0,1.3-1.064l4.554-18.217,1.507,10.528a1.407,1.407,0,0,0,1.387,1.2h7.482c-6.8,6.773-15.413,11.5-17.547,11.5m20.139-14.3H88.09l-2.348-16.41a1.423,1.423,0,0,0-1.316-1.2A1.4,1.4,0,0,0,83,68.913L77.87,89.41,73.105,75.091a1.4,1.4,0,0,0-1.265-.952h-.034a1.448,1.448,0,0,0-1.306.827l-4.668,10.5H56.693a33.488,33.488,0,0,1-2.622-3.489h7.64a3.939,3.939,0,0,0,3.916-3.917V56.812A14.855,14.855,0,0,1,75.84,60.987a1.4,1.4,0,0,0,1.933,0,14.949,14.949,0,0,1,25.311,10.78c0,4.3-2.065,8.91-6.138,13.7" fill="#00bbb4"></path>
    <path id="Path_2204" data-name="Path 2204" d="M52.367,48.114a5.174,5.174,0,1,0,3.195,4.78,5.159,5.159,0,0,0-3.195-4.78M52.58,53.8a2.374,2.374,0,1,1-3.1-3.1,2.39,2.39,0,0,1,.912-.182A2.376,2.376,0,0,1,52.58,53.8" fill="#00bbb4"></path>
    <path id="Path_2205" data-name="Path 2205" d="M82.475,47.24h0a2.659,2.659,0,1,0,3.759,0,2.65,2.65,0,0,0-3.759,0" fill="#00bbb4"></path>
    <path id="Path_2206" data-name="Path 2206" d="M87.914,45.762l1.98-1.98-.1-.1a7.712,7.712,0,0,0-10.878,0l-.1.1,1.98,1.98.1-.1a4.9,4.9,0,0,1,6.916,0Z" fill="#00bbb4"></path>
    <path id="Path_2207" data-name="Path 2207" d="M91.472,42.205l1.981-1.981-.1-.1a12.737,12.737,0,0,0-17.993,0l-.1.1,1.98,1.981.1-.1a9.922,9.922,0,0,1,14.032,0Z" fill="#00bbb4"></path>
    <path id="Path_2208" data-name="Path 2208" d="M73.78,38.545a14.993,14.993,0,0,1,21.149,0l.1.1,1.981-1.981-.1-.1a17.8,17.8,0,0,0-25.11,0l-.1.1,1.98,1.981Z" fill="#00bbb4"></path>
  </g>
</svg>
