<?xml version="1.0" encoding="UTF-8"?>
<svg xmlns="http://www.w3.org/2000/svg" xmlns:xlink="http://www.w3.org/1999/xlink" id="icn1" width="136" height="136" viewBox="0 0 136 136">
  <defs>
    <clipPath id="clip-path">
      <rect id="Rectangle_4268" data-name="Rectangle 4268" width="136" height="136" fill="none"></rect>
    </clipPath>
  </defs>
  <g id="Group_3730" data-name="Group 3730" clip-path="url(#clip-path)">
    <path id="Path_2234" data-name="Path 2234" d="M68,0A68,68,0,1,1,0,68,68,68,0,0,1,68,0" fill="#fff"></path>
    <path id="Path_2235" data-name="Path 2235" d="M95.233,81.822a5.948,5.948,0,0,0-4.569.392l-.177.092a3.763,3.763,0,0,0-.277-.7,6,6,0,0,0-8.078-2.559l-5.15,2.672c-.907-1.752-2.866-2.7-5.33-2.556L55.773,80.1l-.085,0-14.37,7.994H36.839v18.624h5.19l14.338-6.462,17.45,1.667,11.194-5.808-1.38-2.66-10.41,5.4L55.96,97.208l-.1-.01-14.476,6.523h-1.55V91.09H42.1l14.451-8.038,15.282-.9c.524-.032,2.26-.032,2.617,1.25a1.962,1.962,0,0,1-1.3,2.3L58.157,88.687l.584,2.939,5.873-1.169,9.9,3.51,17.528-9.094a3,3,0,0,1,4.038,1.279.757.757,0,0,1-.32,1.01l-10.8,5.6,1.381,2.661,10.8-5.605a3.752,3.752,0,0,0,1.6-5.048,5.951,5.951,0,0,0-3.509-2.951M70.359,89.314l3.545-.705.111-.034A5.054,5.054,0,0,0,77.4,84.88l6.116-3.173a3,3,0,0,1,4.037,1.279A.749.749,0,0,1,87.23,84L74.29,90.708Z" fill="#00bbb4"></path>
    <path id="Path_2236" data-name="Path 2236" d="M79.608,29.282h-15.6L56.391,36.9V58.116H79.608ZM59.388,55.119V38.141l5.862-5.862H76.611v22.84Z" fill="#00bbb4"></path>
    <rect id="Rectangle_4250" data-name="Rectangle 4250" width="14.23" height="2.997" transform="translate(60.885 40.515)" fill="#00bbb4"></rect>
    <rect id="Rectangle_4251" data-name="Rectangle 4251" width="6.367" height="2.997" transform="translate(68.748 45.008)" fill="#00bbb4"></rect>
    <rect id="Rectangle_4252" data-name="Rectangle 4252" width="6.367" height="2.997" transform="translate(60.885 45.009)" fill="#00bbb4"></rect>
    <rect id="Rectangle_4253" data-name="Rectangle 4253" width="14.23" height="2.997" transform="translate(60.885 49.502)" fill="#00bbb4"></rect>
    <rect id="Rectangle_4254" data-name="Rectangle 4254" width="2.997" height="2.997" transform="translate(67.625 33.775)" fill="#00bbb4"></rect>
    <rect id="Rectangle_4255" data-name="Rectangle 4255" width="2.997" height="2.997" transform="translate(72.118 33.775)" fill="#00bbb4"></rect>
    <path id="Path_2237" data-name="Path 2237" d="M91.118,29.282,83.5,36.9V58.116h23.218V29.282ZM86.5,55.119V38.141l5.863-5.862h11.361v22.84Z" fill="#00bbb4"></path>
    <rect id="Rectangle_4256" data-name="Rectangle 4256" width="6.367" height="2.997" transform="translate(87.994 49.502)" fill="#00bbb4"></rect>
    <rect id="Rectangle_4257" data-name="Rectangle 4257" width="14.231" height="2.997" transform="translate(87.994 40.515)" fill="#00bbb4"></rect>
    <rect id="Rectangle_4258" data-name="Rectangle 4258" width="6.367" height="2.997" transform="translate(95.858 49.502)" fill="#00bbb4"></rect>
    <rect id="Rectangle_4259" data-name="Rectangle 4259" width="14.231" height="2.997" transform="translate(87.994 45.008)" fill="#00bbb4"></rect>
    <rect id="Rectangle_4260" data-name="Rectangle 4260" width="2.997" height="2.997" transform="translate(99.228 33.775)" fill="#00bbb4"></rect>
    <rect id="Rectangle_4261" data-name="Rectangle 4261" width="2.997" height="2.997" transform="translate(94.734 33.775)" fill="#00bbb4"></rect>
    <path id="Path_2238" data-name="Path 2238" d="M52.5,29.282H36.9L29.282,36.9v6.612h3V38.141l5.862-5.862H49.5v22.84H32.278V45.009h-3V58.115H52.5Z" fill="#00bbb4"></path>
    <rect id="Rectangle_4262" data-name="Rectangle 4262" width="14.231" height="2.997" transform="translate(33.775 49.502)" fill="#00bbb4"></rect>
    <rect id="Rectangle_4263" data-name="Rectangle 4263" width="14.231" height="2.997" transform="translate(33.775 45.008)" fill="#00bbb4"></rect>
    <rect id="Rectangle_4264" data-name="Rectangle 4264" width="6.367" height="2.997" transform="translate(33.775 40.515)" fill="#00bbb4"></rect>
    <rect id="Rectangle_4265" data-name="Rectangle 4265" width="6.367" height="2.997" transform="translate(41.639 40.515)" fill="#00bbb4"></rect>
    <rect id="Rectangle_4266" data-name="Rectangle 4266" width="2.997" height="2.997" transform="translate(45.009 33.775)" fill="#00bbb4"></rect>
    <rect id="Rectangle_4267" data-name="Rectangle 4267" width="2.997" height="2.997" transform="translate(40.516 33.775)" fill="#00bbb4"></rect>
    <path id="Path_2239" data-name="Path 2239" d="M96.608,67.252v-7.64h-3v4.643H69.5V59.612h-3v4.643H42.388V59.612h-3v7.64H66.5v4.935l-.885-.885L63.5,73.421l4.5,4.5,4.5-4.5L70.383,71.3l-.885.885V67.252Z" fill="#00bbb4"></path>
  </g>
</svg>
