<?xml version="1.0" encoding="UTF-8"?>
<svg xmlns="http://www.w3.org/2000/svg" xmlns:xlink="http://www.w3.org/1999/xlink" id="icn1" width="136" height="136" viewBox="0 0 136 136">
  <defs>
    <clipPath id="clip-path">
      <rect id="Rectangle_4220" data-name="Rectangle 4220" width="136" height="136" fill="none"></rect>
    </clipPath>
  </defs>
  <g id="Group_3712" data-name="Group 3712" clip-path="url(#clip-path)">
    <path id="Path_2108" data-name="Path 2108" d="M68,0A68,68,0,1,1,0,68,68,68,0,0,1,68,0" fill="#fff"></path>
    <path id="Path_2109" data-name="Path 2109" d="M96.4,69.215l-3.253-.642-2.3-5.547L92.7,60.272a2.824,2.824,0,0,0-.352-3.606L87.075,51.4a2.817,2.817,0,0,0-3.085-.63V44.272h6.252a4.688,4.688,0,1,0,0-2.929H82.526a1.466,1.466,0,0,0-1.465,1.465V64.5a1.466,1.466,0,0,0,.307.9A16.745,16.745,0,0,1,84.9,75.741a16.9,16.9,0,0,1-33.806,0A16.742,16.742,0,0,1,54.633,65.4a1.47,1.47,0,0,0,.307-.9V42.808a1.466,1.466,0,0,0-1.465-1.465H45.758a4.688,4.688,0,1,0,0,2.929H52.01v6.493a2.818,2.818,0,0,0-3.085.63l-5.271,5.272a2.822,2.822,0,0,0-.352,3.6l1.847,2.754-2.3,5.548-3.253.642a2.823,2.823,0,0,0-2.3,2.8v7.455a2.823,2.823,0,0,0,2.3,2.8l3.254.642,2.3,5.547L43.3,91.21a2.824,2.824,0,0,0,.352,3.606l5.271,5.272a2.825,2.825,0,0,0,3.606.351l2.755-1.847,5.547,2.3.641,3.253a2.824,2.824,0,0,0,2.8,2.3h7.455a2.824,2.824,0,0,0,2.8-2.3l.642-3.254,5.547-2.3,2.754,1.847a2.823,2.823,0,0,0,3.606-.351l5.271-5.272A2.824,2.824,0,0,0,92.7,91.21l-1.847-2.754,2.3-5.547,3.253-.642a2.824,2.824,0,0,0,2.3-2.8V72.013a2.824,2.824,0,0,0-2.3-2.8m-5.66,11.848-2.9,7a1.465,1.465,0,0,0,.136,1.377l2.249,3.353-5.182,5.182L81.7,95.722a1.464,1.464,0,0,0-1.378-.137l-7,2.9a1.461,1.461,0,0,0-.876,1.07l-.781,3.961H64.336l-.78-3.961a1.463,1.463,0,0,0-.876-1.07l-7-2.9a1.466,1.466,0,0,0-1.376.137l-3.354,2.249-5.181-5.182,2.248-3.353a1.462,1.462,0,0,0,.138-1.377l-2.9-7a1.458,1.458,0,0,0-1.07-.877L40.227,79.4V72.077l3.961-.78a1.459,1.459,0,0,0,1.069-.877l2.9-7a1.464,1.464,0,0,0-.138-1.376L45.77,58.693l5.183-5.182,1.057.71v9.787a19.833,19.833,0,1,0,31.981,0V54.221l1.057-.71,5.182,5.182-2.249,3.354a1.462,1.462,0,0,0-.136,1.376l2.9,7a1.462,1.462,0,0,0,1.07.877l3.961.781V79.4l-3.96.78a1.461,1.461,0,0,0-1.071.878M94.7,41.049a1.759,1.759,0,1,1-1.759,1.759A1.761,1.761,0,0,1,94.7,41.049M41.305,44.566a1.759,1.759,0,1,1,1.758-1.758,1.76,1.76,0,0,1-1.758,1.758" fill="#00bbb4"></path>
    <path id="Path_2110" data-name="Path 2110" d="M63.592,40.56a1.465,1.465,0,0,0,.153,2.065l2.791,2.408V57.374a1.465,1.465,0,0,0,2.93,0V44.363a1.465,1.465,0,0,0-.508-1.11l-3.3-2.845a1.465,1.465,0,0,0-2.066.152" fill="#00bbb4"></path>
    <path id="Path_2111" data-name="Path 2111" d="M59.782,60.131V48.8a1.465,1.465,0,0,0-2.93,0v11.33a1.465,1.465,0,0,0,2.93,0" fill="#00bbb4"></path>
    <path id="Path_2112" data-name="Path 2112" d="M58.394,38.267V43.45a1.461,1.461,0,0,0,.508,1.108l2.791,2.408V70.572H57.909a2.085,2.085,0,0,0-1.916,1.213,2.184,2.184,0,0,0-.2.9,2.121,2.121,0,0,0,.5,1.371L66.3,85.875a2.23,2.23,0,0,0,3.4,0L79.708,74.061a2.139,2.139,0,0,0,.3-2.276,2.085,2.085,0,0,0-1.916-1.213H74.307V46.966L77.1,44.558a1.468,1.468,0,0,0,.507-1.108V38.267a4.478,4.478,0,1,0-2.93,0v4.51l-2.79,2.41a1.459,1.459,0,0,0-.508,1.108V72.037A1.466,1.466,0,0,0,72.842,73.5h3.5L68,83.351,59.659,73.5h3.5a1.466,1.466,0,0,0,1.465-1.465V46.295a1.459,1.459,0,0,0-.508-1.108l-2.791-2.41v-4.51a4.479,4.479,0,1,0-2.93,0m1.465-2.685a1.549,1.549,0,1,1,1.548-1.547,1.55,1.55,0,0,1-1.548,1.547m14.733-1.547a1.55,1.55,0,1,1,1.549,1.547,1.552,1.552,0,0,1-1.549-1.547" fill="#00bbb4"></path>
    <path id="Path_2113" data-name="Path 2113" d="M76.219,48.8v11.33a1.465,1.465,0,0,0,2.93,0V48.8a1.465,1.465,0,1,0-2.93,0" fill="#00bbb4"></path>
  </g>
</svg>
