<?xml version="1.0" encoding="UTF-8"?>
<svg xmlns="http://www.w3.org/2000/svg" xmlns:xlink="http://www.w3.org/1999/xlink" id="icn1" width="136" height="136" viewBox="0 0 136 136">
  <defs>
    <clipPath id="clip-path">
      <rect id="Rectangle_4130" data-name="Rectangle 4130" width="136" height="136" fill="none"></rect>
    </clipPath>
  </defs>
  <g id="Group_3587" data-name="Group 3587" clip-path="url(#clip-path)">
    <path id="Path_1739" data-name="Path 1739" d="M136,68A68,68,0,1,1,68,0a68,68,0,0,1,68,68" fill="#fff"></path>
    <path id="Path_1740" data-name="Path 1740" d="M106.151,99.014,98.736,86.657V46.575l5.7-5.7a6.583,6.583,0,1,0-9.309-9.311l-6.565,6.565V32.4A2.769,2.769,0,0,0,85.8,29.636H50.2A2.769,2.769,0,0,0,47.435,32.4v8.676H41.3a4.043,4.043,0,0,0-4.038,4.038V86.657L29.849,99.014a1.5,1.5,0,0,0-.213.77V103.6a2.769,2.769,0,0,0,2.766,2.766h71.2a2.769,2.769,0,0,0,2.766-2.766V99.784a1.5,1.5,0,0,0-.213-.77M57.419,91.933h-.01a2.736,2.736,0,0,0-2.559,1.74L53,98.29H33.77L39.6,88.565H96.4l5.834,9.725H83l-1.85-4.618a2.737,2.737,0,0,0-2.558-1.739H57.419Zm.151,2.989H78.43l1.349,3.368H56.223ZM92.9,38.014l1.483-1.483,5.082,5.082L97.986,43.1Zm3.6-3.6.742-.741a3.6,3.6,0,0,1,2.533-1.05h.014a3.591,3.591,0,0,1,2.535,6.134l-.741.742Zm-5.84,20.232V80.491h-2.1V56.744ZM47.435,80.491h-2.1V49.153h2.1Zm0-34.328H45.116a2.77,2.77,0,0,0-2.767,2.766V80.714a2.77,2.77,0,0,0,2.767,2.766H90.884a2.77,2.77,0,0,0,2.767-2.766V51.66l2.1-2.1V85.576H40.253V45.116A1.049,1.049,0,0,1,41.3,44.067h6.133Zm30.812,6.508L90.791,40.127l5.082,5.082L83.329,57.753Zm2.561,6.984-6.133,1.663,1.676-6.123c.016-.049.033-.1.052-.146L80.956,59.6c-.05.02-.1.037-.148.053m4.768-18.541L75.068,51.623a6.37,6.37,0,0,0-1.608,2.788l-1.765,6.483a2.765,2.765,0,0,0,2.662,3.515,2.7,2.7,0,0,0,.732-.1l6.49-1.766a6.388,6.388,0,0,0,2.808-1.62l1.189-1.189V80.491H50.424V32.625H85.576Zm17.8,62.261H32.625v-2.1h70.75Z" fill="#00bbb4"></path>
    <path id="Path_1741" data-name="Path 1741" d="M55.286,38.982H80.713a1.494,1.494,0,0,0,0-2.989H55.286a1.494,1.494,0,0,0,0,2.989" fill="#00bbb4"></path>
    <path id="Path_1742" data-name="Path 1742" d="M55.286,46.61h19.07a1.495,1.495,0,1,0,0-2.989H55.286a1.495,1.495,0,0,0,0,2.989" fill="#00bbb4"></path>
    <path id="Path_1743" data-name="Path 1743" d="M55.286,54.239H69.271a1.494,1.494,0,1,0,0-2.989H55.286a1.494,1.494,0,0,0,0,2.989" fill="#00bbb4"></path>
    <path id="Path_1744" data-name="Path 1744" d="M55.286,61.866H68a1.495,1.495,0,0,0,0-2.989H55.286a1.495,1.495,0,0,0,0,2.989" fill="#00bbb4"></path>
    <path id="Path_1745" data-name="Path 1745" d="M55.286,69.494H80.713a1.494,1.494,0,0,0,0-2.988H55.286a1.494,1.494,0,0,0,0,2.988" fill="#00bbb4"></path>
    <path id="Path_1746" data-name="Path 1746" d="M55.286,77.123H80.713a1.494,1.494,0,0,0,0-2.989H55.286a1.494,1.494,0,0,0,0,2.989" fill="#00bbb4"></path>
  </g>
</svg>
