<?xml version="1.0" encoding="UTF-8"?>
<svg xmlns="http://www.w3.org/2000/svg" xmlns:xlink="http://www.w3.org/1999/xlink" id="icn1" width="136" height="136" viewBox="0 0 136 136">
  <defs>
    <clipPath id="clip-path">
      <rect id="Rectangle_4277" data-name="Rectangle 4277" width="136" height="136" fill="none"></rect>
    </clipPath>
  </defs>
  <g id="Group_3740" data-name="Group 3740" clip-path="url(#clip-path)">
    <path id="Path_2281" data-name="Path 2281" d="M68,0A68,68,0,1,1,0,68,68,68,0,0,1,68,0" fill="#fff"></path>
    <path id="Path_2282" data-name="Path 2282" d="M102.318,75.292a1.51,1.51,0,0,0-1.756,2.457,14.173,14.173,0,0,1,3.006,20.185,18.365,18.365,0,0,0-5.53-6.119,7.154,7.154,0,1,0-11.422,0,18.365,18.365,0,0,0-5.53,6.119,14.184,14.184,0,0,1,15.64-22.123,1.51,1.51,0,0,0,.936-2.872,17.208,17.208,0,0,0-18.907,5.8l-9.229-5.956V63.839A17.2,17.2,0,1,0,58.235,32.55a1.51,1.51,0,0,0,1.718,2.484,14.178,14.178,0,0,1,19.3,20.306,18.365,18.365,0,0,0-5.53-6.119,7.153,7.153,0,1,0-11.422,0,18.335,18.335,0,0,0-5.53,6.119A14.194,14.194,0,0,1,53.834,46.7a14.051,14.051,0,0,1,2.939-8.646,1.509,1.509,0,1,0-2.392-1.841A17.034,17.034,0,0,0,50.815,46.7,17.257,17.257,0,0,0,66.506,63.839v8.944l-9.267,5.98a17.2,17.2,0,1,0-26.922,21.408,17.255,17.255,0,0,0,9.626,5.954,1.51,1.51,0,0,0,.652-2.948,14.2,14.2,0,0,1-5.937-2.9,15.283,15.283,0,0,1,6.463-6.848,1.519,1.519,0,0,0,.171-2.556,4.133,4.133,0,1,1,4.834,0,1.517,1.517,0,0,0,.155,2.556,15.29,15.29,0,0,1,6.454,6.817,14.051,14.051,0,0,1-7.759,3.216,1.51,1.51,0,0,0,.134,3.014,1.316,1.316,0,0,0,.139-.006A17.2,17.2,0,0,0,58.881,81.3l9.135-5.9,9.1,5.873a17.2,17.2,0,1,0,25.205-5.983M90.53,92.188a1.46,1.46,0,0,0-.616-1.32,4.134,4.134,0,1,1,4.833,0,1.517,1.517,0,0,0,.155,2.556,15.281,15.281,0,0,1,6.45,6.808,14.152,14.152,0,0,1-18.052,0,15.277,15.277,0,0,1,6.444-6.8,1.465,1.465,0,0,0,.786-1.236M57.855,89.329a14.205,14.205,0,0,1-2.91,8.6,18.363,18.363,0,0,0-5.528-6.117,7.154,7.154,0,1,0-11.423,0,18.379,18.379,0,0,0-5.558,6.169,14.183,14.183,0,1,1,25.419-8.655m8.364-39.737a1.459,1.459,0,0,0-.616-1.319,4.134,4.134,0,1,1,4.834,0,1.517,1.517,0,0,0,.155,2.556,15.305,15.305,0,0,1,6.45,6.807,14.152,14.152,0,0,1-18.052,0,15.305,15.305,0,0,1,6.447-6.806,1.461,1.461,0,0,0,.782-1.234" fill="#00bbb4"></path>
  </g>
</svg>
