<?xml version="1.0" encoding="UTF-8"?>
<svg xmlns="http://www.w3.org/2000/svg" xmlns:xlink="http://www.w3.org/1999/xlink" id="icn1" width="136" height="136" viewBox="0 0 136 136">
  <defs>
    <clipPath id="clip-path">
      <rect id="Rectangle_4248" data-name="Rectangle 4248" width="136" height="136" fill="none"></rect>
    </clipPath>
  </defs>
  <g id="Group_3728" data-name="Group 3728" clip-path="url(#clip-path)">
    <path id="Path_2218" data-name="Path 2218" d="M68,0A68,68,0,1,1,0,68,68,68,0,0,1,68,0" fill="#fff"></path>
    <path id="Path_2219" data-name="Path 2219" d="M98.42,39.5H98.4l-3.072-.243v-2.6a6.18,6.18,0,0,0-6.246-6.246H52.509a6.168,6.168,0,0,0-5.981,4.41,12.532,12.532,0,0,0-4.961,24.555,12.633,12.633,0,0,0,2.907.341,12.477,12.477,0,0,0,1.674-.114V90.471a6.174,6.174,0,0,0,3.831,5.779,6.3,6.3,0,0,0,1.406,3.7,6.127,6.127,0,0,0,4.251,2.239l36.583,3.378q.292.025.582.025a6.314,6.314,0,0,0,4.012-1.413,6.125,6.125,0,0,0,2.239-4.249l5.009-53.583v-.009A6.292,6.292,0,0,0,98.42,39.5M42.243,56.514a9.594,9.594,0,1,1,4.414-18.673h0c.117.028.233.06.349.092a1.443,1.443,0,0,0,.607.187,9.594,9.594,0,0,1,1.878,17.22,9.731,9.731,0,0,1-1.995.936,1.455,1.455,0,0,0-.6.182,9.543,9.543,0,0,1-4.655.056m6.845,33.957V58.825a12.537,12.537,0,0,0,.268-23.182,3.265,3.265,0,0,1,3.153-2.293H89.085a3.271,3.271,0,0,1,3.306,3.306V90.471a3.271,3.271,0,0,1-3.306,3.306H52.393a3.27,3.27,0,0,1-3.305-3.306m52.045-44.4L96.124,99.662a3.213,3.213,0,0,1-1.169,2.235,3.415,3.415,0,0,1-2.473.739L55.9,99.257a3.21,3.21,0,0,1-2.235-1.168,3.32,3.32,0,0,1-.636-1.256H89.085a6.253,6.253,0,0,0,6.246-6.246V42.207l2.831.224a3.345,3.345,0,0,1,2.971,3.645" fill="#00bbb4"></path>
    <path id="Path_2220" data-name="Path 2220" d="M39.892,61.965l-.051-.018a8.691,8.691,0,0,0-2.926-.522h-.029a8.691,8.691,0,0,0-2.926.522l-.051.018a3.316,3.316,0,0,0-1.973,3v2.679a1.464,1.464,0,0,0,.116.574V96.188a1.423,1.423,0,0,0-.1.38,1.461,1.461,0,0,0,.023.518,1.446,1.446,0,0,0,.12.336l3.482,7.31a1.469,1.469,0,0,0,1.327.837h.009a1.467,1.467,0,0,0,1.326-.854L41.4,97.83a1.466,1.466,0,0,0,.46-1.068v-31.8a3.152,3.152,0,0,0-.262-1.25,3.232,3.232,0,0,0-1.711-1.743m-3.014,38.669-1.144-2.4h2.25Zm2.047-5.342H34.992V69.111h3.933Zm0-29.121H34.992V64.962a.465.465,0,0,1,.057-.241l.05-.019a4.956,4.956,0,0,1,3.6,0l.063.024a.289.289,0,0,1,.16.236Z" fill="#00bbb4"></path>
    <path id="Path_2221" data-name="Path 2221" d="M53.441,68.761H69.05A1.47,1.47,0,0,0,70.4,66.716V65.427a4.322,4.322,0,0,0-4.265-4.265h-9.9a4.323,4.323,0,0,0-4.266,4.265v1.864a1.47,1.47,0,0,0,1.47,1.47m1.47-3.334A1.36,1.36,0,0,1,56.237,64.1h9.9a1.359,1.359,0,0,1,1.325,1.325v.394H54.911Z" fill="#00bbb4"></path>
    <path id="Path_2222" data-name="Path 2222" d="M67.186,74.091a1.47,1.47,0,0,0,0,2.94H88.037a1.47,1.47,0,1,0,0-2.94Z" fill="#00bbb4"></path>
    <path id="Path_2223" data-name="Path 2223" d="M66.146,58.547a3.3,3.3,0,0,0,4.642,0l.233-.234a3.282,3.282,0,0,0,.761-3.439l.609-.609L82.41,65.023a4.1,4.1,0,0,0,2.951,1.363l.108,0a4.136,4.136,0,0,0,2.908-1.2h0a4.114,4.114,0,0,0-.162-5.967L77.457,49.2l.726-.727a3.318,3.318,0,0,0,1.117.2,3.26,3.26,0,0,0,2.321-.954l.233-.234a3.286,3.286,0,0,0,0-4.641L75.8,36.781a3.3,3.3,0,0,0-4.642,0l-.233.233a3.259,3.259,0,0,0-.955,2.321,3.323,3.323,0,0,0,.159,1.013l-6.469,6.469a3.282,3.282,0,0,0-3.334.8l-.234.232a3.291,3.291,0,0,0,0,4.643Zm9.736-11.931L74.3,48.193l0,0-2.913,2.912-.013.015-1.451,1.452-3.933-3.934,5.958-5.957ZM86.219,61.378l.019.018a1.182,1.182,0,0,1,.4.851,1.166,1.166,0,0,1-1.2,1.2,1.18,1.18,0,0,1-.852-.4l-.018-.02-10.1-10.842.9-.906ZM73,39.093l.233-.233a.359.359,0,0,1,.484,0l6.057,6.057a.361.361,0,0,1,0,.484l-.233.233a.348.348,0,0,1-.242.1.3.3,0,0,1-.061-.007,1.5,1.5,0,0,0-.174-.211L73.053,39.5a1.375,1.375,0,0,0-.142-.123.349.349,0,0,1,.09-.283M62.168,49.926l.233-.233a.342.342,0,0,1,.242-.094c.018,0,.042,0,.068.007a1.439,1.439,0,0,0,.111.125l6.011,6.012a1.51,1.51,0,0,0,.19.159.355.355,0,0,1-.081.332l-.233.233a.356.356,0,0,1-.484,0L62.169,50.41a.36.36,0,0,1,0-.484" fill="#00bbb4"></path>
    <path id="Path_2224" data-name="Path 2224" d="M60.565,81.151,55.516,86.1l-.951-.9a1.47,1.47,0,1,0-2.015,2.141l1.98,1.864a1.469,1.469,0,0,0,2.037-.021l6.057-5.941a1.47,1.47,0,1,0-2.059-2.1" fill="#00bbb4"></path>
    <path id="Path_2225" data-name="Path 2225" d="M88.036,83.759H67.186a1.47,1.47,0,1,0,0,2.94h20.85a1.47,1.47,0,1,0,0-2.94" fill="#00bbb4"></path>
    <path id="Path_2226" data-name="Path 2226" d="M60.555,72.309l-5.017,5.018-.941-.94a1.47,1.47,0,0,0-2.079,2.078l1.98,1.981a1.471,1.471,0,0,0,2.079,0l6.057-6.058a1.47,1.47,0,0,0-2.079-2.079" fill="#00bbb4"></path>
    <path id="Path_2227" data-name="Path 2227" d="M50.984,46.782a3.447,3.447,0,1,0-4.873-4.875l-3.972,3.971a3.366,3.366,0,0,0-4.764.106,3.442,3.442,0,0,0,0,4.759l2.33,2.329a3.623,3.623,0,0,0,2.436,1.013,3.137,3.137,0,0,0,2.493-1.068Zm-8.475,4.2a1.609,1.609,0,0,0-.118.13.808.808,0,0,1-.249.031.734.734,0,0,1-.359-.152l-2.329-2.329a.53.53,0,0,1,0-.6.446.446,0,0,1,.717,0l.931.931a1.47,1.47,0,0,0,2.079,0l5.009-5.009a.541.541,0,0,1,.9.358.536.536,0,0,1-.17.349Z" fill="#00bbb4"></path>
  </g>
</svg>
