<?xml version="1.0" encoding="UTF-8"?>
<svg xmlns="http://www.w3.org/2000/svg" xmlns:xlink="http://www.w3.org/1999/xlink" width="182" height="182" viewBox="0 0 182 182">
  <defs>
    <clipPath id="clip-path">
      <rect id="Rectangle_57" data-name="Rectangle 57" width="76.053" height="90.69" fill="#fff"></rect>
    </clipPath>
  </defs>
  <g id="icn1" transform="translate(-82.453 -61.5)">
    <path id="Path_968" data-name="Path 968" d="M91,0A91,91,0,1,1,0,91,91,91,0,0,1,91,0Z" transform="translate(82.453 61.5)" fill="#773dbd"></path>
    <g id="Group_45" data-name="Group 45" transform="translate(131.427 106.155)">
      <g id="Group_44" data-name="Group 44" transform="translate(4)" clip-path="url(#clip-path)">
        <path id="Path_131" data-name="Path 131" d="M16.071,90.69a1.436,1.436,0,0,1-.455-.074A28.641,28.641,0,0,1,.207,78.288,1.434,1.434,0,0,1,.675,76.33C24.9,61.19,54.157,30.935,54.157,16.071a8.985,8.985,0,0,0-.234-1.985l-.067-.263c-.008-.031-.015-.062-.02-.093a14.048,14.048,0,0,0-3.649-6.159,16.625,16.625,0,0,0-12.159-4.7,16.625,16.625,0,0,0-12.159,4.7,12.812,12.812,0,0,0-3.971,8.5c0,5.781,4.562,14.487,12.845,24.512A1.434,1.434,0,1,1,32.53,42.41c-6.159-7.455-13.5-18.077-13.5-26.339,0-6.738,6.6-16.071,19-16.071C48.815,0,55.215,7.069,56.694,13.344l3.027,11.883a6.989,6.989,0,0,1,.205,2.09c-.547,10.47-9.5,24.519-14.793,31.961A178.22,178.22,0,0,1,17,90.351a1.433,1.433,0,0,1-.926.339m-12.65-12.7a25.779,25.779,0,0,0,12.348,9.643A176.279,176.279,0,0,0,42.8,57.616C51.617,45.2,56.684,34.389,57.061,27.166a4.121,4.121,0,0,0-.12-1.233l-.978-3.841a44.083,44.083,0,0,1-4.312,9.06,110.631,110.631,0,0,1-13.3,17.176A189.319,189.319,0,0,1,3.421,77.986" transform="translate(0)" fill="#fff"></path>
        <path id="Path_132" data-name="Path 132" d="M247.612,357.043a1.435,1.435,0,0,1-.937-.348,164.288,164.288,0,0,1-17.719-17.814,1.434,1.434,0,1,1,2.183-1.861,161.437,161.437,0,0,0,16.783,16.959,25.778,25.778,0,0,0,12.348-9.651,177.041,177.041,0,0,1-22.4-17.3,1.434,1.434,0,1,1,1.93-2.122,174.155,174.155,0,0,0,23.227,17.786,1.434,1.434,0,0,1,.454,1.95,28.64,28.64,0,0,1-15.409,12.327,1.434,1.434,0,0,1-.455.074" transform="translate(-187.63 -266.354)" fill="#fff"></path>
        <path id="Path_133" data-name="Path 133" d="M100.144,106.27a1.433,1.433,0,0,1-1.229-.693,86.245,86.245,0,0,1-6.289-12.333,34.936,34.936,0,0,1-2.708-10.828,6.993,6.993,0,0,1,.2-2.087L93.209,68.21a1.434,1.434,0,1,1,2.779.708L92.9,81.034a4.12,4.12,0,0,0-.12,1.23c.285,5.448,3.255,13,8.588,21.83a1.434,1.434,0,0,1-1.226,2.176" transform="translate(-73.791 -55.095)" fill="#fff"></path>
        <path id="Path_134" data-name="Path 134" d="M143.559,79.7a1.434,1.434,0,0,1-.824-2.609,21.442,21.442,0,0,1,23.871-.008,1.434,1.434,0,0,1-1.643,2.351A17.166,17.166,0,0,0,154.7,76.33h-.061a17.151,17.151,0,0,0-10.261,3.115,1.429,1.429,0,0,1-.821.259" transform="translate(-116.645 -60.288)" fill="#fff"></path>
      </g>
    </g>
  </g>
</svg>
