<?xml version="1.0" encoding="UTF-8"?>
<svg xmlns="http://www.w3.org/2000/svg" xmlns:xlink="http://www.w3.org/1999/xlink" id="icn1" width="136" height="136" viewBox="0 0 136 136">
  <defs>
    <clipPath id="clip-path">
      <rect id="Rectangle_4192" data-name="Rectangle 4192" width="136" height="136" fill="none"></rect>
    </clipPath>
  </defs>
  <g id="Group_3687" data-name="Group 3687" clip-path="url(#clip-path)">
    <path id="Path_1958" data-name="Path 1958" d="M68,0A68,68,0,1,1,0,68,68,68,0,0,1,68,0" fill="#fff"></path>
    <path id="Path_1959" data-name="Path 1959" d="M95.617,74.671,90.172,72.78a8.147,8.147,0,0,0,.7-3.9c-.225-2.7-1.948-5.255-5.582-8.277V43.877c0-10.722-4.08-14.78-7.5-16.3-5.9-2.612-13.71.455-18.6,4.464a3.937,3.937,0,0,0-1.749-.416,4.182,4.182,0,0,0-3.11,1.415c-2.992,3.154-4.245,12.22-3.827,27.71-3.431,2.866-5,7.107-4.43,12L40.4,74.666a3.812,3.812,0,0,0-2.457,3.7V99.515a3.7,3.7,0,0,0,3.5,3.87H94.563a3.7,3.7,0,0,0,3.5-3.87V78.361a3.83,3.83,0,0,0-2.445-3.69m-44.969-9.72c.055,1.308.12,2.687.2,4.183.045.845.082,1.552.1,1.973l-2,.675a10.763,10.763,0,0,1,1.7-6.831M48.124,85.89l3.385,4.864a1.487,1.487,0,0,0,.947.608,1.471,1.471,0,0,0,1.1-.242l1.141-.794a1.471,1.471,0,0,0-1.613-2.46L50.54,84.209a2.183,2.183,0,0,1,3.584-2.494l2.544,3.655a1.472,1.472,0,0,0,1.686,2.413l1.2-.839a1.472,1.472,0,0,0,.367-2.049L56.54,80.033a5.131,5.131,0,0,0-5.718-1.967,15.583,15.583,0,0,1-1.369-3.348L57.505,72l8.517,28.441H41.437c-.257,0-.555-.4-.555-.926V78.362a.933.933,0,0,1,.455-.906l5.32-1.795a18.54,18.54,0,0,0,1.71,4.053,5.155,5.155,0,0,0-.243,6.176M68,61.544l-.01-.447a11.33,11.33,0,0,1-6.171-1.774c-4.072-2.632-4.327-6.36-4.143-11.318a14.223,14.223,0,0,0,9.16-6.957,17.054,17.054,0,0,0,10.959,3.744h.17a37.727,37.727,0,0,1,.253,8.771C77.48,58.276,72.443,61.094,68,61.1Zm-5.233,1.539a14.432,14.432,0,0,0,10.981-.263,13.9,13.9,0,0,0,2.234,7.31l-2.416,8.064a11.006,11.006,0,0,0-11.055.259L60.19,70.7a14.476,14.476,0,0,0,2.577-7.618m19.577,6.978-3.772-1.31c-1.714-2.813-2.257-5.373-1.658-7.82a10.9,10.9,0,0,0,4.213-6.914,37.7,37.7,0,0,0-.56-11.146,1.466,1.466,0,0,0-1.528-1.07c-3.7.279-8.7-.722-11.654-4.371a1.473,1.473,0,0,0-2.582.61c-.775,3.53-4.247,6.414-8.844,7.348a1.468,1.468,0,0,0-1.178,1.379c-.227,5.319-.462,10.817,4.906,14.649a10.308,10.308,0,0,1-1.745,7.329l-4.1,1.383c-.017-.33-.037-.712-.06-1.149-.706-13.438-.814-30.228,2.679-33.91h0a1.31,1.31,0,0,1,.974-.5,1.464,1.464,0,0,1,.908.427,1.474,1.474,0,0,0,1.95-.025c5.731-5.2,12.673-6.3,16.294-4.7,3.763,1.668,5.752,6.373,5.752,13.606ZM72.693,81.109,68,96.782,63.4,81.416a8.006,8.006,0,0,1,9.3-.307m11.089.082a1.675,1.675,0,1,1-1.675-1.676,1.677,1.677,0,0,1,1.675,1.676m-5.244-9.335,7.287,2.53c-.538.741-1.193,1.556-2.019,2.514a4.526,4.526,0,0,0-1.7-.329,4.619,4.619,0,1,0,4.619,4.619,4.568,4.568,0,0,0-.672-2.39,36.915,36.915,0,0,0,2.663-3.409l5.934,2.061a.928.928,0,0,1,.466.91V99.515c0,.522-.3.926-.554.926H69.977Zm6.75-.772V64.569c1.684,1.691,2.531,3.154,2.648,4.555a5.446,5.446,0,0,1-.563,2.684Z" fill="#00bbb4"></path>
  </g>
</svg>
