<?xml version="1.0" encoding="UTF-8"?>
<svg xmlns="http://www.w3.org/2000/svg" xmlns:xlink="http://www.w3.org/1999/xlink" id="icn1" width="136" height="136" viewBox="0 0 136 136">
  <defs>
    <clipPath id="clip-path">
      <rect id="Rectangle_4224" data-name="Rectangle 4224" width="136" height="136" fill="none"></rect>
    </clipPath>
  </defs>
  <g id="Group_3716" data-name="Group 3716" clip-path="url(#clip-path)">
    <path id="Path_2134" data-name="Path 2134" d="M68,0A68,68,0,1,1,0,68,68,68,0,0,1,68,0" fill="#fff"></path>
    <path id="Path_2135" data-name="Path 2135" d="M68,37.077a1.484,1.484,0,0,0,1.483-1.483V31.243a1.483,1.483,0,1,0-2.966,0v4.351A1.484,1.484,0,0,0,68,37.077" fill="#00bbb4"></path>
    <path id="Path_2136" data-name="Path 2136" d="M74.917,43.309a1.477,1.477,0,0,0,.992-.381l4.85-4.366a1.484,1.484,0,0,0-1.986-2.205l-4.849,4.366a1.483,1.483,0,0,0,.993,2.586" fill="#00bbb4"></path>
    <path id="Path_2137" data-name="Path 2137" d="M83.026,49.94l4.744,3.813-1.6,5.874a1.981,1.981,0,0,0,3,2.177l5.093-3.334L99.356,61.8a1.981,1.981,0,0,0,3-2.177l-1.6-5.874L105.5,49.94a1.981,1.981,0,0,0-1.145-3.523l-6.079-.3L96.115,40.43a1.981,1.981,0,0,0-3.7,0L90.25,46.121l-6.079.3a1.981,1.981,0,0,0-1.145,3.523m15.368,1.905a1.981,1.981,0,0,0-.671,2.064L98.809,57.9l-3.462-2.266a1.981,1.981,0,0,0-2.17,0L89.717,57.9,90.8,53.909a1.98,1.98,0,0,0-.671-2.064l-3.224-2.591,4.132-.2a1.983,1.983,0,0,0,1.756-1.277l1.468-3.866,1.468,3.866a1.982,1.982,0,0,0,1.756,1.277l4.131.2Z" fill="#00bbb4"></path>
    <path id="Path_2138" data-name="Path 2138" d="M106.041,92.95a13.9,13.9,0,0,0-4.918-6.962,13.732,13.732,0,0,0-3.115-1.755,7.707,7.707,0,1,0-10.3-.006,13.675,13.675,0,0,0-5.339,3.847A18.092,18.092,0,0,0,80.027,85.5a17.771,17.771,0,0,0-6.135-3.636,9.8,9.8,0,1,0-11.783,0A17.775,17.775,0,0,0,55.973,85.5a18.138,18.138,0,0,0-2.345,2.576,13.679,13.679,0,0,0-5.34-3.846,7.707,7.707,0,1,0-10.3.006,13.723,13.723,0,0,0-3.115,1.754,13.909,13.909,0,0,0-4.918,6.962,4.3,4.3,0,0,0,4.1,5.569H50.158v1.842a5.887,5.887,0,0,0,5.881,5.881H79.962a5.889,5.889,0,0,0,5.881-5.881V98.519h16.093a4.3,4.3,0,0,0,4.105-5.569m-3.034,2.061a1.254,1.254,0,0,1-1.071.541H85.641a17.866,17.866,0,0,0-1.6-4.788,10.667,10.667,0,0,1,8.826-4.556,10.775,10.775,0,0,1,10.344,7.62,1.251,1.251,0,0,1-.2,1.183M88.122,78.5a4.741,4.741,0,1,1,4.741,4.741A4.746,4.746,0,0,1,88.122,78.5M68,83.834A14.946,14.946,0,0,1,82.876,97.115v3.245a2.918,2.918,0,0,1-2.914,2.914H56.039a2.917,2.917,0,0,1-2.914-2.914V97.115A14.945,14.945,0,0,1,68,83.834m-6.84-9.8A6.836,6.836,0,1,1,68,80.868a6.843,6.843,0,0,1-6.833-6.836M38.4,78.5a4.74,4.74,0,1,1,4.741,4.74A4.747,4.747,0,0,1,38.4,78.5M51.964,90.763a17.8,17.8,0,0,0-1.6,4.788h-16.3a1.33,1.33,0,0,1-1.271-1.724,10.776,10.776,0,0,1,10.345-7.619,10.666,10.666,0,0,1,8.826,4.555" fill="#00bbb4"></path>
    <path id="Path_2139" data-name="Path 2139" d="M30.5,49.94l4.744,3.813-1.6,5.874a1.979,1.979,0,0,0,3,2.177l5.092-3.334L46.83,61.8a1.981,1.981,0,0,0,3-2.177l-1.6-5.874,4.744-3.813a1.981,1.981,0,0,0-1.145-3.523l-6.079-.3L43.589,40.43a1.981,1.981,0,0,0-3.7,0l-2.161,5.691-6.079.3A1.981,1.981,0,0,0,30.5,49.94m15.368,1.905a1.981,1.981,0,0,0-.671,2.064L46.283,57.9l-3.462-2.266a1.981,1.981,0,0,0-2.17,0L37.191,57.9l1.085-3.991a1.982,1.982,0,0,0-.67-2.064l-3.224-2.591,4.131-.2a1.982,1.982,0,0,0,1.756-1.277l1.468-3.866,1.468,3.867a1.982,1.982,0,0,0,1.756,1.276l4.131.2Z" fill="#00bbb4"></path>
    <path id="Path_2140" data-name="Path 2140" d="M55.242,38.562l4.849,4.366a1.483,1.483,0,1,0,1.985-2.205l-4.848-4.366a1.484,1.484,0,0,0-1.986,2.205" fill="#00bbb4"></path>
    <path id="Path_2141" data-name="Path 2141" d="M56.12,47.783h0a1.969,1.969,0,0,0,.643,2.157l4.744,3.813-1.6,5.874a1.978,1.978,0,0,0,3,2.177L68,58.47,73.093,61.8a1.978,1.978,0,0,0,1.086.326,1.986,1.986,0,0,0,1.911-2.5l-1.6-5.874,4.744-3.813a1.981,1.981,0,0,0-1.145-3.523l-6.079-.3-2.161-5.69a1.98,1.98,0,0,0-3.7,0l-2.16,5.69-6.079.3a1.966,1.966,0,0,0-1.789,1.366m16.011,4.062a1.979,1.979,0,0,0-.67,2.064L72.546,57.9l-3.462-2.266a1.981,1.981,0,0,0-2.17,0L63.454,57.9l1.085-3.991a1.979,1.979,0,0,0-.671-2.064l-3.224-2.591,4.132-.2a1.977,1.977,0,0,0,1.755-1.275L68,43.91l1.469,3.867a1.976,1.976,0,0,0,1.755,1.275l4.131.2Z" fill="#00bbb4"></path>
  </g>
</svg>
