<?xml version="1.0" encoding="UTF-8"?>
<svg xmlns="http://www.w3.org/2000/svg" xmlns:xlink="http://www.w3.org/1999/xlink" id="icn1" width="136" height="136" viewBox="0 0 136 136">
  <defs>
    <clipPath id="clip-path">
      <rect id="Rectangle_4167" data-name="Rectangle 4167" width="136" height="136" fill="none"></rect>
    </clipPath>
  </defs>
  <g id="Group_3663" data-name="Group 3663" clip-path="url(#clip-path)">
    <path id="Path_1847" data-name="Path 1847" d="M68,0A68,68,0,1,1,0,68,68,68,0,0,1,68,0" fill="#fff"></path>
    <path id="Path_1848" data-name="Path 1848" d="M91.05,109.5c-.2,0-.4-.008-.6-.026L52.976,106.01a6.31,6.31,0,0,1-5.785-6.128,6.309,6.309,0,0,1-3.8-5.858V81.255a1.49,1.49,0,1,1,2.981,0V94.024a3.367,3.367,0,0,0,3.4,3.4H87.363a3.188,3.188,0,0,0,3.283-3.283V42.948a1.487,1.487,0,0,1,.119-.584V38.891a3.366,3.366,0,0,0-3.4-3.4H49.772a3.366,3.366,0,0,0-3.4,3.4v23.27a1.49,1.49,0,1,1-2.981,0V38.891a6.316,6.316,0,0,1,6.384-6.384H87.363a6.316,6.316,0,0,1,6.383,6.384v2.692l2.926.238a6.367,6.367,0,0,1,5.9,6.984v.01l-5.132,54.9a6.257,6.257,0,0,1-2.288,4.343,6.457,6.457,0,0,1-4.1,1.444m-40.765-8.97a3.338,3.338,0,0,0,2.957,2.514L90.721,106.5a3.517,3.517,0,0,0,2.546-.76,3.306,3.306,0,0,0,1.2-2.3l5.132-54.9a3.389,3.389,0,0,0-3.174-3.75l-2.682-.217V94.024a6.566,6.566,0,0,1-6.5,6.5Zm50.8-51.851h0ZM70.417,95.157H52.875A1.492,1.492,0,0,1,51.5,93.081v-1.8a4.393,4.393,0,0,1,4.355-4.354H67.553a4.393,4.393,0,0,1,4.355,4.354v2.387a1.49,1.49,0,0,1-1.491,1.491M54.485,92.176H68.927v-.9a1.41,1.41,0,0,0-1.374-1.373H55.858a1.409,1.409,0,0,0-1.373,1.373ZM68.627,65.8a1.494,1.494,0,0,1-.808-.237,27.45,27.45,0,0,1-9.04-9.624A27.114,27.114,0,0,1,55.322,42.71v-.12A1.491,1.491,0,0,1,56.706,41.1a29.05,29.05,0,0,0,4.507-.792A24.551,24.551,0,0,0,67.7,37.4a1.49,1.49,0,0,1,1.637.011A19.778,19.778,0,0,0,75.759,40.3l.424.091a30.285,30.285,0,0,0,4.245.711,1.491,1.491,0,0,1,1.384,1.487A27.343,27.343,0,0,1,69.449,65.553a1.49,1.49,0,0,1-.822.247M58.334,43.924A24.144,24.144,0,0,0,61.38,54.481a24.481,24.481,0,0,0,7.237,8.025,24.745,24.745,0,0,0,7.193-8.077,24.082,24.082,0,0,0,2.987-10.5c-1.094-.155-2.147-.382-3.243-.618l-.438-.095-.032-.007a22.2,22.2,0,0,1-6.592-2.791A27.922,27.922,0,0,1,62,43.188l-.074.019c-1.157.267-2.339.54-3.588.717M66.359,55.06h0a1.489,1.489,0,0,1-1.054-.437l-2.387-2.387a1.491,1.491,0,0,1,2.109-2.108l1.332,1.333,5.748-5.748a1.491,1.491,0,0,1,2.108,2.108l-6.8,6.8a1.489,1.489,0,0,1-1.054.437" fill="#00bbb4"></path>
    <path id="Path_1849" data-name="Path 1849" d="M72.626,100.46H50.668a1.49,1.49,0,0,1-1.49-1.49V93.719a1.49,1.49,0,0,1,1.49-1.491H72.626a1.49,1.49,0,0,1,1.491,1.491V98.97a1.49,1.49,0,0,1-1.491,1.49M52.159,97.479H71.135v-2.27H52.159Z" fill="#00bbb4"></path>
    <path id="Path_1850" data-name="Path 1850" d="M51.983,81.054a1.486,1.486,0,0,1-1.054-.437L41.817,71.5a1.49,1.49,0,0,1,0-2.108l6.75-6.749a1.489,1.489,0,0,1,2.107,0l9.112,9.112a1.49,1.49,0,0,1,0,2.108l-6.75,6.749a1.485,1.485,0,0,1-1.053.437m-7-10.6,7,7,4.642-4.641-7.005-7Z" fill="#00bbb4"></path>
    <path id="Path_1851" data-name="Path 1851" d="M85.692,93.128H79.486a1.49,1.49,0,1,1,0-2.981h6.206a1.49,1.49,0,1,1,0,2.981m-51.209-.671a4.516,4.516,0,0,1-3.189-1.317,4.325,4.325,0,0,1-1.271-3.259,4.7,4.7,0,0,1,1.391-3.145l.04-.039,13.365-12.41a1.491,1.491,0,0,1,2.069.038l3.221,3.222a1.491,1.491,0,0,1,.039,2.068L37.765,90.95a4.2,4.2,0,0,1-3.058,1.5c-.075,0-.15,0-.224,0m-.978-5.6A1.744,1.744,0,0,0,33,88a1.353,1.353,0,0,0,.4,1.035,1.531,1.531,0,0,0,1.157.443,1.277,1.277,0,0,0,.932-.451c.02-.025.04-.048.061-.071L46.985,76.639l-1.19-1.19Zm52.187-.654H74.474a1.491,1.491,0,0,1,0-2.981H85.692a1.491,1.491,0,1,1,0,2.981M53.574,84.685a3.672,3.672,0,0,1-2.589-1.062h0a3.562,3.562,0,0,1,0-5.092l6.683-6.682a3.6,3.6,0,1,1,5.092,5.091l-6.65,6.65a3.384,3.384,0,0,1-2.394,1.093c-.047,0-.094,0-.142,0m-.481-3.171a.691.691,0,0,0,.509.189.414.414,0,0,0,.289-.105q.038-.043.078-.084l6.682-6.683a.619.619,0,1,0-.875-.875l-6.683,6.683a.6.6,0,0,0,0,.875m32.6-2.109H67.553a1.491,1.491,0,1,1,0-2.982H85.692a1.491,1.491,0,0,1,0,2.982M32.468,72.96h-.011a1.488,1.488,0,0,1-1.3-.775l-3.448-6.3a1.529,1.529,0,0,1-.15-.369,1.5,1.5,0,0,1-.046-.4V39.475a1.5,1.5,0,0,1-.119-.584V36.146a3.377,3.377,0,0,1,2.011-3.054l.052-.02a9.093,9.093,0,0,1,6.135,0l.053.02a3.377,3.377,0,0,1,2.01,3.054v29A1.489,1.489,0,0,1,37.1,66.3l-3.34,5.9a1.488,1.488,0,0,1-1.3.756m-.946-6.324L32.49,68.4l1-1.769ZM30.5,63.654h4.179V40.381H30.5Zm0-26.254h4.06V36.146c0-.2-.062-.223-.112-.237s-.084-.026-.126-.042a4.773,4.773,0,0,0-3.583,0c-.042.016-.083.03-.126.042s-.113.032-.113.237ZM41.4,72.513a3.667,3.667,0,0,1-2.589-1.063h0a3.579,3.579,0,0,1,0-5.091l6.682-6.682a3.6,3.6,0,1,1,5.091,5.091l-6.648,6.649a3.385,3.385,0,0,1-2.4,1.094l-.141,0m6.639-10.919a.617.617,0,0,0-.438.19l-6.682,6.683a.6.6,0,0,0,0,.874h0a.689.689,0,0,0,.507.189.412.412,0,0,0,.289-.106q.038-.043.078-.084l6.683-6.682a.611.611,0,0,0,.19-.438.6.6,0,0,0-.19-.436.615.615,0,0,0-.438-.191M85.692,72.483H69.462a1.491,1.491,0,1,1,0-2.981h16.23a1.491,1.491,0,1,1,0,2.981" fill="#00bbb4"></path>
  </g>
</svg>
