<?xml version="1.0" encoding="UTF-8"?>
<svg xmlns="http://www.w3.org/2000/svg" xmlns:xlink="http://www.w3.org/1999/xlink" id="icn1" width="136" height="136" viewBox="0 0 136 136">
  <defs>
    <clipPath id="clip-path">
      <rect id="Rectangle_4186" data-name="Rectangle 4186" width="136" height="136" fill="none"></rect>
    </clipPath>
  </defs>
  <g id="Group_3683" data-name="Group 3683" clip-path="url(#clip-path)">
    <path id="Path_1943" data-name="Path 1943" d="M68,0A68,68,0,1,1,0,68,68,68,0,0,1,68,0" fill="#fff"></path>
    <path id="Path_1944" data-name="Path 1944" d="M76.149,96.222a9.281,9.281,0,0,0,5.11-1.527l22.778-14.637a5.073,5.073,0,0,0,2.383-4.311v-.015l.006-1.2v-.021a3.7,3.7,0,0,0-4.505-3.608l-4.433.993V45.881A1.481,1.481,0,0,0,96.01,44.4h-7.1a1.481,1.481,0,0,0-1.479,1.48V73.45a3.6,3.6,0,0,0-.82-.418V53.8a1.481,1.481,0,0,0-1.479-1.479h-7.1A1.48,1.48,0,0,0,76.557,53.8V72.816h-.82V49.842a1.481,1.481,0,0,0-1.479-1.479h-7.1a1.481,1.481,0,0,0-1.479,1.479V70.494l-.82-.614V57.766a1.48,1.48,0,0,0-1.479-1.479h-7.1A1.48,1.48,0,0,0,54.8,57.766v8.851H47.456V65.442a2.224,2.224,0,0,0-2.218-2.218H31.791a2.223,2.223,0,0,0-2.217,2.219V90a2.222,2.222,0,0,0,2.217,2.217H45.238A2.223,2.223,0,0,0,47.456,90v-.256L73.721,95.93a10.541,10.541,0,0,0,2.428.292M40.573,86.365a.228.228,0,1,1,.229-.229.23.23,0,0,1-.229.229m3.187-.229a3.194,3.194,0,0,0-3.185-3.186h0a3.188,3.188,0,0,0-.664,6.305H32.532V66.183H44.5V89.255H41.231a3.119,3.119,0,0,0,.562-.175,3.175,3.175,0,0,0,1.967-2.944m14-26.892H61.9v8.433a6.472,6.472,0,0,0-3.611-1.06h-.529ZM69.516,75.773H85.355a.739.739,0,0,1,.739.742l-.007.994a2.216,2.216,0,0,1-1.974,2.19L67.5,81.528a2.062,2.062,0,0,1-1.018-.131L59.12,78.614a1.479,1.479,0,1,0-1.056,2.763l7.374,2.785a5.036,5.036,0,0,0,2.4.306l16.6-1.829a5.175,5.175,0,0,0,4.607-5.112l0-.711,13.518-3.029a.739.739,0,0,1,.9.721v0l-.007,1.211a2.152,2.152,0,0,1-1.018,1.842L79.66,92.206a6.587,6.587,0,0,1-5.257.846L47.456,86.7V69.576H58.3a3.512,3.512,0,0,1,2.206.738l5.9,4.422a5.032,5.032,0,0,0,3.108,1.038m20.875-2.289V47.36h4.14v25.2Zm-10.876-18.2h4.14V72.816h-4.14ZM69.507,72.816a2.052,2.052,0,0,1-.869-.176V51.321h4.141v21.5Z" fill="#00bbb4"></path>
    <path id="Path_1945" data-name="Path 1945" d="M63.361,52.291a4.247,4.247,0,0,0,.567-3.531l4.428-3.227a4.251,4.251,0,0,0,5.6-.792l3.377,1.23a4.255,4.255,0,0,0,8.51-.016v0a4.219,4.219,0,0,0-.16-1.154l4.429-3.226a4.254,4.254,0,1,0-1.744-2.39l-4.428,3.226a4.247,4.247,0,0,0-5.591.785l-3.382-1.232a4.256,4.256,0,1,0-8.352,1.182L62.184,46.37a4.253,4.253,0,1,0,1.177,5.921m18.225-7.637a1.3,1.3,0,1,1-1.3,1.3,1.29,1.29,0,0,1,1.3-1.3m12.073-7.123a1.3,1.3,0,1,1-1.2-.8,1.294,1.294,0,0,1,1.2.8M59.336,51.111a1.3,1.3,0,1,1,1.413-.281,1.292,1.292,0,0,1-1.413.281m10.876-7.923a1.3,1.3,0,1,1,1.414-.281,1.293,1.293,0,0,1-1.414.281" fill="#00bbb4"></path>
  </g>
</svg>
