<?xml version="1.0" encoding="UTF-8"?>
<svg xmlns="http://www.w3.org/2000/svg" xmlns:xlink="http://www.w3.org/1999/xlink" id="icn1" width="136" height="136" viewBox="0 0 136 136">
  <defs>
    <clipPath id="clip-path">
      <rect id="Rectangle_4135" data-name="Rectangle 4135" width="136" height="136" fill="none"></rect>
    </clipPath>
  </defs>
  <g id="Group_3592" data-name="Group 3592" clip-path="url(#clip-path)">
    <path id="Path_1797" data-name="Path 1797" d="M136,68A68,68,0,1,1,68,0a68,68,0,0,1,68,68" fill="#fff"></path>
    <path id="Path_1798" data-name="Path 1798" d="M109.6,92.827,92.034,64.271A6.965,6.965,0,0,0,87.6,61.109V39.375a6.651,6.651,0,0,0-6.631-6.631H70.486a2.784,2.784,0,0,0-2.332-1.281H66.593a7.913,7.913,0,0,0-14.817,0H50.215a2.785,2.785,0,0,0-2.332,1.281H39.965a6.649,6.649,0,0,0-6.631,6.631V93.19a6.651,6.651,0,0,0,6.632,6.631H62.32c.036.08.074.163.119.244a6.9,6.9,0,0,0,6.064,3.6h35.181a6.9,6.9,0,0,0,6.064-3.6,7.066,7.066,0,0,0-.152-7.241M65.163,94.4,82.717,65.85a3.944,3.944,0,0,1,6.752,0l17.555,28.556a4.083,4.083,0,0,1,.091,4.189l0,0a3.924,3.924,0,0,1-3.451,2.052H68.527A3.923,3.923,0,0,1,65.076,98.6a4.088,4.088,0,0,1,.087-4.194M84.585,61.109a6.82,6.82,0,0,0-2.113.848v-21.3a2.79,2.79,0,0,0-2.787-2.787H70.942V35.757H80.967a3.622,3.622,0,0,1,3.618,3.618ZM79.46,40.881V65.395L63.287,91.682H41.471v-50.8h6.412a2.788,2.788,0,0,0,2.333,1.282H68.155a2.786,2.786,0,0,0,2.331-1.282ZM50.441,39.15V34.475h2.467a1.511,1.511,0,0,0,1.476-1.2,4.9,4.9,0,0,1,9.6,0,1.51,1.51,0,0,0,1.475,1.2h2.468V39.15ZM61.533,96.808H39.966a3.622,3.622,0,0,1-3.619-3.619V39.375a3.622,3.622,0,0,1,3.619-3.618h7.462v2.112H41.246a2.79,2.79,0,0,0-2.786,2.787V91.907a2.79,2.79,0,0,0,2.786,2.788H61.782a6.984,6.984,0,0,0-.249,2.113" fill="#00bbb4"></path>
    <path id="Path_1799" data-name="Path 1799" d="M86.091,88.29a4.073,4.073,0,0,0,4.069-4.069V72.689a4.069,4.069,0,0,0-8.138,0V84.221a4.074,4.074,0,0,0,4.069,4.069m-1.056-15.6a1.056,1.056,0,0,1,2.113,0V84.221a1.056,1.056,0,0,1-2.113,0Z" fill="#00bbb4"></path>
    <path id="Path_1800" data-name="Path 1800" d="M86.087,98.542a4.073,4.073,0,1,0-2.872-1.194,4.068,4.068,0,0,0,2.872,1.194m-.742-4.818a1.049,1.049,0,0,1,.745-.31,1.073,1.073,0,0,1,.406.081,1.056,1.056,0,1,1-1.151.229" fill="#00bbb4"></path>
    <path id="Path_1801" data-name="Path 1801" d="M57.679,49.626a1.508,1.508,0,0,0,1.506,1.507H75.841a1.507,1.507,0,1,0,0-3.013H59.185a1.508,1.508,0,0,0-1.506,1.506" fill="#00bbb4"></path>
    <path id="Path_1802" data-name="Path 1802" d="M59.185,56.257h7.687a1.507,1.507,0,1,0,0-3.013H59.185a1.507,1.507,0,0,0,0,3.013" fill="#00bbb4"></path>
    <path id="Path_1803" data-name="Path 1803" d="M75.841,62.214H59.185a1.506,1.506,0,0,0,0,3.013H75.841a1.506,1.506,0,1,0,0-3.013" fill="#00bbb4"></path>
    <path id="Path_1804" data-name="Path 1804" d="M59.185,70.352h7.687a1.507,1.507,0,1,0,0-3.013H59.185a1.507,1.507,0,0,0,0,3.013" fill="#00bbb4"></path>
    <path id="Path_1805" data-name="Path 1805" d="M68.154,76.308H59.185a1.506,1.506,0,1,0,0,3.012h8.969a1.506,1.506,0,1,0,0-3.012" fill="#00bbb4"></path>
    <path id="Path_1806" data-name="Path 1806" d="M64.31,81.433H59.184a1.507,1.507,0,0,0,0,3.013H64.31a1.507,1.507,0,0,0,0-3.013" fill="#00bbb4"></path>
    <path id="Path_1807" data-name="Path 1807" d="M47.87,58.379a1.506,1.506,0,0,0,2.413-.392l5.125-10.25a1.507,1.507,0,0,0-1.825-2.1,1.515,1.515,0,0,0-.871.756l-4.19,8.381-1.085-1.085a1.506,1.506,0,0,0-2.129,2.13Z" fill="#00bbb4"></path>
    <path id="Path_1808" data-name="Path 1808" d="M54.734,59.809h0a1.508,1.508,0,0,0-2.022.675l-4.19,8.381-1.088-1.088a1.506,1.506,0,0,0-2.126,2.133l2.562,2.562a1.5,1.5,0,0,0,1.079.441,1.3,1.3,0,0,0,.227-.019,1.51,1.51,0,0,0,1.107-.813L55.408,61.83a1.506,1.506,0,0,0-.674-2.021" fill="#00bbb4"></path>
    <path id="Path_1809" data-name="Path 1809" d="M54.733,73.9a1.5,1.5,0,0,0-1.151-.081,1.52,1.52,0,0,0-.87.756l-4.19,8.381-1.088-1.088A1.506,1.506,0,0,0,45.308,84l2.561,2.562a1.5,1.5,0,0,0,2.414-.385l5.125-10.249a1.508,1.508,0,0,0-.675-2.029" fill="#00bbb4"></path>
  </g>
</svg>
