<?xml version="1.0" encoding="UTF-8"?>
<svg xmlns="http://www.w3.org/2000/svg" xmlns:xlink="http://www.w3.org/1999/xlink" id="icn1" width="136" height="136" viewBox="0 0 136 136">
  <defs>
    <clipPath id="clip-path">
      <rect id="Rectangle_4204" data-name="Rectangle 4204" width="136" height="136" fill="none"></rect>
    </clipPath>
  </defs>
  <g id="Group_3695" data-name="Group 3695" clip-path="url(#clip-path)">
    <path id="Path_2008" data-name="Path 2008" d="M68,0A68,68,0,1,1,0,68,68,68,0,0,1,68,0" fill="#fff"></path>
    <path id="Path_2009" data-name="Path 2009" d="M105.815,74.187a1.854,1.854,0,0,0-1.591-.891H104.2L93.806,50.4h1.933a3.427,3.427,0,0,0,0-6.855H71.678V40.091a6.332,6.332,0,1,0-7.356,0v3.453H40.26a3.427,3.427,0,0,0,0,6.855h1.933L31.8,73.3h-.025a1.867,1.867,0,0,0-1.664,2.713l1.939,3.818a4.734,4.734,0,0,0,4.239,2.6H53.451a4.733,4.733,0,0,0,4.238-2.6l1.94-3.818A1.867,1.867,0,0,0,57.965,73.3H57.94L47.547,50.4H64.322V91.331H56.636a3.966,3.966,0,0,0-3.961,3.961v1.577H51.263a3.965,3.965,0,0,0-3.96,3.961V103.9a1.492,1.492,0,0,0,1.49,1.491H87.206A1.493,1.493,0,0,0,88.7,103.9V100.83a3.966,3.966,0,0,0-3.961-3.961H83.324V95.292a3.966,3.966,0,0,0-3.961-3.961H71.678V59.43a1.491,1.491,0,1,0-2.982,0v31.9H67.3V48.908a1.493,1.493,0,0,0-1.491-1.491H40.26a.445.445,0,1,1,0-.891H65.812A1.493,1.493,0,0,0,67.3,45.035v-3.8l.078.008c.072.007.144.012.216.017l.029,0,.067,0c.09,0,.18.006.275.007h.066c.091,0,.182,0,.272-.007l.1-.006c.072,0,.144-.01.218-.017l.076-.008v3.8a1.493,1.493,0,0,0,1.491,1.491H95.739a.445.445,0,1,1,0,.891H70.187A1.493,1.493,0,0,0,68.7,48.908v5.224a1.491,1.491,0,1,0,2.982,0V50.4H88.452L78.059,73.3h-.024a1.867,1.867,0,0,0-1.665,2.713l1.94,3.818a4.733,4.733,0,0,0,4.239,2.6H99.71a4.734,4.734,0,0,0,4.239-2.6l1.94-3.818a1.855,1.855,0,0,0-.074-1.822m-3.408,2.091-1.117,2.2a1.762,1.762,0,0,1-1.58.97H82.548a1.763,1.763,0,0,1-1.58-.97l-1.117-2.2ZM81.32,73.3l9.809-21.61,9.809,21.61ZM64.65,34.941a3.35,3.35,0,1,1,4.835,3l-.112.052-.055.026c-.042.018-.085.034-.126.05s-.066.025-.1.037-.069.024-.1.034-.053.016-.08.023l-.031.009-.061.016c-.033.009-.067.016-.108.025l-.067.014-.1.018c-.027,0-.054.008-.082.012s-.061.009-.093.012-.069.006-.1.009l-.075.006a3.262,3.262,0,0,1-.37,0l-.047,0-.027,0c-.035,0-.07,0-.1-.009l-.094-.012-.082-.012-.1-.018-.074-.016c-.033-.007-.067-.014-.1-.023l-.091-.025-.08-.022-.105-.036-.1-.035c-.043-.017-.085-.033-.127-.052l-.056-.025-.112-.052a3.336,3.336,0,0,1-1.864-3M80.343,96.869H63.615a1.491,1.491,0,0,0,0,2.982H84.736a.98.98,0,0,1,.979.979v1.577H50.284V100.83a.98.98,0,0,1,.979-.979h7.166a1.491,1.491,0,0,0,0-2.982H55.656V95.292a.981.981,0,0,1,.98-.979H79.363a.981.981,0,0,1,.98.979Zm-24.2-20.591-1.117,2.2a1.763,1.763,0,0,1-1.58.97H36.289a1.763,1.763,0,0,1-1.58-.97l-1.117-2.2ZM35.061,73.3l9.809-21.61L54.679,73.3Z" fill="#00bbb4"></path>
  </g>
</svg>
