<?xml version="1.0" encoding="UTF-8"?>
<svg xmlns="http://www.w3.org/2000/svg" xmlns:xlink="http://www.w3.org/1999/xlink" id="icn1" width="136" height="136" viewBox="0 0 136 136">
  <defs>
    <clipPath id="clip-path">
      <rect id="Rectangle_4240" data-name="Rectangle 4240" width="136" height="136" fill="none"></rect>
    </clipPath>
  </defs>
  <g id="Group_3720" data-name="Group 3720" clip-path="url(#clip-path)">
    <path id="Path_2161" data-name="Path 2161" d="M68,0A68,68,0,1,1,0,68,68,68,0,0,1,68,0" fill="#fff"></path>
    <path id="Path_2162" data-name="Path 2162" d="M95.235,39.285H64.453a1.44,1.44,0,0,0-1.05.424L49.2,53.915a1.445,1.445,0,0,0-.44,1.06v49.733a1.482,1.482,0,0,0,1.481,1.481h45a1.482,1.482,0,0,0,1.48-1.481V40.765a1.482,1.482,0,0,0-1.48-1.48M53.813,53.494l9.154-9.154v9.154Zm-2.1,49.734V56.455H64.447a1.483,1.483,0,0,0,1.481-1.48V42.246H93.755v60.982Z" fill="#00bbb4"></path>
    <path id="Path_2163" data-name="Path 2163" d="M88.13,77.177H57.343a1.48,1.48,0,1,0,0,2.961H88.13a1.48,1.48,0,0,0,0-2.961" fill="#00bbb4"></path>
    <path id="Path_2164" data-name="Path 2164" d="M88.13,84.282H57.343a1.48,1.48,0,1,0,0,2.961H88.13a1.48,1.48,0,0,0,0-2.961" fill="#00bbb4"></path>
    <path id="Path_2165" data-name="Path 2165" d="M76.289,91.386H57.343a1.48,1.48,0,1,0,0,2.961H76.289a1.48,1.48,0,0,0,0-2.961" fill="#00bbb4"></path>
    <path id="Path_2166" data-name="Path 2166" d="M45.5,93.755H42.245V32.773H84.281v3.256a1.481,1.481,0,0,0,2.962,0V31.292a1.483,1.483,0,0,0-1.482-1.48h-45a1.481,1.481,0,0,0-1.479,1.48V95.235a1.481,1.481,0,0,0,1.479,1.481H45.5a1.481,1.481,0,0,0,0-2.961" fill="#00bbb4"></path>
    <path id="Path_2167" data-name="Path 2167" d="M88.13,56.454H84.282V52.6a2.73,2.73,0,0,0-2.664-2.656H76.873a2.73,2.73,0,0,0-2.656,2.664v3.848H70.361A2.73,2.73,0,0,0,67.7,59.119v4.743a2.722,2.722,0,0,0,2.664,2.658h3.849v3.855a2.721,2.721,0,0,0,2.664,2.658h4.744a2.719,2.719,0,0,0,2.657-2.664V66.52h3.856a2.73,2.73,0,0,0,2.657-2.665V59.111a2.73,2.73,0,0,0-2.665-2.657M75.7,63.559H70.665V59.415H75.7a1.482,1.482,0,0,0,1.48-1.48V52.9h4.144v5.033a1.482,1.482,0,0,0,1.481,1.48h5.032v4.144H82.8a1.482,1.482,0,0,0-1.481,1.48v5.033H77.177V65.039a1.482,1.482,0,0,0-1.48-1.48" fill="#00bbb4"></path>
  </g>
</svg>
