<?xml version="1.0" encoding="UTF-8"?>
<svg xmlns="http://www.w3.org/2000/svg" xmlns:xlink="http://www.w3.org/1999/xlink" id="icn2" width="137" height="136" viewBox="0 0 137 136">
  <defs>
    <clipPath id="clip-path">
      <rect id="Rectangle_4197" data-name="Rectangle 4197" width="137" height="136" fill="none"></rect>
    </clipPath>
  </defs>
  <g id="Group_3692" data-name="Group 3692" clip-path="url(#clip-path)">
    <path id="Path_1980" data-name="Path 1980" d="M68.5,0C106.332,0,137,30.445,137,68s-30.668,68-68.5,68S0,105.555,0,68,30.669,0,68.5,0" fill="#fff"></path>
    <path id="Path_1981" data-name="Path 1981" d="M104.6,78.357l-.406-1.519a5.164,5.164,0,0,0-4.547-3.818L98.7,71.373a5.164,5.164,0,0,0-6.575-2.148A5.176,5.176,0,0,0,85.355,67.8l-3.341,1.929a1.483,1.483,0,0,0,.358,2.717A1.47,1.47,0,0,0,83.5,72.3l3.341-1.929a2.216,2.216,0,0,1,2.659.339L75.324,78.89a3.706,3.706,0,0,1-1.82-.825L78.97,74.91a1.483,1.483,0,0,0-1.484-2.569L71.32,75.9l-3.535-3.535h3.76a4.924,4.924,0,0,0,4.926-4.994,4.985,4.985,0,0,0-5-4.86h-6.3a1.483,1.483,0,1,0,0,2.967h6.3A2.007,2.007,0,0,1,73.5,67.412a1.953,1.953,0,0,1-1.96,1.986H59.992a1.483,1.483,0,0,0,0,2.967h3.6l7.586,7.586A6.675,6.675,0,0,0,77.6,81.674l21.017-5.632a2.216,2.216,0,0,1,2.709,1.563l.41,1.513L75.2,86.23a3.7,3.7,0,0,1-1.91,0L58.763,82.336A8.848,8.848,0,0,0,49.428,85.5l-1.272,1.658L46.892,85.9a1.483,1.483,0,0,0-2.1,2.1l3.67,3.671-5.807,7.568H31.26V85.785l5.662-5.661,4.1,4.1a1.483,1.483,0,1,0,2.1-2.1l-4.1-4.1,8.652-8.654a13.212,13.212,0,0,1,9.4-3.894h2.92a1.483,1.483,0,0,0,0-2.967h-2.92a16.151,16.151,0,0,0-11.5,4.764L28.946,83.9a2.2,2.2,0,0,0-.652,1.572v14.5a2.225,2.225,0,0,0,2.222,2.223H43.024a2.236,2.236,0,0,0,1.763-.868l6.428-8.378a2.226,2.226,0,0,0-.192-2.924l-.751-.752,1.51-1.968A5.887,5.887,0,0,1,57.995,85.2L72.525,89.1a6.663,6.663,0,0,0,3.445,0l26.539-7.111a2.966,2.966,0,0,0,2.093-3.627M96.52,73.534,85.349,76.528l7.76-4.481a2.211,2.211,0,0,1,3.02.81Z" fill="#00bbb4"></path>
    <path id="Path_1982" data-name="Path 1982" d="M66.662,44.215a.949.949,0,0,1,.284.852l-1.163,6.654A2.871,2.871,0,0,0,70,54.728l5.808-3.205a.944.944,0,0,1,.913,0l5.809,3.205a2.87,2.87,0,0,0,4.215-3.007l-1.163-6.653a.947.947,0,0,1,.284-.852l4.747-4.466a2.87,2.87,0,0,0-1.525-4.927L82.453,33.79a.949.949,0,0,1-.7-.515L78.837,27.39a2.871,2.871,0,0,0-5.146,0l-2.914,5.885a.952.952,0,0,1-.7.516L63.44,34.823a2.87,2.87,0,0,0-1.525,4.927Zm16,1.363,1.129,6.457-5.635-3.109a3.89,3.89,0,0,0-3.779,0L68.74,52.035l1.128-6.457a3.9,3.9,0,0,0-1.174-3.523l-4.605-4.332,6.442-1a3.915,3.915,0,0,0,2.9-2.129l2.829-5.712,2.828,5.712a3.918,3.918,0,0,0,2.9,2.13l6.441,1-4.6,4.331a3.9,3.9,0,0,0-1.174,3.523" fill="#00bbb4"></path>
    <path id="Path_1983" data-name="Path 1983" d="M52.727,44.842h3.254a1.483,1.483,0,0,0,0-2.967H52.727a1.483,1.483,0,0,0,0,2.967" fill="#00bbb4"></path>
    <path id="Path_1984" data-name="Path 1984" d="M57.9,48.738a1.471,1.471,0,0,0-1.049.435l-2.3,2.3a1.484,1.484,0,0,0,2.1,2.1l2.3-2.3A1.483,1.483,0,0,0,57.9,48.738" fill="#00bbb4"></path>
    <path id="Path_1985" data-name="Path 1985" d="M56.839,37.511a1.483,1.483,0,0,0,2.1-2.1l-2.3-2.3a1.483,1.483,0,1,0-2.1,2.1Z" fill="#00bbb4"></path>
    <path id="Path_1986" data-name="Path 1986" d="M95.063,43.359a1.484,1.484,0,0,0,1.483,1.483H99.8a1.483,1.483,0,1,0,0-2.966H96.546a1.484,1.484,0,0,0-1.483,1.483" fill="#00bbb4"></path>
    <path id="Path_1987" data-name="Path 1987" d="M95.875,53.57h0a1.483,1.483,0,0,0,2.1-2.1l-2.3-2.3a1.483,1.483,0,0,0-2.1,2.1Z" fill="#00bbb4"></path>
    <path id="Path_1988" data-name="Path 1988" d="M94.64,37.944a1.479,1.479,0,0,0,1.049-.434l2.3-2.3a1.483,1.483,0,1,0-2.1-2.1l-2.3,2.3a1.482,1.482,0,0,0,1.048,2.531" fill="#00bbb4"></path>
  </g>
</svg>
