<?xml version="1.0" encoding="UTF-8"?>
<svg xmlns="http://www.w3.org/2000/svg" xmlns:xlink="http://www.w3.org/1999/xlink" id="icn2" width="137" height="136" viewBox="0 0 137 136">
  <defs>
    <clipPath id="clip-path">
      <rect id="Rectangle_4241" data-name="Rectangle 4241" width="137" height="136" fill="none"></rect>
    </clipPath>
  </defs>
  <g id="Group_3721" data-name="Group 3721" clip-path="url(#clip-path)">
    <path id="Path_2168" data-name="Path 2168" d="M68.5,0C106.332,0,137,30.445,137,68s-30.668,68-68.5,68S0,105.555,0,68,30.669,0,68.5,0" fill="#fff"></path>
    <path id="Path_2169" data-name="Path 2169" d="M71.981,92.954h-24.8V82.663a1.555,1.555,0,0,0-1.554-1.553H35.336v-26.5h6.812a1.554,1.554,0,0,0,0-3.108H35.336V41.577H47.627v4.368A1.555,1.555,0,0,0,49.18,47.5h4.738a1.556,1.556,0,0,0,1.554-1.554V41.577H61.84v4.368A1.556,1.556,0,0,0,63.394,47.5h4.738a1.555,1.555,0,0,0,1.553-1.554V41.577h6.369v4.368A1.555,1.555,0,0,0,77.607,47.5h4.738A1.556,1.556,0,0,0,83.9,45.945V41.577H96.19V51.5H50.365a1.554,1.554,0,1,0,0,3.108H96.19V67.858a1.553,1.553,0,0,0,3.107,0V40.023a1.556,1.556,0,0,0-1.554-1.554H83.9V35.285a1.556,1.556,0,0,0-1.554-1.554H77.607a1.555,1.555,0,0,0-1.553,1.554v3.184H69.685V35.285a1.555,1.555,0,0,0-1.553-1.554H63.394a1.556,1.556,0,0,0-1.554,1.554v3.184H55.472V35.285a1.556,1.556,0,0,0-1.554-1.554H49.18a1.555,1.555,0,0,0-1.553,1.554v3.184H33.783a1.556,1.556,0,0,0-1.554,1.554V82.665a1.568,1.568,0,0,0,.454,1.1L44.53,95.609a1.562,1.562,0,0,0,1.1.453H71.981a1.554,1.554,0,1,0,0-3.108M44.073,84.217v6.54l-6.54-6.54Zm8.292-39.826h-1.63V36.838h1.63Zm12.583-7.552h1.63v7.553h-1.63Zm15.844,7.552H79.161V36.838h1.631Z" fill="#00bbb4"></path>
    <path id="Path_2170" data-name="Path 2170" d="M46.96,54.606a1.553,1.553,0,1,0,0-3.107H45.553a1.553,1.553,0,0,0,0,3.107Z" fill="#00bbb4"></path>
    <path id="Path_2171" data-name="Path 2171" d="M57.841,61.343a1.556,1.556,0,0,0-1.554-1.554H46.812a1.556,1.556,0,0,0-1.554,1.554v9.476a1.555,1.555,0,0,0,1.554,1.553h9.475a1.555,1.555,0,0,0,1.554-1.553ZM48.365,62.9h6.368v6.368H48.365Z" fill="#00bbb4"></path>
    <path id="Path_2172" data-name="Path 2172" d="M72.054,61.343A1.555,1.555,0,0,0,70.5,59.789H61.025a1.556,1.556,0,0,0-1.554,1.554v9.476a1.555,1.555,0,0,0,1.554,1.553H70.5a1.555,1.555,0,0,0,1.553-1.553Zm-3.107,7.922H62.579V62.9h6.368Z" fill="#00bbb4"></path>
    <path id="Path_2173" data-name="Path 2173" d="M49.181,84.663a1.553,1.553,0,1,0,0,3.107h7.106a1.555,1.555,0,0,0,1.553-1.553V76.741a1.555,1.555,0,0,0-1.553-1.554H46.812a1.556,1.556,0,0,0-1.555,1.554V79.11a1.555,1.555,0,0,0,3.109,0v-.815h6.368v6.368Z" fill="#00bbb4"></path>
    <path id="Path_2174" data-name="Path 2174" d="M70.5,75.187H61.025a1.556,1.556,0,0,0-1.554,1.554v9.476a1.555,1.555,0,0,0,1.554,1.553H70.5a1.555,1.555,0,0,0,1.553-1.553V76.741A1.555,1.555,0,0,0,70.5,75.187m-1.554,9.476H62.579V78.295h6.368Z" fill="#00bbb4"></path>
    <path id="Path_2175" data-name="Path 2175" d="M76.792,85.032V78.294H83.53a1.554,1.554,0,0,0,0-3.107H75.238a1.555,1.555,0,0,0-1.553,1.554v8.291a1.554,1.554,0,1,0,3.107,0" fill="#00bbb4"></path>
    <path id="Path_2176" data-name="Path 2176" d="M95.743,76.832v-.906h.816a1.555,1.555,0,0,0,1.553-1.554V70.819a1.555,1.555,0,0,0-1.553-1.554H87.083a1.542,1.542,0,0,0-.815.234V61.343a1.555,1.555,0,0,0-1.554-1.553H75.238a1.555,1.555,0,0,0-1.553,1.553v9.476a1.555,1.555,0,0,0,1.553,1.554h9.476a1.542,1.542,0,0,0,.815-.234v2.233a1.556,1.556,0,0,0,1.554,1.554H87.9v.906a16.952,16.952,0,1,0,7.845,0M76.792,62.9H83.16v6.368H76.792ZM95,72.819H88.637v-.446H95Zm-2.369,3.573c-.271-.013-.544-.02-.815-.02s-.544.007-.815.02v-.466h1.63Zm4.483,4.141a13.8,13.8,0,1,1-5.312-1.061,13.8,13.8,0,0,1,5.312,1.061" fill="#00bbb4"></path>
    <path id="Path_2177" data-name="Path 2177" d="M83.184,101.96a12.213,12.213,0,1,0-2.648-13.31,12.183,12.183,0,0,0,2.648,13.31m7.083-17.606v.678a1.554,1.554,0,1,0,3.107,0v-.678a9.141,9.141,0,0,1,7.545,8.6h-.807a1.554,1.554,0,1,0,0,3.108h.4a9.084,9.084,0,0,1-7.136,6.232v-.679a1.554,1.554,0,1,0-3.107,0v.679a9.082,9.082,0,0,1-7.135-6.232h.4a1.554,1.554,0,1,0,0-3.108h-.807a9.141,9.141,0,0,1,7.545-8.6" fill="#00bbb4"></path>
    <path id="Path_2178" data-name="Path 2178" d="M90.72,95.607a1.56,1.56,0,0,0,1.96.194l3.546-2.363a1.555,1.555,0,1,0-1.714-2.593l-2.5,1.663-3.844-3.843a1.554,1.554,0,0,0-2.19,2.2Z" fill="#00bbb4"></path>
  </g>
</svg>
