<?xml version="1.0" encoding="UTF-8"?>
<svg xmlns="http://www.w3.org/2000/svg" xmlns:xlink="http://www.w3.org/1999/xlink" id="icn2" width="136" height="136" viewBox="0 0 136 136">
  <defs>
    <clipPath id="clip-path">
      <rect id="Rectangle_4136" data-name="Rectangle 4136" width="136" height="136" fill="none"></rect>
    </clipPath>
  </defs>
  <g id="Group_3593" data-name="Group 3593" clip-path="url(#clip-path)">
    <path id="Path_1810" data-name="Path 1810" d="M136,68A68,68,0,1,1,68,0a68,68,0,0,1,68,68" fill="#fff"></path>
    <path id="Path_1811" data-name="Path 1811" d="M68,30.1A37.9,37.9,0,1,0,105.9,68,37.943,37.943,0,0,0,68,30.1m1.516,3.128.638.04a34.835,34.835,0,0,1,30.094,21.673l.24.593-13.331,4.44-.221-.5A20.776,20.776,0,0,0,70.057,47.3l-.541-.054ZM45,41.93a34.5,34.5,0,0,1,20.824-8.638l.637-.04V47.267l-.541.053a20.685,20.685,0,0,0-11.075,4.59l-.42.344-9.9-9.9Zm21.461,60.818-.637-.039A34.724,34.724,0,0,1,41.93,45l.423-.478,9.9,9.9-.342.42A20.779,20.779,0,0,0,65.92,88.68l.541.054ZM50.29,68A17.71,17.71,0,1,1,68,85.711,17.73,17.73,0,0,1,50.29,68m19.886,34.709-.637.039V88.734l.541-.054A20.78,20.78,0,0,0,88.788,68a20.407,20.407,0,0,0-.521-4.565l-.122-.531,13.308-4.44.167.613a34.1,34.1,0,0,1,1.2,8.923,34.837,34.837,0,0,1-32.645,34.709" fill="#00bbb4"></path>
  </g>
</svg>
