<?xml version="1.0" encoding="UTF-8"?>
<svg xmlns="http://www.w3.org/2000/svg" xmlns:xlink="http://www.w3.org/1999/xlink" id="icn2" width="137" height="136" viewBox="0 0 137 136">
  <defs>
    <clipPath id="clip-path">
      <rect id="Rectangle_4210" data-name="Rectangle 4210" width="137" height="136" fill="none"></rect>
    </clipPath>
  </defs>
  <g id="Group_3701" data-name="Group 3701" clip-path="url(#clip-path)">
    <path id="Path_2041" data-name="Path 2041" d="M68.5,0C106.332,0,137,30.445,137,68s-30.668,68-68.5,68S0,105.555,0,68,30.669,0,68.5,0" fill="#fff"></path>
    <path id="Path_2042" data-name="Path 2042" d="M106.776,89.428l-5.406-5.419a1.413,1.413,0,0,0-2.016.008l-.794.794-.519-.518-1.7-6.821a1.449,1.449,0,0,0-.373-.662l-13.289-13.3V47.718a1.423,1.423,0,0,0-.2-.733L78.852,40.95v-.732h1.126A1.425,1.425,0,0,0,81.4,38.794V31.145a1.426,1.426,0,0,0-1.424-1.424H59.58a1.426,1.426,0,0,0-1.424,1.424v7.649a1.427,1.427,0,0,0,1.275,1.417v.543l-4.682,4.682a1.437,1.437,0,0,0-.417,1.007v15.3a3.927,3.927,0,0,0,.293,1.475L41.043,76.806a1.447,1.447,0,0,0-.373.663l-1.7,6.822-.522.522-.794-.8a1.426,1.426,0,0,0-2.014,0l-5.409,5.409a1.426,1.426,0,0,0,0,2.014l14.423,14.421a1.424,1.424,0,0,0,2.014,0l5.408-5.409a1.428,1.428,0,0,0,.1-1.9l.383-.382h6.629a1.416,1.416,0,0,0,1.006-.418L68.5,89.433l8.309,8.322a1.415,1.415,0,0,0,1.007.418h6.625l.386.385a1.428,1.428,0,0,0,.1,1.9l5.4,5.4a1.426,1.426,0,0,0,2.014,0l14.419-14.418a1.425,1.425,0,0,0,.008-2.013M49.054,99.448l-3.4,3.4L33.249,90.432l3.4-3.394Zm18.967-16.13a.974.974,0,0,1,.5-.278A1.36,1.36,0,0,0,68.832,83a1.1,1.1,0,0,1,.753.3l5.534,5.534,2.014-2.014L63.489,73.186a1.074,1.074,0,0,1-.313-.741,1.127,1.127,0,0,1,1.064-1.174,1.389,1.389,0,0,0,.139.011,1.158,1.158,0,0,1,.716.323L75.119,81.628l2.014-2.013L64.406,66.888a1.119,1.119,0,0,1,.785-1.916,1.107,1.107,0,0,1,.36.058,1.021,1.021,0,0,1,.446.264L78.724,78.021l2.012-2.014L70.711,65.97a1.065,1.065,0,0,1-.312-.741,1.127,1.127,0,0,1,.32-.83,1.228,1.228,0,0,1,.675-.327.471.471,0,0,1,.118-.01,1.123,1.123,0,0,1,.8.339L82.34,74.424l2.013-2.013L77.938,66a1.126,1.126,0,0,1,0-1.592,1.15,1.15,0,0,1,1.6,0L93.671,78.545l1.7,6.817a1.429,1.429,0,0,0,.375.662l.8.8-9.708,9.711-.787-.787a1.413,1.413,0,0,0-1.006-.417l-6.629,0-10.4-10.411a1.127,1.127,0,0,1,0-1.6M62.279,41.344V40.218H76v1.126a1.414,1.414,0,0,0,.2.733l3.62,6.035v13.3a4.157,4.157,0,0,0-2.251.014V59.042H74.729v3.742l-.4-.4a3.951,3.951,0,0,0-1.852-1.052V59.042H69.63V61.7A3.773,3.773,0,0,0,68.038,63.3l-.019-.019a3.908,3.908,0,0,0-.641-.511v-3.73H64.53v3.147a3.989,3.989,0,0,0-2.133,1.1,3.913,3.913,0,0,0-.419.508c-.039-.1-.081-.2-.128-.293a3.894,3.894,0,0,0,.429-1.759v-7.8H59.431v7.465a4.009,4.009,0,0,0-2.251,0V47.033l4.682-4.682a1.434,1.434,0,0,0,.417-1.007m-18.942,37.2L57.459,64.4a1.135,1.135,0,0,1,1.581-.035.767.767,0,0,0,.061.071,1.112,1.112,0,0,1-.037,1.547L52.648,72.4l2.014,2.013L61.079,68a4.015,4.015,0,0,0,.416-.5,3.939,3.939,0,0,0,.9,1.413l.014.013A3.864,3.864,0,0,0,60.368,71.9l-4.113,4.114,2.013,2.013L61.293,75c.062.075.125.147.192.217l1.392,1.387L59.862,79.62l2.014,2.013,3.018-3.018.056.055a1.1,1.1,0,0,0,.105.117l1.424,1.424-6.617,6.61,2.014,2.014,3.253-3.253A3.947,3.947,0,0,0,66,86.93l.485.486-7.89,7.909H51.97a1.437,1.437,0,0,0-1.007.416l-.793.788-9.709-9.7.8-.8a1.419,1.419,0,0,0,.375-.662ZM61,32.569H78.553v4.8H61Zm42.752,57.865-12.4,12.409-3.4-3.4,12.41-12.409Z" fill="#00bbb4"></path>
    <path id="Path_2043" data-name="Path 2043" d="M52.856,49.822l.113-.1-1.85-2.165-.113.1a26.963,26.963,0,0,0-9.122,24.5l.022.147,2.816-.427-.022-.148a24.379,24.379,0,0,1-.269-3.609,24.021,24.021,0,0,1,8.425-18.294" fill="#00bbb4"></path>
    <path id="Path_2044" data-name="Path 2044" d="M69.847,95,70,95l-.142-2.848-.149.007c-.8.039-1.61.039-2.408,0l-.149-.007L67.007,95l.15.007c.472.021.924.032,1.344.032s.872-.011,1.346-.032" fill="#00bbb4"></path>
    <path id="Path_2045" data-name="Path 2045" d="M92.443,70.671l2.838.286.015-.149c.085-.856.129-1.762.129-2.692A26.869,26.869,0,0,0,86,47.657l-.114-.1-1.85,2.165.113.1a24.023,24.023,0,0,1,8.425,18.294c0,.8-.039,1.612-.118,2.407Z" fill="#00bbb4"></path>
    <path id="Path_2046" data-name="Path 2046" d="M37.21,74.931,40,74.34l-.031-.146A29.222,29.222,0,0,1,56.35,41.588l.135-.062L55.3,38.938,55.161,39A32.076,32.076,0,0,0,37.179,74.785Z" fill="#00bbb4"></path>
    <path id="Path_2047" data-name="Path 2047" d="M73.367,96.884a29.615,29.615,0,0,1-9.726,0l-.147-.024-.473,2.808.147.024a32.28,32.28,0,0,0,10.671,0l.148-.024-.473-2.808Z" fill="#00bbb4"></path>
    <path id="Path_2048" data-name="Path 2048" d="M93.754,53.535a29.16,29.16,0,0,1,3.287,20.659l-.031.146,2.787.591.031-.146A32.075,32.075,0,0,0,84.514,40.38l-.13-.075L82.96,42.771l.129.074a29.319,29.319,0,0,1,10.665,10.69" fill="#00bbb4"></path>
  </g>
</svg>
