<?xml version="1.0" encoding="UTF-8"?>
<svg xmlns="http://www.w3.org/2000/svg" xmlns:xlink="http://www.w3.org/1999/xlink" width="180.005" height="181" viewBox="0 0 180.005 181">
  <defs>
    <clipPath id="clip-path">
      <rect id="Rectangle_58" data-name="Rectangle 58" width="116.092" height="90.69" fill="#fff"></rect>
    </clipPath>
  </defs>
  <g id="icn2" transform="translate(-293.453 -61.5)">
    <ellipse id="Ellipse_10" data-name="Ellipse 10" cx="90.003" cy="90.5" rx="90.003" ry="90.5" transform="translate(293.453 61.5)" fill="#773dbd"></ellipse>
    <g id="Group_47" data-name="Group 47" transform="translate(325.41 106.155)">
      <g id="Group_46" data-name="Group 46" clip-path="url(#clip-path)">
        <path id="Path_135" data-name="Path 135" d="M58.046,129.411c-21.019,0-40.954-8.6-56.131-24.221a6.884,6.884,0,0,1,0-9.528c15.177-15.619,35.112-24.22,56.131-24.22S99,80.044,114.177,95.663a6.884,6.884,0,0,1,0,9.528C99,120.81,79.065,129.411,58.046,129.411m0-54.535c-20.083,0-39.143,8.232-53.668,23.179a3.425,3.425,0,0,0,0,4.74c14.525,14.948,33.585,23.18,53.668,23.18s39.143-8.232,53.668-23.179a3.425,3.425,0,0,0,0-4.741c-14.525-14.948-33.585-23.18-53.668-23.18" transform="translate(0 -55.082)" fill="#fff"></path>
        <path id="Path_136" data-name="Path 136" d="M155.892,129.411a28.985,28.985,0,1,1,28.985-28.985,29.017,29.017,0,0,1-28.985,28.985m0-54.535a25.55,25.55,0,1,0,25.55,25.55,25.579,25.579,0,0,0-25.55-25.55" transform="translate(-97.846 -55.082)" fill="#fff"></path>
        <path id="Path_137" data-name="Path 137" d="M186.006,24.764a1.718,1.718,0,0,1-1.629-1.175l-1.818-5.453a1.718,1.718,0,1,1,3.259-1.087l1.818,5.453a1.719,1.719,0,0,1-1.63,2.261" transform="translate(-140.685 -12.239)" fill="#fff"></path>
        <path id="Path_138" data-name="Path 138" d="M130.442,52.881a1.713,1.713,0,0,1-1.215-.5l-1.818-1.818a1.718,1.718,0,1,1,2.429-2.429l1.818,1.818a1.717,1.717,0,0,1-1.215,2.932" transform="translate(-97.845 -36.721)" fill="#fff"></path>
        <path id="Path_139" data-name="Path 139" d="M247.7,10.706a1.717,1.717,0,0,1-1.718-1.717V1.717a1.717,1.717,0,0,1,3.435,0V8.989a1.717,1.717,0,0,1-1.717,1.717" transform="translate(-189.649)" fill="#fff"></path>
        <path id="Path_140" data-name="Path 140" d="M303.261,24.763a1.719,1.719,0,0,1-1.63-2.261l1.818-5.453a1.718,1.718,0,1,1,3.259,1.087l-1.818,5.453a1.718,1.718,0,0,1-1.629,1.175" transform="translate(-232.49 -12.239)" fill="#fff"></path>
        <path id="Path_141" data-name="Path 141" d="M358.829,52.881a1.717,1.717,0,0,1-1.215-2.932l1.818-1.818a1.718,1.718,0,0,1,2.429,2.429l-1.818,1.818a1.713,1.713,0,0,1-1.215.5" transform="translate(-275.334 -36.721)" fill="#fff"></path>
        <path id="Path_142" data-name="Path 142" d="M305.078,350.227a1.718,1.718,0,0,1-1.629-1.175l-1.818-5.453a1.718,1.718,0,1,1,3.259-1.087l1.818,5.453a1.719,1.719,0,0,1-1.63,2.261" transform="translate(-232.49 -263.172)" fill="#fff"></path>
        <path id="Path_143" data-name="Path 143" d="M360.648,330.715a1.713,1.713,0,0,1-1.215-.5l-1.818-1.818a1.718,1.718,0,0,1,2.429-2.429l1.818,1.818a1.718,1.718,0,0,1-1.215,2.932" transform="translate(-275.334 -250.932)" fill="#fff"></path>
        <path id="Path_144" data-name="Path 144" d="M247.7,359.982a1.717,1.717,0,0,1-1.718-1.717v-7.271a1.717,1.717,0,1,1,3.435,0v7.271a1.717,1.717,0,0,1-1.717,1.717" transform="translate(-189.649 -269.292)" fill="#fff"></path>
        <path id="Path_145" data-name="Path 145" d="M184.188,350.226a1.719,1.719,0,0,1-1.63-2.261l1.818-5.453a1.718,1.718,0,1,1,3.259,1.087l-1.818,5.453a1.718,1.718,0,0,1-1.629,1.175" transform="translate(-140.685 -263.171)" fill="#fff"></path>
        <path id="Path_146" data-name="Path 146" d="M128.623,330.715a1.718,1.718,0,0,1-1.215-2.932l1.818-1.818a1.718,1.718,0,0,1,2.429,2.429l-1.818,1.818a1.713,1.713,0,0,1-1.215.5" transform="translate(-97.845 -250.932)" fill="#fff"></path>
        <path id="Path_147" data-name="Path 147" d="M186.217,152.362a1.716,1.716,0,0,1-1.48-.845,16.239,16.239,0,0,1,22.246-22.246,1.717,1.717,0,0,1-1.747,2.958,12.8,12.8,0,0,0-17.542,17.542,1.718,1.718,0,0,1-1.477,2.591" transform="translate(-140.687 -97.923)" fill="#fff"></path>
        <path id="Path_148" data-name="Path 148" d="M222.861,183.656a16.237,16.237,0,0,1-8.249-2.264,1.717,1.717,0,1,1,1.747-2.958A12.8,12.8,0,0,0,233.9,160.893a1.717,1.717,0,1,1,2.958-1.747,16.239,16.239,0,0,1-14,24.509" transform="translate(-164.815 -122.051)" fill="#fff"></path>
      </g>
    </g>
  </g>
</svg>
