<?xml version="1.0" encoding="UTF-8"?>
<svg xmlns="http://www.w3.org/2000/svg" xmlns:xlink="http://www.w3.org/1999/xlink" id="icn2" width="137" height="136" viewBox="0 0 137 136">
  <defs>
    <clipPath id="clip-path">
      <rect id="Rectangle_4189" data-name="Rectangle 4189" width="137" height="136" fill="none"></rect>
    </clipPath>
  </defs>
  <g id="Group_3684" data-name="Group 3684" clip-path="url(#clip-path)">
    <path id="Path_1946" data-name="Path 1946" d="M68.5,0C106.332,0,137,30.445,137,68s-30.668,68-68.5,68S0,105.555,0,68,30.669,0,68.5,0" fill="#fff"></path>
    <path id="Path_1947" data-name="Path 1947" d="M78.626,74.613h2.306v2.306a1.493,1.493,0,0,0,1.491,1.491h5.063a1.493,1.493,0,0,0,1.491-1.491V74.613h2.306a1.493,1.493,0,0,0,1.491-1.491V68.059a1.492,1.492,0,0,0-1.491-1.49H88.977V64.262a1.493,1.493,0,0,0-1.491-1.491H82.423a1.493,1.493,0,0,0-1.491,1.491v2.307H78.626a1.492,1.492,0,0,0-1.491,1.49v5.063a1.493,1.493,0,0,0,1.491,1.491m8.86-5.063h2.306v2.081H87.486A1.493,1.493,0,0,0,86,73.122v2.307H83.914V73.122a1.493,1.493,0,0,0-1.491-1.491H80.117V69.55h2.306a1.493,1.493,0,0,0,1.491-1.491V65.753H86v2.306a1.493,1.493,0,0,0,1.491,1.491" fill="#00bbb4"></path>
    <path id="Path_1948" data-name="Path 1948" d="M64.7,79.225H63.662V47.8a1.449,1.449,0,0,0-.169-.656l-2.362-4.754V40.212A4.032,4.032,0,0,0,58.6,36.493V24.8H55.618V36.493a4.033,4.033,0,0,0-2.532,3.72v2.18l-2.359,4.748a1.475,1.475,0,0,0-.172.666V79.225H49.514a1.493,1.493,0,0,0-1.491,1.491v5.063a1.493,1.493,0,0,0,1.491,1.491h3.572v5.884a4.023,4.023,0,0,0,.225,8.039h7.595a4.023,4.023,0,0,0,.225-8.039V87.27H64.7a1.493,1.493,0,0,0,1.491-1.491V80.716A1.493,1.493,0,0,0,64.7,79.225M57.109,39.172a1.042,1.042,0,0,1,1.04,1.041v1.041H56.068V40.213a1.042,1.042,0,0,1,1.041-1.041m-2.651,7.145,1.04-2.082h3.221l1.041,2.082ZM53.536,72.9V70.815h2.532V67.834H53.536V65.752h2.532V62.771H53.536V60.69h2.532V57.708H53.536V55.627h2.532V52.645H53.536V49.3h7.145V79.225H53.536V75.878h2.532V72.9ZM56.068,87.27h2.081v5.879H56.068Zm-2.757,8.86h7.595a1.041,1.041,0,0,1,0,2.081H53.311a1.041,1.041,0,0,1,0-2.081M51.005,82.207H63.212v2.081H51.005Z" fill="#00bbb4"></path>
    <path id="Path_1949" data-name="Path 1949" d="M44.451,72.9H31.794A1.492,1.492,0,0,0,30.3,74.388V79.45a1.493,1.493,0,0,0,1.491,1.491h1.041v.424L30.74,83.459a1.5,1.5,0,0,0-.437,1.054V99.7a1.493,1.493,0,0,0,1.491,1.491H44.451A1.493,1.493,0,0,0,45.942,99.7V84.513a1.5,1.5,0,0,0-.437-1.054l-2.094-2.094v-.424h1.04a1.493,1.493,0,0,0,1.491-1.491V74.388A1.492,1.492,0,0,0,44.451,72.9M40.866,83.036l2.095,2.094v.424H33.285V85.13l2.1-2.094a1.5,1.5,0,0,0,.436-1.054V80.941h4.613v1.041a1.5,1.5,0,0,0,.437,1.054m2.095,10.112H33.285V88.535h9.676Zm0,5.063H33.285V96.13h9.676Zm0-20.251H33.285V75.878h9.676Z" fill="#00bbb4"></path>
    <path id="Path_1950" data-name="Path 1950" d="M105.206,85.554h-3.573V59.2a6.591,6.591,0,0,0-5.063-6.382V50.564h1.041A1.493,1.493,0,0,0,99.1,49.073V41.479a1.493,1.493,0,0,0-1.491-1.491H72.3a1.493,1.493,0,0,0-1.491,1.491v7.594A1.493,1.493,0,0,0,72.3,50.564h1.04v2.252A6.591,6.591,0,0,0,68.275,59.2v35.44a6.571,6.571,0,0,0,6.553,6.553H95.08a1.5,1.5,0,0,0,1.054-.436l2.094-2.095h.424V99.7a1.492,1.492,0,0,0,1.491,1.49h5.063a1.492,1.492,0,0,0,1.49-1.49V87.044a1.492,1.492,0,0,0-1.49-1.49m-1.491,12.657h-2.081V88.535h2.081Zm-5.063-17.72h-27.4v-19.8h27.4ZM76.319,50.564h17.27v2.081H76.319ZM71.6,57.708a3.581,3.581,0,0,1,3.23-2.081H95.079a3.578,3.578,0,0,1,3.231,2.081ZM78.85,45.5V42.969h2.082V45.5h2.981V42.969H86V45.5h2.981V42.969h2.082V45.5h2.981V42.969H96.12v4.613H73.787V42.969h2.082V45.5Zm12.208,52.71H86.445V88.535h4.613Zm-7.6,0H81.382V88.535h2.081ZM95.08,85.554H79.891a1.493,1.493,0,0,0-1.491,1.49V98.211H74.828a3.576,3.576,0,0,1-3.572-3.572V83.472h27.4v4.613h-.424l-2.094-2.094a1.5,1.5,0,0,0-1.054-.437M94.039,98.211V88.535h.424l2.094,2.095a1.5,1.5,0,0,0,1.054.437h1.041V95.68H97.611a1.5,1.5,0,0,0-1.054.436l-2.094,2.1Z" fill="#00bbb4"></path>
    <rect id="Rectangle_4187" data-name="Rectangle 4187" width="2.981" height="2.982" transform="translate(73.338 93.148)" fill="#00bbb4"></rect>
    <rect id="Rectangle_4188" data-name="Rectangle 4188" width="2.981" height="2.981" transform="translate(73.338 88.086)" fill="#00bbb4"></rect>
  </g>
</svg>
