<?xml version="1.0" encoding="UTF-8"?>
<svg xmlns="http://www.w3.org/2000/svg" xmlns:xlink="http://www.w3.org/1999/xlink" id="icn2" width="137" height="136" viewBox="0 0 137 136">
  <defs>
    <clipPath id="clip-path">
      <rect id="Rectangle_4168" data-name="Rectangle 4168" width="137" height="136" fill="none"></rect>
    </clipPath>
  </defs>
  <g id="Group_3664" data-name="Group 3664" clip-path="url(#clip-path)">
    <path id="Path_1852" data-name="Path 1852" d="M68.5,0C106.332,0,137,30.445,137,68s-30.668,68-68.5,68S0,105.555,0,68,30.669,0,68.5,0" fill="#fff"></path>
    <path id="Path_1853" data-name="Path 1853" d="M79.805,73.571l-1.264-1.264c.036-.084.07-.168.1-.251h1.787a2.425,2.425,0,0,0,2.422-2.422V66.367a2.424,2.424,0,0,0-2.422-2.421H78.645c-.033-.084-.068-.167-.1-.252l1.264-1.264a2.424,2.424,0,0,0,0-3.424l-2.311-2.311a2.426,2.426,0,0,0-3.424,0L72.806,57.96c-.083-.036-.167-.071-.251-.1V56.068a2.425,2.425,0,0,0-2.421-2.422H66.867a2.425,2.425,0,0,0-2.422,2.422v1.788c-.085.034-.169.068-.251.1l-1.265-1.265a2.424,2.424,0,0,0-3.424,0L57.2,59.006a2.423,2.423,0,0,0,0,3.424l1.264,1.264c-.035.083-.07.167-.1.252H56.567a2.424,2.424,0,0,0-2.421,2.421v3.267a2.425,2.425,0,0,0,2.421,2.422h1.788c.034.084.068.168.1.251l-1.264,1.264a2.424,2.424,0,0,0,0,3.424l2.31,2.31a2.424,2.424,0,0,0,3.424,0l1.265-1.263c.083.035.166.07.251.1v1.788a2.424,2.424,0,0,0,2.422,2.421h3.267a2.424,2.424,0,0,0,2.421-2.421V78.146c.085-.034.168-.069.251-.1l1.265,1.263a2.423,2.423,0,0,0,3.423,0L79.805,77a2.426,2.426,0,0,0,0-3.424m-13.966,1.9a7.571,7.571,0,0,1-.737-.306,2.424,2.424,0,0,0-2.746.478l-1.139,1.138-1.5-1.5,1.139-1.14a2.419,2.419,0,0,0,.476-2.745c-.11-.233-.213-.48-.3-.735a2.423,2.423,0,0,0-2.279-1.605h-1.61V66.941h1.61a2.421,2.421,0,0,0,2.278-1.6,7.893,7.893,0,0,1,.306-.737,2.423,2.423,0,0,0-.477-2.746l-1.139-1.139,1.5-1.5,1.139,1.139a2.422,2.422,0,0,0,2.747.476c.24-.113.488-.216.735-.3a2.424,2.424,0,0,0,1.6-2.279v-1.61h2.117v1.61a2.422,2.422,0,0,0,1.6,2.279,7.827,7.827,0,0,1,.736.3,2.419,2.419,0,0,0,2.745-.476l1.139-1.139,1.5,1.5L76.14,61.856a2.425,2.425,0,0,0-.476,2.747,7.847,7.847,0,0,1,.305.735,2.42,2.42,0,0,0,2.278,1.6h1.611v2.117H78.247a2.419,2.419,0,0,0-2.277,1.6,7.87,7.87,0,0,1-.306.737,2.424,2.424,0,0,0,.476,2.746l1.139,1.139-1.5,1.5-1.139-1.138a2.421,2.421,0,0,0-2.746-.477,7.938,7.938,0,0,1-.736.305,2.421,2.421,0,0,0-1.6,2.279v1.61H67.442v-1.61a2.422,2.422,0,0,0-1.6-2.279" fill="#00bbb4"></path>
    <path id="Path_1854" data-name="Path 1854" d="M74.871,68A6.371,6.371,0,1,0,68.5,74.371,6.378,6.378,0,0,0,74.871,68m-9.745,0A3.374,3.374,0,1,1,68.5,71.374,3.378,3.378,0,0,1,65.126,68" fill="#00bbb4"></path>
    <path id="Path_1855" data-name="Path 1855" d="M44.269,58.256A14.486,14.486,0,1,0,29.782,43.769,14.5,14.5,0,0,0,44.269,58.256m0-25.977a11.5,11.5,0,0,1,11.49,11.49,11.36,11.36,0,0,1-1.945,6.388,6.489,6.489,0,0,0-5.9-3.78H40.623a6.489,6.489,0,0,0-5.9,3.78,11.367,11.367,0,0,1-1.945-6.388,11.5,11.5,0,0,1,11.49-11.49m-3.646,17.1h7.292a3.493,3.493,0,0,1,3.495,3.39,11.465,11.465,0,0,1-14.281,0,3.492,3.492,0,0,1,3.494-3.39" fill="#00bbb4"></path>
    <path id="Path_1856" data-name="Path 1856" d="M92.731,77.744a14.487,14.487,0,1,0,14.487,14.487A14.5,14.5,0,0,0,92.731,77.744M89.085,97.836h7.292a3.493,3.493,0,0,1,3.5,3.39,11.5,11.5,0,0,1-14.281,0,3.491,3.491,0,0,1,3.494-3.39m0-3a6.488,6.488,0,0,0-5.9,3.78,11.358,11.358,0,0,1-1.946-6.388,11.49,11.49,0,1,1,22.98,0,11.362,11.362,0,0,1-1.945,6.388,6.489,6.489,0,0,0-5.9-3.78Z" fill="#00bbb4"></path>
    <path id="Path_1857" data-name="Path 1857" d="M44.269,45.264a5.864,5.864,0,1,0-4.148-1.715,5.852,5.852,0,0,0,4.148,1.715M41.4,39.4a2.872,2.872,0,0,1,4.9-2.03l.034.034a2.87,2.87,0,1,1-4.934,2" fill="#00bbb4"></path>
    <path id="Path_1858" data-name="Path 1858" d="M40.121,83.715A5.871,5.871,0,1,0,44.269,82a5.823,5.823,0,0,0-4.148,1.716m2.118,2.118a2.875,2.875,0,1,1-.839,2.03,2.874,2.874,0,0,1,.839-2.03" fill="#00bbb4"></path>
    <path id="Path_1859" data-name="Path 1859" d="M88.583,35.252h0A5.865,5.865,0,0,0,92.73,45.265h0a5.865,5.865,0,1,0-4.15-10.013m4.148,7.017a2.87,2.87,0,1,1,2.03-.84h0A2.851,2.851,0,0,1,92.731,42.269Z" fill="#00bbb4"></path>
    <path id="Path_1860" data-name="Path 1860" d="M96.879,83.714A5.873,5.873,0,1,0,98.6,87.862a5.823,5.823,0,0,0-1.716-4.148h0m-2.118,6.178a2.869,2.869,0,1,1,0-4.06,2.875,2.875,0,0,1,0,4.06" fill="#00bbb4"></path>
    <path id="Path_1861" data-name="Path 1861" d="M61.432,45.267H75.569a1.5,1.5,0,0,0,0-3H61.432a1.5,1.5,0,0,0,0,3" fill="#00bbb4"></path>
    <path id="Path_1862" data-name="Path 1862" d="M75.568,90.733H61.431a1.5,1.5,0,0,0,0,3H75.568a1.5,1.5,0,0,0,0-3" fill="#00bbb4"></path>
    <path id="Path_1863" data-name="Path 1863" d="M45.767,60.932a1.5,1.5,0,0,0-3,0V75.069a1.5,1.5,0,0,0,3,0Z" fill="#00bbb4"></path>
    <path id="Path_1864" data-name="Path 1864" d="M91.233,60.932V75.069a1.5,1.5,0,0,0,3,0V60.932a1.5,1.5,0,0,0-3,0" fill="#00bbb4"></path>
    <path id="Path_1865" data-name="Path 1865" d="M92.731,58.256a14.555,14.555,0,0,0,14.164-11.435,1.5,1.5,0,0,0-2.93-.629,11.249,11.249,0,0,1-1.69,3.963,6.49,6.49,0,0,0-5.9-3.778H89.085a6.487,6.487,0,0,0-5.9,3.78,11.358,11.358,0,0,1-1.946-6.388,11.491,11.491,0,0,1,22.766-2.217,1.5,1.5,0,1,0,2.941-.575A14.487,14.487,0,1,0,92.731,58.256m-7.14-5.492a3.493,3.493,0,0,1,3.494-3.39h7.293a3.5,3.5,0,0,1,3.5,3.375,11.44,11.44,0,0,1-14.282.015" fill="#00bbb4"></path>
    <path id="Path_1866" data-name="Path 1866" d="M47.19,78.039a1.5,1.5,0,0,0-.6,2.937,11.522,11.522,0,0,1,9.169,11.255,11.35,11.35,0,0,1-1.946,6.388,6.485,6.485,0,0,0-5.9-3.78H40.623a6.487,6.487,0,0,0-5.9,3.78,11.357,11.357,0,0,1-1.945-6.388,11.521,11.521,0,0,1,9.169-11.255,1.5,1.5,0,1,0-.6-2.937,14.488,14.488,0,1,0,5.843,0m4.22,23.187a11.5,11.5,0,0,1-14.281,0,3.493,3.493,0,0,1,3.494-3.39h7.293a3.493,3.493,0,0,1,3.494,3.39" fill="#00bbb4"></path>
  </g>
</svg>
