<?xml version="1.0" encoding="UTF-8"?>
<svg xmlns="http://www.w3.org/2000/svg" xmlns:xlink="http://www.w3.org/1999/xlink" id="icn2" width="137" height="136" viewBox="0 0 137 136">
  <defs>
    <clipPath id="clip-path">
      <rect id="Rectangle_4225" data-name="Rectangle 4225" width="137" height="136" fill="none"></rect>
    </clipPath>
  </defs>
  <g id="Group_3717" data-name="Group 3717" clip-path="url(#clip-path)">
    <path id="Path_2142" data-name="Path 2142" d="M68.5,0C106.332,0,137,30.445,137,68s-30.668,68-68.5,68S0,105.555,0,68,30.669,0,68.5,0" fill="#fff"></path>
    <path id="Path_2143" data-name="Path 2143" d="M89.308,62.268c.015-.131.022-.235.029-.336.005-.073.01-.148.019-.239l.013-.156c.3-6.015-1.611-11.314-5.387-14.92s-9.223-5.277-15.328-4.7C56.731,43.063,48.72,51.054,48.72,61.8A28.7,28.7,0,0,0,54.1,77.909a18.566,18.566,0,0,1,3.425,10.932v3.685a1.505,1.505,0,0,0,1.011,1.425,3.136,3.136,0,0,0-.076.672,3.581,3.581,0,0,0,.683,2.1,3.537,3.537,0,0,0-.683,2.1,3.625,3.625,0,0,0,2.806,3.508,5.405,5.405,0,0,0,5.173,3.962h5.948a5.4,5.4,0,0,0,5.174-3.963,3.582,3.582,0,0,0,2.122-5.6,3.543,3.543,0,0,0,.683-2.1,3.253,3.253,0,0,0-.055-.592,1.524,1.524,0,0,0,1.3-1.5V84.315a.265.265,0,0,1,.267-.268h3.448A4.584,4.584,0,0,0,89.9,79.469V74.763l1.451-.173a2.41,2.41,0,0,0,1.858-1.285,2.357,2.357,0,0,0,.03-2.177ZM74.144,102.436a2.307,2.307,0,0,1-1.758.808H66.438a2.307,2.307,0,0,1-1.757-.808Zm2.6-7.225H62.054a.576.576,0,1,1,0-1.152H76.747a.563.563,0,0,1,.575.576.576.576,0,0,1-.575.576m-14.68,3.031H76.758a.574.574,0,0,1,.576.567.583.583,0,0,1-.576.584H62.067a.576.576,0,1,1,0-1.151M86.86,73.415v6.054A1.537,1.537,0,0,1,85.324,81H81.889a3.314,3.314,0,0,0-3.31,3.311V91H60.554V88.853a21.641,21.641,0,0,0-3.992-12.717A25.536,25.536,0,0,1,51.751,61.8c0-9.1,6.907-15.87,17.186-16.857,5.292-.5,9.763.838,12.932,3.868,3.123,2.985,4.7,7.448,4.448,12.554l-.014.158a5.717,5.717,0,0,1-.077.725,1.563,1.563,0,0,0,.109.853l3.812,8.568-1.941.236a1.527,1.527,0,0,0-1.346,1.507" fill="#00bbb4"></path>
    <path id="Path_2144" data-name="Path 2144" d="M68.571,39.545a1.524,1.524,0,0,0,1.522-1.522V31.235a1.521,1.521,0,1,0-3.043,0v6.788a1.523,1.523,0,0,0,1.521,1.522" fill="#00bbb4"></path>
    <path id="Path_2145" data-name="Path 2145" d="M80.231,42.705a1.478,1.478,0,0,0,.756.2,1.507,1.507,0,0,0,1.318-.755l3.4-5.886a1.518,1.518,0,1,0-2.632-1.512l-3.4,5.874a1.491,1.491,0,0,0-.157,1.143,1.522,1.522,0,0,0,.716.931" fill="#00bbb4"></path>
    <path id="Path_2146" data-name="Path 2146" d="M90.064,52.033a1.475,1.475,0,0,0,.755-.2l5.879-3.4a1.518,1.518,0,0,0-1.512-2.633l-5.879,3.4a1.535,1.535,0,0,0-.562,2.067,1.512,1.512,0,0,0,1.319.771" fill="#00bbb4"></path>
    <path id="Path_2147" data-name="Path 2147" d="M100.147,61.432h-6.79a1.522,1.522,0,0,0,0,3.043h6.79a1.521,1.521,0,1,0,0-3.043" fill="#00bbb4"></path>
    <path id="Path_2148" data-name="Path 2148" d="M46.185,73.932l-5.894,3.4a1.516,1.516,0,0,0,.768,2.826,1.478,1.478,0,0,0,.756-.2l5.878-3.4a1.513,1.513,0,1,0-1.508-2.623" fill="#00bbb4"></path>
    <path id="Path_2149" data-name="Path 2149" d="M45.164,62.822A1.522,1.522,0,0,0,43.643,61.3h-6.79a1.521,1.521,0,0,0,0,3.042h6.8a1.541,1.541,0,0,0,1.514-1.521" fill="#00bbb4"></path>
    <path id="Path_2150" data-name="Path 2150" d="M47.762,49.076l-5.887-3.4A1.523,1.523,0,0,0,39.65,47.4a1.483,1.483,0,0,0,.714.913l5.871,3.4a1.472,1.472,0,0,0,.761.208,1.519,1.519,0,0,0,.766-2.839" fill="#00bbb4"></path>
    <path id="Path_2151" data-name="Path 2151" d="M54.813,42.084h0a1.526,1.526,0,0,0,1.317.754,1.476,1.476,0,0,0,.757-.205,1.536,1.536,0,0,0,.56-2.072l-3.4-5.876a1.518,1.518,0,1,0-2.635,1.509Z" fill="#00bbb4"></path>
    <path id="Path_2152" data-name="Path 2152" d="M83.243,58.019a1.486,1.486,0,0,0-1.294-.079l-.194.08a.84.84,0,0,1-1.071-.462.787.787,0,0,1,.016-.629.769.769,0,0,1,.437-.428l.205-.084a1.506,1.506,0,0,0,.9-.93A1.544,1.544,0,0,0,82.1,54.2a14.576,14.576,0,0,0-4.293-4.462,1.527,1.527,0,0,0-1.269-.2,1.547,1.547,0,0,0-.976.855l-.08.194a.857.857,0,0,1-1.087.424.8.8,0,0,1-.433-.452.834.834,0,0,1,.013-.641l.08-.194a1.52,1.52,0,0,0-1.035-2.086,14.569,14.569,0,0,0-6.2-.12,1.525,1.525,0,0,0-1.111,2.047l.072.2a.83.83,0,0,1-.012.631.8.8,0,0,1-.452.43.838.838,0,0,1-1.072-.471l-.078-.189a1.487,1.487,0,0,0-.942-.9,1.535,1.535,0,0,0-1.284.143,14.735,14.735,0,0,0-4.463,4.293,1.511,1.511,0,0,0-.2,1.268,1.547,1.547,0,0,0,.855.976l.194.08a.745.745,0,0,1,.427.445l.006.016a.818.818,0,0,1-1.1,1.047l-.2-.082a1.53,1.53,0,0,0-1.282.033,1.515,1.515,0,0,0-.8,1,14.572,14.572,0,0,0-.12,6.2,1.509,1.509,0,0,0,.762,1.029,1.487,1.487,0,0,0,1.3.078l.2-.081a.823.823,0,0,1,1.068.464.83.83,0,0,1-.468,1.074l-.2.082a1.527,1.527,0,0,0-.722,2.221,14.6,14.6,0,0,0,4.294,4.465,1.564,1.564,0,0,0,1.268.2,1.547,1.547,0,0,0,.976-.855l.082-.2a.792.792,0,0,1,.435-.423.841.841,0,0,1,.648,0,.775.775,0,0,1,.433.45.8.8,0,0,1-.023.632l-.081.2a1.533,1.533,0,0,0,.033,1.283,1.513,1.513,0,0,0,1,.8,14.366,14.366,0,0,0,3.369.4,14.8,14.8,0,0,0,2.827-.28,1.525,1.525,0,0,0,1.107-2.057l-.081-.2a.793.793,0,0,1,.018-.624.82.82,0,0,1,.448-.443.851.851,0,0,1,1.072.471l.082.2a1.5,1.5,0,0,0,.938.876,1.536,1.536,0,0,0,1.284-.142,14.59,14.59,0,0,0,4.463-4.293,1.488,1.488,0,0,0,.189-1.276,1.548,1.548,0,0,0-.854-.968L80.93,67.7a.81.81,0,0,1,.028-1.507.814.814,0,0,1,.635.01l.2.081a1.531,1.531,0,0,0,1.283-.034,1.509,1.509,0,0,0,.8-1.005,14.765,14.765,0,0,0,.111-6.18,1.442,1.442,0,0,0-.742-1.043m-5.521,7.389a3.777,3.777,0,0,0-.054,2.952,3.855,3.855,0,0,0,.7,1.146,12.066,12.066,0,0,1-1.433,1.381,3.954,3.954,0,0,0-4.081-.8A3.871,3.871,0,0,0,70.4,73.438a11.413,11.413,0,0,1-1.981-.042,4.026,4.026,0,0,0-.27-1.327,3.82,3.82,0,0,0-2.06-2.125,3.938,3.938,0,0,0-4.1.645,11.96,11.96,0,0,1-1.379-1.431,3.9,3.9,0,0,0,.8-4.08,3.809,3.809,0,0,0-3.354-2.448,11.288,11.288,0,0,1,.041-1.978,3.866,3.866,0,0,0,2.805-6.421,11.412,11.412,0,0,1,1.431-1.372,3.958,3.958,0,0,0,4.082.795A3.894,3.894,0,0,0,68.864,50.3a12.1,12.1,0,0,1,1.983.033,3.874,3.874,0,0,0,2.316,3.448,3.95,3.95,0,0,0,4.1-.646,12.055,12.055,0,0,1,1.381,1.432,4.07,4.07,0,0,0-.741,1.118,3.871,3.871,0,0,0-.052,2.963A3.809,3.809,0,0,0,81.2,61.1a10.733,10.733,0,0,1-.033,2,3.934,3.934,0,0,0-3.449,2.314" fill="#00bbb4"></path>
    <path id="Path_2153" data-name="Path 2153" d="M69.649,54.263a7.623,7.623,0,1,0,7.623,7.623,7.63,7.63,0,0,0-7.623-7.623m4.58,7.611a4.58,4.58,0,1,1-4.58-4.581,4.585,4.585,0,0,1,4.58,4.581" fill="#00bbb4"></path>
  </g>
</svg>
