<?xml version="1.0" encoding="UTF-8"?>
<svg xmlns="http://www.w3.org/2000/svg" xmlns:xlink="http://www.w3.org/1999/xlink" id="icn2" width="137" height="136" viewBox="0 0 137 136">
  <defs>
    <clipPath id="clip-path">
      <rect id="Rectangle_4245" data-name="Rectangle 4245" width="137" height="136" fill="none"></rect>
    </clipPath>
  </defs>
  <g id="Group_3725" data-name="Group 3725" clip-path="url(#clip-path)">
    <path id="Path_2209" data-name="Path 2209" d="M68.5,0C106.332,0,137,30.445,137,68s-30.668,68-68.5,68S0,105.555,0,68,30.669,0,68.5,0" fill="#fff"></path>
    <path id="Path_2210" data-name="Path 2210" d="M46.044,58.119A22.457,22.457,0,1,0,68.5,35.663,22.481,22.481,0,0,0,46.044,58.119M68.5,38.657A19.462,19.462,0,1,1,49.038,58.119,19.483,19.483,0,0,1,68.5,38.657" fill="#00bbb4"></path>
    <path id="Path_2211" data-name="Path 2211" d="M54.636,55.45l5.8,5.718L59.1,69.2a1.5,1.5,0,0,0,2.167,1.575L68.5,67.023l7.229,3.755A1.5,1.5,0,0,0,77.9,69.2l-1.335-8.035,5.8-5.718a1.5,1.5,0,0,0-.828-2.547l-8.053-1.212L69.839,44.4a1.5,1.5,0,0,0-2.678,0l-3.644,7.287L55.464,52.9a1.5,1.5,0,0,0-.828,2.547m10.1-.914a1.5,1.5,0,0,0,1.116-.81L68.5,48.421l2.653,5.305a1.5,1.5,0,0,0,1.116.81l5.861.882-4.224,4.161a1.5,1.5,0,0,0-.426,1.313l.972,5.848L69.19,64.008a1.5,1.5,0,0,0-1.38,0L62.548,66.74l.972-5.848a1.5,1.5,0,0,0-.426-1.313l-4.223-4.161Z" fill="#00bbb4"></path>
    <path id="Path_2212" data-name="Path 2212" d="M70,31.172a1.5,1.5,0,1,1-1.5-1.5,1.5,1.5,0,0,1,1.5,1.5" fill="#00bbb4"></path>
    <path id="Path_2213" data-name="Path 2213" d="M61.445,30.557A28.447,28.447,0,0,0,49.42,79.211L40.4,95.107a1.5,1.5,0,0,0,1.606,2.2L52.25,95.184l3.6,10.145a1.5,1.5,0,0,0,2.712.239L68.5,88.094l9.939,17.474a1.5,1.5,0,0,0,1.3.756c.044,0,.088,0,.132,0a1.5,1.5,0,0,0,1.279-.99l3.6-10.145,10.242,2.127a1.5,1.5,0,0,0,1.607-2.2l-9.019-15.9A28.447,28.447,0,0,0,75.556,30.557a1.5,1.5,0,1,0-.741,2.9,25.451,25.451,0,1,1-12.629,0,1.5,1.5,0,0,0-.741-2.9m-3.868,70.686-2.942-8.29a1.5,1.5,0,0,0-1.715-.966l-8.283,1.72,7.138-12.58A28.513,28.513,0,0,0,65.99,86.452Zm26.5-9.256a1.5,1.5,0,0,0-1.716.966l-2.941,8.29L71.01,86.452a28.513,28.513,0,0,0,14.216-5.325l7.138,12.58Z" fill="#00bbb4"></path>
  </g>
</svg>
