<?xml version="1.0" encoding="UTF-8"?>
<svg xmlns="http://www.w3.org/2000/svg" xmlns:xlink="http://www.w3.org/1999/xlink" width="137" height="136" viewBox="0 0 137 136">
  <defs>
    <clipPath id="clip-path">
      <rect id="Rectangle_634" data-name="Rectangle 634" width="72.086" height="72.059" fill="#00bbb4"></rect>
    </clipPath>
  </defs>
  <g id="icn2" transform="translate(0.437 -0.404)">
    <ellipse id="Ellipse_20" data-name="Ellipse 20" cx="68.5" cy="68" rx="68.5" ry="68" transform="translate(-0.437 0.404)" fill="#fff"></ellipse>
    <g id="Group_2486" data-name="Group 2486" transform="translate(32.362 33.913)">
      <g id="Group_2485" data-name="Group 2485" clip-path="url(#clip-path)">
        <path id="Path_241" data-name="Path 241" d="M77.514,41.638a25.126,25.126,0,0,0-17.854-7.407h0a25.288,25.288,0,1,0,17.854,7.407M70.635,79.243a22.622,22.622,0,0,1-10.956,2.837h-.035A22.574,22.574,0,0,1,37.185,57.239h4.593A4.928,4.928,0,0,0,46.5,60.828a4.865,4.865,0,0,0,2.392-.643l5.287,5.287a4.863,4.863,0,0,0-.643,2.393,4.925,4.925,0,1,0,9.85,0,4.861,4.861,0,0,0-.643-2.392l7.68-7.68a4.864,4.864,0,0,0,2.393.643,4.931,4.931,0,0,0,4.925-4.926,4.861,4.861,0,0,0-.643-2.392l2.4-2.4a22.6,22.6,0,0,1-8.865,30.524M45.477,41.928A22.529,22.529,0,0,1,78.038,46.4l-2.831,2.831a4.864,4.864,0,0,0-2.389-.646,4.931,4.931,0,0,0-4.925,4.926,4.86,4.86,0,0,0,.643,2.392l-7.68,7.68a4.759,4.759,0,0,0-4.786,0L50.783,58.3a4.9,4.9,0,0,0-4.267-7.314H46.51a4.913,4.913,0,0,0-4.732,3.585H37.622a22.7,22.7,0,0,1,7.856-12.639m27.34,13.836a2.252,2.252,0,1,1,2.252-2.252,2.255,2.255,0,0,1-2.252,2.252m-12.1,12.1a2.252,2.252,0,1,1-2.252-2.252,2.255,2.255,0,0,1,2.252,2.252M46.5,53.651A2.252,2.252,0,1,1,44.248,55.9,2.255,2.255,0,0,1,46.5,53.651" transform="translate(-29.582 -29.439)" fill="#00bbb4"></path>
        <path id="Path_242" data-name="Path 242" d="M59.982,12.25h0a4.928,4.928,0,0,0,4.722-3.589h7.38V5.988h-7.38a4.915,4.915,0,0,0-9.647,1.337A4.86,4.86,0,0,0,55.7,9.718L53.788,11.63A30.046,30.046,0,0,0,.261,26.134a30.046,30.046,0,0,0,46.027,29.2L61.14,70.184a6.411,6.411,0,0,0,9.067-9.067L55.355,46.265a29.974,29.974,0,0,0,0-32.423l2.236-2.236a4.864,4.864,0,0,0,2.391.644m8.4,56.046a3.744,3.744,0,0,1-5.288.06l-.061-.061L53.5,58.763l5.288-5.288,9.532,9.532a3.744,3.744,0,0,1,.06,5.288M48.671,53.637c.069-.058.137-.115.207-.172.167-.134.361-.293.54-.444.293-.246.547-.467.778-.675.082-.076.163-.151.243-.227l.141-.133c.489-.458.971-.94,1.431-1.431l.133-.141c.076-.08.151-.16.228-.244.209-.232.43-.487.674-.777.151-.179.3-.361.444-.54.056-.07.113-.138.171-.207.045-.054.09-.108.135-.162l3.1,3.1-5.288,5.288-3.1-3.1.163-.136m2.5-6.159c-.077.093-.158.184-.238.276l-.131.15c-.362.422-.742.836-1.128,1.233-.167.172-.34.345-.515.515-.395.386-.809.766-1.231,1.127-.069.058-.138.119-.208.18s-.145.128-.219.19c-.452.373-.952.756-1.531,1.17A27.417,27.417,0,0,1,14.1,7.7,27.417,27.417,0,0,1,52.342,45.948c-.414.578-.8,1.079-1.17,1.531M57.731,7.325a2.252,2.252,0,1,1,2.252,2.252,2.255,2.255,0,0,1-2.252-2.252" transform="translate(0 0)" fill="#00bbb4"></path>
      </g>
    </g>
  </g>
</svg>
