<?xml version="1.0" encoding="UTF-8"?>
<svg xmlns="http://www.w3.org/2000/svg" xmlns:xlink="http://www.w3.org/1999/xlink" id="icn2" width="137" height="136" viewBox="0 0 137 136">
  <defs>
    <clipPath id="clip-path">
      <rect id="Rectangle_4221" data-name="Rectangle 4221" width="137" height="136" fill="none"></rect>
    </clipPath>
  </defs>
  <g id="Group_3713" data-name="Group 3713" clip-path="url(#clip-path)">
    <path id="Path_2114" data-name="Path 2114" d="M68.5,0C106.332,0,137,30.445,137,68s-30.668,68-68.5,68S0,105.555,0,68,30.669,0,68.5,0" fill="#fff"></path>
    <path id="Path_2115" data-name="Path 2115" d="M106.363,98.451,98.355,90.68a2.811,2.811,0,0,0-2.893-.629l-2.844-2.762a16.078,16.078,0,0,0-7.126-22.736V53.784a1.484,1.484,0,0,0-.9-1.366L67.278,45v-.57a1.5,1.5,0,0,0-.952-1.386l-1.821-.7a14.484,14.484,0,0,0-1.157-2.792l.793-1.787a1.5,1.5,0,0,0-.309-1.652l-2.919-2.919a1.493,1.493,0,0,0-1.653-.306l-1.787.794a14.462,14.462,0,0,0-2.786-1.154l-.7-1.826a1.5,1.5,0,0,0-1.387-.953H48.47a1.494,1.494,0,0,0-1.385.951l-.7,1.827a14.571,14.571,0,0,0-2.789,1.156l-.178-.081-1.607-.714a1.478,1.478,0,0,0-1.654.306l-2.919,2.92a1.494,1.494,0,0,0-.306,1.653l.794,1.787a14.562,14.562,0,0,0-1.159,2.8c-.167.058-.427.158-.85.321l-.972.374a1.5,1.5,0,0,0-.952,1.386v4.129a1.5,1.5,0,0,0,.952,1.386l1.824.7a14.507,14.507,0,0,0,1.157,2.786l-.794,1.786a1.5,1.5,0,0,0,.306,1.654l2.919,2.918a1.486,1.486,0,0,0,.824.418V70.58A25.739,25.739,0,0,0,62.222,95.839l.756.131a1.444,1.444,0,0,0,.512,0l.756-.131a25.427,25.427,0,0,0,7.18-2.394,16.109,16.109,0,0,0,7.338,1.769A15.935,15.935,0,0,0,88.132,92.2l2.7,2.618a2.8,2.8,0,0,0,.722,2.875l8,7.767.028.028.008.005a2.819,2.819,0,0,0,3.944-.091l2.891-2.978a2.815,2.815,0,0,0-.059-3.975m-27.6-32.4a13.1,13.1,0,1,1-13.1,13.1,13.111,13.111,0,0,1,13.1-13.1M40.743,53.945a1.483,1.483,0,0,0-.094-1.385,11.533,11.533,0,0,1-1.4-3.379,1.488,1.488,0,0,0-.911-1.039l-1.576-.606V45.447l1.577-.607a1.485,1.485,0,0,0,.91-1.039,11.593,11.593,0,0,1,1.405-3.384,1.485,1.485,0,0,0,.092-1.383l-.687-1.546,1.475-1.476,1.547.687a1.482,1.482,0,0,0,1.382-.092,11.486,11.486,0,0,1,3.377-1.4,1.485,1.485,0,0,0,1.043-.91l.61-1.582h2.089l.607,1.58a1.488,1.488,0,0,0,1.043.912,11.5,11.5,0,0,1,3.377,1.4,1.484,1.484,0,0,0,1.383.092l1.545-.687,1.477,1.476-.685,1.548a1.486,1.486,0,0,0,.094,1.381,11.451,11.451,0,0,1,1.4,3.379,1.486,1.486,0,0,0,.912,1.045l1.576.606v2.089l-1.576.606a1.483,1.483,0,0,0-.912,1.044,11.562,11.562,0,0,1-1.4,3.379,1.488,1.488,0,0,0-.092,1.378l.685,1.546-1.478,1.478-1.546-.685a1.49,1.49,0,0,0-1.383.095,11.4,11.4,0,0,1-3.375,1.4,1.488,1.488,0,0,0-1.043.912l-.606,1.576H49.491l-.607-1.576a1.487,1.487,0,0,0-1.044-.912,11.556,11.556,0,0,1-3.383-1.4,1.488,1.488,0,0,0-1.378-.092l-1.547.685L40.056,55.49ZM62.792,80.909H60.607v-7.1a1.487,1.487,0,0,0-1.485-1.486h-7.1V67.067h7.1a1.486,1.486,0,0,0,1.485-1.485V60.024a1.4,1.4,0,0,0,.306-.236l1.311-1.31H65.86v7.1a1.487,1.487,0,0,0,1.486,1.485h.824A16,16,0,0,0,62.7,79.148a16.352,16.352,0,0,0,.1,1.761M82.521,63.523a16.158,16.158,0,0,0-9.39.573h-4.3v-7.1a1.486,1.486,0,0,0-1.485-1.485H64.235a1.583,1.583,0,0,0-.094-.29l-.793-1.788A14.624,14.624,0,0,0,64.5,50.644l1.822-.7a1.5,1.5,0,0,0,.952-1.386v-.327l15.243,6.533ZM43.947,59.49a14.62,14.62,0,0,0,2.436.971l.7,1.821a1.491,1.491,0,0,0,1.385.952H52.6a1.493,1.493,0,0,0,1.387-.952l.7-1.822a14.339,14.339,0,0,0,2.788-1.155l.161.072V64.1h-7.1a1.487,1.487,0,0,0-1.485,1.486v8.223a1.486,1.486,0,0,0,1.485,1.485h7.1v7.1a1.487,1.487,0,0,0,1.486,1.485H63.4a15.972,15.972,0,0,0,5.108,7.642,22.517,22.517,0,0,1-4.777,1.391l-.5.088-.5-.088A22.761,22.761,0,0,1,43.947,70.58ZM93.181,91.978l-.492.507-2.307-2.239c.163-.171.323-.346.478-.523Zm.553,3.695L96.4,92.925l7.776,7.546-2.67,2.75-7.775-7.548" fill="#00bbb4"></path>
    <path id="Path_2116" data-name="Path 2116" d="M78.764,90.149a11,11,0,1,0-11-11,11.013,11.013,0,0,0,11,11m-8.42-11a8.42,8.42,0,1,1,8.42,8.421,8.429,8.429,0,0,1-8.42-8.421" fill="#00bbb4"></path>
    <path id="Path_2117" data-name="Path 2117" d="M50.533,55.181a8.689,8.689,0,1,0-8.687-8.691,8.7,8.7,0,0,0,8.687,8.691M44.817,46.49a5.718,5.718,0,1,1,5.716,5.72,5.723,5.723,0,0,1-5.716-5.72" fill="#00bbb4"></path>
  </g>
</svg>
