<?xml version="1.0" encoding="UTF-8"?>
<svg xmlns="http://www.w3.org/2000/svg" xmlns:xlink="http://www.w3.org/1999/xlink" id="icn2" width="137" height="136" viewBox="0 0 137 136">
  <defs>
    <clipPath id="clip-path">
      <rect id="Rectangle_4205" data-name="Rectangle 4205" width="137" height="136" fill="none"></rect>
    </clipPath>
  </defs>
  <g id="Group_3696" data-name="Group 3696" clip-path="url(#clip-path)">
    <path id="Path_2010" data-name="Path 2010" d="M68.5,0C106.332,0,137,30.445,137,68s-30.668,68-68.5,68S0,105.555,0,68,30.669,0,68.5,0" fill="#fff"></path>
    <path id="Path_2011" data-name="Path 2011" d="M87.95,46.246l-.009-.011a1.49,1.49,0,0,0-.281-.246,29.139,29.139,0,0,0-38.32,0,1.418,1.418,0,0,0-.273.238c-.007.006-.012.013-.018.019a29.151,29.151,0,0,0,0,43.507l.01.012a1.487,1.487,0,0,0,.28.246,29.139,29.139,0,0,0,38.322,0,1.406,1.406,0,0,0,.27-.236l.019-.02a29.151,29.151,0,0,0,0-43.507M86.771,49.2a26.1,26.1,0,0,1,7.913,17.313H83.82a50.264,50.264,0,0,0-2.254-13.973,29.261,29.261,0,0,0,5.205-3.34m0,37.595a29.256,29.256,0,0,0-5.205-3.339A50.321,50.321,0,0,0,83.82,69.484H94.684A26.1,26.1,0,0,1,86.771,86.8m-8.948-1.744c-.271.655-.558,1.286-.854,1.878-1.979,3.959-4.39,6.406-6.984,7.1V83.382a26.164,26.164,0,0,1,7.838,1.671m1.8,3.205c.314-.626.619-1.3.91-1.993a26.153,26.153,0,0,1,3.951,2.513,26.031,26.031,0,0,1-7.913,4.176,22.842,22.842,0,0,0,3.052-4.7m-9.64-7.849V69.484H80.851A47.534,47.534,0,0,1,78.833,82.26a29.134,29.134,0,0,0-8.848-1.851M80.851,66.515H69.985V55.59a29.1,29.1,0,0,0,8.848-1.851,47.493,47.493,0,0,1,2.018,12.776m-.316-16.78c-.29-.7-.6-1.367-.91-1.995a22.945,22.945,0,0,0-3.052-4.7,26.033,26.033,0,0,1,7.913,4.177,26.412,26.412,0,0,1-3.951,2.513m-10.55,2.882V41.972c2.6.691,5,3.137,6.984,7.1.3.592.583,1.223.854,1.878a26.164,26.164,0,0,1-7.838,1.671M56.149,69.484H67.015V80.409a29.134,29.134,0,0,0-8.848,1.851,47.493,47.493,0,0,1-2.018-12.776m.316,16.781c.29.7.6,1.366.91,1.994a22.89,22.89,0,0,0,3.052,4.695,26.031,26.031,0,0,1-7.913-4.176,26.153,26.153,0,0,1,3.951-2.513m10.55-2.883V94.028c-2.594-.691-5-3.138-6.984-7.1-.3-.6-.584-1.226-.854-1.878a26.164,26.164,0,0,1,7.838-1.671m-11.581.076a29.256,29.256,0,0,0-5.2,3.339,26.1,26.1,0,0,1-7.913-17.313H53.18a50.272,50.272,0,0,0,2.254,13.974M42.316,66.515A26.1,26.1,0,0,1,50.229,49.2a29.261,29.261,0,0,0,5.2,3.34A50.307,50.307,0,0,0,53.18,66.515Zm24.7-24.543V52.617a26.164,26.164,0,0,1-7.838-1.671c.271-.655.558-1.286.854-1.878,1.979-3.959,4.39-6.405,6.984-7.1m0,13.618V66.515H56.149a47.54,47.54,0,0,1,2.018-12.776,29.1,29.1,0,0,0,8.848,1.851m-9.64-7.849c-.314.626-.619,1.3-.91,1.994a26.412,26.412,0,0,1-3.951-2.513,26.033,26.033,0,0,1,7.913-4.177,22.843,22.843,0,0,0-3.052,4.7" fill="#00bbb4"></path>
    <path id="Path_2012" data-name="Path 2012" d="M95.882,94.043h0l.225-.009,0-.04a1.091,1.091,0,0,0-.023-.158c0-.011,0-.022-.007-.036-.011-.044-.023-.088-.039-.138l-.006-.019-.211.079.2-.1c-.014-.038-.029-.077-.046-.115l-.008-.015-.012-.025a1.1,1.1,0,0,0-.074-.134l-.01-.015c-.026-.039-.054-.078-.086-.118l-.027-.034-.016-.017-.011-.012c-.016-.019-.033-.038-.054-.059a.243.243,0,0,0-.028-.026l-.041-.037c-.03-.026-.059-.051-.086-.07l-.032-.025-.014-.01c-.038-.026-.078-.051-.117-.073l-.022-.014a1.456,1.456,0,0,0-.318-.127l-.035-.009c-.043-.01-.086-.019-.13-.026l-.044-.007c-.046,0-.093-.008-.13-.009a1.13,1.13,0,0,0-.2.005l-6.174.682a1.486,1.486,0,0,0-1.312,1.639,1.482,1.482,0,0,0,1.638,1.312l1.48-.164A35.465,35.465,0,0,1,33.036,68a1.485,1.485,0,0,0-2.97,0A38.439,38.439,0,0,0,91.773,98.591l-.311,1.066a1.485,1.485,0,1,0,2.85.834l1.74-5.949c.015-.053.026-.107.037-.158l.006-.051a1.021,1.021,0,0,0,.012-.119l0-.055c0-.038,0-.076,0-.115Z" fill="#00bbb4"></path>
    <path id="Path_2013" data-name="Path 2013" d="M95.677,40.824a38.445,38.445,0,0,0-50.45-3.414l.312-1.067a1.485,1.485,0,0,0-2.85-.834L40.95,41.454a1.619,1.619,0,0,0-.04.177c0,.01,0,.02-.005.037-.006.04-.01.081-.012.119l0,.054a1.055,1.055,0,0,0,0,.117.418.418,0,0,0,0,.049,1.387,1.387,0,0,0,.023.161c0,.009,0,.02.008.033.01.043.022.089.036.133l.015.042a1.245,1.245,0,0,0,.05.119l.018.04a1.164,1.164,0,0,0,.07.125l.023.039.006,0a1.051,1.051,0,0,0,.077.1l.022.028.028.029c.016.017.031.036.048.053l.025.024.039.034c.023.022.048.043.078.068l.045.031a.859.859,0,0,0,.083.056c.016.011.031.019.045.027l.089.049.018.007.026.013a1.11,1.11,0,0,0,.112.043l.038.014a.84.84,0,0,0,.1.027l.053.013a1,1,0,0,0,.1.017.438.438,0,0,0,.051.009,1.7,1.7,0,0,0,.3,0l6.172-.682a1.486,1.486,0,0,0-.327-2.953l-1.48.165A35.464,35.464,0,0,1,103.964,68a1.485,1.485,0,0,0,2.969,0A38.182,38.182,0,0,0,95.677,40.824" fill="#00bbb4"></path>
  </g>
</svg>
