<?xml version="1.0" encoding="UTF-8"?>
<svg xmlns="http://www.w3.org/2000/svg" xmlns:xlink="http://www.w3.org/1999/xlink" id="icn2" width="137" height="136" viewBox="0 0 137 136">
  <defs>
    <clipPath id="clip-path">
      <rect id="Rectangle_4269" data-name="Rectangle 4269" width="137" height="136" fill="none"></rect>
    </clipPath>
  </defs>
  <g id="Group_3731" data-name="Group 3731" clip-path="url(#clip-path)">
    <path id="Path_2240" data-name="Path 2240" d="M68.5,0C106.332,0,137,30.445,137,68s-30.668,68-68.5,68S0,105.555,0,68,30.669,0,68.5,0" fill="#fff"></path>
    <path id="Path_2241" data-name="Path 2241" d="M103.763,76.127a1.424,1.424,0,0,0-1.007,1.052A35.448,35.448,0,0,1,33.28,72.17l3.392,4.284a1.483,1.483,0,0,0,2.08.242,1.484,1.484,0,0,0,.242-2.082L32.72,66.69a1.481,1.481,0,0,0-2.443.177l-5.068,8.745A1.481,1.481,0,1,0,27.77,77.1l2.585-4.461a38.427,38.427,0,0,0,75.263,5.306,1.424,1.424,0,0,0-.348-1.414,1.584,1.584,0,0,0-1.507-.4" fill="#00bbb4"></path>
    <path id="Path_2242" data-name="Path 2242" d="M111.241,58.377a1.438,1.438,0,0,0-2.018.528l-2.583,4.459A38.411,38.411,0,0,0,68.5,29.578h-.035a38.366,38.366,0,0,0-37.2,28.885,1.482,1.482,0,0,0,2.871.734A35.4,35.4,0,0,1,68.463,32.541H68.5a35.449,35.449,0,0,1,35.215,31.287l-3.388-4.282A1.481,1.481,0,0,0,98,61.384l6.275,7.929a1.47,1.47,0,0,0,1.162.562l.105,0a1.478,1.478,0,0,0,1.175-.735l5.071-8.75a1.437,1.437,0,0,0-.547-2.01" fill="#00bbb4"></path>
    <path id="Path_2243" data-name="Path 2243" d="M68.5,76.777h0A8.777,8.777,0,1,0,59.718,68,8.751,8.751,0,0,0,68.5,76.777m0-14.591A5.814,5.814,0,1,1,62.68,68,5.8,5.8,0,0,1,68.5,62.186" fill="#00bbb4"></path>
    <path id="Path_2244" data-name="Path 2244" d="M67.677,83.58l1.455.007h0C78.2,83.429,87.32,79.112,96.25,70.755a3.787,3.787,0,0,0,.01-5.5l-.012-.012C87.3,56.853,78.143,52.536,69.026,52.414c-.391-.014-.792-.013-1.188,0-8.977.228-18.086,4.536-27.073,12.806a3.779,3.779,0,0,0,0,5.554C49.678,79,58.729,83.3,67.677,83.58M42.513,68a.771.771,0,0,1,.264-.6A51.3,51.3,0,0,1,56.55,57.984a15.566,15.566,0,0,0-.005,20.03A51.168,51.168,0,0,1,42.777,68.6l-.006-.006a.747.747,0,0,1-.258-.585V68ZM68.5,55.367A12.636,12.636,0,1,1,55.861,68,12.6,12.6,0,0,1,68.5,55.367M94.476,68.013a.738.738,0,0,1-.255.583,49.7,49.7,0,0,1-13.877,9.541,15.565,15.565,0,0,0,0-20.275A49.531,49.531,0,0,1,94.218,67.4l.006.006a.752.752,0,0,1,.252.587v.019Z" fill="#00bbb4"></path>
  </g>
</svg>
