<?xml version="1.0" encoding="UTF-8"?>
<svg xmlns="http://www.w3.org/2000/svg" xmlns:xlink="http://www.w3.org/1999/xlink" id="icn2" width="137" height="136" viewBox="0 0 137 136">
  <defs>
    <clipPath id="clip-path">
      <rect id="Rectangle_4172" data-name="Rectangle 4172" width="137" height="136" fill="none"></rect>
    </clipPath>
  </defs>
  <g id="Group_3668" data-name="Group 3668" clip-path="url(#clip-path)">
    <path id="Path_1881" data-name="Path 1881" d="M68.5,0C106.332,0,137,30.445,137,68s-30.668,68-68.5,68S0,105.555,0,68,30.669,0,68.5,0" fill="#fff"></path>
    <path id="Path_1882" data-name="Path 1882" d="M99.768,47.932a20.77,20.77,0,0,0-7.443-10.707c-7-5.49-13.538-7.763-21.206-7.372A83.049,83.049,0,0,0,59.172,31.56c-5.6,1.128-9.682,3.1-12.464,6.04a23.462,23.462,0,0,0-4.991,8.137A32.824,32.824,0,0,0,40.6,49.771l-.1.438a15.444,15.444,0,0,1-1.033,2.748c-.287.639-.523,1.173-.731,1.727a4.438,4.438,0,0,0-.35,2.185l.005.029a4.93,4.93,0,0,0,1.873,2.869c.505.463.894.839.922,1.1A1.91,1.91,0,0,1,41,61.3l-.008.016a47.534,47.534,0,0,1-5.366,8.73c-.914,1.116-1.872,2.422-1.671,3.794l.006.028A4.017,4.017,0,0,0,35.84,76.3a9.282,9.282,0,0,0,1.3.755c.869.442,1.328.742,1.365.892a1.857,1.857,0,0,1-.117,1.1c-.172.364-.352.681-.51.96l-.02.036c-.455.8-1.3,2.3-.02,3.375.252.223.658.543,1,.805a3.339,3.339,0,0,0-.332,1.753,2,2,0,0,0,.818,1.35c.3.21.621.4.882.545.7.4.919.56.995.837a3.286,3.286,0,0,1-.127,1.383l-.005.02c-.077.351-.145.667-.188.992a7.447,7.447,0,0,0,.422,3.4,4.789,4.789,0,0,0,5.634,3.407,101.26,101.26,0,0,0,10.317-3.08c2.666,1.659,4.353,6.5,4.782,8.249a1.459,1.459,0,0,0,1.416,1.11H94.605a1.457,1.457,0,0,0,1.388-1.9,8.708,8.708,0,0,0-1.421-2.454,9.324,9.324,0,0,1-.862-1.315,24.04,24.04,0,0,1-1.379-3.49,40.714,40.714,0,0,1-1.445-7.248,20.624,20.624,0,0,1,1.591-10.692A27.486,27.486,0,0,1,95.8,71.849c.708-.952,1.51-2.031,2.215-3.143a19.14,19.14,0,0,0,3.051-10.243,37.089,37.089,0,0,0-1.3-10.531M87.993,88.13a43.593,43.593,0,0,0,1.553,7.76A27.11,27.11,0,0,0,91.089,99.8a11.905,11.905,0,0,0,.917,1.475H64.555a20.008,20.008,0,0,0-4.122-7.546l.6-.209.131-.046c.839-.293,1.5-.525,1.831-.629,5.39-1.692,8.084-4.166,8.01-7.355a1.458,1.458,0,0,0-2.915.068c.029,1.193-.984,2.942-5.971,4.508-.351.111-1.017.342-2.058.708-.876.306-1.965.688-3.161,1.1a102.412,102.412,0,0,1-10.552,3.187,1.948,1.948,0,0,1-2.279-1.482l-.009-.031a4.555,4.555,0,0,1-.284-2.064c.031-.234.085-.477.137-.711l.006-.028a5.708,5.708,0,0,0,.117-2.733l-.006-.022a4.288,4.288,0,0,0-2.385-2.657l-.005,0-.06-.034a4.205,4.205,0,0,1,.35-.538,1.456,1.456,0,0,0-.281-2.07c-.309-.228-.893-.667-1.35-1.027l.1-.186c.17-.3.4-.713.625-1.179a4.756,4.756,0,0,0,.347-2.892c-.308-1.617-1.807-2.383-2.91-2.945a6.938,6.938,0,0,1-.992-.575,6.137,6.137,0,0,1-.61-.484,6.338,6.338,0,0,1,1.078-1.574,50.005,50.005,0,0,0,5.651-9.186,3.784,3.784,0,0,0,.508-1.768v-.03A4.519,4.519,0,0,0,42.208,57.6c-.436-.4-.883-.81-.937-1.1a1.885,1.885,0,0,1,.176-.756l.006-.015c.187-.5.409-.994.624-1.476l.042-.1a17.843,17.843,0,0,0,1.211-3.275l.106-.455a29.94,29.94,0,0,1,1.017-3.682A20.573,20.573,0,0,1,48.824,39.6c2.354-2.485,5.927-4.182,10.927-5.188a80.452,80.452,0,0,1,11.521-1.653c6.92-.347,12.858,1.736,19.262,6.76a17.65,17.65,0,0,1,6.431,9.205,34.172,34.172,0,0,1,1.187,9.694,16.287,16.287,0,0,1-2.6,8.724c-.639,1.008-1.378,2-2.088,2.959a30.306,30.306,0,0,0-3.655,5.813A23.525,23.525,0,0,0,87.993,88.13" fill="#00bbb4"></path>
    <path id="Path_1883" data-name="Path 1883" d="M94.554,57.187a17.771,17.771,0,0,0,0-6.248,1.455,1.455,0,0,0-1.434-1.2H90.733a14.385,14.385,0,0,0-1.042-2.512l1.689-1.688a1.455,1.455,0,0,0,.165-1.865,17.716,17.716,0,0,0-4.416-4.416,1.451,1.451,0,0,0-1.864.165l-1.689,1.689a14.33,14.33,0,0,0-2.513-1.042V37.681a1.456,1.456,0,0,0-1.2-1.434,17.932,17.932,0,0,0-6.247,0,1.456,1.456,0,0,0-1.2,1.434v2.388A14.255,14.255,0,0,0,69.9,41.111l-1.689-1.689a1.451,1.451,0,0,0-1.864-.165,17.716,17.716,0,0,0-4.416,4.416,1.456,1.456,0,0,0,.165,1.865l1.689,1.688a14.353,14.353,0,0,0-1.042,2.512H60.358a1.455,1.455,0,0,0-1.434,1.2,17.818,17.818,0,0,0,0,6.248,1.455,1.455,0,0,0,1.434,1.2h2.387A14.343,14.343,0,0,0,63.787,60.9L62.1,62.588a1.455,1.455,0,0,0-.165,1.864,17.683,17.683,0,0,0,4.416,4.416,1.457,1.457,0,0,0,1.864-.164L69.9,67.015a14.407,14.407,0,0,0,2.513,1.042v2.387a1.457,1.457,0,0,0,1.2,1.435,17.876,17.876,0,0,0,6.247,0,1.457,1.457,0,0,0,1.2-1.435V68.057a14.407,14.407,0,0,0,2.513-1.042L85.265,68.7a1.457,1.457,0,0,0,1.864.164,17.682,17.682,0,0,0,4.416-4.416,1.454,1.454,0,0,0-.165-1.864L89.691,60.9a14.343,14.343,0,0,0,1.042-2.511H93.12a1.455,1.455,0,0,0,1.434-1.2m-6.367-.569a11.392,11.392,0,0,1-1.546,3.729,1.463,1.463,0,0,0,.195,1.818l1.586,1.585a14.924,14.924,0,0,1-1.995,2L84.842,64.16a1.465,1.465,0,0,0-1.817-.2,11.379,11.379,0,0,1-3.732,1.547,1.466,1.466,0,0,0-1.144,1.423v2.239a15.093,15.093,0,0,1-2.82,0V66.934a1.466,1.466,0,0,0-1.145-1.423,11.369,11.369,0,0,1-3.73-1.547,1.462,1.462,0,0,0-1.818.2l-1.585,1.585a14.924,14.924,0,0,1-2-2l1.585-1.585a1.463,1.463,0,0,0,.2-1.818,11.392,11.392,0,0,1-1.546-3.729,1.466,1.466,0,0,0-1.423-1.144H61.629a15.116,15.116,0,0,1,0-2.822h2.239a1.466,1.466,0,0,0,1.423-1.144,11.383,11.383,0,0,1,1.546-3.729,1.462,1.462,0,0,0-.195-1.818l-1.586-1.586a14.975,14.975,0,0,1,2-1.994l1.585,1.584a1.461,1.461,0,0,0,1.817.2,11.358,11.358,0,0,1,3.732-1.547,1.467,1.467,0,0,0,1.144-1.423V38.953a15.1,15.1,0,0,1,2.82,0v2.239a1.467,1.467,0,0,0,1.145,1.423,11.361,11.361,0,0,1,3.731,1.547,1.467,1.467,0,0,0,1.817-.2l1.585-1.585a14.916,14.916,0,0,1,1.995,1.994L86.837,45.96a1.464,1.464,0,0,0-.2,1.818,11.388,11.388,0,0,1,1.546,3.73,1.466,1.466,0,0,0,1.423,1.144h2.239a15.116,15.116,0,0,1,0,2.822H89.61a1.466,1.466,0,0,0-1.423,1.144" fill="#00bbb4"></path>
    <path id="Path_1884" data-name="Path 1884" d="M60.1,65.542H58.869a5.045,5.045,0,0,0-.414-.993l.876-.876a1.457,1.457,0,0,0-2.061-2.06l-.875.876a5.132,5.132,0,0,0-.993-.414V60.839a1.457,1.457,0,1,0-2.914,0v1.236a5.081,5.081,0,0,0-.993.414l-.876-.876a1.457,1.457,0,0,0-2.06,2.06l.875.876a5.1,5.1,0,0,0-.413.993H47.784a1.458,1.458,0,0,0,0,2.915h1.237a5.128,5.128,0,0,0,.413.993l-.875.875a1.457,1.457,0,1,0,2.06,2.061l.876-.876a5.081,5.081,0,0,0,.993.414V73.16a1.457,1.457,0,0,0,2.914,0V71.924a5.169,5.169,0,0,0,.993-.414l.875.876a1.457,1.457,0,0,0,2.061-2.061l-.876-.875a5.07,5.07,0,0,0,.414-.993H60.1a1.458,1.458,0,0,0,0-2.915M56.184,67a2.239,2.239,0,1,1-2.239-2.239A2.246,2.246,0,0,1,56.184,67" fill="#00bbb4"></path>
    <path id="Path_1885" data-name="Path 1885" d="M47.332,53.671a4.23,4.23,0,0,0,.185.446l-.551.552a1.457,1.457,0,1,0,2.06,2.06l.553-.553a4.512,4.512,0,0,0,.444.184v.782a1.458,1.458,0,1,0,2.915,0V56.36a4.4,4.4,0,0,0,.443-.184l.554.553a1.457,1.457,0,1,0,2.06-2.06l-.551-.552a4.231,4.231,0,0,0,.185-.446h.78a1.457,1.457,0,0,0,0-2.914h-.78a4.231,4.231,0,0,0-.185-.446l.551-.552a1.457,1.457,0,0,0-2.06-2.06l-.554.553a4.389,4.389,0,0,0-.443-.183v-.783a1.458,1.458,0,1,0-2.915,0v.783a4.389,4.389,0,0,0-.443.183l-.554-.553a1.457,1.457,0,1,0-2.06,2.06l.551.552a4.23,4.23,0,0,0-.185.446h-.78a1.457,1.457,0,0,0,0,2.914Zm2.648-1.457h0a1.5,1.5,0,1,1,.926,1.386,1.5,1.5,0,0,1-.926-1.386" fill="#00bbb4"></path>
    <path id="Path_1886" data-name="Path 1886" d="M76.738,45.828a8.235,8.235,0,1,0,8.234,8.235,8.243,8.243,0,0,0-8.234-8.235m5.32,8.235a5.319,5.319,0,1,1-5.319-5.32,5.326,5.326,0,0,1,5.319,5.32" fill="#00bbb4"></path>
  </g>
</svg>
