<?xml version="1.0" encoding="UTF-8"?>
<svg xmlns="http://www.w3.org/2000/svg" xmlns:xlink="http://www.w3.org/1999/xlink" id="icn2" width="136" height="136" viewBox="0 0 136 136">
  <defs>
    <clipPath id="clip-path">
      <rect id="Rectangle_4208" data-name="Rectangle 4208" width="136" height="136" fill="none"></rect>
    </clipPath>
  </defs>
  <g id="Group_3699" data-name="Group 3699" clip-path="url(#clip-path)">
    <path id="Path_2022" data-name="Path 2022" d="M136,68A68,68,0,1,1,68,0a68,68,0,0,1,68,68" fill="#fff"></path>
    <path id="Path_2023" data-name="Path 2023" d="M50.731,69.2H67.952a1.5,1.5,0,0,0,0-3H50.731a1.5,1.5,0,0,0,0,3" fill="#00bbb4"></path>
    <path id="Path_2024" data-name="Path 2024" d="M79.073,77H50.731a1.5,1.5,0,0,0,0,3H79.072a1.5,1.5,0,0,0,0-3" fill="#00bbb4"></path>
    <path id="Path_2025" data-name="Path 2025" d="M79.073,87.8H56.8a1.5,1.5,0,0,0,0,3H79.073a1.5,1.5,0,0,0,0-3" fill="#00bbb4"></path>
    <path id="Path_2026" data-name="Path 2026" d="M89.641,75.639A1.5,1.5,0,1,0,90.7,75.2a1.513,1.513,0,0,0-1.061.438" fill="#00bbb4"></path>
    <path id="Path_2027" data-name="Path 2027" d="M87.1,29.6a21.187,21.187,0,0,0-12.685,4.2H36.1a4.505,4.505,0,0,0-4.5,4.5V95.9a4.505,4.505,0,0,0,4.5,4.5h1.5a6.007,6.007,0,0,0,6,6H86.2a6.007,6.007,0,0,0,6-6V82.7a1.5,1.5,0,0,0-3,0v17.7a3,3,0,0,1-3,3H43.6a3,3,0,0,1-3-3v-42H51.7a4.505,4.505,0,0,0,4.5-4.5V42.8H67.4a21.306,21.306,0,0,0-1.121,12.6h-5.83a1.5,1.5,0,0,0,0,3h6.715A21.3,21.3,0,1,0,87.1,29.6M53.2,53.9a1.5,1.5,0,0,1-1.5,1.5H42.724L53.2,44.921Zm1.5-14.1a1.5,1.5,0,0,0-1.06.439h0l-15.6,15.6v0A1.5,1.5,0,0,0,37.6,56.9V97.4H36.1a1.5,1.5,0,0,1-1.5-1.5V38.3a1.5,1.5,0,0,1,1.5-1.5h35.05a21.492,21.492,0,0,0-2.222,3ZM87.1,69.2a18.3,18.3,0,1,1,18.3-18.3A18.322,18.322,0,0,1,87.1,69.2" transform="translate(2)" fill="#00bbb4"></path>
    <path id="Path_2028" data-name="Path 2028" d="M101.057,49.416H99.848a1.5,1.5,0,0,0,0,3h1.209a1.5,1.5,0,0,0,0-3" fill="#00bbb4"></path>
    <path id="Path_2029" data-name="Path 2029" d="M74.355,49.384H73.146a1.5,1.5,0,0,0,0,3h1.209a1.5,1.5,0,0,0,0-3" fill="#00bbb4"></path>
    <path id="Path_2030" data-name="Path 2030" d="M87.117,39.653a1.5,1.5,0,0,0,1.5-1.5V36.944a1.5,1.5,0,0,0-3,0v1.209a1.5,1.5,0,0,0,1.5,1.5" fill="#00bbb4"></path>
    <path id="Path_2031" data-name="Path 2031" d="M87.086,62.146a1.5,1.5,0,0,0-1.5,1.5v1.209a1.5,1.5,0,0,0,3,0V63.646a1.5,1.5,0,0,0-1.5-1.5" fill="#00bbb4"></path>
    <path id="Path_2032" data-name="Path 2032" d="M86.043,51.963a1.5,1.5,0,0,0,2.119,0l10.369-10.37A1.5,1.5,0,0,0,96.41,39.47L87.1,48.779l-5.407-5.408a1.5,1.5,0,0,0-2.122,2.121l6.454,6.455Z" fill="#00bbb4"></path>
    <path id="Path_2033" data-name="Path 2033" d="M49.741,88.239A1.5,1.5,0,1,0,50.8,87.8a1.511,1.511,0,0,0-1.061.439" fill="#00bbb4"></path>
  </g>
</svg>
