<?xml version="1.0" encoding="UTF-8"?>
<svg xmlns="http://www.w3.org/2000/svg" xmlns:xlink="http://www.w3.org/1999/xlink" id="icn2" width="137" height="136" viewBox="0 0 137 136">
  <defs>
    <clipPath id="clip-path">
      <rect id="Rectangle_4249" data-name="Rectangle 4249" width="137" height="136" fill="none"></rect>
    </clipPath>
  </defs>
  <g id="Group_3729" data-name="Group 3729" clip-path="url(#clip-path)">
    <path id="Path_2228" data-name="Path 2228" d="M68.5,0C106.332,0,137,30.445,137,68s-30.668,68-68.5,68S0,105.555,0,68,30.669,0,68.5,0" fill="#fff"></path>
    <path id="Path_2229" data-name="Path 2229" d="M86.384,77.994H50.616a14.276,14.276,0,0,0,0,28.553H86.384a14.276,14.276,0,0,0,0-28.553M97.655,92.271a11.3,11.3,0,0,1-11.271,11.271H72.557V81H86.384A11.3,11.3,0,0,1,97.655,92.271m-28.1,11.271h-2.1V81h2.1ZM64.443,81v22.543H50.616a11.271,11.271,0,0,1,0-22.543Z" fill="#00bbb4"></path>
    <path id="Path_2230" data-name="Path 2230" d="M42.952,93.773a1.5,1.5,0,0,0,1.5-1.5,6.18,6.18,0,0,1,6.162-6.162,1.5,1.5,0,1,0,0-3.005,9.192,9.192,0,0,0-9.166,9.167,1.5,1.5,0,0,0,1.5,1.5" fill="#00bbb4"></path>
    <path id="Path_2231" data-name="Path 2231" d="M46.656,75.889H90.345a6.372,6.372,0,0,0,5.667-3.432,6.724,6.724,0,0,0-.3-6.9L73.9,32.389a6.426,6.426,0,0,0-10.79,0L41.285,65.557a6.719,6.719,0,0,0-.3,6.9,6.375,6.375,0,0,0,5.67,3.435m46.711-4.855a3.417,3.417,0,0,1-3.045,1.851H46.678a3.42,3.42,0,0,1-3.047-1.856,3.66,3.66,0,0,1,.1-3.718h.005l21.89-33.274a3.419,3.419,0,0,1,5.766,0L93.207,67.211a3.664,3.664,0,0,1,.16,3.823" fill="#00bbb4"></path>
    <path id="Path_2232" data-name="Path 2232" d="M66.948,62.975a4.056,4.056,0,1,0,4.421.879,4.044,4.044,0,0,0-4.421-.879m2.3,4.492a1.053,1.053,0,1,1,.228-1.147,1.048,1.048,0,0,1-.228,1.147" fill="#00bbb4"></path>
    <path id="Path_2233" data-name="Path 2233" d="M68.5,60.561A4.062,4.062,0,0,0,72.557,56.5V41.175a4.057,4.057,0,1,0-8.114,0V56.5A4.062,4.062,0,0,0,68.5,60.561M67.448,41.175a1.052,1.052,0,1,1,2.1,0V56.5a1.052,1.052,0,1,1-2.1,0Z" fill="#00bbb4"></path>
  </g>
</svg>
