<?xml version="1.0" encoding="UTF-8"?>
<svg xmlns="http://www.w3.org/2000/svg" xmlns:xlink="http://www.w3.org/1999/xlink" id="icn2" width="137" height="136" viewBox="0 0 137 136">
  <defs>
    <clipPath id="clip-path">
      <rect id="Rectangle_4193" data-name="Rectangle 4193" width="137" height="136" fill="none"></rect>
    </clipPath>
  </defs>
  <g id="Group_3688" data-name="Group 3688" clip-path="url(#clip-path)">
    <path id="Path_1960" data-name="Path 1960" d="M68.5,0C106.332,0,137,30.445,137,68s-30.668,68-68.5,68S0,105.555,0,68,30.669,0,68.5,0" fill="#fff"></path>
    <path id="Path_1961" data-name="Path 1961" d="M102.794,73.908a8.939,8.939,0,1,0-9.7,0,9.025,9.025,0,0,0-4.078,6.363H83.672a5.264,5.264,0,0,0-5.258,5.258,5.2,5.2,0,0,0,.512,2.253H58.075a5.21,5.21,0,0,0,.51-2.253,5.264,5.264,0,0,0-5.257-5.258H47.986a9.031,9.031,0,0,0-4.078-6.363,8.938,8.938,0,1,0-9.7,0A9.015,9.015,0,0,0,30.044,81.5V97.546a1.5,1.5,0,0,0,1.5,1.5h73.907a1.5,1.5,0,0,0,1.5-1.5V81.5a9.015,9.015,0,0,0-4.161-7.593M97.942,60.471A5.933,5.933,0,1,1,92.009,66.4a5.94,5.94,0,0,1,5.933-5.933M88.929,90.786v5.258H48.07V90.786ZM39.057,60.471A5.933,5.933,0,1,1,33.123,66.4a5.94,5.94,0,0,1,5.934-5.933M33.048,81.5a6.009,6.009,0,1,1,12.018,0v.272a1.5,1.5,0,0,0,1.5,1.5h6.76a2.254,2.254,0,0,1,.015,4.507H42.812a2.256,2.256,0,0,1-2.253-2.253V81.841a1.5,1.5,0,1,0-3,0v3.688a5.263,5.263,0,0,0,5.257,5.257h2.254v5.258H33.048Zm70.9,14.543H91.934V90.786h2.253a5.263,5.263,0,0,0,5.257-5.257V81.841a1.5,1.5,0,1,0-3,0v3.688a2.256,2.256,0,0,1-2.253,2.253H83.64a2.254,2.254,0,0,1,.032-4.507h6.759a1.5,1.5,0,0,0,1.5-1.5V81.5a6.008,6.008,0,1,1,12.017,0Z" fill="#00bbb4"></path>
    <path id="Path_1962" data-name="Path 1962" d="M50.5,61.434a1.5,1.5,0,0,0,1.859,1.823l5.1-1.427a19.158,19.158,0,0,0,21.631.149l4.569,1.278a1.5,1.5,0,0,0,1.859-1.823L84.3,56.743a19.155,19.155,0,0,0-15.923-29.8,19.6,19.6,0,0,0-2.492.162,1.5,1.5,0,0,0,.387,2.981A16.155,16.155,0,0,1,84.53,46.1a16.025,16.025,0,0,1-3.07,9.472,1.5,1.5,0,0,0-.238,1.257l.733,2.834-2.744-.766a1.5,1.5,0,0,0-1.292.234,16.156,16.156,0,0,1-19.263-.139,1.5,1.5,0,0,0-1.31-.248l-3.288.919L55,56.032A1.508,1.508,0,0,0,54.8,54.84a16.151,16.151,0,0,1,.764-18.569,1.5,1.5,0,0,0-2.383-1.83A19.162,19.162,0,0,0,51.926,55.9Z" fill="#00bbb4"></path>
    <path id="Path_1963" data-name="Path 1963" d="M57.866,50.6h6.009v6.008a1.5,1.5,0,0,0,1.5,1.5h6.008a1.5,1.5,0,0,0,1.5-1.5V50.6H78.9a1.5,1.5,0,0,0,1.5-1.5V43.092a1.5,1.5,0,0,0-1.5-1.5H72.888V35.581a1.5,1.5,0,0,0-1.5-1.5H65.377a1.5,1.5,0,0,0-1.5,1.5V41.59H57.866a1.5,1.5,0,0,0-1.5,1.5V49.1a1.5,1.5,0,0,0,1.5,1.5m1.5-6.009h6.009a1.5,1.5,0,0,0,1.5-1.5V37.083h3v6.009a1.5,1.5,0,0,0,1.5,1.5h6.009v3H71.385a1.5,1.5,0,0,0-1.5,1.5v6.008h-3V49.1a1.5,1.5,0,0,0-1.5-1.5H59.368Z" fill="#00bbb4"></path>
    <path id="Path_1964" data-name="Path 1964" d="M59.558,32.314a1.488,1.488,0,0,0,.744-.2,1.5,1.5,0,0,0,.559-2.05h0a1.5,1.5,0,1,0-1.3,2.248" fill="#00bbb4"></path>
  </g>
</svg>
