<?xml version="1.0" encoding="UTF-8"?>
<svg xmlns="http://www.w3.org/2000/svg" xmlns:xlink="http://www.w3.org/1999/xlink" id="icn2" width="137" height="136" viewBox="0 0 137 136">
  <defs>
    <clipPath id="clip-path">
      <rect id="Rectangle_4278" data-name="Rectangle 4278" width="137" height="136" fill="none"></rect>
    </clipPath>
  </defs>
  <g id="Group_3741" data-name="Group 3741" clip-path="url(#clip-path)">
    <path id="Path_2283" data-name="Path 2283" d="M68.5,0C106.332,0,137,30.445,137,68s-30.668,68-68.5,68S0,105.555,0,68,30.669,0,68.5,0" fill="#fff"></path>
    <path id="Path_2284" data-name="Path 2284" d="M94.387,63.66l-8.5,8.494-3.685-3.709A1.523,1.523,0,1,0,80.052,70.6l4.784,4.785a1.523,1.523,0,0,0,2.153,0l9.576-9.573a1.523,1.523,0,1,0-2.154-2.153Z" fill="#00bbb4"></path>
    <path id="Path_2285" data-name="Path 2285" d="M106.571,69.522a18.294,18.294,0,0,0-15.229-18V43.635a1.522,1.522,0,0,0-.444-1.078L78.715,30.374a1.523,1.523,0,0,0-1.078-.445H41.089a1.523,1.523,0,0,0-1.522,1.524v7.614H31.953a1.522,1.522,0,0,0-1.523,1.522v63.958a1.523,1.523,0,0,0,1.523,1.523H83.728a1.523,1.523,0,0,0,1.523-1.523V96.933h4.568a1.523,1.523,0,0,0,1.523-1.522V87.522a18.294,18.294,0,0,0,15.229-18M79.16,35.128l6.983,6.984H79.16Zm3.045,67.9H33.475V42.112h6.092v53.3a1.523,1.523,0,0,0,1.522,1.522H82.205ZM88.3,93.887H42.613V32.975h33.5v10.66a1.523,1.523,0,0,0,1.523,1.523H88.3v6.091a18.274,18.274,0,1,0,0,36.548Zm0-9.136a15.229,15.229,0,1,1,15.228-15.229A15.228,15.228,0,0,1,88.3,84.751" fill="#00bbb4"></path>
    <path id="Path_2286" data-name="Path 2286" d="M57.84,66.922l-4.715,4.733L51.3,69.828a1.523,1.523,0,1,0-2.156,2.153l2.9,2.9a1.525,1.525,0,0,0,2.154,0L60,69.093a1.523,1.523,0,1,0-2.153-2.155Z" fill="#00bbb4"></path>
    <path id="Path_2287" data-name="Path 2287" d="M57.84,79.105l-4.715,4.732L51.3,82.01a1.523,1.523,0,1,0-2.156,2.153l2.9,2.9a1.521,1.521,0,0,0,2.154,0L60,81.276a1.523,1.523,0,1,0-2.153-2.156Z" fill="#00bbb4"></path>
    <path id="Path_2288" data-name="Path 2288" d="M50.227,42.113H68.5a1.523,1.523,0,0,0,0-3.046H50.227a1.523,1.523,0,1,0,0,3.046" fill="#00bbb4"></path>
    <path id="Path_2289" data-name="Path 2289" d="M68.5,48.2H50.226a1.523,1.523,0,1,0,0,3.046H68.5a1.523,1.523,0,0,0,0-3.046" fill="#00bbb4"></path>
    <path id="Path_2290" data-name="Path 2290" d="M59.363,57.34H50.227a1.523,1.523,0,1,0,0,3.046h9.136a1.523,1.523,0,1,0,0-3.046" fill="#00bbb4"></path>
  </g>
</svg>
