<?xml version="1.0" encoding="UTF-8"?>
<svg xmlns="http://www.w3.org/2000/svg" xmlns:xlink="http://www.w3.org/1999/xlink" width="182" height="182" viewBox="0 0 182 182">
  <defs>
    <clipPath id="clip-path">
      <rect id="Rectangle_60" data-name="Rectangle 60" width="90.795" height="90.69" fill="#fff"></rect>
    </clipPath>
  </defs>
  <g id="icn3" transform="translate(-502.459 -61)">
    <circle id="Ellipse_12" data-name="Ellipse 12" cx="91" cy="91" r="91" transform="translate(502.459 61)" fill="#773dbd"></circle>
    <g id="Group_51" data-name="Group 51" transform="translate(548.934 102.155)">
      <g id="Group_50" data-name="Group 50" clip-path="url(#clip-path)">
        <path id="Path_153" data-name="Path 153" d="M59.162,30.73c10.245-9.345,15.79-1.353,16.8,10.518l-2.49,2.625-4.352,3.048-2.7-4.236.337-5.531a1.621,1.621,0,0,0-3.236-.2l-.283,4.647-4.427.336a1.621,1.621,0,0,0,.245,3.233l4.869-.37,2.54,3.98L60.727,52.8l-7.271,1.738a1.621,1.621,0,0,0,.753,3.154l5.154-1.232L58.136,63.2,50.6,67.406a1.621,1.621,0,1,0,1.582,2.831l8.2-4.58a1.622,1.622,0,0,0,.8-1.126l1.69-9.279S75.636,46.3,75.711,46.225c0,0,3.2-3.39,3.257-3.489l3.767-6.2a1.621,1.621,0,0,0,.235-.841V25.9h5.18v9.794a1.621,1.621,0,0,0,.235.841l3.767,6.2c.06.1,3.257,3.489,3.257,3.489.074.078,12.832,9.027,12.832,9.027l1.69,9.279a1.622,1.622,0,0,0,.8,1.126l8.2,4.58a1.622,1.622,0,0,0,1.581-2.831L112.984,63.2l-1.227-6.738,5.154,1.232a1.621,1.621,0,0,0,.753-3.154L110.393,52.8l-5.734-4.016,2.54-3.98,4.868.37c.042,0,.083,0,.124,0a1.622,1.622,0,0,0,.121-3.238l-4.426-.335-.283-4.647a1.621,1.621,0,1,0-3.236.2l.338,5.531L102,46.922,97.65,43.874l-2.487-2.622c1.031-11.83,6.479-19.929,16.771-10.563a1.622,1.622,0,0,0,2.159-2.419c-10.273-9.435-19.445-4.632-21.6,8.773l-1.1-1.807V1.6a1.621,1.621,0,0,0-3.242,0V6.476H82.971V1.6a1.621,1.621,0,0,0-3.242,0V35.236l-1.091,1.8C76.5,23.613,67.123,18.917,56.985,28.327a1.622,1.622,0,0,0,2.177,2.4ZM82.971,9.718H88.15v4.846H82.971Zm0,8.088H88.15v4.848H82.971Z" transform="translate(-40.166 0)" fill="#fff"></path>
        <path id="Path_154" data-name="Path 154" d="M86.1,184a66.817,66.817,0,0,0-7.6-13.633,1.621,1.621,0,0,0-2.7,1.8,61.707,61.707,0,0,1,11.741,37.263l.006,10.257a5.185,5.185,0,0,1-5.535,4.743c-4.341.058-7.494-4.654-11.794-4.3-3.266.149-5.88.935-8.792.842-6.3.41-6.926-10.644-6.892-11.872-.084-2.4-.962-15.132-.711-17.28l8.678,6.851-4.338,4.64a1.616,1.616,0,0,0-.437,1.107V210.4a1.621,1.621,0,0,0,3.242,0v-5.345l3.3-3.526,2.645,7.316a1.621,1.621,0,0,0,3.049-1.1l-3.546-9.806a2.242,2.242,0,0,0-.52-.722l-19.5-15.4a1.62,1.62,0,0,0-2.009,0l-19.5,15.4a2.242,2.242,0,0,0-.52.722l-3.546,9.806a1.621,1.621,0,0,0,3.049,1.1l2.646-7.316,3.3,3.526V210.4a1.621,1.621,0,0,0,3.242,0v-5.984a1.616,1.616,0,0,0-.437-1.107l-4.337-4.64,8.693-6.862c.264,2.012-.653,15.108-.73,17.377.054,1.079-.614,12.229-6.89,11.786a71.054,71.054,0,0,1-8.122-.825c-4.861-.57-8.005,4.44-12.84,4.294a5.16,5.16,0,0,1-5.138-4.62V209.235a60.984,60.984,0,0,1,11.324-36.451,1.809,1.809,0,0,0-.08-2.772c-1.951-1.191-2.844,1.533-3.789,2.74a63.726,63.726,0,0,0-10.7,36.483l0,10.712c1.039,8.719,10.73,9.52,16.662,4.816,3.693-2.9,8.691-.15,12.675-.549,8.829.213,10.137-11.667,10.13-14.939.185-4.251,1.1-15.773.616-19.935l5.3-4.181,5.31,4.192c-.119,2.018-.177,3.961-.161,5.706l.759,14.13a24.909,24.909,0,0,0,2.6,10.691c2.765,5.142,8.929,4.7,14.07,3.711a14.709,14.709,0,0,1,2.309-.217,5.851,5.851,0,0,1,3.774,1.35c5.94,4.725,15.677,4.042,16.734-4.9V209.429A68.271,68.271,0,0,0,86.1,184Z" transform="translate(0.001 -136.924)" fill="#fff"></path>
      </g>
    </g>
  </g>
</svg>
