<?xml version="1.0" encoding="UTF-8"?>
<svg xmlns="http://www.w3.org/2000/svg" xmlns:xlink="http://www.w3.org/1999/xlink" id="icn3" width="136" height="136" viewBox="0 0 136 136">
  <defs>
    <clipPath id="clip-path">
      <rect id="Rectangle_4198" data-name="Rectangle 4198" width="136" height="136" fill="none"></rect>
    </clipPath>
  </defs>
  <g id="Group_3693" data-name="Group 3693" clip-path="url(#clip-path)">
    <path id="Path_1989" data-name="Path 1989" d="M68,0A68,68,0,1,1,0,68,68,68,0,0,1,68,0" fill="#fff"></path>
    <path id="Path_1990" data-name="Path 1990" d="M103.341,68.654a31.131,31.131,0,0,0-24.209-27.3l-.029-.006V37.366l.028-.007a5.214,5.214,0,0,0-1.258-10.273H66.754A5.214,5.214,0,0,0,65.5,37.359l.028.007v3.993l-.029.007a31.02,31.02,0,0,0-15.19,8.356,31.485,31.485,0,0,0-2.619,2.972l-.012.016-.02,0c-.041,0-.077-.006-.114-.006H36.535a1.507,1.507,0,0,0,0,3.014h9.087l-.034.057A30.97,30.97,0,0,0,42.851,61.7l-.009.026H26.008a1.506,1.506,0,1,0,0,3.013H41.99l-.011.046a31.4,31.4,0,0,0-.765,5.929l0,.036H34.347a1.507,1.507,0,1,0,0,3.014h6.914l0,.035a31.364,31.364,0,0,0,.963,5.929l.012.047H32.185a1.507,1.507,0,1,0,0,3.013H43.2l.009.024a30.847,30.847,0,0,0,7.1,10.972,31.214,31.214,0,0,0,18.952,8.974c1.01.1,2.038.15,3.057.15a31.074,31.074,0,0,0,17-5.025,1.507,1.507,0,1,0-1.644-2.525,28.144,28.144,0,1,1,8.289-8.3A1.506,1.506,0,1,0,98.489,88.7a31.253,31.253,0,0,0,4.852-20.046M76.089,40.835l-.042,0a31.4,31.4,0,0,0-7.467.006l-.042.005V37.513h7.551ZM66.754,34.5a2.2,2.2,0,1,1,0-4.4H77.873a2.2,2.2,0,1,1,0,4.4Z" fill="#00bbb4"></path>
    <path id="Path_1991" data-name="Path 1991" d="M94.369,91.653a1.506,1.506,0,1,0,.441,1.065,1.522,1.522,0,0,0-.441-1.065" fill="#00bbb4"></path>
    <path id="Path_1992" data-name="Path 1992" d="M72.337,47.833A23.919,23.919,0,1,0,96.256,71.752,23.946,23.946,0,0,0,72.337,47.833m0,44.825A20.906,20.906,0,1,1,93.243,71.752,20.929,20.929,0,0,1,72.337,92.658" fill="#00bbb4"></path>
    <path id="Path_1993" data-name="Path 1993" d="M84.264,59.826a1.511,1.511,0,0,0-2.132,0l-7.668,7.668-.025-.012a4.747,4.747,0,0,0-4.205,0l-.024.012-3.442-3.442a1.507,1.507,0,1,0-2.131,2.131l3.441,3.442-.011.024a4.7,4.7,0,0,0-.491,2.1,4.762,4.762,0,1,0,9.523,0,4.7,4.7,0,0,0-.493-2.1l-.011-.024,7.669-7.668a1.509,1.509,0,0,0,0-2.131M72.337,73.5a1.748,1.748,0,1,1,1.748-1.748A1.75,1.75,0,0,1,72.337,73.5" fill="#00bbb4"></path>
    <path id="Path_1994" data-name="Path 1994" d="M88.848,70.265H87.417a1.507,1.507,0,1,0,0,3.013h1.431a1.507,1.507,0,1,0,0-3.013" fill="#00bbb4"></path>
    <path id="Path_1995" data-name="Path 1995" d="M57.256,70.227h-1.43a1.507,1.507,0,1,0,0,3.013h1.43a1.507,1.507,0,1,0,0-3.013" fill="#00bbb4"></path>
    <path id="Path_1996" data-name="Path 1996" d="M72.356,53.734a1.509,1.509,0,0,0-1.507,1.507v1.431a1.507,1.507,0,0,0,3.014,0V55.241a1.509,1.509,0,0,0-1.507-1.507" fill="#00bbb4"></path>
    <path id="Path_1997" data-name="Path 1997" d="M72.318,85.327a1.509,1.509,0,0,0-1.507,1.507v1.431a1.507,1.507,0,0,0,3.014,0V86.834a1.509,1.509,0,0,0-1.507-1.507" fill="#00bbb4"></path>
    <path id="Path_1998" data-name="Path 1998" d="M26.007,79.775a1.507,1.507,0,1,0,1.065.441,1.516,1.516,0,0,0-1.065-.441" fill="#00bbb4"></path>
  </g>
</svg>
