<?xml version="1.0" encoding="UTF-8"?>
<svg xmlns="http://www.w3.org/2000/svg" xmlns:xlink="http://www.w3.org/1999/xlink" id="icn3" width="136" height="136" viewBox="0 0 136 136">
  <defs>
    <clipPath id="clip-path">
      <rect id="Rectangle_4137" data-name="Rectangle 4137" width="136" height="136" fill="none"></rect>
    </clipPath>
  </defs>
  <g id="Group_3594" data-name="Group 3594" clip-path="url(#clip-path)">
    <path id="Path_1812" data-name="Path 1812" d="M136,68A68,68,0,1,1,68,0a68,68,0,0,1,68,68" fill="#fff"></path>
    <path id="Path_1813" data-name="Path 1813" d="M104.652,34.008h-2.66V31.317a1.645,1.645,0,0,0-1.644-1.644h-4a1.646,1.646,0,0,0-1.645,1.644v2.691H86.817V31.317a1.645,1.645,0,0,0-1.644-1.644h-4a1.646,1.646,0,0,0-1.645,1.644v2.691H71.644V31.317A1.646,1.646,0,0,0,70,29.673H66a1.646,1.646,0,0,0-1.645,1.644v2.691H56.469V31.317a1.645,1.645,0,0,0-1.644-1.644h-4a1.646,1.646,0,0,0-1.645,1.644v2.691H41.295V31.317a1.646,1.646,0,0,0-1.645-1.644h-4a1.646,1.646,0,0,0-1.645,1.644v2.691h-2.66A3.847,3.847,0,0,0,27.5,37.851v64.633a3.847,3.847,0,0,0,3.843,3.843h73.3a3.847,3.847,0,0,0,3.843-3.843V37.851a3.847,3.847,0,0,0-3.843-3.843m-7-1.384h1.384v5.719H97.657Zm-15.175,0h1.384v5.719H82.482Zm-15.174,0h1.384v5.719H67.308Zm-15.174,0h1.384v5.719H52.134Zm-15.175,0h1.384v5.719H36.959Zm-6.5,5.227a.893.893,0,0,1,.892-.892h2.66V39.65a1.646,1.646,0,0,0,1.644,1.645h4a1.647,1.647,0,0,0,1.645-1.645V36.959h7.887V39.65a1.647,1.647,0,0,0,1.645,1.645h4a1.647,1.647,0,0,0,1.645-1.645V36.959h7.887V39.65A1.647,1.647,0,0,0,66,41.295h4a1.647,1.647,0,0,0,1.644-1.645V36.959h7.888V39.65a1.647,1.647,0,0,0,1.644,1.645h4a1.646,1.646,0,0,0,1.645-1.645V36.959h7.888V39.65a1.647,1.647,0,0,0,1.645,1.645h4a1.646,1.646,0,0,0,1.644-1.645V36.959h2.66a.893.893,0,0,1,.892.892v6.995H30.456ZM61.327,64.356H56.471V47.8H66.525V70.86H62.972V66a1.648,1.648,0,0,0-1.645-1.646m1.645,15.957H73.027v3.552H62.972Zm0-2.951V73.811H86.033v3.551Zm16.559-6.5H69.477V47.8H79.531ZM39.128,60.8H53.519v3.552H39.128Zm-4.335-6.5H47.015v3.551H34.793Zm15.173,3.551V53a1.648,1.648,0,0,0-1.645-1.646H43.464V47.8H53.519V57.853ZM31.348,103.376a.893.893,0,0,1-.892-.892V47.8H40.513V51.35H33.487A1.648,1.648,0,0,0,31.842,53v6.163A1.647,1.647,0,0,0,33.487,60.8h2.69v4.858a1.648,1.648,0,0,0,1.645,1.646h2.69v6.249c0,5.05,0,12.641,0,29.819ZM43.463,67.308H60.02V70.86H43.463Zm10.056,36.068H43.464V73.811H53.519Zm13.006,0H56.47V73.811h3.551v11.36a1.649,1.649,0,0,0,1.647,1.646h4.857Zm13.006,0H69.477V86.817h4.855a1.649,1.649,0,0,0,1.647-1.646V80.313h3.552Zm13.005,0H82.482V80.313h4.857a1.648,1.648,0,0,0,1.646-1.646V72.5a1.648,1.648,0,0,0-1.646-1.645H82.482V47.8H92.536V83.865H85.512a1.649,1.649,0,0,0-1.647,1.646v6.162a1.649,1.649,0,0,0,1.647,1.647H88.2v4.857a1.648,1.648,0,0,0,1.647,1.645h2.689ZM86.817,86.817H99.04v3.552H86.817ZM99.039,96.871H91.152V93.32h7.887Zm6.5,5.613a.893.893,0,0,1-.892.892H95.489V99.822h4.856a1.647,1.647,0,0,0,1.645-1.645V85.511a1.648,1.648,0,0,0-1.645-1.646H95.489V47.8h10.055Z" fill="#00bbb4"></path>
  </g>
</svg>
