<?xml version="1.0" encoding="UTF-8"?>
<svg xmlns="http://www.w3.org/2000/svg" xmlns:xlink="http://www.w3.org/1999/xlink" id="icn3" width="136" height="136" viewBox="0 0 136 136">
  <defs>
    <clipPath id="clip-path">
      <rect id="Rectangle_4190" data-name="Rectangle 4190" width="136" height="136" fill="none"></rect>
    </clipPath>
  </defs>
  <g id="Group_3685" data-name="Group 3685" clip-path="url(#clip-path)">
    <path id="Path_1951" data-name="Path 1951" d="M68,0A68,68,0,1,1,0,68,68,68,0,0,1,68,0" fill="#fff"></path>
    <path id="Path_1952" data-name="Path 1952" d="M82.275,70.123l-1.662-.928a11.27,11.27,0,0,0,0-2.394l1.661-.927a1.455,1.455,0,0,0,.7-1.649,14.9,14.9,0,0,0-4.134-6.95,1.45,1.45,0,0,0-1.716-.216l-1.476.824a.43.43,0,0,1-.42.01,12.939,12.939,0,0,0-1.865-1.039.3.3,0,0,1-.162-.279V54.934a1.458,1.458,0,0,0-1.08-1.407,15.445,15.445,0,0,0-4.316-.548,15.945,15.945,0,0,0-3.916.553,1.456,1.456,0,0,0-1.082,1.408v1.64a.3.3,0,0,1-.155.27,12.935,12.935,0,0,0-1.873,1.044.426.426,0,0,1-.423-.013l-1.465-.818a1.453,1.453,0,0,0-1.716.216,14.9,14.9,0,0,0-4.142,6.946,1.455,1.455,0,0,0,.7,1.649l1.661.926a11.279,11.279,0,0,0,0,2.395l-1.66.927a1.456,1.456,0,0,0-.7,1.649,14.91,14.91,0,0,0,4.134,6.949,1.45,1.45,0,0,0,1.716.216l1.478-.824a.424.424,0,0,1,.418-.011,12.619,12.619,0,0,0,1.864,1.039.3.3,0,0,1,.164.281v1.64a1.458,1.458,0,0,0,1.081,1.408,15.965,15.965,0,0,0,4.122.549c.065,0,.13,0,.192,0a15.978,15.978,0,0,0,3.916-.552A1.459,1.459,0,0,0,73.2,81.055V79.417a.3.3,0,0,1,.155-.272A12.96,12.96,0,0,0,75.226,78.1a.426.426,0,0,1,.423.012l1.466.819a1.452,1.452,0,0,0,1.716-.217,14.892,14.892,0,0,0,4.142-6.945,1.456,1.456,0,0,0-.7-1.648M63.852,76.488a9.965,9.965,0,0,1-1.456-.812,3.327,3.327,0,0,0-3.464-.108l-.493.275a11.952,11.952,0,0,1-2.25-3.756l1.5-.837a1.455,1.455,0,0,0,.722-1.546,8.661,8.661,0,0,1,0-3.414,1.457,1.457,0,0,0-.723-1.545l-1.5-.836a11.9,11.9,0,0,1,2.256-3.753l.486.272a3.334,3.334,0,0,0,3.468-.111,9.888,9.888,0,0,1,1.452-.81,3.215,3.215,0,0,0,1.869-2.932V56.1a12.714,12.714,0,0,1,2.121-.21,11.757,11.757,0,0,1,2.441.2v.475a3.214,3.214,0,0,0,1.868,2.933,9.924,9.924,0,0,1,1.457.812,3.324,3.324,0,0,0,3.464.108l.492-.275a11.915,11.915,0,0,1,2.25,3.756l-1.5.837a1.457,1.457,0,0,0-.721,1.547v0a8.623,8.623,0,0,1,0,3.41,1.456,1.456,0,0,0,.721,1.546l1.5.838a11.9,11.9,0,0,1-2.256,3.751l-.487-.271a3.333,3.333,0,0,0-3.466.11,9.863,9.863,0,0,1-1.453.809,3.215,3.215,0,0,0-1.869,2.933v.471a12.712,12.712,0,0,1-2.12.209,12.347,12.347,0,0,1-2.442-.2v-.475a3.219,3.219,0,0,0-1.869-2.933" fill="#00bbb4"></path>
    <path id="Path_1953" data-name="Path 1953" d="M70.447,74.055a6.371,6.371,0,1,0-2.452.49,6.37,6.37,0,0,0,2.452-.49m1.029-5.9a3.479,3.479,0,1,1-2.145-3.209,3.484,3.484,0,0,1,2.145,3.209" fill="#00bbb4"></path>
    <path id="Path_1954" data-name="Path 1954" d="M95.175,40.826A38.41,38.41,0,1,0,106.448,68,38.244,38.244,0,0,0,95.175,40.826M65.638,32.554l3.078,4.619-3.23,4.841A26.145,26.145,0,0,0,41.931,66.951l-3.942-2.632a1.453,1.453,0,0,0-1.618,0L32.5,66.9A35.567,35.567,0,0,1,65.638,32.554M91.2,68A23.235,23.235,0,1,1,76.88,46.563,23.08,23.08,0,0,1,91.2,68m7.623.713-4.84-3.23A26.145,26.145,0,0,0,69.049,41.927l2.631-3.943a1.455,1.455,0,0,0,0-1.618L69.1,32.5a35.567,35.567,0,0,1,34.342,33.139ZM37.178,67.285l4.84,3.23A26.146,26.146,0,0,0,66.956,94.069l-2.632,3.943a1.455,1.455,0,0,0,0,1.618L66.9,103.5A35.567,35.567,0,0,1,32.558,70.361Zm33.34,26.7A26.144,26.144,0,0,0,94.073,69.046l3.943,2.631a1.452,1.452,0,0,0,1.617,0L103.5,69.1a35.567,35.567,0,0,1-33.138,34.342l-3.078-4.619Z" fill="#00bbb4"></path>
  </g>
</svg>
