<?xml version="1.0" encoding="UTF-8"?>
<svg xmlns="http://www.w3.org/2000/svg" xmlns:xlink="http://www.w3.org/1999/xlink" id="icn3" width="136" height="136" viewBox="0 0 136 136">
  <defs>
    <clipPath id="clip-path">
      <rect id="Rectangle_4177" data-name="Rectangle 4177" width="136" height="136" fill="none"></rect>
    </clipPath>
  </defs>
  <g id="Group_3673" data-name="Group 3673" clip-path="url(#clip-path)">
    <path id="Path_1908" data-name="Path 1908" d="M68,0A68,68,0,1,1,0,68,68,68,0,0,1,68,0" fill="#fff"></path>
    <path id="Path_1909" data-name="Path 1909" d="M55.816,81.178c-.536-.483-1.186-1.031-1.873-1.611l-.06-.051A54.532,54.532,0,0,1,47.3,73.279a1.282,1.282,0,0,0-.141-.146,4.672,4.672,0,0,0-6.436.053c-.044.043-.086.087-.127.132-.016-.18-.023-.364-.023-.554l.049-12.713c.029-7.678-4.006-8.339-5.243-8.359a5.018,5.018,0,0,0-5.039,4.5l-.663,23.4a8.841,8.841,0,0,0,2.672,6.637L42.5,96.381v8.456a1.487,1.487,0,0,0,1.487,1.486H56.962a1.488,1.488,0,0,0,1.486-1.484l.023-16.089c0-2.558-.308-5.457-2.655-7.572M45.039,94.714,34.455,84.129a5.857,5.857,0,0,1-1.8-4.45l.663-23.4a2.057,2.057,0,0,1,1.993-1.614h.026c1.442.023,2.33,2.082,2.317,5.375L37.6,72.752a8.553,8.553,0,0,0,2.042,5.61c.11.136.217.275.325.415a8.863,8.863,0,0,0,.756.9l8.16,8.159a1.487,1.487,0,0,0,2.1-2.1c-3.027-3.027-8.106-8.107-8.119-8.118a1.617,1.617,0,1,1,2.236-2.335,57.6,57.6,0,0,0,6.86,6.506c.72.607,1.343,1.131,1.858,1.6,1.476,1.33,1.676,3.362,1.673,5.359l-.021,14.6h-10V95.765a1.476,1.476,0,0,0-.435-1.051" fill="#00bbb4"></path>
    <path id="Path_1910" data-name="Path 1910" d="M106.319,79.6l-.663-23.4a5.018,5.018,0,0,0-5.038-4.5c-1.237.02-5.273.681-5.244,8.36l.049,12.711c0,.191-.007.375-.022.555-.042-.045-.084-.088-.127-.131a4.673,4.673,0,0,0-6.437-.054,1.7,1.7,0,0,0-.139.144,54.545,54.545,0,0,1-6.583,6.241c-.71.6-1.38,1.163-1.93,1.66-2.347,2.115-2.66,5.014-2.656,7.572l.023,16.089a1.489,1.489,0,0,0,1.487,1.484H92.013a1.487,1.487,0,0,0,1.486-1.487V96.38l10.148-10.149a8.83,8.83,0,0,0,2.672-6.636M90.526,95.764v7.586h-10l-.021-14.6c0-2,.2-4.03,1.673-5.36.512-.462,1.131-.983,1.847-1.587l.012-.009a57.625,57.625,0,0,0,6.86-6.505,1.612,1.612,0,0,1,2.748,1.2,1.832,1.832,0,0,1-.524,1.142l-8.107,8.108a1.485,1.485,0,0,0,0,2.1,1.5,1.5,0,0,0,1.045.429h.007a1.471,1.471,0,0,0,1.05-.429l8.161-8.162h0a8.95,8.95,0,0,0,.758-.9c.106-.138.212-.277.321-.411a8.557,8.557,0,0,0,2.042-5.61l-.049-12.712c-.012-3.292.876-5.352,2.318-5.375h.023a2.049,2.049,0,0,1,2,1.614l.663,23.4a5.848,5.848,0,0,1-1.8,4.45L90.961,94.713a1.492,1.492,0,0,0-.435,1.051" fill="#00bbb4"></path>
    <path id="Path_1911" data-name="Path 1911" d="M90.828,52.505A22.828,22.828,0,1,0,68,75.333,22.854,22.854,0,0,0,90.828,52.505M79.312,68.814,70.6,53.993,87.8,54a19.991,19.991,0,0,1-8.486,14.814M66.719,53.259,76.752,70.325A19.6,19.6,0,0,1,68,72.36a19.854,19.854,0,0,1-1.486-39.653v19.8a1.49,1.49,0,0,0,.205.754m2.768-20.552A19.839,19.839,0,0,1,87.8,51.027l-18.312-.008Z" fill="#00bbb4"></path>
  </g>
</svg>
