<?xml version="1.0" encoding="UTF-8"?>
<svg xmlns="http://www.w3.org/2000/svg" xmlns:xlink="http://www.w3.org/1999/xlink" id="icn3" width="136" height="136" viewBox="0 0 136 136">
  <defs>
    <clipPath id="clip-path">
      <rect id="Rectangle_4206" data-name="Rectangle 4206" width="136" height="136" fill="none"></rect>
    </clipPath>
  </defs>
  <g id="Group_3697" data-name="Group 3697" clip-path="url(#clip-path)">
    <path id="Path_2014" data-name="Path 2014" d="M68,0A68,68,0,1,1,0,68,68,68,0,0,1,68,0" fill="#fff"></path>
    <path id="Path_2015" data-name="Path 2015" d="M99.815,42.082H90.248v-4.45h8.343a1.448,1.448,0,0,0,1.446-1.446A6.36,6.36,0,0,0,93.7,29.845h-41.6a6.36,6.36,0,0,0-6.341,6.341v5.9H36.186a6.358,6.358,0,0,0-6.341,6.34V87.578a6.359,6.359,0,0,0,6.341,6.341h24.25v4.449H56.988a3.894,3.894,0,1,0,0,7.787H79.013a3.894,3.894,0,0,0,0-7.787H75.564V93.919H99.815a6.359,6.359,0,0,0,6.34-6.341V48.422a6.358,6.358,0,0,0-6.34-6.34m-43.829,60.18a1,1,0,0,1,1-1H79.013a1,1,0,1,1,0,2H56.988a1,1,0,0,1-1-1m7.342-8.343h9.344v4.449H63.328ZM90.565,34.74a3.448,3.448,0,0,1,6.262,0Zm-.317,12.236v-2h9.565a3.455,3.455,0,0,1,3.116,2Zm13.015,39.6v1a3.452,3.452,0,0,1-3.449,3.448H36.186a3.452,3.452,0,0,1-3.448-3.448v-1H43.75V83.685H32.738V49.868H45.752V76.343H42.3a1.448,1.448,0,0,0-1.446,1.446A6.358,6.358,0,0,0,47.2,84.13H83.907a6.359,6.359,0,0,0,6.341-6.341V49.868h13.015V83.685H88.579v2.892ZM47.2,81.237a3.46,3.46,0,0,1-3.131-2H77.733a6.305,6.305,0,0,0,.853,2ZM87.355,36.186v41.6a3.448,3.448,0,0,1-6.9,0,1.448,1.448,0,0,0-1.446-1.446H48.645V36.186a3.452,3.452,0,0,1,3.448-3.448H88.4a6.33,6.33,0,0,0-1.046,3.448M33.071,46.976a3.456,3.456,0,0,1,3.116-2h9.565v2Z" fill="#00bbb4"></path>
    <path id="Path_2016" data-name="Path 2016" d="M50.647,36.186v7.342a1.448,1.448,0,0,0,1.446,1.446H83.907a1.448,1.448,0,0,0,1.446-1.446V36.186a1.447,1.447,0,0,0-1.446-1.446H52.093a1.447,1.447,0,0,0-1.446,1.446m2.892,1.446H82.461v4.449H53.539Z" fill="#00bbb4"></path>
    <path id="Path_2017" data-name="Path 2017" d="M64.33,68.223h7.341a1.447,1.447,0,0,0,1.446-1.446v-5.9h2.225A1.446,1.446,0,0,0,76.5,58.567L72.7,53.5c-2.038-2.717-3.06-4.081-3.684-4.735-.682-.716-.99-.658-1.473-.5a1.427,1.427,0,0,0-.7.5L59.5,58.567a1.446,1.446,0,0,0,1.158,2.314h2.224v5.9a1.448,1.448,0,0,0,1.447,1.446m5.895-8.788v5.9H65.776v-5.9a1.448,1.448,0,0,0-1.446-1.446h-.779L68,52.054l4.45,5.935h-.779a1.448,1.448,0,0,0-1.446,1.446" fill="#00bbb4"></path>
    <path id="Path_2018" data-name="Path 2018" d="M78.79,70.225H57.21V65.33H54.318v6.341a1.447,1.447,0,0,0,1.446,1.446H80.236a1.447,1.447,0,0,0,1.446-1.446V65.33H78.79Z" fill="#00bbb4"></path>
  </g>
</svg>
