<?xml version="1.0" encoding="UTF-8"?>
<svg xmlns="http://www.w3.org/2000/svg" xmlns:xlink="http://www.w3.org/1999/xlink" id="icn3" width="136" height="136" viewBox="0 0 136 136">
  <defs>
    <clipPath id="clip-path">
      <rect id="Rectangle_4133" data-name="Rectangle 4133" width="136" height="136" fill="none"></rect>
    </clipPath>
  </defs>
  <g id="Group_3590" data-name="Group 3590" clip-path="url(#clip-path)">
    <path id="Path_1770" data-name="Path 1770" d="M136,68A68,68,0,1,1,68,0a68,68,0,0,1,68,68" fill="#fff"></path>
    <path id="Path_1771" data-name="Path 1771" d="M90.8,36.5H81.482A2.7,2.7,0,0,0,78.8,34.1H71.9v-.9a3.9,3.9,0,0,0-7.794,0v.9H57.2a2.7,2.7,0,0,0-2.681,2.4H45.2a6.305,6.305,0,0,0-6.3,6.3v57.6a6.305,6.305,0,0,0,6.3,6.3H90.8a6.306,6.306,0,0,0,6.3-6.3V42.8a6.305,6.305,0,0,0-6.3-6.3M67.1,34.1v-.9a.9.9,0,0,1,1.805,0v.9Zm27,8.7v57.6a3.305,3.305,0,0,1-3.3,3.3H45.2a3.305,3.305,0,0,1-3.3-3.3V42.8a3.305,3.305,0,0,1,3.3-3.3h9.311A5.1,5.1,0,0,0,59.6,44.3H76.4a5.1,5.1,0,0,0,5.089-4.8H90.8a3.305,3.305,0,0,1,3.3,3.3M78.5,39.2a2.1,2.1,0,0,1-2.1,2.1H59.6a2.1,2.1,0,0,1-2.1-2.1V37.1h21Z" fill="#00bbb4"></path>
    <path id="Path_1772" data-name="Path 1772" d="M90.8,41.3H83.987a1.5,1.5,0,0,0,0,3H89.3V98.9H46.7V44.3h5.315a1.5,1.5,0,0,0,0-3H45.2a1.5,1.5,0,0,0-1.5,1.5v57.6a1.5,1.5,0,0,0,1.5,1.5H90.8a1.5,1.5,0,0,0,1.5-1.5V42.8a1.5,1.5,0,0,0-1.5-1.5" fill="#00bbb4"></path>
    <path id="Path_1773" data-name="Path 1773" d="M64.76,67.938a3.9,3.9,0,0,0-3.9-3.9h-7.2a3.9,3.9,0,0,0-3.9,3.9v7.2a3.9,3.9,0,0,0,3.9,3.9h7.2a3.9,3.9,0,0,0,3.9-3.9Zm-3.9,8.1h-7.2a.9.9,0,0,1-.9-.9v-7.2a.9.9,0,0,1,.9-.9h7.2a.9.9,0,0,1,.9.9v7.2a.9.9,0,0,1-.9.9" fill="#00bbb4"></path>
    <path id="Path_1774" data-name="Path 1774" d="M58.541,69.341,56.662,71.22l-.741-.741A1.5,1.5,0,1,0,53.8,72.6l1.8,1.8a1.5,1.5,0,0,0,2.118,0l2.937-2.938a1.5,1.5,0,1,0-2.117-2.118" fill="#00bbb4"></path>
    <path id="Path_1775" data-name="Path 1775" d="M60.862,80.779h-7.2a3.9,3.9,0,0,0-3.9,3.9v7.2a3.9,3.9,0,0,0,3.9,3.9h7.2a3.9,3.9,0,0,0,3.9-3.9v-7.2a3.9,3.9,0,0,0-3.9-3.9m0,12h-7.2a.9.9,0,0,1-.9-.9v-7.2a.9.9,0,0,1,.9-.9h7.2a.9.9,0,0,1,.9.9v7.2a.9.9,0,0,1-.9.9" fill="#00bbb4"></path>
    <path id="Path_1776" data-name="Path 1776" d="M49.764,51.138v7.2a3.9,3.9,0,0,0,3.9,3.9h7.2a3.9,3.9,0,0,0,3.9-3.9v-7.2a3.9,3.9,0,0,0-3.9-3.9h-7.2a3.9,3.9,0,0,0-3.9,3.9m12,7.2a.9.9,0,0,1-.9.9h-7.2a.9.9,0,0,1-.9-.9v-7.2a.9.9,0,0,1,.9-.9h7.2a.9.9,0,0,1,.9.9Z" fill="#00bbb4"></path>
    <path id="Path_1777" data-name="Path 1777" d="M59.6,52.1h0a1.488,1.488,0,0,0-1.059.439L56.662,54.42l-.741-.742A1.5,1.5,0,0,0,53.8,55.8l1.8,1.8a1.5,1.5,0,0,0,2.118,0l2.938-2.938A1.5,1.5,0,0,0,59.6,52.1" fill="#00bbb4"></path>
    <path id="Path_1778" data-name="Path 1778" d="M68,53.9H78.8a1.5,1.5,0,1,0,0-2.995H68A1.5,1.5,0,1,0,68,53.9" fill="#00bbb4"></path>
    <path id="Path_1779" data-name="Path 1779" d="M68,58.7H84.8a1.5,1.5,0,0,0,0-3H68a1.5,1.5,0,0,0,0,3" fill="#00bbb4"></path>
    <path id="Path_1780" data-name="Path 1780" d="M68,70.7H78.8a1.5,1.5,0,1,0,0-2.995H68A1.5,1.5,0,1,0,68,70.7" fill="#00bbb4"></path>
    <path id="Path_1781" data-name="Path 1781" d="M68,75.5H84.8a1.5,1.5,0,1,0,0-3H68a1.5,1.5,0,1,0,0,3" fill="#00bbb4"></path>
    <path id="Path_1782" data-name="Path 1782" d="M68,87.5H78.8a1.5,1.5,0,1,0,0-3H68a1.5,1.5,0,1,0,0,3" fill="#00bbb4"></path>
    <path id="Path_1783" data-name="Path 1783" d="M68,92.3H84.8a1.5,1.5,0,1,0,0-2.995H68A1.5,1.5,0,1,0,68,92.3" fill="#00bbb4"></path>
  </g>
</svg>
