<?xml version="1.0" encoding="UTF-8"?>
<svg xmlns="http://www.w3.org/2000/svg" xmlns:xlink="http://www.w3.org/1999/xlink" id="icn3" width="136" height="136" viewBox="0 0 136 136">
  <defs>
    <clipPath id="clip-path">
      <rect id="Rectangle_4242" data-name="Rectangle 4242" width="136" height="136" fill="none"></rect>
    </clipPath>
  </defs>
  <g id="Group_3722" data-name="Group 3722" clip-path="url(#clip-path)">
    <path id="Path_2179" data-name="Path 2179" d="M68,0A68,68,0,1,1,0,68,68,68,0,0,1,68,0" fill="#fff"></path>
    <path id="Path_2180" data-name="Path 2180" d="M99.812,87a8.078,8.078,0,0,0,2.442-6.067l-.6-21.1a4.66,4.66,0,0,0-4.589-4.168H97c-1.141.018-4.864.624-4.838,7.65l.044,11.464c0,.082,0,.163,0,.245a4.329,4.329,0,0,0-5.9.007,1.585,1.585,0,0,0-.134.139,49,49,0,0,1-5.92,5.613c-.7.586-1.266,1.068-1.747,1.5-2.147,1.935-2.434,4.579-2.432,6.91l.009,7.939-.832-.006a2.86,2.86,0,0,0-2.064.835,2.89,2.89,0,0,0-.871,2.049l-.027,3.194a2.912,2.912,0,0,0,2.885,2.934l16.592.143h.023a2.914,2.914,0,0,0,2.909-2.885l.028-3.193a2.916,2.916,0,0,0-2.885-2.935l-1.144-.01V96.118Zm-9.6-9.87c.537.537.534,1.158-.011,1.9-.968,1.088-1.988,2.076-3.069,3.122-.54.522-1.069,1.034-1.608,1.573a1.451,1.451,0,0,0,2.053,2.052c.542-.542,1.09-1.072,1.573-1.539,1.136-1.1,2.209-2.137,3.271-3.336,0-.005.282-.344.825-1.008a7.83,7.83,0,0,0,1.867-5.13L95.065,63.3c-.011-2.858.766-4.718,1.978-4.737h.025a1.762,1.762,0,0,1,1.687,1.349l.6,21.1a5.181,5.181,0,0,1-1.593,3.933l-9.546,9.545a1.461,1.461,0,0,0-.425,1.026v1.712l-8.809-.075-.01-7.968c0-2.429.424-3.805,1.473-4.751.449-.4.977-.851,1.681-1.443a52.088,52.088,0,0,0,6.186-5.866,1.391,1.391,0,0,1,1.9,0m1.6,23.038.008.008-.035,3.2-16.6-.15.035-3.2Z" fill="#00bbb4"></path>
    <path id="Path_2181" data-name="Path 2181" d="M75.971,77.1h0a1.451,1.451,0,0,0,2.566.191l2.892-4.661,5.373,1.1a1.451,1.451,0,0,0,1.624-2l-4.015-9.322.061-.026.122-.052a5.328,5.328,0,0,0,3.216-5.57c-.051-.424-.1-.8-.141-1.142l0-.02a9.836,9.836,0,0,1-.164-2.478,10.1,10.1,0,0,1,1.01-2.291c.157-.305.331-.644.524-1.026a5.327,5.327,0,0,0-1.117-6.333c-.312-.293-.591-.552-.842-.785l-.018-.017a9.812,9.812,0,0,1-1.715-1.789,9.938,9.938,0,0,1-.7-2.405l-.06-.26c-.061-.264-.126-.551-.2-.862a5.325,5.325,0,0,0-4.926-4.134c-.427-.024-.808-.043-1.149-.06a9.874,9.874,0,0,1-2.489-.27A9.94,9.94,0,0,1,73.742,31.5c-.272-.207-.576-.437-.919-.693a5.327,5.327,0,0,0-6.431,0c-.313.233-.593.446-.847.638l-.073.055a9.948,9.948,0,0,1-2.08,1.393,9.871,9.871,0,0,1-2.488.27c-.343.017-.723.036-1.15.06a5.324,5.324,0,0,0-4.926,4.133c-.1.411-.181.778-.256,1.108l0,.015a9.879,9.879,0,0,1-.7,2.4,9.883,9.883,0,0,1-1.734,1.807l-.073.068-.768.717A5.327,5.327,0,0,0,50.178,49.8c.193.382.367.721.526,1.032a9.9,9.9,0,0,1,1.007,2.284,9.962,9.962,0,0,1-.165,2.5l-.023.186c-.037.291-.077.608-.118.958a5.328,5.328,0,0,0,3.215,5.569c.394.169.745.317,1.061.45l.061.025-4.936,10.6a1.45,1.45,0,0,0,1.565,2.042l5.4-.943,2.755,4.742a1.459,1.459,0,0,0,1.255.722l.065,0a1.445,1.445,0,0,0,1.25-.837l4.968-10.67a5.919,5.919,0,0,1,1.539-.325,9.9,9.9,0,0,1,2.432.6l.041.013.341.1Zm-17.7-12.85c.291.356.633.886,1.133,1.66.185.287.393.607.626.966A5.363,5.363,0,0,0,64.474,69.3l-2.833,6.082-1.866-3.212a1.458,1.458,0,0,0-1.505-.7l-3.66.64Zm3.571.085c-1.778-2.754-2.014-2.951-5.037-4.225-.31-.131-.656-.277-1.044-.443a2.417,2.417,0,0,1-1.476-2.557c.05-.419.1-.792.139-1.127.408-3.253.354-3.556-1.142-6.474-.154-.3-.325-.635-.516-1.01a2.418,2.418,0,0,1,.513-2.908c.308-.289.583-.544.83-.773,2.4-2.231,2.559-2.5,3.288-5.694l.023-.1c.069-.3.145-.636.232-1a2.413,2.413,0,0,1,2.261-1.9c.384-.022.731-.039,1.044-.055l.089,0c3.276-.163,3.565-.268,6.178-2.248l.057-.043c.254-.193.535-.406.849-.641a2.416,2.416,0,0,1,2.952,0c.314.235.6.448.849.641l.057.043c2.613,1.98,2.9,2.085,6.178,2.248l.091.005c.313.015.658.032,1.042.054a2.417,2.417,0,0,1,2.262,1.9c.078.332.147.636.211.914l.043.191c.73,3.2.883,3.463,3.288,5.694l.035.033c.238.22.5.465.795.74a2.418,2.418,0,0,1,.512,2.908c-.19.376-.362.71-.516,1.01-1.5,2.919-1.549,3.222-1.141,6.475l.02.159c.037.293.077.613.119.967a2.416,2.416,0,0,1-1.476,2.557l-.774.328-.271.115c-3.022,1.274-3.257,1.471-5.036,4.225-.183.284-.386.6-.618.953a2.415,2.415,0,0,1-2.774,1.009l-.813-.248-.272-.084a11.566,11.566,0,0,0-3.287-.728,11.565,11.565,0,0,0-3.288.728l-.178.055-.906.277a2.418,2.418,0,0,1-2.774-1.009c-.231-.354-.435-.669-.618-.953m17.339,2.541c.168-.256.321-.493.463-.712l.165-.254a9.873,9.873,0,0,1,1.477-2.02,2.789,2.789,0,0,1,.468-.308l2.906,6.747L81.02,69.58a1.458,1.458,0,0,0-1.524.657l-1.959,3.157-1.8-4.189a5.356,5.356,0,0,0,3.449-2.333" fill="#00bbb4"></path>
    <path id="Path_2182" data-name="Path 2182" d="M62.819,97.958h0a2.89,2.89,0,0,0-2.04-.837h-.024l-.832.008.009-7.939c0-2.331-.285-4.975-2.432-6.911-.5-.448-1.1-.958-1.749-1.5a49.349,49.349,0,0,1-5.917-5.61,1.306,1.306,0,0,0-.137-.142,4.327,4.327,0,0,0-5.9-.006c0-.081-.005-.164-.005-.246l.044-11.463c.027-7.026-3.7-7.633-4.842-7.65h-.064a4.657,4.657,0,0,0-4.588,4.167l-.6,21.1A8.079,8.079,0,0,0,36.188,87l9.12,9.121v1.136l-1.143.009A2.916,2.916,0,0,0,41.28,100.2l.028,3.194a2.916,2.916,0,0,0,2.909,2.885l16.615-.143a2.912,2.912,0,0,0,2.885-2.934l-.027-3.194a2.892,2.892,0,0,0-.871-2.049m-1.848,5.427-.163-.153-16.6.136-.02-3.2,16.6-.135.028,3.193,0,0ZM36.647,81.014l.6-21.1a1.752,1.752,0,0,1,1.689-1.348h.019c1.215.018,1.993,1.878,1.982,4.737l-.044,11.464a7.831,7.831,0,0,0,1.869,5.132l.793.97.033.039c1.059,1.194,2.132,2.233,3.268,3.332.483.467,1.03,1,1.573,1.539a1.451,1.451,0,1,0,2.053-2.052c-.559-.558-1.116-1.1-1.607-1.572C47.8,81.11,46.78,80.125,45.8,79.028c-.544-.742-.547-1.363-.011-1.9a1.393,1.393,0,0,1,1.9,0A52.247,52.247,0,0,0,53.883,83l.07.057c.622.525,1.158.977,1.6,1.38,1.048.946,1.475,2.321,1.472,4.751l-.01,7.968-8.809.074V95.518a1.459,1.459,0,0,0-.425-1.026L38.24,84.946a5.179,5.179,0,0,1-1.593-3.932" fill="#00bbb4"></path>
    <path id="Path_2183" data-name="Path 2183" d="M60.038,101.195a1.216,1.216,0,0,0-2.247-.031,1.217,1.217,0,0,0,.636,1.6,1.216,1.216,0,0,0,1.611-1.567Z" fill="#00bbb4"></path>
    <path id="Path_2184" data-name="Path 2184" d="M82.014,49.514A12.406,12.406,0,1,0,69.607,61.921,12.421,12.421,0,0,0,82.014,49.514M69.607,40.009a9.5,9.5,0,1,1-9.5,9.505,9.515,9.515,0,0,1,9.5-9.505" fill="#00bbb4"></path>
    <path id="Path_2185" data-name="Path 2185" d="M62.664,50.892l3.451,3.451a1.452,1.452,0,0,0,2,.049L76.5,46.784a1.451,1.451,0,1,0-1.95-2.149L67.19,51.314,64.716,48.84a1.451,1.451,0,0,0-2.052,2.052" fill="#00bbb4"></path>
    <path id="Path_2186" data-name="Path 2186" d="M76.643,102.774a1.216,1.216,0,0,0,1.566-1.611,1.216,1.216,0,0,0-2.247.031h0a1.214,1.214,0,0,0,.681,1.579" fill="#00bbb4"></path>
  </g>
</svg>
