<?xml version="1.0" encoding="UTF-8"?>
<svg xmlns="http://www.w3.org/2000/svg" xmlns:xlink="http://www.w3.org/1999/xlink" id="icn3" width="136" height="136" viewBox="0 0 136 136">
  <defs>
    <clipPath id="clip-path">
      <rect id="Rectangle_4222" data-name="Rectangle 4222" width="136" height="136" fill="none"></rect>
    </clipPath>
  </defs>
  <g id="Group_3714" data-name="Group 3714" clip-path="url(#clip-path)">
    <path id="Path_2118" data-name="Path 2118" d="M68,0A68,68,0,1,1,0,68,68,68,0,0,1,68,0" fill="#fff"></path>
    <path id="Path_2119" data-name="Path 2119" d="M101.805,50.307a19.842,19.842,0,0,0,1.907-6.716v-.029A11.263,11.263,0,0,0,85.96,34.336a38.155,38.155,0,1,0-20.937,71.7q1.491.117,2.976.116a38.154,38.154,0,0,0,33.806-55.847M83.865,86.592a39.94,39.94,0,0,1-14.34,15.368V86.592Zm-14.34-3.031V69.5h18.9A39.778,39.778,0,0,1,85.3,83.561Zm28.251,3.031A35.182,35.182,0,0,1,74.022,102.57,43.09,43.09,0,0,0,87.243,86.592Zm-13.6-43.031a8.252,8.252,0,0,1,16.5,0c0,2.075-2.174,7.854-8.253,17.877-6.078-10.022-8.252-15.8-8.252-17.877m8.257,22.273a1.511,1.511,0,0,0,1.28-.7c.151-.237,3.626-5.691,6.438-11.3a34.974,34.974,0,0,1,2.922,12.632H69.525V52.4H84.016a134.573,134.573,0,0,0,7.139,12.728,1.509,1.509,0,0,0,1.279.7M103.083,69.5a35.13,35.13,0,0,1-3.618,14.064H88.559A42.742,42.742,0,0,0,91.453,69.5ZM69.525,49.372V34a39.908,39.908,0,0,1,11.811,11.2,25.225,25.225,0,0,0,1.328,4.179ZM74.033,33.4a34.984,34.984,0,0,1,9.583,3.14,11.31,11.31,0,0,0-2.044,3.985A43.229,43.229,0,0,0,74.033,33.4M44.138,83.561H36.553A35.113,35.113,0,0,1,32.936,69.5h5.482c.169,3.375,3.127,9.389,5.72,14.064m7.994-34.189a39.853,39.853,0,0,1,14.361-15.38v15.38ZM66.493,69.5V83.561H55.249C57.843,78.886,60.8,72.872,60.97,69.5Zm-16.8-8.547A8.262,8.262,0,0,1,57.946,69.2c0,3.149-4.388,11.495-8.252,17.871C45.829,80.7,41.441,72.352,41.441,69.2a8.262,8.262,0,0,1,8.253-8.253m0-3.031c-.289,0-.577.014-.863.037A40.308,40.308,0,0,1,50.709,52.4H66.493V66.466H60.632a11.242,11.242,0,0,0-10.939-8.547m-4.16.811a11.291,11.291,0,0,0-6.777,7.736h-5.82A35.112,35.112,0,0,1,36.553,52.4H47.446a43.09,43.09,0,0,0-1.913,6.327m20.96,27.862v15.366A39.99,39.99,0,0,1,52.812,87.78c.226-.375.462-.773.7-1.188Zm-20.622,0c1.212,2.068,2.19,3.618,2.516,4.136l.028.043a1.515,1.515,0,0,0,2.558,0l.05-.08A42.619,42.619,0,0,0,61.994,102.57,35.175,35.175,0,0,1,38.242,86.592Zm-7.632-37.22A35.025,35.025,0,0,1,61.958,33.4a42.961,42.961,0,0,0-13.2,15.972Z" fill="#00bbb4"></path>
    <path id="Path_2120" data-name="Path 2120" d="M56.093,69.2h0a6.4,6.4,0,1,0-6.4,6.4,6.38,6.38,0,0,0,6.4-6.4m-3.287,1.288a3.37,3.37,0,1,1-.73-3.671,3.359,3.359,0,0,1,.73,3.671" fill="#00bbb4"></path>
    <path id="Path_2121" data-name="Path 2121" d="M96.955,39.036a6.4,6.4,0,1,0,1.386,6.974,6.382,6.382,0,0,0-1.386-6.974m-2.144,6.907a3.369,3.369,0,1,1,.73-3.67,3.359,3.359,0,0,1-.73,3.67" fill="#00bbb4"></path>
  </g>
</svg>
