<?xml version="1.0" encoding="UTF-8"?>
<svg xmlns="http://www.w3.org/2000/svg" xmlns:xlink="http://www.w3.org/1999/xlink" id="icn3" width="136" height="136" viewBox="0 0 136 136">
  <defs>
    <clipPath id="clip-path">
      <rect id="Rectangle_4211" data-name="Rectangle 4211" width="136" height="136" fill="none"></rect>
    </clipPath>
  </defs>
  <g id="Group_3702" data-name="Group 3702" clip-path="url(#clip-path)">
    <path id="Path_2049" data-name="Path 2049" d="M68,0A68,68,0,1,1,0,68,68,68,0,0,1,68,0" fill="#fff"></path>
    <path id="Path_2050" data-name="Path 2050" d="M46.463,55.058h0A12.943,12.943,0,1,0,59.4,68,12.9,12.9,0,0,0,46.463,55.058m-.011,2.987a9.957,9.957,0,1,1-7.025,2.919,9.972,9.972,0,0,1,7.025-2.919" fill="#00bbb4"></path>
    <path id="Path_2051" data-name="Path 2051" d="M46.454,75.859a7.86,7.86,0,1,0-5.546-2.305,7.865,7.865,0,0,0,5.546,2.305m0-12.725a4.867,4.867,0,1,1-3.434,1.427,4.883,4.883,0,0,1,3.434-1.427" fill="#00bbb4"></path>
    <path id="Path_2052" data-name="Path 2052" d="M82.074,52.962H97.336a4.043,4.043,0,0,0,4.038-4.04V33.661a4.043,4.043,0,0,0-4.038-4.04H82.074a4.044,4.044,0,0,0-4.04,4.04V39.8H75.715a4.044,4.044,0,0,0-4.041,4.039V66.5H68.243v-.029c0-.114-.007-.232-.017-.351a2.657,2.657,0,0,0-1.682-2.235l-2.587-1.033A18.218,18.218,0,0,0,62.47,59.27l1.1-2.568a2.648,2.648,0,0,0-.392-2.778c-.4-.477-.825-.942-1.266-1.381s-.9-.866-1.384-1.27a2.656,2.656,0,0,0-2.768-.389l-2.57,1.1A18.109,18.109,0,0,0,51.6,50.5L50.569,47.91a2.651,2.651,0,0,0-2.234-1.682,21.168,21.168,0,0,0-3.751,0,2.656,2.656,0,0,0-2.234,1.683L41.315,50.5a18.1,18.1,0,0,0-3.585,1.487l-2.568-1.1a2.639,2.639,0,0,0-2.778.392c-.476.4-.942.825-1.381,1.266s-.871.909-1.27,1.385a2.654,2.654,0,0,0-.39,2.767l1.1,2.57a18.107,18.107,0,0,0-1.488,3.585l-2.59,1.035a2.655,2.655,0,0,0-1.669,2.24c-.054.605-.081,1.236-.081,1.875s.027,1.269.081,1.875a2.657,2.657,0,0,0,1.683,2.235l2.586,1.034a18.093,18.093,0,0,0,1.487,3.585l-1.1,2.568a2.658,2.658,0,0,0,.392,2.778c.4.472.822.937,1.266,1.381s.912.872,1.386,1.27a2.651,2.651,0,0,0,2.768.389l2.57-1.1A18.089,18.089,0,0,0,41.321,85.5l1.034,2.588a2.657,2.657,0,0,0,2.235,1.682,21.743,21.743,0,0,0,3.75,0,2.658,2.658,0,0,0,2.236-1.683L51.609,85.5a18.074,18.074,0,0,0,3.585-1.487l2.569,1.1a2.648,2.648,0,0,0,2.778-.392c.476-.4.941-.825,1.381-1.266.474-.474.89-.927,1.268-1.384a2.654,2.654,0,0,0,.391-2.768l-1.1-2.57a18.085,18.085,0,0,0,1.487-3.585l2.586-1.034a2.655,2.655,0,0,0,1.681-2.233c.011-.122.014-.243.018-.359V69.5h3.423V92.164a4.044,4.044,0,0,0,4.041,4.04h2.319v6.135a4.043,4.043,0,0,0,4.04,4.039H97.336a4.043,4.043,0,0,0,4.038-4.039V87.077a4.043,4.043,0,0,0-4.038-4.039H82.074a4.043,4.043,0,0,0-4.04,4.039v6.135H75.715a1.048,1.048,0,0,1-1.048-1.048V69.5h3.367V75.63a4.044,4.044,0,0,0,4.04,4.04H97.336a4.043,4.043,0,0,0,4.038-4.04V60.369a4.043,4.043,0,0,0-4.038-4.04H82.074a4.044,4.044,0,0,0-4.04,4.04V66.5H74.667V43.835a1.048,1.048,0,0,1,1.048-1.048h2.319v6.135a4.044,4.044,0,0,0,4.04,4.04m16.308-4.04a1.049,1.049,0,0,1-1.046,1.048H82.074a1.049,1.049,0,0,1-1.049-1.048V33.661a1.049,1.049,0,0,1,1.049-1.048H97.336a1.049,1.049,0,0,1,1.046,1.048Zm-38.96,28.3,1.364,3.028c-.312.365-.647.727-1,1.078-.2.206-.417.408-.617.6-.133.127-.26.25-.379.367l-3.112-1.341a1.508,1.508,0,0,0-1.364.1,15.1,15.1,0,0,1-4.181,1.737,1.506,1.506,0,0,0-1.03.9l-1.177,3.1c-.78.062-1.612.051-2.351.041l-.5-.006-1.256-3.138a1.5,1.5,0,0,0-1.029-.9A15.126,15.126,0,0,1,38.6,81.052a1.509,1.509,0,0,0-1.368-.094l-3.026,1.37c-.359-.306-.721-.641-1.078-1-.205-.205-.4-.414-.6-.612-.127-.135-.252-.264-.371-.385l1.34-3.113a1.5,1.5,0,0,0-.1-1.362,15.086,15.086,0,0,1-1.737-4.185,1.5,1.5,0,0,0-.9-1.032l-3.1-1.177c-.041-.463-.062-.955-.062-1.464,0-.295.008-.589.013-.869.005-.18.009-.355.01-.519l3.143-1.256a1.5,1.5,0,0,0,.9-1.029,15.08,15.08,0,0,1,1.737-4.186,1.5,1.5,0,0,0,.094-1.366l-1.371-3.028c.313-.365.649-.727,1-1.078.207-.206.417-.408.617-.6.133-.127.26-.25.38-.366l3.113,1.34a1.5,1.5,0,0,0,1.362-.1A15.156,15.156,0,0,1,42.79,53.21a1.5,1.5,0,0,0,1.03-.9L45,49.209c.779-.062,1.612-.051,2.351-.041l.5.006L49.1,52.313a1.506,1.506,0,0,0,1.029.9,15.157,15.157,0,0,1,4.187,1.737,1.506,1.506,0,0,0,1.367.094l3.027-1.366c.36.308.722.643,1.078,1,.205.205.406.414.6.613.128.134.252.263.37.384l-1.34,3.113a1.5,1.5,0,0,0,.1,1.362,15.181,15.181,0,0,1,1.737,4.181,1.5,1.5,0,0,0,.9,1.031l3.1,1.177c.039.477.059.969.059,1.466,0,.467-.013.937-.05,1.4l-3.113,1.244a1.5,1.5,0,0,0-.9,1.029,15.156,15.156,0,0,1-1.737,4.186,1.5,1.5,0,0,0-.093,1.366m38.96,25.115a1.048,1.048,0,0,1-1.046,1.047H82.074a1.049,1.049,0,0,1-1.049-1.047V87.077a1.049,1.049,0,0,1,1.049-1.048H97.336a1.049,1.049,0,0,1,1.046,1.048Zm0-26.709a1.049,1.049,0,0,1-1.046,1.048H82.074a1.049,1.049,0,0,1-1.049-1.048V60.369a1.049,1.049,0,0,1,1.049-1.048H97.336a1.049,1.049,0,0,1,1.046,1.048Z" fill="#00bbb4"></path>
    <path id="Path_2053" data-name="Path 2053" d="M94.351,36.232a1.5,1.5,0,0,0-2,.315h-.007L88.2,42.76,86.944,41.5a1.5,1.5,0,0,0-2.113,2.117l2.544,2.544a1.507,1.507,0,0,0,1.057.438,1.128,1.128,0,0,0,.149-.007,1.488,1.488,0,0,0,1.1-.658l5.087-7.631a1.5,1.5,0,0,0-.414-2.075" fill="#00bbb4"></path>
    <path id="Path_2054" data-name="Path 2054" d="M94.351,62.941a1.5,1.5,0,0,0-2.075.414L88.2,69.469l-1.257-1.257a1.5,1.5,0,0,0-2.112,2.118l2.543,2.544a1.505,1.505,0,0,0,1.057.438.963.963,0,0,0,.149-.008,1.491,1.491,0,0,0,1.1-.658l5.087-7.631a1.5,1.5,0,0,0-.414-2.074" fill="#00bbb4"></path>
  </g>
</svg>
