<?xml version="1.0" encoding="UTF-8"?>
<svg xmlns="http://www.w3.org/2000/svg" xmlns:xlink="http://www.w3.org/1999/xlink" id="icn3" width="136" height="136" viewBox="0 0 136 136">
  <defs>
    <clipPath id="clip-path">
      <rect id="Rectangle_4173" data-name="Rectangle 4173" width="136" height="136" fill="none"></rect>
    </clipPath>
  </defs>
  <g id="Group_3669" data-name="Group 3669" clip-path="url(#clip-path)">
    <path id="Path_1887" data-name="Path 1887" d="M68,0A68,68,0,1,1,0,68,68,68,0,0,1,68,0" fill="#fff"></path>
    <path id="Path_1888" data-name="Path 1888" d="M68.206,52.932a1.485,1.485,0,0,0,1.113-1.438V47.826A1.484,1.484,0,0,0,68.2,46.387l-2.219-.568a12.9,12.9,0,0,0-.766-1.837l1.164-1.965a1.486,1.486,0,0,0-.218-1.817l-2.587-2.588a1.457,1.457,0,0,0-1.8-.222l-1.972,1.168a13.039,13.039,0,0,0-1.837-.767L57.4,35.572a1.486,1.486,0,0,0-1.44-1.117H52.293a1.484,1.484,0,0,0-1.439,1.117l-.567,2.215a11.293,11.293,0,0,0-1.842.769l-1.969-1.167a1.482,1.482,0,0,0-1.8.224l-2.587,2.61a1.482,1.482,0,0,0-.222,1.811l1.168,1.971a12.7,12.7,0,0,0-.766,1.838l-2.22.568a1.484,1.484,0,0,0-1.116,1.438v3.668a1.486,1.486,0,0,0,1.116,1.44l2.22.567a13.236,13.236,0,0,0,.766,1.838l-1.163,1.964a1.487,1.487,0,0,0,.217,1.818l2.589,2.587a1.479,1.479,0,0,0,1.81.222l1.971-1.168a12.761,12.761,0,0,0,1.838.767l.568,2.22a1.485,1.485,0,0,0,1.439,1.116h3.667a1.484,1.484,0,0,0,1.438-1.117l.568-2.216a11.292,11.292,0,0,0,1.841-.768l1.971,1.167a1.5,1.5,0,0,0,1.807-.223l2.589-2.588a1.481,1.481,0,0,0,.222-1.809l-1.167-1.973a13.189,13.189,0,0,0,.766-1.84Zm-4.854-1.008a9.148,9.148,0,0,1-1.112,2.663,1.467,1.467,0,0,0,0,1.525l1.012,1.71-.961.961-1.706-1.008a1.477,1.477,0,0,0-1.527,0,9.858,9.858,0,0,1-2.672,1.114,1.5,1.5,0,0,0-1.079,1.067l-.5,1.934H53.444l-.5-1.934a1.477,1.477,0,0,0-1.085-1.069,9.17,9.17,0,0,1-2.663-1.11,1.462,1.462,0,0,0-1.526,0l-1.709,1.011L45,57.822l1.009-1.706a1.479,1.479,0,0,0,0-1.528A9.819,9.819,0,0,1,44.9,51.916a1.5,1.5,0,0,0-1.068-1.077l-1.935-.5V48.977l1.936-.5A1.479,1.479,0,0,0,44.9,47.4a9.156,9.156,0,0,1,1.11-2.663,1.469,1.469,0,0,0,0-1.525L45,41.5l.962-.962,1.7,1.009a1.468,1.468,0,0,0,1.528-.01,9.837,9.837,0,0,1,2.67-1.114,1.493,1.493,0,0,0,1.08-1.067l.5-1.934h1.365l.5,1.935a1.479,1.479,0,0,0,1.086,1.067,9.148,9.148,0,0,1,2.663,1.112,1.467,1.467,0,0,0,1.524,0l1.711-1.013.961.962-1.01,1.705a1.483,1.483,0,0,0,0,1.528,9.844,9.844,0,0,1,1.114,2.671,1.492,1.492,0,0,0,1.067,1.079l1.933.5v1.367l-1.934.507a1.478,1.478,0,0,0-1.068,1.085" fill="#00bbb4"></path>
    <path id="Path_1889" data-name="Path 1889" d="M54.12,42.349a7.317,7.317,0,1,0,7.317,7.317,7.326,7.326,0,0,0-7.317-7.317m4.352,7.317a4.352,4.352,0,1,1-4.352-4.352,4.357,4.357,0,0,1,4.352,4.352" fill="#00bbb4"></path>
    <path id="Path_1890" data-name="Path 1890" d="M71.981,82.4a1.483,1.483,0,0,0-1.064-.452H66.169a1.491,1.491,0,0,0-1.489,1.489V97.393h-1.8V79.865A1.491,1.491,0,0,0,61.4,78.376H56.648a1.49,1.49,0,0,0-1.487,1.489V97.381H53.376V76.3a1.489,1.489,0,0,0-1.487-1.487H47.14A1.489,1.489,0,0,0,45.652,76.3V97.381h-.9a1.489,1.489,0,0,0,.036,2.977H82.8a1.489,1.489,0,1,0,0-2.977h-.9V87a1.49,1.49,0,0,0-1.489-1.488H75.665A1.49,1.49,0,0,0,74.177,87V97.381H72.382V83.446a1.426,1.426,0,0,0-.4-1.045m-2.54,14.98H67.657V84.914h1.784Zm-9.509,0H58.148V81.352h1.784Zm-9.5.012H48.652v-19.6h1.784Zm26.717-8.918h1.783v8.906H77.153Z" fill="#00bbb4"></path>
    <path id="Path_1891" data-name="Path 1891" d="M108.564,87.4l-8.38-8.379a3.523,3.523,0,0,0-.582-4.239l-1.293-1.293A16.42,16.42,0,1,0,82.918,84.2a16.185,16.185,0,0,0,5.707-1.029l1.292,1.292a3.532,3.532,0,0,0,4.24.571l8.378,8.378a4.236,4.236,0,0,0,3.02,1.246,4.287,4.287,0,0,0,3.021-1.245,4.243,4.243,0,0,0-.012-6.017m-1.713,3.02a1.274,1.274,0,0,1-.384.918l0,0a1.353,1.353,0,0,1-1.841,0l-8.269-8.269,1.841-1.842,8.272,8.272a1.274,1.274,0,0,1,.384.918M97.514,77.723,92.847,82.39a.61.61,0,0,1-.833,0l-.566-.566a16.993,16.993,0,0,0,3.085-2.412,16.564,16.564,0,0,0,2.413-3.085l.568.568a.589.589,0,0,1,0,.833M95.23,73.215l-.038.08a13.794,13.794,0,0,1-2.758,4.024,13.568,13.568,0,0,1-3.979,2.743l-.09.038A13.4,13.4,0,0,1,73.4,77.307h0A13.461,13.461,0,1,1,95.23,73.215" fill="#00bbb4"></path>
    <path id="Path_1892" data-name="Path 1892" d="M82.918,56.107a11.673,11.673,0,1,0,0,23.346h.047a11.673,11.673,0,0,0-.046-23.346m8.718,11.667a8.713,8.713,0,1,1-2.55-6.161,8.657,8.657,0,0,1,2.55,6.161" fill="#00bbb4"></path>
    <path id="Path_1893" data-name="Path 1893" d="M88,63.81a1.487,1.487,0,0,0-2.1,0l-4.8,4.8L79.92,67.431a1.485,1.485,0,0,0-2.1,2.1l2.232,2.231a1.516,1.516,0,0,0,1.05.44,1.45,1.45,0,0,0,1.05-.439L88,65.91a1.481,1.481,0,0,0,.005-2.1Z" fill="#00bbb4"></path>
    <path id="Path_1894" data-name="Path 1894" d="M91.928,87.255a1.491,1.491,0,0,0-1.489,1.489V99.629a3.7,3.7,0,0,1-3.7,3.7H40.849a3.7,3.7,0,0,1-3.7-3.7V36.383a3.7,3.7,0,0,1,3.7-3.7H75.138v8.649A6.672,6.672,0,0,0,81.8,48h8.649v2.275a1.489,1.489,0,0,0,2.977,0V46.52a.565.565,0,0,0-.013-.116,1.383,1.383,0,0,0-.064-.338l0-.018a1.231,1.231,0,0,0-.056-.144,1.706,1.706,0,0,0-.268-.41l-.01-.012L77.688,30.157a1.314,1.314,0,0,0-.457-.3l-.048-.018c-.018-.008-.036-.014-.056-.021a1.353,1.353,0,0,0-.355-.082.482.482,0,0,0-.134-.018H40.849a6.671,6.671,0,0,0-6.664,6.664V99.617a6.671,6.671,0,0,0,6.664,6.664h45.9a6.671,6.671,0,0,0,6.664-6.664V88.723a1.5,1.5,0,0,0-1.488-1.468M78.1,41.333v-6.55L88.352,45.032H81.8a3.7,3.7,0,0,1-3.7-3.7" fill="#00bbb4"></path>
  </g>
</svg>
