<?xml version="1.0" encoding="UTF-8"?>
<svg xmlns="http://www.w3.org/2000/svg" xmlns:xlink="http://www.w3.org/1999/xlink" id="icn3" width="136" height="136" viewBox="0 0 136 136">
  <defs>
    <clipPath id="clip-path">
      <rect id="Rectangle_4270" data-name="Rectangle 4270" width="136" height="136" fill="none"></rect>
    </clipPath>
  </defs>
  <g id="Group_3732" data-name="Group 3732" clip-path="url(#clip-path)">
    <path id="Path_2245" data-name="Path 2245" d="M68,0A68,68,0,1,1,0,68,68,68,0,0,1,68,0" fill="#fff"></path>
    <path id="Path_2246" data-name="Path 2246" d="M109.709,46.381h-8.836A1.473,1.473,0,0,0,99.4,47.853v55.965a1.474,1.474,0,0,0,1.473,1.473h8.836a1.474,1.474,0,0,0,1.473-1.473V47.853a1.473,1.473,0,0,0-1.473-1.472m-1.473,55.964h-5.891V49.326h5.891Z" fill="#00bbb4"></path>
    <path id="Path_2247" data-name="Path 2247" d="M94.982,105.291a1.473,1.473,0,0,0,1.472-1.473V59.635a1.472,1.472,0,0,0-1.472-1.472H86.145a1.473,1.473,0,0,0-1.473,1.472v44.183a1.474,1.474,0,0,0,1.473,1.473ZM87.618,61.108h5.891v41.237H87.618Z" fill="#00bbb4"></path>
    <path id="Path_2248" data-name="Path 2248" d="M80.254,105.291a1.474,1.474,0,0,0,1.473-1.473V69.945a1.474,1.474,0,0,0-1.473-1.473H71.417a1.473,1.473,0,0,0-1.472,1.473v33.873a1.473,1.473,0,0,0,1.472,1.473ZM72.89,71.417h5.891v30.928H72.89Z" fill="#00bbb4"></path>
    <path id="Path_2249" data-name="Path 2249" d="M65.526,105.291A1.474,1.474,0,0,0,67,103.818V81.727a1.474,1.474,0,0,0-1.473-1.473H56.69a1.474,1.474,0,0,0-1.473,1.473v22.091a1.474,1.474,0,0,0,1.473,1.473ZM58.163,83.2h5.891v19.146H58.163Z" fill="#00bbb4"></path>
    <path id="Path_2250" data-name="Path 2250" d="M50.8,105.291a1.474,1.474,0,0,0,1.473-1.473v-16.2A1.474,1.474,0,0,0,50.8,86.145H41.962a1.473,1.473,0,0,0-1.472,1.473v16.2a1.473,1.473,0,0,0,1.472,1.473Zm-7.364-16.2h5.891v13.255H43.435Z" fill="#00bbb4"></path>
    <path id="Path_2251" data-name="Path 2251" d="M36.071,105.291a1.474,1.474,0,0,0,1.473-1.473V94.982a1.474,1.474,0,0,0-1.473-1.473H27.235a1.474,1.474,0,0,0-1.473,1.473v8.836a1.474,1.474,0,0,0,1.473,1.473Zm-7.364-8.837H34.6v5.891H28.707Z" fill="#00bbb4"></path>
    <path id="Path_2252" data-name="Path 2252" d="M59.635,46.381h2.946a1.473,1.473,0,0,0,0-2.946H61.108V41.963a1.473,1.473,0,0,0-2.946,0v1.726a4.418,4.418,0,0,0,1.473,8.583,1.473,1.473,0,1,1,0,2.946H56.689a1.472,1.472,0,0,0,0,2.945h1.473v1.473a1.473,1.473,0,0,0,2.946,0V57.91a4.418,4.418,0,0,0-1.473-8.583,1.473,1.473,0,1,1,0-2.946" fill="#00bbb4"></path>
    <path id="Path_2253" data-name="Path 2253" d="M109.709,28.707h-8.837a1.473,1.473,0,0,0,0,2.946h5.282L85.535,52.271H77.246q.062-.729.062-1.473A17.673,17.673,0,1,0,56.381,68.17l-6.192,6.193H39.016a1.473,1.473,0,0,0-1.041.431L23.248,89.522A1.472,1.472,0,0,0,25.33,91.6l14.3-14.3H50.8a1.474,1.474,0,0,0,1.042-.431l8.417-8.418A17.706,17.706,0,0,0,76.749,55.217h9.4a1.474,1.474,0,0,0,1.041-.432l21.05-21.05v5.281a1.473,1.473,0,0,0,2.946,0V30.18a1.474,1.474,0,0,0-1.473-1.473M59.635,65.526A14.727,14.727,0,1,1,74.363,50.8,14.728,14.728,0,0,1,59.635,65.526" fill="#00bbb4"></path>
  </g>
</svg>
