<?xml version="1.0" encoding="UTF-8"?>
<svg xmlns="http://www.w3.org/2000/svg" xmlns:xlink="http://www.w3.org/1999/xlink" width="136" height="136" viewBox="0 0 136 136">
  <defs>
    <clipPath id="clip-path">
      <rect id="Rectangle_635" data-name="Rectangle 635" width="73.724" height="73.724" fill="#00bbb4"></rect>
    </clipPath>
  </defs>
  <g id="icn3" transform="translate(-0.217 -0.404)">
    <circle id="Ellipse_21" data-name="Ellipse 21" cx="68" cy="68" r="68" transform="translate(0.217 0.404)" fill="#fff"></circle>
    <g id="Group_2488" data-name="Group 2488" transform="translate(31.592 32.248)">
      <g id="Group_2487" data-name="Group 2487" clip-path="url(#clip-path)">
        <path id="Path_243" data-name="Path 243" d="M246.208,100.778a5.081,5.081,0,0,0-2.609.718,5.1,5.1,0,0,0-7.809-2.116,5.1,5.1,0,0,0-6.467-1.753v-12.3h3.448a3.885,3.885,0,0,0,3.881-3.881V69.235a1.438,1.438,0,1,0-2.875,0V81.45a1.007,1.007,0,0,1-1.005,1.005h-4.2a5.1,5.1,0,0,0-9.455,2.659v21.758l-1.515-3.165a6.561,6.561,0,0,0-3.882-3.748,6.72,6.72,0,0,0-5.519.944,1.443,1.443,0,0,0-.662,1.6L211.4,117.41l.011.031c.46,1.075,4.6,10.564,8.3,12.732a2.792,2.792,0,0,1,.7.587,1.435,1.435,0,0,0,1.366.99,1.47,1.47,0,0,0,.431-.064,1.438,1.438,0,0,0,.938-1.8,4.535,4.535,0,0,0-1.978-2.186c-2.405-1.408-5.9-8.543-7.048-11.2l-3.509-13.594a3.336,3.336,0,0,1,2.25-.2A3.935,3.935,0,0,1,215,104.931l4.256,8.9a1.439,1.439,0,0,0,2.737-.622v-28.1a2.227,2.227,0,1,1,4.454,0v17.1a1.438,1.438,0,0,0,2.875,0,2.227,2.227,0,1,1,4.454,0v1.221a1.438,1.438,0,1,0,2.875,0,2.227,2.227,0,0,1,4.454,0v2.443a1.438,1.438,0,1,0,2.875,0,2.227,2.227,0,0,1,4.454,0v19.544a3.452,3.452,0,0,1-3.448,3.448H232.771a1.438,1.438,0,0,0,0,2.875h12.215a6.331,6.331,0,0,0,6.324-6.324V105.881a5.108,5.108,0,0,0-5.1-5.1" transform="translate(-177.586 -58.025)" fill="#00bbb4"></path>
        <path id="Path_244" data-name="Path 244" d="M265.163,17.458a1.438,1.438,0,1,0-2.033,2.033l6.108,6.108a1.44,1.44,0,0,0,2.032,0l14.658-14.658A1.437,1.437,0,0,0,283.9,8.908L270.256,22.548Z" transform="translate(-224.843 -7.264)" fill="#00bbb4"></path>
        <path id="Path_245" data-name="Path 245" d="M23.425,0H3.881A3.885,3.885,0,0,0,0,3.882V23.426a3.885,3.885,0,0,0,3.881,3.881H23.425a3.885,3.885,0,0,0,3.881-3.881V3.882A3.885,3.885,0,0,0,23.425,0M24.43,3.882V23.426a1.007,1.007,0,0,1-1.005,1.005H3.881a1.007,1.007,0,0,1-1.005-1.005V3.882A1.006,1.006,0,0,1,3.881,2.876H23.425A1.006,1.006,0,0,1,24.43,3.882" transform="translate(0 -0.001)" fill="#00bbb4"></path>
        <path id="Path_246" data-name="Path 246" d="M23.425,220.339H3.881A3.885,3.885,0,0,0,0,224.22v19.544a3.885,3.885,0,0,0,3.881,3.881H23.425a3.885,3.885,0,0,0,3.881-3.881V224.22a3.885,3.885,0,0,0-3.881-3.881m1.005,3.881v19.544a1.006,1.006,0,0,1-1.005,1.005H3.881a1.006,1.006,0,0,1-1.005-1.005V224.22a1.007,1.007,0,0,1,1.005-1.005H23.425a1.007,1.007,0,0,1,1.005,1.005" transform="translate(0 -188.579)" fill="#00bbb4"></path>
        <path id="Path_247" data-name="Path 247" d="M224.22,27.307h2.443a1.438,1.438,0,1,0,0-2.875H224.22a1.007,1.007,0,0,1-1.005-1.005V3.882a1.006,1.006,0,0,1,1.005-1.005h19.545a1.438,1.438,0,0,0,0-2.875H224.22a3.885,3.885,0,0,0-3.881,3.881V23.426a3.885,3.885,0,0,0,3.881,3.881" transform="translate(-188.579 -0.001)" fill="#00bbb4"></path>
      </g>
    </g>
  </g>
</svg>
