<?xml version="1.0" encoding="UTF-8"?>
<svg xmlns="http://www.w3.org/2000/svg" xmlns:xlink="http://www.w3.org/1999/xlink" id="icn3" width="136" height="136" viewBox="0 0 136 136">
  <defs>
    <clipPath id="clip-path">
      <rect id="Rectangle_4194" data-name="Rectangle 4194" width="136" height="136" fill="none"></rect>
    </clipPath>
  </defs>
  <g id="Group_3689" data-name="Group 3689" clip-path="url(#clip-path)">
    <path id="Path_1965" data-name="Path 1965" d="M68,0A68,68,0,1,1,0,68,68,68,0,0,1,68,0" fill="#fff"></path>
    <path id="Path_1966" data-name="Path 1966" d="M91.436,92.954a1.468,1.468,0,0,0,2.076,0l8.151-8.148a1.468,1.468,0,0,0-1.037-2.506h0a1.462,1.462,0,0,0-1.037.431l-7.113,7.111L87.83,85.2a1.469,1.469,0,0,0-2.075,0,1.465,1.465,0,0,0,0,2.074Z" fill="#00bbb4"></path>
    <path id="Path_1967" data-name="Path 1967" d="M106.825,78.084a16.538,16.538,0,0,0-8.041-5.79c.064-.876.1-1.739.1-2.568A34.535,34.535,0,0,0,84.305,41.582a10.553,10.553,0,0,0-.666-2.063c-1.372-3.067-4.132-4.71-8.679-5.157l1.531-2.168a2.791,2.791,0,0,0-2.281-4.4H62.093a19.55,19.55,0,0,0-12.417,4.217,14.989,14.989,0,0,0-5.467,9.794A34.469,34.469,0,0,0,82.077,99.332a16.348,16.348,0,0,0,24.748-21.248m-57.981-16.5h1.081A14.37,14.37,0,0,0,55.5,70.3v1.03a5.57,5.57,0,0,1-3.29,5.162c-1.521.711-3.248,1.319-4.919,1.908l-.04.014c-4.065,1.43-8.264,2.908-10.677,6.1a31.5,31.5,0,0,1,7.5-38.879V56.81a4.778,4.778,0,0,0,4.773,4.772m0-10.819h.791v7.884h-.791a1.838,1.838,0,0,1-1.836-1.836V52.6a1.838,1.838,0,0,1,1.836-1.836M72.415,32.882a2.789,2.789,0,0,0,2.042,4.382c3.426.3,5.312,1.212,6.308,3.06.907,1.684,1.072,4.09,1.029,7.9a4.782,4.782,0,0,0-1.895-.393H78.734a5.563,5.563,0,0,0-5.173-3.547H72.489a3.955,3.955,0,0,1-2.327-.707l-1.829-1.221a7,7,0,0,0-7.917,0l-1.831,1.221a3.953,3.953,0,0,1-2.325.707H55.188a5.571,5.571,0,0,0-5.177,3.547H48.844a4.71,4.71,0,0,0-1.837.367V43.925a12.058,12.058,0,0,1,4.785-9.8,16.994,16.994,0,0,1,10.3-3.394H73.933ZM84.726,45.611A31.427,31.427,0,0,1,95.945,69.727c0,.6-.019,1.225-.06,1.906A16.359,16.359,0,0,0,80.6,78.073c-1.329-.471-2.723-.988-3.983-1.577a5.574,5.574,0,0,1-3.291-5.162V70.243a14.407,14.407,0,0,0,5.489-8.661H79.9A4.778,4.778,0,0,0,84.67,56.81V52.6c0-1.03.018-2.025.038-3.04.025-1.318.05-2.676.018-3.948M64.413,82.174a8.851,8.851,0,0,1-8.05-5.19,8.392,8.392,0,0,0,2.046-5.008,14.3,14.3,0,0,0,5.648,1.151h.629a14.263,14.263,0,0,0,5.726-1.186,8.4,8.4,0,0,0,2.049,5.045,8.849,8.849,0,0,1-8.048,5.188m6.531-13.843a11.429,11.429,0,0,1-6.258,1.862h-.629a11.424,11.424,0,0,1-6.184-1.814,1.54,1.54,0,0,0-.234-.152,11.481,11.481,0,0,1-5-8.246c0-.023,0-.045-.009-.067a11.59,11.59,0,0,1-.065-1.209v-8.87c0-.085,0-.169.012-.256.008-.042.014-.085.018-.122a2.63,2.63,0,0,1,2.586-2.238h1.073a6.9,6.9,0,0,0,3.955-1.2L62.045,44.8a4.067,4.067,0,0,1,4.653,0l1.831,1.222a6.909,6.909,0,0,0,3.955,1.2h1.073a2.618,2.618,0,0,1,2.612,2.618v8.87a11.5,11.5,0,0,1-5.006,9.48,1.516,1.516,0,0,0-.219.146m8.162-17.568h.79A1.837,1.837,0,0,1,81.732,52.6v4.212A1.837,1.837,0,0,1,79.9,58.647h-.79ZM48.226,81.185c1.749-.616,3.557-1.253,5.221-2.028.2-.093.391-.192.576-.294a11.769,11.769,0,0,0,20.783,0q.285.159.572.291c1.242.58,2.531,1.068,3.656,1.474a16.329,16.329,0,0,0,1.155,16.409,31.527,31.527,0,0,1-41.923-9.7c1.608-3.211,5.665-4.639,9.96-6.151m45.481-6.76a13.419,13.419,0,1,1-13.42,13.419,13.436,13.436,0,0,1,13.42-13.419" fill="#00bbb4"></path>
  </g>
</svg>
