<?xml version="1.0" encoding="UTF-8"?>
<svg xmlns="http://www.w3.org/2000/svg" xmlns:xlink="http://www.w3.org/1999/xlink" id="icn3" width="136" height="136" viewBox="0 0 136 136">
  <defs>
    <clipPath id="clip-path">
      <rect id="Rectangle_4238" data-name="Rectangle 4238" width="136" height="136" fill="none"></rect>
    </clipPath>
  </defs>
  <g id="Group_3718" data-name="Group 3718" clip-path="url(#clip-path)">
    <path id="Path_2154" data-name="Path 2154" d="M68,0A68,68,0,1,1,0,68,68,68,0,0,1,68,0" fill="#fff"></path>
    <path id="Path_2155" data-name="Path 2155" d="M44.738,37.06a7.656,7.656,0,1,0,7.656,7.656,7.665,7.665,0,0,0-7.656-7.656m4.61,7.656a4.61,4.61,0,1,1-4.61-4.61,4.615,4.615,0,0,1,4.61,4.61" fill="#00bbb4"></path>
    <path id="Path_2156" data-name="Path 2156" d="M99.952,88.471,97.8,86.317l-8.946,8.946-1.586-1.586-2.153,2.154,3.739,3.739Z" fill="#00bbb4"></path>
    <rect id="Rectangle_4226" data-name="Rectangle 4226" width="3.047" height="3.046" transform="translate(71.383 43.15)" fill="#00bbb4"></rect>
    <rect id="Rectangle_4227" data-name="Rectangle 4227" width="3.046" height="3.046" transform="translate(86.102 43.15)" fill="#00bbb4"></rect>
    <rect id="Rectangle_4228" data-name="Rectangle 4228" width="3.046" height="3.046" transform="translate(81.196 43.15)" fill="#00bbb4"></rect>
    <rect id="Rectangle_4229" data-name="Rectangle 4229" width="3.047" height="3.046" transform="translate(76.29 43.15)" fill="#00bbb4"></rect>
    <path id="Path_2157" data-name="Path 2157" d="M58.187,74.408H77.813a3.981,3.981,0,0,0,3.976-3.977V69.5H97.438a8.892,8.892,0,0,0,8.883-8.882V52.032a8.893,8.893,0,0,0-8.883-8.883H94.055V42.22a3.981,3.981,0,0,0-3.976-3.977H70.453a3.981,3.981,0,0,0-3.976,3.977v.929H59.753V41.1l-3.293-.9c-.074-.19-.155-.384-.242-.578l1.695-2.967L52.8,31.541l-2.966,1.693q-.29-.129-.578-.241l-.9-3.293H41.122l-.9,3.293c-.2.076-.39.157-.577.241l-2.967-1.693-5.114,5.114,1.693,2.967c-.085.192-.166.385-.241.578l-3.293.9v7.231l3.293.9c.075.193.156.387.241.578l-1.694,2.967,5.114,5.113L39.643,56.2c.195.087.388.168.577.242l.9,3.293h7.233l.9-3.294q.285-.111.578-.242L52.8,57.889l5.114-5.113-1.694-2.967c.085-.193.166-.386.241-.578l3.293-.9V46.2h6.725v.93A3.98,3.98,0,0,0,70.453,51.1H90.079a3.98,3.98,0,0,0,3.976-3.976V46.2h3.383a5.843,5.843,0,0,1,5.836,5.836v8.587a5.843,5.843,0,0,1-5.836,5.836H81.789v-.93a3.981,3.981,0,0,0-3.976-3.977H58.187a3.981,3.981,0,0,0-3.976,3.977v.93H38.562a8.893,8.893,0,0,0-8.883,8.883V85.15a8.893,8.893,0,0,0,8.883,8.883h3.383v.93a3.981,3.981,0,0,0,3.976,3.977H65.547a3.981,3.981,0,0,0,3.976-3.977v-.93h9.31a13.775,13.775,0,1,0,0-3.046h-9.31v-.93a3.981,3.981,0,0,0-3.976-3.977H45.921a3.981,3.981,0,0,0-3.976,3.977v.93H38.562a5.843,5.843,0,0,1-5.837-5.837V75.338A5.843,5.843,0,0,1,38.562,69.5H54.211v.93a3.981,3.981,0,0,0,3.976,3.977m20.556-3.977a.931.931,0,0,1-.93.93H58.187a.931.931,0,0,1-.93-.93V65.525a.931.931,0,0,1,.93-.93H77.813a.931.931,0,0,1,.93.93ZM91.008,47.126a.931.931,0,0,1-.929.93H70.453a.931.931,0,0,1-.93-.93V42.22a.931.931,0,0,1,.93-.93H90.079a.931.931,0,0,1,.929.93Zm-36.931-.4-.244.8a9.529,9.529,0,0,1-.681,1.629l-.393.741,1.355,2.372L52.29,54.093l-2.373-1.354-.74.391a9.271,9.271,0,0,1-1.629.679l-.8.247-.721,2.629h-2.58l-.72-2.629-.8-.247a9.468,9.468,0,0,1-1.63-.679l-.739-.391-2.373,1.354-1.826-1.826L36.717,49.9l-.393-.741a9.35,9.35,0,0,1-.68-1.628l-.245-.8-2.63-.718V43.425l2.629-.718.247-.8a9.37,9.37,0,0,1,.679-1.628l.393-.742-1.355-2.372,1.824-1.825,2.372,1.353.74-.39a9.411,9.411,0,0,1,1.63-.681l.8-.247.721-2.628h2.58l.72,2.628.8.247a9.5,9.5,0,0,1,1.631.68l.739.391,2.373-1.353,1.824,1.825-1.355,2.372.393.741a9.232,9.232,0,0,1,.678,1.628l.247.8,2.629.717v2.584ZM44.991,90.057a.931.931,0,0,1,.93-.93H65.547a.931.931,0,0,1,.93.93v4.906a.931.931,0,0,1-.93.93H45.921a.931.931,0,0,1-.93-.93Zm36.8,2.453a10.743,10.743,0,1,1,10.743,10.743A10.755,10.755,0,0,1,81.789,92.51" fill="#00bbb4"></path>
    <rect id="Rectangle_4230" data-name="Rectangle 4230" width="3.046" height="3.046" transform="translate(68.93 66.456)" fill="#00bbb4"></rect>
    <rect id="Rectangle_4231" data-name="Rectangle 4231" width="3.047" height="3.046" transform="translate(64.024 66.456)" fill="#00bbb4"></rect>
    <rect id="Rectangle_4232" data-name="Rectangle 4232" width="3.046" height="3.046" transform="translate(59.117 66.456)" fill="#00bbb4"></rect>
    <rect id="Rectangle_4233" data-name="Rectangle 4233" width="3.046" height="3.046" transform="translate(73.836 66.456)" fill="#00bbb4"></rect>
    <rect id="Rectangle_4234" data-name="Rectangle 4234" width="3.046" height="3.047" transform="translate(51.758 90.987)" fill="#00bbb4"></rect>
    <rect id="Rectangle_4235" data-name="Rectangle 4235" width="3.046" height="3.047" transform="translate(61.571 90.987)" fill="#00bbb4"></rect>
    <rect id="Rectangle_4236" data-name="Rectangle 4236" width="3.047" height="3.047" transform="translate(56.663 90.987)" fill="#00bbb4"></rect>
    <rect id="Rectangle_4237" data-name="Rectangle 4237" width="3.046" height="3.047" transform="translate(46.852 90.987)" fill="#00bbb4"></rect>
  </g>
</svg>
