<?xml version="1.0" encoding="UTF-8"?>
<svg xmlns="http://www.w3.org/2000/svg" xmlns:xlink="http://www.w3.org/1999/xlink" id="icn3" width="136" height="136" viewBox="0 0 136 136">
  <defs>
    <clipPath id="clip-path">
      <rect id="Rectangle_4169" data-name="Rectangle 4169" width="136" height="136" fill="none"></rect>
    </clipPath>
  </defs>
  <g id="Group_3665" data-name="Group 3665" clip-path="url(#clip-path)">
    <path id="Path_1867" data-name="Path 1867" d="M68,0A68,68,0,1,1,0,68,68,68,0,0,1,68,0" fill="#fff"></path>
    <path id="Path_1868" data-name="Path 1868" d="M100.7,85.257h-.3a14.871,14.871,0,0,0-.7-1.7l.217-.218a2.68,2.68,0,0,0,0-3.787l-1.269-1.269V64.329A3.349,3.349,0,0,0,95.3,60.986H93.165l1.842-20.555a2.633,2.633,0,0,0-.709-2.289l-4.455-4.619a2.015,2.015,0,0,0-1.536-.71L86.6,32.66l-.045,0L49.392,29.321a3.719,3.719,0,0,0-4.039,3.371L42.881,60.219H35.752a3.186,3.186,0,0,0-2.277.882,2.864,2.864,0,0,0-.834,2.078l-.025,32.26c0,2.51,1.194,5.54,6.877,5.735a1.444,1.444,0,0,0,.495.091h34.3l1.962,1.962a2.749,2.749,0,0,0,3.785,0l.217-.217a14.67,14.67,0,0,0,1.693.7v.309a2.681,2.681,0,0,0,2.68,2.676h4.052a2.679,2.679,0,0,0,2.677-2.676v-.309a14.41,14.41,0,0,0,1.693-.7l.221.222a2.689,2.689,0,0,0,3.785-.006l2.865-2.865a2.679,2.679,0,0,0,0-3.783l-.222-.222a15.064,15.064,0,0,0,.7-1.695h.3a2.682,2.682,0,0,0,2.681-2.677V87.934a2.682,2.682,0,0,0-2.681-2.677m-3.85,12.4.827.794-2.508,2.543-.828-.829a1.466,1.466,0,0,0-1.787-.223,11.564,11.564,0,0,1-3.04,1.26,1.467,1.467,0,0,0-1.1,1.425l.025,1.14-3.57.027v-1.172a1.463,1.463,0,0,0-1.1-1.419,11.676,11.676,0,0,1-3.043-1.263,1.465,1.465,0,0,0-1.788.229l-.788.824L76,98.867a1.349,1.349,0,0,0-.186-.184l-.2-.2.83-.833a1.463,1.463,0,0,0,.22-1.782,11.565,11.565,0,0,1-1.259-3.041,1.469,1.469,0,0,0-1.425-1.1l-1.141.025-.026-3.566h1.172a1.467,1.467,0,0,0,1.42-1.1,11.662,11.662,0,0,1,1.261-3.046,1.466,1.466,0,0,0-.229-1.787l-.824-.788,2.5-2.542.829.828a1.464,1.464,0,0,0,1.784.224,11.759,11.759,0,0,1,3.042-1.262,1.466,1.466,0,0,0,1.1-1.423l-.021-1.14,3.567-.026V77.3a1.466,1.466,0,0,0,1.1,1.42,11.59,11.59,0,0,1,3.04,1.26,1.471,1.471,0,0,0,1.791-.226l.79-.824.966.952a1.235,1.235,0,0,0,.09.089l1.486,1.465-.83.832a1.468,1.468,0,0,0-.223,1.78,11.789,11.789,0,0,1,1.263,3.044,1.466,1.466,0,0,0,1.424,1.1l1.139-.025.023,3.566H99.31a1.464,1.464,0,0,0-1.42,1.1,11.731,11.731,0,0,1-1.263,3.045,1.467,1.467,0,0,0,.227,1.782m-27.2-25.7,3.884-6.914.229-.426a4.134,4.134,0,0,1,.429-.7H95.3a.424.424,0,0,1,.415.411V75.978a2.676,2.676,0,0,0-2.456.714l-.215.216a14.573,14.573,0,0,0-1.692-.7V75.9a2.682,2.682,0,0,0-2.678-2.678H84.621a2.682,2.682,0,0,0-2.68,2.678v.307a14.767,14.767,0,0,0-1.693.7l-.217-.218a2.683,2.683,0,0,0-3.786,0L73.38,79.558a2.677,2.677,0,0,0,0,3.785l.218.217a14.572,14.572,0,0,0-.7,1.7h-.308a2.68,2.68,0,0,0-2.677,2.677v4.051a2.68,2.68,0,0,0,2.677,2.677h.308a14.66,14.66,0,0,0,.7,1.7l-.217.218a2.631,2.631,0,0,0-.773,1.757H41.454V72.7H68.37a1.469,1.469,0,0,0,1.279-.748m15.4-30.426a2.524,2.524,0,0,0,1.718.9l5.08.46-1.623,18.1H74.129a3.383,3.383,0,0,0-2.959,2.26l-3.658,6.526H44.967l3.307-36.82h0a.779.779,0,0,1,.279-.531.759.759,0,0,1,.573-.18l35.716,3.206-.382,4.23a2.51,2.51,0,0,0,.585,1.854m2.371-1.987.346-3.835.125.012,4.082,4.235Zm-44.8,23.608-.6,6.621h-.629a2.876,2.876,0,0,0-2.872,2.873V98.164c-2.974-.386-2.974-1.9-2.974-2.725l.025-32.258a1.544,1.544,0,0,1,.2-.03Z" fill="#00bbb4"></path>
    <path id="Path_1869" data-name="Path 1869" d="M86.647,81.667a8.292,8.292,0,1,0,8.292,8.292,8.3,8.3,0,0,0-8.292-8.292m5.36,8.292a5.36,5.36,0,1,1-5.36-5.36,5.366,5.366,0,0,1,5.36,5.36" fill="#00bbb4"></path>
    <path id="Path_1870" data-name="Path 1870" d="M82.122,46.334l-26.6-2.388a1.467,1.467,0,0,0-1.255,2.4,1.453,1.453,0,0,0,.994.519l26.6,2.388c.045,0,.088.006.132.006a1.466,1.466,0,0,0,.13-2.926" fill="#00bbb4"></path>
    <path id="Path_1871" data-name="Path 1871" d="M81.49,53.4l-26.6-2.388a1.466,1.466,0,0,0-.259,2.921l26.6,2.387c.045,0,.088.005.132.005a1.465,1.465,0,0,0,.13-2.925" fill="#00bbb4"></path>
  </g>
</svg>
