<?xml version="1.0" encoding="UTF-8"?>
<svg xmlns="http://www.w3.org/2000/svg" xmlns:xlink="http://www.w3.org/1999/xlink" id="icn4" width="137" height="136" viewBox="0 0 137 136">
  <defs>
    <clipPath id="clip-path">
      <rect id="Rectangle_4243" data-name="Rectangle 4243" width="137" height="136" fill="none"></rect>
    </clipPath>
  </defs>
  <g id="Group_3723" data-name="Group 3723" clip-path="url(#clip-path)">
    <path id="Path_2187" data-name="Path 2187" d="M68.5,0C106.332,0,137,30.445,137,68s-30.668,68-68.5,68S0,105.555,0,68,30.669,0,68.5,0" fill="#fff"></path>
    <path id="Path_2188" data-name="Path 2188" d="M48.239,92.2h2.454V94.65a1.521,1.521,0,0,0,1.519,1.52h4.669A1.521,1.521,0,0,0,58.4,94.65V92.2h2.454a1.522,1.522,0,0,0,1.52-1.52V86.008a1.522,1.522,0,0,0-1.52-1.52H58.4V82.034a1.52,1.52,0,0,0-1.519-1.519H52.212a1.52,1.52,0,0,0-1.519,1.519v2.454H48.239a1.522,1.522,0,0,0-1.52,1.52v4.668a1.522,1.522,0,0,0,1.52,1.52m5.493-6.188V83.554h1.629v2.454a1.522,1.522,0,0,0,1.52,1.52h2.454v1.629H56.881a1.521,1.521,0,0,0-1.52,1.519v2.455H53.732V90.676a1.521,1.521,0,0,0-1.52-1.519H49.758V87.528h2.454a1.522,1.522,0,0,0,1.52-1.52" fill="#00bbb4"></path>
    <path id="Path_2189" data-name="Path 2189" d="M63.439,38.971H82.412a1.52,1.52,0,0,0,0-3.039H63.439a1.52,1.52,0,1,0,0,3.039" fill="#00bbb4"></path>
    <path id="Path_2190" data-name="Path 2190" d="M63.439,45.209H82.412a1.52,1.52,0,0,0,0-3.039H63.439a1.52,1.52,0,1,0,0,3.039" fill="#00bbb4"></path>
    <path id="Path_2191" data-name="Path 2191" d="M43.244,37.452V49.928a1.521,1.521,0,0,0,1.519,1.519H57.241a1.52,1.52,0,0,0,1.519-1.519V37.452a1.521,1.521,0,0,0-1.519-1.52H44.763a1.522,1.522,0,0,0-1.519,1.52m3.039,1.519h9.438v9.437H46.283Z" fill="#00bbb4"></path>
    <path id="Path_2192" data-name="Path 2192" d="M63.439,51.448H82.412a1.52,1.52,0,0,0,0-3.039H63.439a1.52,1.52,0,1,0,0,3.039" fill="#00bbb4"></path>
    <path id="Path_2193" data-name="Path 2193" d="M64.33,77.039H44.763a1.522,1.522,0,0,0-1.519,1.52V98.125a1.522,1.522,0,0,0,1.519,1.52H64.33a1.522,1.522,0,0,0,1.52-1.52V78.559a1.522,1.522,0,0,0-1.52-1.52M62.81,96.606H46.283V80.079H62.81Z" fill="#00bbb4"></path>
    <path id="Path_2194" data-name="Path 2194" d="M82.411,83.562H70.633a1.52,1.52,0,1,0,0,3.039H82.411a1.52,1.52,0,1,0,0-3.039" fill="#00bbb4"></path>
    <path id="Path_2195" data-name="Path 2195" d="M69.113,78.559a1.522,1.522,0,0,0,1.52,1.52H82.411a1.52,1.52,0,0,0,0-3.04H70.633a1.522,1.522,0,0,0-1.52,1.52" fill="#00bbb4"></path>
    <path id="Path_2196" data-name="Path 2196" d="M67.213,68.962H44.763a1.52,1.52,0,1,0,0,3.039h22.45a1.52,1.52,0,1,0,0-3.039" fill="#00bbb4"></path>
    <path id="Path_2197" data-name="Path 2197" d="M98.228,29.357H44.94a8.762,8.762,0,0,0-8.751,8.752v63.736a3.9,3.9,0,0,0,3.9,3.9H88.619a3.9,3.9,0,0,0,3.9-3.9V59l2.629-4.554h7.938a3.9,3.9,0,0,0,3.9-3.9V38.109a8.761,8.761,0,0,0-8.75-8.752M78.636,72.264V69.8l2.137,1.234Zm10.84-34.155v4.608L75.8,66.4a1.535,1.535,0,0,0-.2.76V74.9a1.523,1.523,0,0,0,.759,1.316,1.545,1.545,0,0,0,1.52,0l6.7-3.866a1.551,1.551,0,0,0,.556-.556l4.347-7.531v37.585a.857.857,0,0,1-.857.856H40.085a.857.857,0,0,1-.856-.856V38.109A5.718,5.718,0,0,1,44.94,32.4H91.6a8.673,8.673,0,0,0-2.127,5.712m-10.284,28.5L94.8,39.576a1.709,1.709,0,0,1,2.325-.623l1.116.644a1.708,1.708,0,0,1,.623,2.325L83.256,68.955Zm22.3-23.166a4.748,4.748,0,0,0-1.736-6.477l-1.115-.643a4.749,4.749,0,0,0-6.1,1.171,5.712,5.712,0,0,1,11.391.616V50.546a.858.858,0,0,1-.856.857H96.9Z" fill="#00bbb4"></path>
    <path id="Path_2198" data-name="Path 2198" d="M82.411,90.084H70.633a1.52,1.52,0,1,0,0,3.039H82.411a1.52,1.52,0,1,0,0-3.039" fill="#00bbb4"></path>
    <path id="Path_2199" data-name="Path 2199" d="M67.213,62.724H44.763a1.52,1.52,0,1,0,0,3.039h22.45a1.52,1.52,0,1,0,0-3.039" fill="#00bbb4"></path>
    <path id="Path_2200" data-name="Path 2200" d="M67.213,56.485H44.763a1.519,1.519,0,1,0,0,3.039h22.45a1.519,1.519,0,1,0,0-3.039" fill="#00bbb4"></path>
    <path id="Path_2201" data-name="Path 2201" d="M82.411,96.606H70.633a1.519,1.519,0,1,0,0,3.039H82.411a1.519,1.519,0,1,0,0-3.039" fill="#00bbb4"></path>
  </g>
</svg>
