<?xml version="1.0" encoding="UTF-8"?>
<svg xmlns="http://www.w3.org/2000/svg" xmlns:xlink="http://www.w3.org/1999/xlink" id="icn4" width="137" height="136" viewBox="0 0 137 136">
  <defs>
    <clipPath id="clip-path">
      <rect id="Rectangle_4207" data-name="Rectangle 4207" width="137" height="136" fill="none"></rect>
    </clipPath>
  </defs>
  <g id="Group_3698" data-name="Group 3698" clip-path="url(#clip-path)">
    <path id="Path_2019" data-name="Path 2019" d="M68.5,0C106.332,0,137,30.445,137,68s-30.668,68-68.5,68S0,105.555,0,68,30.669,0,68.5,0" fill="#fff"></path>
    <path id="Path_2020" data-name="Path 2020" d="M101.411,80.853h0a4.824,4.824,0,0,0-1.359.209l-3.992,1.322.832-1.159a4.219,4.219,0,0,0-6.261-5.6l-12.6,12.249-8.928-3.3a.125.125,0,0,1-.078-.149l.546-2.811a.128.128,0,0,1,.085-.1l8.128-1.438a4.406,4.406,0,0,0-.95-8.69h-.009l-14.878.942a9.368,9.368,0,0,0-4.351,1.355l-6.8,4.06a9.5,9.5,0,0,1-4.95,1.29H33.093a4.053,4.053,0,0,0-4.048,4.048v8.921a4.052,4.052,0,0,0,4.048,4.047H52.015l23.264,6.092a9.594,9.594,0,0,0,2.289.28,9.444,9.444,0,0,0,4.441-1.117l21.5-11.775a4.633,4.633,0,0,0,2.115-5.784,4.568,4.568,0,0,0-4.214-2.9m-17.6,5.581L92.7,77.8a1.184,1.184,0,0,1,1.593.018,1.262,1.262,0,0,1,.171,1.644l-3.249,4.521Zm-51.77-3.346a1.051,1.051,0,0,1,1.049-1.049h12.74a12.465,12.465,0,0,0,6.49-1.714l6.82-4.07a6.368,6.368,0,0,1,2.979-.927l14.531-.936h.166a1.373,1.373,0,0,1,1.324,1.123,1.4,1.4,0,0,1-.97,1.634L69.1,78.575a3.11,3.11,0,0,0-2.472,2.472l-.546,2.809A3.108,3.108,0,0,0,68.055,87.4l9.556,3.527a3.117,3.117,0,0,0,2.019.059l21.322-7.055a1.5,1.5,0,0,1,1.9.929A1.632,1.632,0,0,1,102.1,86.9l-.12.063v.008L80.589,98.675a6.387,6.387,0,0,1-4.568.567L52.587,93.106a1.538,1.538,0,0,0-.379-.048H33.093a1.051,1.051,0,0,1-1.049-1.049Z" fill="#00bbb4"></path>
    <path id="Path_2021" data-name="Path 2021" d="M47.948,53.6l8.129,7.25a3.173,3.173,0,0,0,5.277-2.38V56.552H67.5a3.6,3.6,0,0,1,3.6,3.6v6.372a2.777,2.777,0,0,0,2.774,2.774h5.1a2.776,2.776,0,0,0,2.773-2.774V60.149a3.6,3.6,0,0,1,3.6-3.6h6.146v1.913a3.144,3.144,0,0,0,1.877,2.909,3.111,3.111,0,0,0,3.4-.524l8.125-7.248a3.166,3.166,0,0,0,0-4.738l-8.13-7.25a3.171,3.171,0,0,0-5.27,2.378v1.914H82.793a7.205,7.205,0,0,0-1.05.083v-6h1.926a3.169,3.169,0,0,0,2.369-5.275l-7.25-8.127a3.281,3.281,0,0,0-2.364-1.016h-.006a3.286,3.286,0,0,0-2.365,1.015L66.8,34.712a3.169,3.169,0,0,0,2.38,5.272H71.1v6a6.377,6.377,0,0,0-1.049-.083h-8.7V43.991a3.172,3.172,0,0,0-5.278-2.38l-8.121,7.245a3.165,3.165,0,0,0-.007,4.742m10.284-9.777.016.007a.162.162,0,0,1,.1.164v3.414a1.5,1.5,0,0,0,1.5,1.5H70.041a3.584,3.584,0,0,1,1.8.487,1.5,1.5,0,0,0,2.249-1.3V38.485a1.5,1.5,0,0,0-1.5-1.5H69.173a.165.165,0,0,1-.154-.1l-.007-.016a.144.144,0,0,1,.029-.167L76.3,28.568c.086-.1.124-.1.124-.1s.041,0,.129.1L83.806,36.7a.14.14,0,0,1,.024.159l-.01.022a.162.162,0,0,1-.161.1H80.244a1.5,1.5,0,0,0-1.5,1.5v9.608a1.5,1.5,0,0,0,2.249,1.3,3.573,3.573,0,0,1,1.8-.486H92.987a1.5,1.5,0,0,0,1.5-1.5V43.981a.159.159,0,0,1,.1-.154l.014-.006a.149.149,0,0,1,.169.028l8.138,7.258a.159.159,0,0,1,.056.123.164.164,0,0,1-.057.125l-8.134,7.256a.143.143,0,0,1-.161.024l-.018-.008a.167.167,0,0,1-.106-.159V55.052a1.5,1.5,0,0,0-1.5-1.5H85.342a6.6,6.6,0,0,0-6.6,6.6V66.3H74.1V60.149a6.6,6.6,0,0,0-6.6-6.6H59.855a1.5,1.5,0,0,0-1.5,1.5v3.423a.175.175,0,0,1-.115.164.146.146,0,0,1-.167-.029l-8.139-7.257a.161.161,0,0,1-.057-.125.165.165,0,0,1,.059-.127l8.135-7.256a.141.141,0,0,1,.161-.024" fill="#00bbb4"></path>
  </g>
</svg>
