<?xml version="1.0" encoding="UTF-8"?>
<svg xmlns="http://www.w3.org/2000/svg" xmlns:xlink="http://www.w3.org/1999/xlink" id="icn4" width="137" height="136" viewBox="0 0 137 136">
  <defs>
    <clipPath id="clip-path">
      <rect id="Rectangle_4247" data-name="Rectangle 4247" width="137" height="136" fill="none"></rect>
    </clipPath>
  </defs>
  <g id="Group_3727" data-name="Group 3727" clip-path="url(#clip-path)">
    <path id="Path_2216" data-name="Path 2216" d="M68.5,0C106.332,0,137,30.445,137,68s-30.668,68-68.5,68S0,105.555,0,68,30.669,0,68.5,0" fill="#fff"></path>
    <path id="Path_2217" data-name="Path 2217" d="M109.963,34.88h-6.341V28.539a1.744,1.744,0,0,0-.951-1.585,4.009,4.009,0,0,0-1.9.318l-11.1,11.1c0,.316-.317.95-.317,1.267v7.292l-.939.939a31.8,31.8,0,1,0,2.219,2.219l.939-.939h7.292c.317,0,.951-.317,1.268-.317l11.1-11.1a4.021,4.021,0,0,0,.317-1.9,1.743,1.743,0,0,0-1.585-.951M95.7,71.339A28.418,28.418,0,1,1,86.233,50.05L80.6,55.688a20.568,20.568,0,1,0,2.219,2.219l5.638-5.638A28.454,28.454,0,0,1,95.7,71.339m-22.193,0A6.34,6.34,0,1,1,67.164,65a6.292,6.292,0,0,1,3.23.891l-4.5,4.5a1.531,1.531,0,0,0,0,2.219,1.9,1.9,0,0,0,1.268.318c.317,0,.951,0,.951-.318l4.5-4.5a6.293,6.293,0,0,1,.891,3.231m-.771-7.789a9.61,9.61,0,0,0-5.569-1.722,9.511,9.511,0,1,0,9.511,9.511,9.614,9.614,0,0,0-1.723-5.57l5.557-5.557A17.31,17.31,0,0,1,84.6,71.339,17.436,17.436,0,1,1,67.164,53.9,17.307,17.307,0,0,1,78.29,57.993Zm25.5-17.574H92.526V40.269l7.926-7.926v4.122a1.5,1.5,0,0,0,1.585,1.585h4.122Z" fill="#00bbb4"></path>
  </g>
</svg>
