<?xml version="1.0" encoding="UTF-8"?>
<svg xmlns="http://www.w3.org/2000/svg" xmlns:xlink="http://www.w3.org/1999/xlink" id="icn4" width="136" height="136" viewBox="0 0 136 136">
  <defs>
    <clipPath id="clip-path">
      <rect id="Rectangle_4138" data-name="Rectangle 4138" width="136" height="136" fill="none"></rect>
    </clipPath>
  </defs>
  <g id="Group_3595" data-name="Group 3595" clip-path="url(#clip-path)">
    <path id="Path_1814" data-name="Path 1814" d="M136,68A68,68,0,1,1,68,0a68,68,0,0,1,68,68" fill="#fff"></path>
    <path id="Path_1815" data-name="Path 1815" d="M38.73,95.1H76.273l.2.3A15.761,15.761,0,1,0,92.956,71.149l-.357-.08-.132-.341A23.2,23.2,0,0,0,77.006,56.765L75.7,56.408l1.061-.842a16.748,16.748,0,1,0-20.776,0l1.061.842-1.306.356a23.14,23.14,0,0,0-17.01,22.27Zm63.36-8.568a12.581,12.581,0,1,1-12.581-12.58,12.6,12.6,0,0,1,12.581,12.58M56.428,51.647a13.544,13.544,0,1,1,11.053,4.3l-.028,0-2.187,0a13.526,13.526,0,0,1-8.838-4.3M41.918,79.035A19.916,19.916,0,0,1,61.812,59.141h9.121a19.861,19.861,0,0,1,17.636,10.7l.474.905-1.018.095A15.768,15.768,0,0,0,74.4,91.035l.263.881H41.918Z" fill="#00bbb4"></path>
    <path id="Path_1816" data-name="Path 1816" d="M96.423,84.943H91.1v-5.32H87.915v5.32h-5.32V88.13h5.32v5.32H91.1V88.13h5.32Z" fill="#00bbb4"></path>
  </g>
</svg>
