<?xml version="1.0" encoding="UTF-8"?>
<svg xmlns="http://www.w3.org/2000/svg" xmlns:xlink="http://www.w3.org/1999/xlink" id="icn4" width="137" height="136" viewBox="0 0 137 136">
  <defs>
    <clipPath id="clip-path">
      <rect id="Rectangle_4174" data-name="Rectangle 4174" width="137" height="136" fill="none"></rect>
    </clipPath>
  </defs>
  <g id="Group_3670" data-name="Group 3670" clip-path="url(#clip-path)">
    <path id="Path_1895" data-name="Path 1895" d="M68.5,0C106.332,0,137,30.445,137,68s-30.668,68-68.5,68S0,105.555,0,68,30.669,0,68.5,0" fill="#fff"></path>
    <path id="Path_1896" data-name="Path 1896" d="M90.237,73.89H78.994a1.512,1.512,0,0,0-.889,2.737,4.154,4.154,0,1,1-4.876,0,1.513,1.513,0,0,0-.889-2.738H62.61V67.318a7.18,7.18,0,1,0,0-12.971V46.263A1.515,1.515,0,0,0,61.1,44.749H38.028a7.593,7.593,0,0,0-7.585,7.584V98.472a7.593,7.593,0,0,0,7.585,7.584H84.166a7.592,7.592,0,0,0,7.584-7.584V75.4a1.514,1.514,0,0,0-1.513-1.512M61.563,91.86a1.517,1.517,0,0,0-.234-.055,1.415,1.415,0,0,0-.238-.018,1.521,1.521,0,0,0-1.219.624,4.153,4.153,0,1,1,0-4.875,1.548,1.548,0,0,0,.338.338,1.513,1.513,0,0,0,2.4-1.228v-9.73h6.572a7.179,7.179,0,1,0,12.97,0h6.572V98.472a4.564,4.564,0,0,1-4.558,4.558H62.61V93.3a1.51,1.51,0,0,0-1.047-1.44M60.63,58.945a1.508,1.508,0,0,0,1.691-.55,4.153,4.153,0,1,1,0,4.876,1.512,1.512,0,0,0-2.737.889v9.73H53.012a7.178,7.178,0,1,0-13.665-3.072c0,.158.007.327.021.514a7.144,7.144,0,0,0,.506,2.176c.052.128.108.255.168.382H33.47V52.334a4.562,4.562,0,0,1,4.558-4.558H59.584v9.729a1.51,1.51,0,0,0,1.046,1.44M44.639,75.87a1.51,1.51,0,0,0-.55-1.692,4.152,4.152,0,1,1,4.876,0,1.513,1.513,0,0,0,.889,2.738h9.729v6.572a7.179,7.179,0,1,0,0,12.97v6.572H38.028a4.563,4.563,0,0,1-4.558-4.558V76.916H43.2a1.51,1.51,0,0,0,1.44-1.046" fill="#00bbb4"></path>
    <path id="Path_1897" data-name="Path 1897" d="M98.972,29.944H75.9a1.515,1.515,0,0,0-1.514,1.513V42.7a1.513,1.513,0,0,0,2.738.889,4.153,4.153,0,1,1,0,4.876,1.513,1.513,0,0,0-2.738.889V60.6A1.515,1.515,0,0,0,75.9,62.11h8.084a7.18,7.18,0,1,0,12.971,0h8.084a1.514,1.514,0,0,0,1.513-1.513V37.528a7.592,7.592,0,0,0-7.584-7.584M92.361,60.13a1.508,1.508,0,0,0,.55,1.692,4.152,4.152,0,1,1-4.876,0,1.513,1.513,0,0,0-.889-2.738H77.417V52.512a7.179,7.179,0,1,0,0-12.97V32.97H98.973a4.563,4.563,0,0,1,4.557,4.558V59.084H93.8a1.509,1.509,0,0,0-1.439,1.046" fill="#00bbb4"></path>
  </g>
</svg>
