<?xml version="1.0" encoding="UTF-8"?>
<svg xmlns="http://www.w3.org/2000/svg" xmlns:xlink="http://www.w3.org/1999/xlink" id="icn4" width="137" height="136" viewBox="0 0 137 136">
  <defs>
    <clipPath id="clip-path">
      <rect id="Rectangle_4271" data-name="Rectangle 4271" width="137" height="136" fill="none"></rect>
    </clipPath>
  </defs>
  <g id="Group_3733" data-name="Group 3733" clip-path="url(#clip-path)">
    <path id="Path_2254" data-name="Path 2254" d="M68.5,0C106.332,0,137,30.445,137,68s-30.668,68-68.5,68S0,105.555,0,68,30.669,0,68.5,0" fill="#fff"></path>
    <path id="Path_2255" data-name="Path 2255" d="M66.462,53.8a5.325,5.325,0,1,0-3.288-4.92,5.348,5.348,0,0,0,3.288,4.92m2.928-2.772a2.325,2.325,0,1,1,1.435-2.148,2.316,2.316,0,0,1-1.435,2.148" fill="#00bbb4"></path>
    <path id="Path_2256" data-name="Path 2256" d="M78.926,70.936V61.244A4.948,4.948,0,0,0,73.983,56.3H63.017a4.944,4.944,0,0,0-4.943,4.942v9.691A4.934,4.934,0,0,0,61.9,75.746v12.4a4.31,4.31,0,0,0,4.305,4.306h4.59A4.309,4.309,0,0,0,75.1,88.149v-12.4a4.934,4.934,0,0,0,3.825-4.81M68.5,72.878a1.5,1.5,0,0,0-1.5,1.5V89.454h-.795A1.306,1.306,0,0,1,64.9,88.149V74.378a1.5,1.5,0,0,0-1.5-1.5h-.383a1.945,1.945,0,0,1-1.943-1.942V61.244A1.944,1.944,0,0,1,63.017,59.3H73.983a1.945,1.945,0,0,1,1.943,1.942v9.692a1.944,1.944,0,0,1-1.943,1.942H73.6a1.5,1.5,0,0,0-1.5,1.5V88.149a1.3,1.3,0,0,1-1.305,1.305H70V74.378a1.5,1.5,0,0,0-1.5-1.5" fill="#00bbb4"></path>
    <path id="Path_2257" data-name="Path 2257" d="M40.4,50.377h.052a10.456,10.456,0,0,0,7.5-3.218l9.478,6.758a1.5,1.5,0,0,0,1.742-2.431l-9.5-6.759a10.426,10.426,0,1,0-9.268,5.65M33.022,39.951a7.426,7.426,0,1,1,4.584,6.86,7.434,7.434,0,0,1-4.584-6.86" fill="#00bbb4"></path>
    <path id="Path_2258" data-name="Path 2258" d="M40.439,78.429h.009A10.445,10.445,0,0,0,50.755,69.5h3.719a1.5,1.5,0,0,0,0-3H50.755A10.425,10.425,0,1,0,40.439,78.429M33.022,68a7.426,7.426,0,1,1,4.584,6.86A7.434,7.434,0,0,1,33.022,68" fill="#00bbb4"></path>
    <path id="Path_2259" data-name="Path 2259" d="M57.394,82.078l-.706.418h.168l-8.906,6.35a10.185,10.185,0,1,0,1.712,2.433l9.456-6.759.015-.012a1.5,1.5,0,0,0-1.739-2.43M47.873,96.055a7.437,7.437,0,1,1-4.584-6.86,7.434,7.434,0,0,1,4.584,6.86" fill="#00bbb4"></path>
    <path id="Path_2260" data-name="Path 2260" d="M96.561,57.577h-.009A10.445,10.445,0,0,0,86.245,66.5H82.526a1.5,1.5,0,0,0,0,3h3.719A10.425,10.425,0,1,0,96.561,57.577M103.978,68a7.437,7.437,0,1,1-4.584-6.86A7.434,7.434,0,0,1,103.978,68" fill="#00bbb4"></path>
    <path id="Path_2261" data-name="Path 2261" d="M78.7,54.2a1.492,1.492,0,0,0,.869-.284l9.479-6.759a10.426,10.426,0,1,0,7.535-17.634h-.034a10.425,10.425,0,0,0-9.215,15.2l-9.455,6.759A1.5,1.5,0,0,0,78.7,54.2M91.3,34.7a7.426,7.426,0,1,1-1.609,8.093A7.405,7.405,0,0,1,91.3,34.7" fill="#00bbb4"></path>
    <path id="Path_2262" data-name="Path 2262" d="M106.644,93.246A10.451,10.451,0,0,0,96.6,85.629h-.053a10.46,10.46,0,0,0-7.5,3.218l-9.48-6.759-.016-.01a1.5,1.5,0,0,0-1.74,2.429l9.521,6.772a10.426,10.426,0,1,0,19.308,1.967m-2.666,2.809a7.437,7.437,0,1,1-4.584-6.86,7.434,7.434,0,0,1,4.584,6.86" fill="#00bbb4"></path>
  </g>
</svg>
