<?xml version="1.0" encoding="UTF-8"?>
<svg xmlns="http://www.w3.org/2000/svg" xmlns:xlink="http://www.w3.org/1999/xlink" id="icn4" width="137" height="136" viewBox="0 0 137 136">
  <defs>
    <clipPath id="clip-path">
      <rect id="Rectangle_4203" data-name="Rectangle 4203" width="137" height="136" fill="none"></rect>
    </clipPath>
  </defs>
  <g id="Group_3694" data-name="Group 3694" clip-path="url(#clip-path)">
    <path id="Path_1999" data-name="Path 1999" d="M68.5,0C106.332,0,137,30.445,137,68s-30.668,68-68.5,68S0,105.555,0,68,30.669,0,68.5,0" fill="#fff"></path>
    <path id="Path_2000" data-name="Path 2000" d="M71.546,88.436a12.877,12.877,0,0,0-5.966,0c-3.229.712-8.67,3.5-8.67,9.464l-.1,6.794a1.525,1.525,0,0,0,1.523,1.547H77.8l.664.088a1.485,1.485,0,0,0,.2.014,1.526,1.526,0,0,0,1.525-1.524v-6.9c0-5.967-5.425-8.764-8.647-9.481m-.763,2.953c.26.054,6.362,1.389,6.362,6.528v5.271H59.878l.079-5.272c0-5.129,6.1-6.474,6.357-6.528a2.2,2.2,0,0,0,.294-.091,12.893,12.893,0,0,1,3.788-.045,1.534,1.534,0,0,0,.387.137" fill="#00bbb4"></path>
    <path id="Path_2001" data-name="Path 2001" d="M61.892,80.124A6.608,6.608,0,1,0,68.5,73.491a6.626,6.626,0,0,0-6.608,6.633m10.168,0a3.561,3.561,0,1,1-3.56-3.585,3.576,3.576,0,0,1,3.56,3.585" fill="#00bbb4"></path>
    <path id="Path_2002" data-name="Path 2002" d="M96.965,88.438A12.819,12.819,0,0,0,91,88.431c-3.229.712-8.67,3.5-8.67,9.464l-.1,6.794a1.534,1.534,0,0,0,.438,1.093,1.512,1.512,0,0,0,1.085.454h19.471l.662.088a1.524,1.524,0,0,0,1.726-1.51v-6.9c0-5.968-5.424-8.764-8.646-9.479M96.2,91.389c.26.054,6.362,1.386,6.362,6.528v5.271H85.3l.08-5.272c0-5.129,6.1-6.474,6.356-6.528a2.277,2.277,0,0,0,.293-.092,13.018,13.018,0,0,1,3.786-.045,1.534,1.534,0,0,0,.389.138" fill="#00bbb4"></path>
    <path id="Path_2003" data-name="Path 2003" d="M93.919,73.491a6.632,6.632,0,1,0,6.609,6.633,6.628,6.628,0,0,0-6.609-6.633m3.561,6.633a3.561,3.561,0,1,1-3.561-3.585,3.577,3.577,0,0,1,3.561,3.585" fill="#00bbb4"></path>
    <path id="Path_2004" data-name="Path 2004" d="M46.126,88.438a12.806,12.806,0,0,0-5.965-.007c-3.229.712-8.67,3.5-8.67,9.464l-.1,6.794a1.533,1.533,0,0,0,.439,1.093,1.509,1.509,0,0,0,1.085.454H52.384l.662.088a1.524,1.524,0,0,0,1.727-1.51v-6.9c0-5.969-5.425-8.764-8.647-9.479m-.763,2.951c.26.054,6.362,1.389,6.362,6.528v5.271H34.46l.078-5.272c0-5.127,6.1-6.474,6.356-6.527a2.344,2.344,0,0,0,.294-.093,13.017,13.017,0,0,1,3.786-.045,1.548,1.548,0,0,0,.389.138" fill="#00bbb4"></path>
    <path id="Path_2005" data-name="Path 2005" d="M36.473,80.124a6.609,6.609,0,1,0,6.609-6.633,6.627,6.627,0,0,0-6.609,6.633m10.169,0a3.561,3.561,0,1,1-3.56-3.585,3.576,3.576,0,0,1,3.56,3.585" fill="#00bbb4"></path>
    <rect id="Rectangle_4199" data-name="Rectangle 4199" width="3.048" height="13.097" transform="translate(76.336 44.768)" fill="#00bbb4"></rect>
    <rect id="Rectangle_4200" data-name="Rectangle 4200" width="3.048" height="8.606" transform="translate(81.287 49.259)" fill="#00bbb4"></rect>
    <rect id="Rectangle_4201" data-name="Rectangle 4201" width="3.048" height="12.307" transform="translate(86.058 45.558)" fill="#00bbb4"></rect>
    <rect id="Rectangle_4202" data-name="Rectangle 4202" width="3.048" height="21.779" transform="translate(92.639 36.086)" fill="#00bbb4"></rect>
    <path id="Path_2006" data-name="Path 2006" d="M46.056,46.077a7.208,7.208,0,1,0-7.18-7.208,7.2,7.2,0,0,0,7.18,7.208m-4.132-7.208a4.132,4.132,0,1,1,4.132,4.16,4.15,4.15,0,0,1-4.132-4.16" fill="#00bbb4"></path>
    <path id="Path_2007" data-name="Path 2007" d="M36.581,69.1a3.846,3.846,0,0,0,1.545,0v1.486a1.526,1.526,0,0,0,1.524,1.524H52.859A1.53,1.53,0,0,0,54.384,70.6l.024-8.044,5.618,3.073a1.209,1.209,0,0,0,.166.081A4.513,4.513,0,0,0,66,63.362h34.5a1.526,1.526,0,0,0,1.524-1.524V31.186a1.526,1.526,0,0,0-1.524-1.524H56.831a1.525,1.525,0,0,0-1.523,1.524v18.3a7,7,0,0,0-4.834-2.644c-.185-.015-.376-.023-.567-.023H42.573a8.606,8.606,0,0,0-3.358.677,6.193,6.193,0,0,0-2.686,2.24,16.943,16.943,0,0,0-2.977,9.621V65.3a3.852,3.852,0,0,0,3.029,3.8M55.518,55.444c.02.033.039.065.061.1l.588.934a1.531,1.531,0,0,0,.56.527l5.731,3.123a1.656,1.656,0,0,1,.884,1.483c-.007.05-.012.1-.015.151a1.33,1.33,0,0,1-.05.212,1.466,1.466,0,0,1-.786.88A1.434,1.434,0,0,1,61.4,62.9l-6.985-3.821,0-1.012a1.524,1.524,0,0,0-3.048,0l-.032,11H41.174V57.2a1.524,1.524,0,0,0-3.048,0V65.36a.778.778,0,0,1-.286.6.761.761,0,0,1-.652.151A.822.822,0,0,1,36.6,65.3V59.353a13.921,13.921,0,0,1,2.444-7.9A3.143,3.143,0,0,1,40.4,50.3a5.6,5.6,0,0,1,2.177-.439H49.9c.109,0,.216.005.322.015a4.024,4.024,0,0,1,3.01,1.942Zm9.707,3.049,7.312-10.851-2.527-1.7L62.7,56.788l-4.166-2.27-.179-.285V32.709H98.98v27.6H66.223a4.69,4.69,0,0,0-1-1.821" fill="#00bbb4"></path>
  </g>
</svg>
