<?xml version="1.0" encoding="UTF-8"?>
<svg xmlns="http://www.w3.org/2000/svg" xmlns:xlink="http://www.w3.org/1999/xlink" width="137" height="136" viewBox="0 0 137 136">
  <defs>
    <clipPath id="clip-path">
      <rect id="Rectangle_636" data-name="Rectangle 636" width="73.928" height="73.724" fill="#00bbb4"></rect>
    </clipPath>
  </defs>
  <g id="icn4" transform="translate(0.129 -0.223)">
    <ellipse id="Ellipse_22" data-name="Ellipse 22" cx="68.5" cy="68" rx="68.5" ry="68" transform="translate(-0.129 0.223)" fill="#fff"></ellipse>
    <g id="Group_2490" data-name="Group 2490" transform="translate(33.282 31.415)">
      <g id="Group_2489" data-name="Group 2489" transform="translate(0 0)" clip-path="url(#clip-path)">
        <path id="Path_248" data-name="Path 248" d="M188.087,229.078a11.461,11.461,0,1,1,11.461-11.461h0a11.474,11.474,0,0,1-11.461,11.46m0-20.034a8.573,8.573,0,1,0,8.573,8.573,8.573,8.573,0,0,0-8.573-8.573" transform="translate(-151.123 -176.389)" fill="#00bbb4"></path>
        <path id="Path_249" data-name="Path 249" d="M173.434,368.827h-30.05a1.444,1.444,0,0,1-1.444-1.444v-6.01a16.469,16.469,0,0,1,32.938,0v6.01a1.444,1.444,0,0,1-1.444,1.444m-28.607-2.888H171.99v-4.566a13.581,13.581,0,0,0-27.163,0Z" transform="translate(-121.445 -295.103)" fill="#00bbb4"></path>
        <path id="Path_250" data-name="Path 250" d="M330.025,105.706a11.461,11.461,0,1,1,11.461-11.461h0a11.474,11.474,0,0,1-11.461,11.461m0-20.034a8.573,8.573,0,1,0,8.573,8.573h0a8.583,8.583,0,0,0-8.573-8.573" transform="translate(-272.567 -70.831)" fill="#00bbb4"></path>
        <path id="Path_251" data-name="Path 251" d="M360.7,245.438H341a1.444,1.444,0,0,1,0-2.888h18.255v-4.566a13.586,13.586,0,0,0-20.252-11.834,1.444,1.444,0,0,1-1.42-2.514,16.473,16.473,0,0,1,24.56,14.348v6.01a1.444,1.444,0,0,1-1.444,1.444" transform="translate(-288.218 -189.528)" fill="#00bbb4"></path>
        <path id="Path_252" data-name="Path 252" d="M46.147,105.706A11.461,11.461,0,1,1,57.608,94.245a11.461,11.461,0,0,1-11.461,11.461m0-20.034a8.573,8.573,0,1,0,8.573,8.573,8.573,8.573,0,0,0-8.573-8.573" transform="translate(-29.678 -70.831)" fill="#00bbb4"></path>
        <path id="Path_253" data-name="Path 253" d="M21.142,245.455H1.444A1.444,1.444,0,0,1,0,244.011V238a16.474,16.474,0,0,1,24.56-14.348,1.444,1.444,0,0,1-1.421,2.514A13.586,13.586,0,0,0,2.888,238v4.566H21.142a1.444,1.444,0,1,1,0,2.888" transform="translate(0 -189.545)" fill="#00bbb4"></path>
        <path id="Path_254" data-name="Path 254" d="M188.087,22.922a11.461,11.461,0,1,1,11.461-11.461,11.461,11.461,0,0,1-11.461,11.461m0-20.034a8.573,8.573,0,1,0,8.573,8.573,8.573,8.573,0,0,0-8.573-8.573" transform="translate(-151.123 0)" fill="#00bbb4"></path>
      </g>
    </g>
  </g>
</svg>
