<?xml version="1.0" encoding="UTF-8"?>
<svg xmlns="http://www.w3.org/2000/svg" xmlns:xlink="http://www.w3.org/1999/xlink" id="icn4" width="137" height="136" viewBox="0 0 137 136">
  <defs>
    <clipPath id="clip-path">
      <rect id="Rectangle_4212" data-name="Rectangle 4212" width="137" height="136" fill="none"></rect>
    </clipPath>
  </defs>
  <g id="Group_3703" data-name="Group 3703" clip-path="url(#clip-path)">
    <path id="Path_2055" data-name="Path 2055" d="M68.5,0C106.332,0,137,30.445,137,68s-30.668,68-68.5,68S0,105.555,0,68,30.669,0,68.5,0" fill="#fff"></path>
    <path id="Path_2056" data-name="Path 2056" d="M106.923,68a5.217,5.217,0,0,0-4.131-5.122A34.97,34.97,0,0,0,94.043,44.56l5.139-5.139a5.248,5.248,0,1,0-2.1-2.1l-5.139,5.14a34.97,34.97,0,0,0-18.318-8.749,5.241,5.241,0,0,0-10.244,0A34.97,34.97,0,0,0,45.06,42.457l-5.139-5.139a5.248,5.248,0,1,0-2.1,2.1l5.14,5.139a34.97,34.97,0,0,0-8.749,18.318,5.241,5.241,0,0,0,0,10.244A34.97,34.97,0,0,0,42.957,91.44l-5.139,5.14a5.251,5.251,0,1,0,2.1,2.1l5.14-5.14a34.97,34.97,0,0,0,18.318,8.749,5.241,5.241,0,0,0,10.244,0A34.97,34.97,0,0,0,91.94,93.543l5.139,5.14a5.249,5.249,0,1,0,2.1-2.1l-5.139-5.14a34.97,34.97,0,0,0,8.749-18.318A5.216,5.216,0,0,0,106.923,68m-7.507,33.183a2.267,2.267,0,1,1,2.267,2.267,2.27,2.27,0,0,1-2.267-2.267m-61.832,0a2.267,2.267,0,1,1-2.267-2.267,2.27,2.27,0,0,1,2.267,2.267m0-66.366a2.267,2.267,0,1,1-2.267-2.267,2.27,2.27,0,0,1,2.267,2.267m61.832,0a2.267,2.267,0,1,1,2.267,2.267,2.27,2.27,0,0,1-2.267-2.267m0,33.183a2.267,2.267,0,1,1,2.267,2.267A2.27,2.27,0,0,1,99.416,68M40.558,68a5.219,5.219,0,0,0-3.376-4.9A31.875,31.875,0,0,1,63.6,36.682a5.24,5.24,0,0,0,9.8,0A31.875,31.875,0,0,1,99.818,63.1a5.241,5.241,0,0,0,0,9.8A31.875,31.875,0,0,1,73.4,99.318a5.24,5.24,0,0,0-9.8,0A31.875,31.875,0,0,1,37.182,72.9,5.218,5.218,0,0,0,40.558,68m-2.974,0a2.267,2.267,0,1,1-2.267-2.267A2.27,2.27,0,0,1,37.584,68M68.5,37.084a2.267,2.267,0,1,1,2.267-2.267A2.27,2.27,0,0,1,68.5,37.084m2.267,64.1A2.267,2.267,0,1,1,68.5,98.916a2.27,2.27,0,0,1,2.267,2.267" fill="#00bbb4"></path>
    <path id="Path_2057" data-name="Path 2057" d="M49.383,83.729a1.543,1.543,0,0,0,.195.222,24.753,24.753,0,0,0,41.74-6.322,1.487,1.487,0,0,0-2.74-1.157A21.934,21.934,0,0,1,86.1,80.854a30.454,30.454,0,0,0-5.254-2.7,42.851,42.851,0,0,0,1.132-8.671h8.26a21.778,21.778,0,0,1-.272,2.273,1.487,1.487,0,0,0,2.93.509A24.769,24.769,0,0,0,87.656,52.33c-.012-.02-.025-.04-.039-.059a1.506,1.506,0,0,0-.2-.222A24.746,24.746,0,0,0,47.5,54.874a1.487,1.487,0,1,0,2.52,1.578c.271-.433.568-.87.884-1.3a30.437,30.437,0,0,0,5.25,2.693,42.921,42.921,0,0,0-1.132,8.671h-8.26a21.688,21.688,0,0,1,1.149-5.665,1.486,1.486,0,1,0-2.808-.976,24.762,24.762,0,0,0,4.238,23.8c.013.02.026.04.039.058m10.4-27.775a25.694,25.694,0,0,1,1.547-3.729c1.624-3.146,3.581-5.133,5.686-5.781V57.168a30.692,30.692,0,0,1-7.233-1.214m-1.095-5.092a28.646,28.646,0,0,0-1.711,4.106,27.615,27.615,0,0,1-4.141-2.117,21.666,21.666,0,0,1,7.892-5.215,20.475,20.475,0,0,0-2.04,3.226m8.328,9.282v6.369H58a40.169,40.169,0,0,1,.98-7.7,33.679,33.679,0,0,0,8.034,1.328M58,69.487h9.014v6.369a33.662,33.662,0,0,0-8.034,1.328,40.158,40.158,0,0,1-.98-7.7m2.713,18.86a21.875,21.875,0,0,1-7.862-5.208,27.619,27.619,0,0,1,4.124-2.107,28.648,28.648,0,0,0,1.711,4.107,20.527,20.527,0,0,0,2.027,3.208m6.3-9.515V89.556c-2.105-.648-4.062-2.635-5.686-5.781a25.824,25.824,0,0,1-1.547-3.729,30.683,30.683,0,0,1,7.233-1.214M46.765,69.487h8.26a42.921,42.921,0,0,0,1.132,8.671,30.488,30.488,0,0,0-5.242,2.688,21.622,21.622,0,0,1-4.15-11.359M80.844,57.842a30.588,30.588,0,0,0,5.242-2.687,21.616,21.616,0,0,1,4.15,11.358h-8.26a42.993,42.993,0,0,0-1.132-8.671M69.987,75.856V69.487H79a40.107,40.107,0,0,1-.98,7.7,33.678,33.678,0,0,0-8.034-1.328m14.179,7.293a21.776,21.776,0,0,1-7.884,5.2,20.521,20.521,0,0,0,2.033-3.215,28.876,28.876,0,0,0,1.711-4.106,27.554,27.554,0,0,1,4.14,2.116m-4.14-28.181a28.781,28.781,0,0,0-1.711-4.107,20.575,20.575,0,0,0-2.027-3.208,21.875,21.875,0,0,1,7.862,5.208,27.573,27.573,0,0,1-4.124,2.107M79,66.513H69.987V60.144a33.679,33.679,0,0,0,8.034-1.328,40.169,40.169,0,0,1,.98,7.7M77.22,55.954a30.692,30.692,0,0,1-7.233,1.214V46.444c2.1.648,4.062,2.635,5.686,5.781a25.805,25.805,0,0,1,1.547,3.729m-7.233,33.6V78.832a30.683,30.683,0,0,1,7.233,1.214,25.805,25.805,0,0,1-1.547,3.729c-1.624,3.146-3.582,5.133-5.686,5.781" fill="#00bbb4"></path>
  </g>
</svg>
