<?xml version="1.0" encoding="UTF-8"?>
<svg xmlns="http://www.w3.org/2000/svg" xmlns:xlink="http://www.w3.org/1999/xlink" id="icn4" width="137" height="136" viewBox="0 0 137 136">
  <defs>
    <clipPath id="clip-path">
      <rect id="Rectangle_4239" data-name="Rectangle 4239" width="137" height="136" fill="none"></rect>
    </clipPath>
  </defs>
  <g id="Group_3719" data-name="Group 3719" clip-path="url(#clip-path)">
    <path id="Path_2158" data-name="Path 2158" d="M68.5,0C106.332,0,137,30.445,137,68s-30.668,68-68.5,68S0,105.555,0,68,30.669,0,68.5,0" fill="#fff"></path>
    <path id="Path_2159" data-name="Path 2159" d="M36.7,69.622a4.909,4.909,0,0,0,4.853-5.687l6.025-3.018A4.911,4.911,0,0,0,51.1,62.41a4.918,4.918,0,0,0,4.358-7.183l7.78-7.793a4.9,4.9,0,0,0,5.784-.942l6.025,3.018a4.911,4.911,0,1,0,8.681-2.3l9.209-13.836a4.92,4.92,0,0,0,6.277-4.722,4.914,4.914,0,1,0-8.743,3.078L81.26,45.562a4.873,4.873,0,0,0-4.885,1.3L70.35,43.845a4.8,4.8,0,0,0,.062-.774A4.92,4.92,0,0,0,65.5,38.157,4.918,4.918,0,0,0,61.14,45.34l-7.781,7.793a4.919,4.919,0,0,0-7.114,5.136l-6.024,3.017a4.918,4.918,0,0,0-8.437,3.422A4.919,4.919,0,0,0,36.7,69.622m-1.95-4.914a1.951,1.951,0,1,1,1.95,1.951,1.953,1.953,0,0,1-1.95-1.951M65.5,45.022a1.951,1.951,0,1,1,1.951-1.951A1.954,1.954,0,0,1,65.5,45.022M49.147,57.5a1.951,1.951,0,1,1,1.951,1.95,1.953,1.953,0,0,1-1.951-1.95m43.2-28.849A1.951,1.951,0,1,1,94.3,30.6a1.953,1.953,0,0,1-1.951-1.95m-14.4,21.636a1.951,1.951,0,1,1,1.95,1.951,1.953,1.953,0,0,1-1.95-1.951" fill="#00bbb4"></path>
    <path id="Path_2160" data-name="Path 2160" d="M101.422,97.295h-1V73.273a1.481,1.481,0,1,0-2.963,0V97.295H91.139V42.733h6.318V68.092a1.481,1.481,0,1,0,2.963,0V42.179a2.413,2.413,0,0,0-2.41-2.41H90.585a2.413,2.413,0,0,0-2.41,2.41V97.295H86.02V63.917a2.413,2.413,0,0,0-2.41-2.41H82.488a1.482,1.482,0,0,0,0,2.964h.569V97.295H76.739V64.471h.569a1.482,1.482,0,1,0,0-2.964H76.185a2.413,2.413,0,0,0-2.41,2.41V97.295H71.62V56.642a2.413,2.413,0,0,0-2.41-2.41H61.786a2.413,2.413,0,0,0-2.41,2.41V97.295H57.22V71.13a2.412,2.412,0,0,0-2.409-2.41H47.386a2.413,2.413,0,0,0-2.411,2.41V97.295H42.821V78.341a2.413,2.413,0,0,0-2.41-2.41H32.985a2.413,2.413,0,0,0-2.41,2.41V97.295h-1a1.482,1.482,0,1,0,0,2.963h71.849a1.482,1.482,0,1,0,0-2.963m-32.765,0H62.339V57.2h6.318Zm-14.4,0H47.939V71.683h6.318Zm-14.4,0H33.539v-18.4h6.318Z" fill="#00bbb4"></path>
  </g>
</svg>
