<?xml version="1.0" encoding="UTF-8"?>
<svg xmlns="http://www.w3.org/2000/svg" xmlns:xlink="http://www.w3.org/1999/xlink" width="181" height="182" viewBox="0 0 181 182">
  <defs>
    <clipPath id="clip-path">
      <rect id="Rectangle_59" data-name="Rectangle 59" width="105.847" height="115.615" fill="#fff"></rect>
    </clipPath>
  </defs>
  <g id="icn4" transform="translate(-0.427 0.474)">
    <ellipse id="Ellipse_11" data-name="Ellipse 11" cx="90.5" cy="91" rx="90.5" ry="91" transform="translate(0.427 -0.474)" fill="#773dbd"></ellipse>
    <g id="Group_49" data-name="Group 49" transform="translate(37.399 36.029)">
      <g id="Group_48" data-name="Group 48" clip-path="url(#clip-path)">
        <path id="Path_149" data-name="Path 149" d="M95.169,29.565A8.672,8.672,0,1,0,86.5,20.892a8.545,8.545,0,0,0,1.017,3.986l-7.6,6.33a30.815,30.815,0,0,0-21.882-9.1c-.543,0-1.071.054-1.606.082l-.877-7.821a6.261,6.261,0,1,0-3.645.454l.872,7.767a30.67,30.67,0,0,0-11.2,4.313L32.659,14.463a8.639,8.639,0,1,0-6.41,2.883,8.613,8.613,0,0,0,3.441-.719l8.89,12.4A30.88,30.88,0,0,0,27.452,48.766l-10.336-.3a8.568,8.568,0,0,0-2.991-4.952A8.775,8.775,0,1,0,17.1,52.14l10.049.294c0,.2-.03.389-.03.586A30.775,30.775,0,0,0,35.7,74.328l-4.025,4.324a6.2,6.2,0,0,0-2.714-.645,6.259,6.259,0,1,0,6.259,6.259,6.19,6.19,0,0,0-.859-3.108l4.01-4.307a30.767,30.767,0,0,0,19.664,7.081c.976,0,1.939-.058,2.891-.147l2.327,15.074a8.757,8.757,0,1,0,3.629-.558L64.55,83.225a31,31,0,0,0,22.863-20.66l5.941,1.547a6.264,6.264,0,1,0,.924-3.554l-5.934-1.545a30.673,30.673,0,0,0-6.017-25.036l7.53-6.274A8.614,8.614,0,0,0,95.169,29.565ZM50.4,8.67a2.586,2.586,0,1,1,2.587,2.586A2.589,2.589,0,0,1,50.4,8.67Zm-29.15,0a5,5,0,1,1,5,5,5,5,0,0,1-5-5M12.562,53.394a5.118,5.118,0,0,1-7.03.745,5,5,0,1,1,7.03-.745Zm58.545,51.987a5,5,0,1,1-2.491-2.9A4.957,4.957,0,0,1,71.107,105.381ZM99.592,61.248a2.586,2.586,0,1,1-2.586,2.586,2.589,2.589,0,0,1,2.586-2.586m-70.632,25.6a2.586,2.586,0,1,1,2.586-2.586,2.589,2.589,0,0,1-2.586,2.586m29.076-6.6A27.238,27.238,0,1,1,85.272,53.017,27.267,27.267,0,0,1,58.035,80.256M95.169,15.892a5,5,0,1,1-5,5,5.005,5.005,0,0,1,5-5" transform="translate(0 0)" fill="#fff"></path>
        <path id="Path_150" data-name="Path 150" d="M195.652,159.6a8.672,8.672,0,1,0-8.672,8.674,8.682,8.682,0,0,0,8.672-8.674m-13.671,0a5,5,0,1,1,5,5,5,5,0,0,1-5-5" transform="translate(-135.407 -114.617)" fill="#fff"></path>
        <path id="Path_151" data-name="Path 151" d="M278.771,208.646a6.259,6.259,0,1,0,6.259-6.259,6.268,6.268,0,0,0-6.259,6.259m8.847,0a2.586,2.586,0,1,1-2.586-2.586,2.589,2.589,0,0,1,2.586,2.586" transform="translate(-211.698 -153.692)" fill="#fff"></path>
        <path id="Path_152" data-name="Path 152" d="M220.416,253.164a6.259,6.259,0,1,0,6.259,6.259,6.267,6.267,0,0,0-6.259-6.259m0,8.847A2.586,2.586,0,1,1,223,259.425a2.589,2.589,0,0,1-2.586,2.586" transform="translate(-162.63 -192.252)" fill="#fff"></path>
      </g>
    </g>
  </g>
</svg>
