<?xml version="1.0" encoding="UTF-8"?>
<svg xmlns="http://www.w3.org/2000/svg" xmlns:xlink="http://www.w3.org/1999/xlink" id="icn4" width="137" height="136" viewBox="0 0 137 136">
  <defs>
    <clipPath id="clip-path">
      <rect id="Rectangle_4191" data-name="Rectangle 4191" width="137" height="136" fill="none"></rect>
    </clipPath>
  </defs>
  <g id="Group_3686" data-name="Group 3686" clip-path="url(#clip-path)">
    <path id="Path_1955" data-name="Path 1955" d="M68.5,0C106.332,0,137,30.445,137,68s-30.668,68-68.5,68S0,105.555,0,68,30.669,0,68.5,0" fill="#fff"></path>
    <path id="Path_1956" data-name="Path 1956" d="M106.759,58.86,92.572,46.554A1.5,1.5,0,0,0,90.1,47.685v6.032l-5.291,0h-.025A21.825,21.825,0,0,0,74.323,56.1V46.334h6.648a1.5,1.5,0,0,0,1.118-2.493l-12.47-14a1.5,1.5,0,0,0-2.236,0l-12.47,14a1.5,1.5,0,0,0,1.118,2.493h6.648V50.9a1.5,1.5,0,1,0,2.993,0V44.837a1.5,1.5,0,0,0-1.5-1.5H59.369L68.5,33.088,77.632,43.34H72.826a1.5,1.5,0,0,0-1.5,1.5V57.97a22.029,22.029,0,0,0-2.14,1.813,21.59,21.59,0,0,0-3.516,4.4V55.386a1.5,1.5,0,1,0-2.994,0V70.511a21.779,21.779,0,0,0-10.454-2.387h-.019l-5.3,0V62.091a1.5,1.5,0,0,0-2.478-1.131L30.241,73.265a1.5,1.5,0,0,0,0,2.262l4.369,3.79a1.5,1.5,0,0,0,1.962-2.262L33.506,74.4l10.4-9.026v4.249a1.5,1.5,0,0,0,1.5,1.5l6.811,0h.068a18.649,18.649,0,0,1,13.446,5.227,18.09,18.09,0,0,1,5.594,12.951v2.659a1.5,1.5,0,0,0,3,0v-2.5c0-.034,0-.068,0-.1V75.053a9.664,9.664,0,0,1,2.992-7.009,9.951,9.951,0,0,1,7.179-2.8h.054l5.549,0V72.3a1.5,1.5,0,0,0,2.477,1.131l14.187-12.306a1.5,1.5,0,0,0,0-2.261M92.65,62.688a1.488,1.488,0,0,0-1.059-.439l-7.041,0a12.958,12.958,0,0,0-9.315,3.637,12.631,12.631,0,0,0-3.908,9.164V78.6a21.516,21.516,0,0,0-3.516-4.409,22.246,22.246,0,0,0-1.965-1.682,18,18,0,0,1,5.421-10.569,18.622,18.622,0,0,1,13.467-5.226h.053l6.805,0a1.5,1.5,0,0,0,1.5-1.5V50.965l10.4,9.025-10.4,9.026v-5.27a1.484,1.484,0,0,0-.439-1.058m-7.9-6.351Z" fill="#00bbb4"></path>
    <path id="Path_1957" data-name="Path 1957" d="M72.826,94.945a1.5,1.5,0,0,0-1.5,1.5v7.223H65.673V89.459a12.633,12.633,0,0,0-3.908-9.165,12.936,12.936,0,0,0-9.308-3.636l-7.049,0a1.5,1.5,0,0,0-1.5,1.5v5.27L39.963,80A1.5,1.5,0,0,0,38,82.259l6.426,5.574A1.5,1.5,0,0,0,46.9,86.7V79.65l5.55,0H52.5a9.992,9.992,0,0,1,7.186,2.8,9.66,9.66,0,0,1,2.992,7.009v15.7a1.5,1.5,0,0,0,1.5,1.5h8.651a1.5,1.5,0,0,0,1.5-1.5v-8.72a1.5,1.5,0,0,0-1.5-1.5" fill="#00bbb4"></path>
  </g>
</svg>
