<?xml version="1.0" encoding="UTF-8"?>
<svg xmlns="http://www.w3.org/2000/svg" xmlns:xlink="http://www.w3.org/1999/xlink" id="icn4" width="137" height="136" viewBox="0 0 137 136">
  <defs>
    <clipPath id="clip-path">
      <rect id="Rectangle_4170" data-name="Rectangle 4170" width="137" height="136" fill="none"></rect>
    </clipPath>
  </defs>
  <g id="Group_3666" data-name="Group 3666" clip-path="url(#clip-path)">
    <path id="Path_1872" data-name="Path 1872" d="M68.5,0C106.332,0,137,30.445,137,68s-30.668,68-68.5,68S0,105.555,0,68,30.669,0,68.5,0" fill="#fff"></path>
    <path id="Path_1873" data-name="Path 1873" d="M68.5,46.4a1.523,1.523,0,1,0,1.523,1.523A1.524,1.524,0,0,0,68.5,46.4" fill="#00bbb4"></path>
    <path id="Path_1874" data-name="Path 1874" d="M40.73,73.169a1.523,1.523,0,1,0,1.523,1.523,1.524,1.524,0,0,0-1.523-1.523" fill="#00bbb4"></path>
    <path id="Path_1875" data-name="Path 1875" d="M107.715,81.966a1.517,1.517,0,0,0-.331-1.659,10.381,10.381,0,0,1-2.728-9.727l.01-.039.027-.029a23.256,23.256,0,0,0,6.483-15.9c0-6.787-3.222-13.137-9.072-17.881a32.6,32.6,0,0,0-20.22-7.062C67.01,29.674,54.611,39.919,53.656,53l-.01.132-.132.007A32.523,32.523,0,0,0,34.309,60.65c-5.471,4.687-8.485,10.862-8.485,17.388a23.257,23.257,0,0,0,6.484,15.895l.027.029.009.038a10.38,10.38,0,0,1-2.727,9.728,1.522,1.522,0,0,0,1.076,2.6A18.419,18.419,0,0,0,43.374,101.2l.066-.063.087.029a37.978,37.978,0,0,0,11.59,1.814c14.87,0,27.27-10.243,28.228-23.319l.01-.133.133-.006a37.506,37.506,0,0,0,9.986-1.776l.087-.03.065.064a18.427,18.427,0,0,0,12.682,5.125,1.519,1.519,0,0,0,1.407-.94m-52.6,17.969A33.955,33.955,0,0,1,43.6,97.95a1.532,1.532,0,0,0-1.687.387,15.183,15.183,0,0,1-7.583,4.5l-.323.079.154-.295a13.321,13.321,0,0,0,1.009-9.846,1.525,1.525,0,0,0-.372-.643A20.25,20.25,0,0,1,28.87,78.038c0-11.87,12.02-21.9,26.247-21.9A27.347,27.347,0,0,1,72.77,62.377a20.344,20.344,0,0,1,7.591,15.661c0,12.074-11.325,21.9-25.244,21.9M102.67,79.416a15.168,15.168,0,0,1-7.583-4.5A1.533,1.533,0,0,0,93.4,74.53a32.908,32.908,0,0,1-9.9,1.943l-.146.007-.011-.146a23.81,23.81,0,0,0-8.985-16.582l-.326-.266H96.27a1.523,1.523,0,1,0,0-3.046h-27l-.032-.016a31.2,31.2,0,0,0-12.39-3.281l-.155-.008.013-.155A20.832,20.832,0,0,1,64.685,38.6a27.359,27.359,0,0,1,17.2-5.881c14.227,0,26.247,10.027,26.247,21.9A20.257,20.257,0,0,1,102.2,68.711h0a1.525,1.525,0,0,0-.372.643,13.321,13.321,0,0,0,1.009,9.846l.154.3Z" fill="#00bbb4"></path>
    <path id="Path_1876" data-name="Path 1876" d="M68.5,73.169H47.422a1.523,1.523,0,1,0,0,3.046H68.5a1.523,1.523,0,1,0,0-3.046" fill="#00bbb4"></path>
    <path id="Path_1877" data-name="Path 1877" d="M68.5,83.206H40.73a1.523,1.523,0,1,0,0,3.046H68.5a1.523,1.523,0,1,0,0-3.046" fill="#00bbb4"></path>
    <path id="Path_1878" data-name="Path 1878" d="M96.27,46.4H75.192a1.523,1.523,0,1,0,0,3.046H96.27a1.523,1.523,0,1,0,0-3.046" fill="#00bbb4"></path>
  </g>
</svg>
