<?xml version="1.0" encoding="UTF-8"?>
<svg xmlns="http://www.w3.org/2000/svg" xmlns:xlink="http://www.w3.org/1999/xlink" id="icn4" width="136" height="136" viewBox="0 0 136 136">
  <defs>
    <clipPath id="clip-path">
      <rect id="Rectangle_4134" data-name="Rectangle 4134" width="136" height="136" fill="none"></rect>
    </clipPath>
  </defs>
  <g id="Group_3591" data-name="Group 3591" clip-path="url(#clip-path)">
    <path id="Path_1784" data-name="Path 1784" d="M136,68A68,68,0,1,1,68,0a68,68,0,0,1,68,68" fill="#fff"></path>
    <path id="Path_1785" data-name="Path 1785" d="M33.228,44.669l5.806,3.351a1.6,1.6,0,1,0,1.6-2.773L34.829,41.9a1.6,1.6,0,1,0-1.6,2.773" fill="#00bbb4"></path>
    <path id="Path_1786" data-name="Path 1786" d="M37.086,62.866a1.6,1.6,0,0,0-1.6-1.6h-6.7a1.6,1.6,0,0,0,0,3.2h6.7a1.6,1.6,0,0,0,1.6-1.6" fill="#00bbb4"></path>
    <path id="Path_1787" data-name="Path 1787" d="M50.331,35.551a1.6,1.6,0,1,0,2.773-1.6l-3.352-5.805a1.6,1.6,0,0,0-2.773,1.6Z" fill="#00bbb4"></path>
    <path id="Path_1788" data-name="Path 1788" d="M96.066,48.235a1.6,1.6,0,0,0,.8-.215l5.806-3.351a1.6,1.6,0,0,0-.387-2.933,1.586,1.586,0,0,0-1.214.16l-5.806,3.351a1.6,1.6,0,0,0,.8,2.988" fill="#00bbb4"></path>
    <path id="Path_1789" data-name="Path 1789" d="M83.381,36.137a1.6,1.6,0,0,0,2.187-.586l3.352-5.8a1.6,1.6,0,0,0-1.8-2.347,1.585,1.585,0,0,0-.971.747l-3.352,5.805a1.6,1.6,0,0,0,.586,2.186" fill="#00bbb4"></path>
    <path id="Path_1790" data-name="Path 1790" d="M67.949,32a1.6,1.6,0,0,0,1.6-1.6V23.7a1.6,1.6,0,0,0-3.2,0v6.7a1.6,1.6,0,0,0,1.6,1.6" fill="#00bbb4"></path>
    <path id="Path_1791" data-name="Path 1791" d="M67.949,52.7A10.366,10.366,0,1,0,78.316,63.071,10.378,10.378,0,0,0,67.949,52.7m7.165,10.367a7.165,7.165,0,1,1-7.165-7.165,7.173,7.173,0,0,1,7.165,7.165" fill="#00bbb4"></path>
    <path id="Path_1792" data-name="Path 1792" d="M39.034,77.712l-5.806,3.352a1.6,1.6,0,0,0-.586,2.186,1.6,1.6,0,0,0,2.187.587l5.806-3.352a1.6,1.6,0,1,0-1.6-2.773" fill="#00bbb4"></path>
    <path id="Path_1793" data-name="Path 1793" d="M102.67,81.064l-5.806-3.352a1.6,1.6,0,0,0-2.186.585,1.6,1.6,0,0,0,.585,2.188l5.806,3.352a1.6,1.6,0,0,0,1.6-2.773" fill="#00bbb4"></path>
    <path id="Path_1794" data-name="Path 1794" d="M107.219,61.292h-6.7a1.6,1.6,0,0,0,0,3.2h6.7a1.6,1.6,0,0,0,0-3.2" fill="#00bbb4"></path>
    <path id="Path_1795" data-name="Path 1795" d="M87.351,43.669A27.447,27.447,0,0,0,44.2,76.838a27.591,27.591,0,0,0,9.72,9.83A3.523,3.523,0,0,1,55.694,89.8v6.3a5.135,5.135,0,0,0,3.553,4.9v.056A6.851,6.851,0,0,0,66.09,107.9h3.718a6.851,6.851,0,0,0,6.844-6.843V101a5.136,5.136,0,0,0,3.553-4.9V89.8a3.523,3.523,0,0,1,1.777-3.128A27.431,27.431,0,0,0,95.4,63.07a27.263,27.263,0,0,0-8.049-19.4M73.443,101.253a3.668,3.668,0,0,1-3.635,3.443H66.09a3.623,3.623,0,0,1-3.634-3.443Zm6.9-17.335A6.7,6.7,0,0,0,77,89.8V91.9H58.9V89.8a6.7,6.7,0,0,0-3.34-5.878,24.249,24.249,0,1,1,24.789,0M77,95.1v1a1.955,1.955,0,0,1-1.952,1.953h-14.2A1.955,1.955,0,0,1,58.9,96.1v-1Z" fill="#00bbb4"></path>
    <path id="Path_1796" data-name="Path 1796" d="M84.806,67.485a1.6,1.6,0,0,0,1.6-1.6V60.259a1.6,1.6,0,0,0-1.6-1.6H83.24a15.8,15.8,0,0,0-1.358-3.278l1.108-1.107a1.6,1.6,0,0,0,0-2.264l-3.978-3.978a1.6,1.6,0,0,0-2.264,0L75.64,49.139a15.8,15.8,0,0,0-3.276-1.359V46.215a1.6,1.6,0,0,0-1.6-1.6H65.137a1.6,1.6,0,0,0-1.6,1.6V47.78a15.757,15.757,0,0,0-3.278,1.359l-1.107-1.108a1.6,1.6,0,0,0-2.264,0l-3.978,3.978a1.6,1.6,0,0,0,0,2.264l1.107,1.108a15.7,15.7,0,0,0-1.358,3.277H51.093a1.6,1.6,0,0,0-1.6,1.6v5.625a1.6,1.6,0,0,0,1.6,1.6h1.565a15.732,15.732,0,0,0,1.358,3.277L52.909,71.87a1.6,1.6,0,0,0,0,2.264l3.978,3.978a1.6,1.6,0,0,0,2.264,0L60.258,77a15.676,15.676,0,0,0,3.278,1.359v1.566a1.6,1.6,0,0,0,1.6,1.6h5.625a1.6,1.6,0,0,0,1.6-1.6V78.363A15.78,15.78,0,0,0,75.64,77l1.108,1.108a1.6,1.6,0,0,0,2.264,0l3.978-3.978a1.6,1.6,0,0,0,0-2.264l-1.108-1.108a15.71,15.71,0,0,0,1.358-3.277Zm-6.077,4.652.865.864-1.715,1.715-.864-.865a1.6,1.6,0,0,0-2.02-.2,12.622,12.622,0,0,1-4.545,1.884,1.6,1.6,0,0,0-1.288,1.569v1.222H66.738V77.105a1.6,1.6,0,0,0-1.289-1.569A12.591,12.591,0,0,1,60.9,73.652a1.6,1.6,0,0,0-2.021.2l-.864.865L56.3,73l.865-.864a1.6,1.6,0,0,0,.2-2.021,12.579,12.579,0,0,1-1.884-4.545,1.6,1.6,0,0,0-1.57-1.287H52.693V61.859h1.222a1.6,1.6,0,0,0,1.57-1.288,12.572,12.572,0,0,1,1.884-4.545,1.6,1.6,0,0,0-.2-2.021l-.865-.864,1.715-1.715.864.865a1.6,1.6,0,0,0,2.021.2,12.593,12.593,0,0,1,4.546-1.885,1.6,1.6,0,0,0,1.288-1.569V47.815h2.424v1.222a1.6,1.6,0,0,0,1.288,1.569A12.6,12.6,0,0,1,75,52.491a1.6,1.6,0,0,0,2.02-.2l.864-.865,1.715,1.715-.865.864a1.606,1.606,0,0,0-.2,2.022,12.568,12.568,0,0,1,1.884,4.545,1.6,1.6,0,0,0,1.569,1.287h1.222v2.425H81.983a1.6,1.6,0,0,0-1.569,1.287,12.594,12.594,0,0,1-1.884,4.545,1.6,1.6,0,0,0,.2,2.021" fill="#00bbb4"></path>
  </g>
</svg>
