<?xml version="1.0" encoding="UTF-8"?>
<svg xmlns="http://www.w3.org/2000/svg" xmlns:xlink="http://www.w3.org/1999/xlink" id="icn4" width="137" height="136" viewBox="0 0 137 136">
  <defs>
    <clipPath id="clip-path">
      <rect id="Rectangle_4223" data-name="Rectangle 4223" width="137" height="136" fill="none"></rect>
    </clipPath>
  </defs>
  <g id="Group_3715" data-name="Group 3715" clip-path="url(#clip-path)">
    <path id="Path_2122" data-name="Path 2122" d="M68.5,0C106.332,0,137,30.445,137,68s-30.668,68-68.5,68S0,105.555,0,68,30.669,0,68.5,0" fill="#fff"></path>
    <path id="Path_2123" data-name="Path 2123" d="M68.5,55.221a1.555,1.555,0,0,0,1.553-1.553V51.591a1.553,1.553,0,0,0-3.106,0v2.077A1.555,1.555,0,0,0,68.5,55.221" fill="#00bbb4"></path>
    <path id="Path_2124" data-name="Path 2124" d="M58.909,56.654a1.545,1.545,0,0,0,.943.724,1.572,1.572,0,0,0,.406.053,1.529,1.529,0,0,0,.772-.208A1.555,1.555,0,0,0,61.6,55.1l-1.031-1.785a1.553,1.553,0,1,0-2.69,1.553Z" fill="#00bbb4"></path>
    <path id="Path_2125" data-name="Path 2125" d="M51.655,62.229l1.784,1.029a1.552,1.552,0,1,0,1.554-2.688l-1.785-1.032a1.553,1.553,0,1,0-1.553,2.691" fill="#00bbb4"></path>
    <path id="Path_2126" data-name="Path 2126" d="M85.345,78.094,83.56,77.063a1.553,1.553,0,1,0-1.553,2.69l1.784,1.03a1.527,1.527,0,0,0,.773.21,1.561,1.561,0,0,0,.4-.054,1.552,1.552,0,0,0,.376-2.845" fill="#00bbb4"></path>
    <path id="Path_2127" data-name="Path 2127" d="M52.008,71.715a1.553,1.553,0,1,0,0-3.106H49.931a1.553,1.553,0,0,0,0,3.106Z" fill="#00bbb4"></path>
    <path id="Path_2128" data-name="Path 2128" d="M84.978,68.609a1.553,1.553,0,0,0,0,3.106h2.093a1.553,1.553,0,0,0,0-3.106H84.978Z" fill="#00bbb4"></path>
    <path id="Path_2129" data-name="Path 2129" d="M54.62,76.908a1.543,1.543,0,0,0-1.179.155l-1.786,1.031a1.555,1.555,0,0,0-.568,2.121,1.536,1.536,0,0,0,.945.724,1.56,1.56,0,0,0,.4.054,1.53,1.53,0,0,0,.772-.209l1.785-1.031a1.553,1.553,0,0,0-.374-2.845" fill="#00bbb4"></path>
    <path id="Path_2130" data-name="Path 2130" d="M82.785,63.467a1.555,1.555,0,0,0,.775-.208l1.785-1.031a1.553,1.553,0,1,0-1.553-2.69l-1.785,1.031a1.553,1.553,0,0,0,.778,2.9" fill="#00bbb4"></path>
    <path id="Path_2131" data-name="Path 2131" d="M75.97,57.223a1.535,1.535,0,0,0,.772.209,1.562,1.562,0,0,0,.406-.054,1.536,1.536,0,0,0,.944-.723l1.031-1.785a1.553,1.553,0,0,0-2.69-1.554L75.4,55.1a1.554,1.554,0,0,0,.568,2.122" fill="#00bbb4"></path>
    <path id="Path_2132" data-name="Path 2132" d="M60.284,80.294a2.466,2.466,0,0,1,.923,1.929v5.761a2.93,2.93,0,0,0,2.927,2.926h8.732a2.93,2.93,0,0,0,2.927-2.926V82.2a2.452,2.452,0,0,1,.93-1.909,13.118,13.118,0,0,0-8.2-23.3H68.5a13.064,13.064,0,0,0-7.021,2.039,1.553,1.553,0,1,0,1.667,2.621A9.965,9.965,0,0,1,68.5,60.1h.027a10.116,10.116,0,0,1,9.963,10.152,9.972,9.972,0,0,1-3.719,7.62,5.561,5.561,0,0,0-2.057,3.77H70.053V73.958a4.638,4.638,0,0,0-1.543-9h-.02a4.638,4.638,0,0,0-1.542,9v7.685H64.284a5.582,5.582,0,0,0-2.056-3.772,10.041,10.041,0,0,1-2.21-13.061,1.553,1.553,0,0,0-2.632-1.65,13.122,13.122,0,0,0,2.9,17.134m9.732-10.7a1.487,1.487,0,0,1-1.524,1.529,1.529,1.529,0,0,1,0-3.057A1.485,1.485,0,0,1,70.016,69.6m-5.7,15.154h8.373V87.8H64.314Z" fill="#00bbb4"></path>
    <path id="Path_2133" data-name="Path 2133" d="M97.734,48.637A36.02,36.02,0,0,0,74.009,34.246c-.619-.095-1.252-.175-1.884-.239l-2.45-2.973a3.774,3.774,0,0,0-6.6,3.19A36.255,36.255,0,0,0,32.666,64.567a35.995,35.995,0,0,0,3.117,21.147l-1.346,3.6a3.774,3.774,0,0,0,6.219,3.974,36.354,36.354,0,0,0,27.906,13.048,35.818,35.818,0,0,0,14.625-3.112,36.5,36.5,0,0,0,4.1-2.141,1.554,1.554,0,0,0-1.611-2.657,33.464,33.464,0,0,1-3.753,1.96A33.191,33.191,0,0,1,49.4,97.173a33.263,33.263,0,0,1-7.727-7.639,1.553,1.553,0,0,0-2.711.369l-.364.973a.672.672,0,0,1-.856.385.667.667,0,0,1-.391-.858l1.912-5.114a.67.67,0,0,1,.735-.425l5.386.9a.668.668,0,0,1,.547.769.666.666,0,0,1-.767.548l-.377-.063a1.552,1.552,0,0,0-1.493,2.469,30.82,30.82,0,0,0,23.482,12.249c.594.031,1.183.046,1.772.046a31.1,31.1,0,0,0,22.784-9.539,3.837,3.837,0,0,0,.994.885,32.851,32.851,0,0,1-2.639,2.446,1.553,1.553,0,1,0,1.984,2.39,36.229,36.229,0,0,0,4.584-4.551l4.052-.678a3.777,3.777,0,0,0,.966-7.146,36.255,36.255,0,0,0-3.534-36.953M47.461,89.5a3.774,3.774,0,0,0-1.57-6.794l-3.458-.578A28.724,28.724,0,0,1,62.991,41.891a3.791,3.791,0,0,0,1.365,2.877,3.795,3.795,0,0,0,5.319-.506l2.214-2.687c.356.042.677.085.974.13A28.714,28.714,0,0,1,94.7,81.821a3.774,3.774,0,0,0-5.851,4.3l1.123,3a29.026,29.026,0,0,1-25.835,9.321,28.705,28.705,0,0,1-16.747-8.9l.072-.05M67.012,36.1a1.552,1.552,0,0,0-.231-1.591l-.533-.647a.667.667,0,0,1,.514-1.091.662.662,0,0,1,.515.242l3.473,4.215a.665.665,0,0,1,0,.847l-3.463,4.205a.668.668,0,1,1-1.039-.84l.4-.484a1.553,1.553,0,0,0-1.35-2.535A31.836,31.836,0,0,0,38.941,81.87a3.808,3.808,0,0,0-1.214.558A33.159,33.159,0,0,1,65.71,37.041a1.552,1.552,0,0,0,1.3-.944M91.774,84.525a.667.667,0,0,1,.384-.352.569.569,0,0,1,.214-.04.7.7,0,0,1,.285.063.652.652,0,0,1,.35.372l.365.98a1.554,1.554,0,0,0,2.805.224A31.815,31.815,0,0,0,73.852,38.719,3.826,3.826,0,0,0,74,37.381a33.324,33.324,0,0,1,27.268,37.725v.009A33.134,33.134,0,0,1,97.5,86.141a1.56,1.56,0,0,0,1.611,2.293l.465-.078a.651.651,0,0,1,.494.115.666.666,0,0,1,.274.442.673.673,0,0,1-.55.759l-5.389.9a.676.676,0,0,1-.732-.425l-1.912-5.114a.663.663,0,0,1,.017-.51" fill="#00bbb4"></path>
  </g>
</svg>
