<?xml version="1.0" encoding="UTF-8"?>
<svg xmlns="http://www.w3.org/2000/svg" xmlns:xlink="http://www.w3.org/1999/xlink" id="icn4" width="137" height="136" viewBox="0 0 137 136">
  <defs>
    <clipPath id="clip-path">
      <rect id="Rectangle_4195" data-name="Rectangle 4195" width="137" height="136" fill="none"></rect>
    </clipPath>
  </defs>
  <g id="Group_3690" data-name="Group 3690" clip-path="url(#clip-path)">
    <path id="Path_1968" data-name="Path 1968" d="M68.5,0C106.332,0,137,30.445,137,68s-30.668,68-68.5,68S0,105.555,0,68,30.669,0,68.5,0" fill="#fff"></path>
    <path id="Path_1969" data-name="Path 1969" d="M57.588,50.979h21.8a1.482,1.482,0,0,0,0-2.964h-21.8a1.482,1.482,0,0,0,0,2.964" fill="#00bbb4"></path>
    <path id="Path_1970" data-name="Path 1970" d="M57.588,59.13H74.35a1.482,1.482,0,0,0,0-2.964H57.588a1.482,1.482,0,0,0,0,2.964" fill="#00bbb4"></path>
    <path id="Path_1971" data-name="Path 1971" d="M57.588,67.281H71.98a1.482,1.482,0,0,0,0-2.964H57.588a1.482,1.482,0,0,0,0,2.964" fill="#00bbb4"></path>
    <path id="Path_1972" data-name="Path 1972" d="M77.692,93.756V83.269a1.484,1.484,0,0,0-1.482-1.482H72.122V78.242A1.484,1.484,0,0,0,70.64,76.76H65.085A1.484,1.484,0,0,0,63.6,78.242v6.389H59.524a1.484,1.484,0,0,0-1.483,1.482v7.643h-.364a1.483,1.483,0,1,0,0,2.965h20.38a1.483,1.483,0,0,0,0-2.965Zm-2.964,0H72.136v-9h2.592Zm-5.57,0H66.567V79.724h2.591Zm-5.56,0H61.006V87.6H63.6Z" fill="#00bbb4"></path>
    <path id="Path_1973" data-name="Path 1973" d="M115.79,64.671a18.708,18.708,0,0,0-10.9-16.42c-.038-.022-.077-.042-.114-.059s-.086-.036-.129-.051a18.971,18.971,0,0,0-7.655-1.582V40.815a2.955,2.955,0,0,0-2.951-2.952H92.805V36.847A2.955,2.955,0,0,0,89.854,33.9H88.618V32.659a2.956,2.956,0,0,0-2.952-2.952h-43.5a2.956,2.956,0,0,0-2.952,2.952V95.184a2.955,2.955,0,0,0,2.952,2.952H43.4v1.237a2.952,2.952,0,0,0,2.946,2.951l1.237.005v1.011a2.955,2.955,0,0,0,2.951,2.952h34.7a1.494,1.494,0,0,0,1.046-.432L96.551,95.643a1.473,1.473,0,0,0,.437-1.05V83.956h.077a18.768,18.768,0,0,0,9.158-2.376,1.388,1.388,0,0,0,.746-1.21,1.609,1.609,0,0,0-.772-1.38,1.391,1.391,0,0,0-1.422,0,15.77,15.77,0,0,1-17.711-1.617L97.538,66.9l14.32,3.794a15.536,15.536,0,0,1-2.918,4.914,1.391,1.391,0,0,0-.3,1.39,1.605,1.605,0,0,0,1.189,1.043,1.389,1.389,0,0,0,1.339-.478,18.624,18.624,0,0,0,4.621-12.9m-3.18,3.16L99.161,64.267l5.712-12.7a15.725,15.725,0,0,1,7.737,16.26M84.965,75.283a15.746,15.746,0,0,1,17.2-24.926L95.852,64.4ZM94.023,46.81a18.529,18.529,0,0,0-10.156,5.218,18.723,18.723,0,0,0,0,26.449A18.535,18.535,0,0,0,94.023,83.7v9.311H86.708a2.956,2.956,0,0,0-2.951,2.953v7.36H50.549v-62.5H94.023ZM46.366,36.86H54.1a1.483,1.483,0,0,0,0-2.965h-7.75A2.955,2.955,0,0,0,43.4,36.847V95.172H42.179v-62.5H85.653V33.9H60.324a1.41,1.41,0,0,0-1.089.476,1.539,1.539,0,0,0-.359,1.006,1.42,1.42,0,0,0,1.448,1.482H89.84v1h-39.3a2.955,2.955,0,0,0-2.952,2.952v58.55l-1.218-.006ZM91.938,95.979l-5.217,5.24v-5.24Z" fill="#00bbb4"></path>
  </g>
</svg>
