<?xml version="1.0" encoding="UTF-8"?>
<svg xmlns="http://www.w3.org/2000/svg" xmlns:xlink="http://www.w3.org/1999/xlink" id="icn4" width="137" height="136" viewBox="0 0 137 136">
  <defs>
    <clipPath id="clip-path">
      <rect id="Rectangle_4280" data-name="Rectangle 4280" width="137" height="136" fill="none"></rect>
    </clipPath>
  </defs>
  <g id="Group_3743" data-name="Group 3743" clip-path="url(#clip-path)">
    <path id="Path_2294" data-name="Path 2294" d="M68.5,0C106.332,0,137,30.445,137,68s-30.668,68-68.5,68S0,105.555,0,68,30.669,0,68.5,0" fill="#fff"></path>
    <path id="Path_2295" data-name="Path 2295" d="M107.668,65.544a37.311,37.311,0,0,0-5.007-16.537,4.9,4.9,0,0,0,.006-6.057,4.8,4.8,0,0,0-5.824-1.537c-.7-.708-1.44-1.4-2.2-2.054A4.926,4.926,0,0,0,92.6,33.636a4.746,4.746,0,0,0-5.919.462,37.546,37.546,0,0,0-33.236.169A4.937,4.937,0,0,0,45.43,39.7a37.921,37.921,0,0,0-3.416,3.436,1.466,1.466,0,0,0,2.206,1.927,35.007,35.007,0,0,1,3.094-3.119,4.889,4.889,0,0,0,3.822.613,4.939,4.939,0,0,0,3.122-2.334,49.461,49.461,0,0,1,11.161,4.832,5.014,5.014,0,0,0,.318,3.12,52.891,52.891,0,0,0-7.808,8.478A5.028,5.028,0,0,0,52.341,59.2a71.664,71.664,0,0,0-13.954,1.5,4.963,4.963,0,0,0-1.6-1.64,34.649,34.649,0,0,1,4.084-9.467,1.407,1.407,0,0,0-.51-1.988,1.388,1.388,0,0,0-1.977.441A37.561,37.561,0,0,0,33.951,58.31,4.952,4.952,0,0,0,32.7,67.974a38.015,38.015,0,0,0,12.592,28.21,4.941,4.941,0,0,0,7.807,5.38A37.043,37.043,0,0,0,70.229,105.7h0a37.051,37.051,0,0,0,17.118-4.125A4.937,4.937,0,0,0,95.266,96.1a37.411,37.411,0,0,0,9.439-13.169,1.339,1.339,0,0,0,.068-.161,37.43,37.43,0,0,0,2.895-17.225m-15.75,1.471a71.76,71.76,0,0,0,7.093-16.108,4.842,4.842,0,0,0,1.239-.22,35.207,35.207,0,0,1,2.594,28.974,71.925,71.925,0,0,0-9.8-8.036,5,5,0,0,0-1.127-4.61M90.691,95.929h0a1.957,1.957,0,0,1,2,2.01,2,2,0,1,1-4.009.013,1.961,1.961,0,0,1,2.005-2.023m1.894-2.56a53.354,53.354,0,0,0,.266-6.173,1.465,1.465,0,0,0-2.929.044,50.2,50.2,0,0,1-.253,5.856,5.01,5.01,0,0,0-3.788,5.937,34.516,34.516,0,0,1-31.168.067,5.1,5.1,0,0,0,.19-1.434,71.6,71.6,0,0,0,31.53-22.725,4.922,4.922,0,0,0,1.843.36,50.154,50.154,0,0,1,1.118,5.438,1.381,1.381,0,0,0,.859,1.122,1.583,1.583,0,0,0,1.542-.228,1.382,1.382,0,0,0,.5-1.322,52.964,52.964,0,0,0-1.217-5.884q.213-.148.413-.32A69.069,69.069,0,0,1,101.645,82.6a34.565,34.565,0,0,1-8.223,11.218,4.917,4.917,0,0,0-.837-.45M56.732,63.464h0a1.956,1.956,0,0,1-2-2.01,2,2,0,1,1,4.009-.013,1.962,1.962,0,0,1-2.005,2.023m31.547,8.909a2.022,2.022,0,0,1-.014-4.043,2.022,2.022,0,0,1,.014,4.043M70.217,44.118a2.021,2.021,0,0,1,.013,4.042,2.021,2.021,0,0,1-.013-4.042m23.775,2.935a4.969,4.969,0,0,0,2.183,3.113,68.788,68.788,0,0,1-6.782,15.365,5.026,5.026,0,0,0-1.13-.127c-.165,0-.328.008-.49.024A53.408,53.408,0,0,0,74.725,48.176a5.015,5.015,0,0,0,.318-3.12,49.416,49.416,0,0,1,10.715-4.7,4.952,4.952,0,0,0,7.164,1.389c.581.508,1.147,1.036,1.687,1.576a4.957,4.957,0,0,0-.617,3.732m-8.946-9.542a52.3,52.3,0,0,0-11.46,5,4.979,4.979,0,0,0-6.71,0,52.419,52.419,0,0,0-11.99-5.161,4.659,4.659,0,0,0-.069-.5,34.637,34.637,0,0,1,30.358-.232,5.028,5.028,0,0,0-.129.889M67.674,50.371a4.952,4.952,0,0,0,5.113,0A50.486,50.486,0,0,1,85.081,66.586c-.079.068-.157.139-.232.212a70.954,70.954,0,0,0-23.5-7.094,4.971,4.971,0,0,0-.909-1.514,49.973,49.973,0,0,1,7.238-7.819M61.511,62.677A68.044,68.044,0,0,1,83.443,69.37a5.018,5.018,0,0,0,.725,3.714,68.669,68.669,0,0,1-30.173,21.8,4.906,4.906,0,0,0-3.228-2.025,49.849,49.849,0,0,1,4.771-26.6,4.994,4.994,0,0,0,5.973-3.581m37.28-14.693a2.022,2.022,0,0,1-.013-4.043,2.022,2.022,0,0,1,.013,4.043m-6.814-10.22a2,2,0,1,1-4.009.013,2,2,0,1,1,4.009-.013m-42,57.954a2.066,2.066,0,0,1,2,2.022,2,2,0,1,1-2-2.022m-2.108-2.452a4.864,4.864,0,0,0-.857.521C40.355,87.7,35.71,77.165,35.629,67.975a4.824,4.824,0,0,0,3.458-4.417c1.476-.229,8.724-1.326,12.76-1.42a4.966,4.966,0,0,0,1.182,2.582,52.769,52.769,0,0,0-5.165,28.546M36.153,63.25a1.957,1.957,0,0,1-1.992,2.021,2.021,2.021,0,0,1-.013-4.042,1.96,1.96,0,0,1,2.005,2.021M51.976,37.777a2,2,0,1,1-4.009.013,1.959,1.959,0,0,1,2-2.022h0a1.956,1.956,0,0,1,2,2.009" fill="#00bbb4"></path>
    <path id="Path_2296" data-name="Path 2296" d="M107.668,65.544a37.311,37.311,0,0,0-5.007-16.537,4.9,4.9,0,0,0,.006-6.057,4.8,4.8,0,0,0-5.824-1.537c-.7-.708-1.44-1.4-2.2-2.054A4.926,4.926,0,0,0,92.6,33.636a4.746,4.746,0,0,0-5.919.462,37.546,37.546,0,0,0-33.236.169A4.937,4.937,0,0,0,45.43,39.7a37.921,37.921,0,0,0-3.416,3.436,1.466,1.466,0,0,0,2.206,1.927,35.007,35.007,0,0,1,3.094-3.119,4.889,4.889,0,0,0,3.822.613,4.939,4.939,0,0,0,3.122-2.334,49.461,49.461,0,0,1,11.161,4.832,5.014,5.014,0,0,0,.318,3.12,52.891,52.891,0,0,0-7.808,8.478A5.028,5.028,0,0,0,52.341,59.2a71.664,71.664,0,0,0-13.954,1.5,4.963,4.963,0,0,0-1.6-1.64,34.649,34.649,0,0,1,4.084-9.467,1.407,1.407,0,0,0-.51-1.988,1.388,1.388,0,0,0-1.977.441A37.561,37.561,0,0,0,33.951,58.31,4.952,4.952,0,0,0,32.7,67.974a38.015,38.015,0,0,0,12.592,28.21,4.941,4.941,0,0,0,7.807,5.38A37.043,37.043,0,0,0,70.229,105.7h0a37.051,37.051,0,0,0,17.118-4.125A4.937,4.937,0,0,0,95.266,96.1a37.411,37.411,0,0,0,9.439-13.169,1.339,1.339,0,0,0,.068-.161A37.43,37.43,0,0,0,107.668,65.544Zm-15.75,1.471a71.76,71.76,0,0,0,7.093-16.108,4.842,4.842,0,0,0,1.239-.22,35.207,35.207,0,0,1,2.594,28.974,71.925,71.925,0,0,0-9.8-8.036A5,5,0,0,0,91.918,67.015ZM90.691,95.929h0a1.957,1.957,0,0,1,2,2.01,2,2,0,1,1-4.009.013A1.961,1.961,0,0,1,90.691,95.929Zm1.894-2.56a53.354,53.354,0,0,0,.266-6.173,1.465,1.465,0,0,0-2.929.044,50.2,50.2,0,0,1-.253,5.856,5.01,5.01,0,0,0-3.788,5.937,34.516,34.516,0,0,1-31.168.067,5.1,5.1,0,0,0,.19-1.434,71.6,71.6,0,0,0,31.53-22.725,4.922,4.922,0,0,0,1.843.36,50.154,50.154,0,0,1,1.118,5.438,1.381,1.381,0,0,0,.859,1.122,1.583,1.583,0,0,0,1.542-.228,1.382,1.382,0,0,0,.5-1.322,52.964,52.964,0,0,0-1.217-5.884q.213-.148.413-.32A69.069,69.069,0,0,1,101.645,82.6a34.565,34.565,0,0,1-8.223,11.218A4.917,4.917,0,0,0,92.585,93.369ZM56.732,63.464h0a1.956,1.956,0,0,1-2-2.01,2,2,0,1,1,4.009-.013A1.962,1.962,0,0,1,56.732,63.464Zm31.547,8.909a2.022,2.022,0,0,1-.014-4.043,2.022,2.022,0,0,1,.014,4.043ZM70.217,44.118a2.021,2.021,0,0,1,.013,4.042,2.021,2.021,0,0,1-.013-4.042Zm23.775,2.935a4.969,4.969,0,0,0,2.183,3.113,68.788,68.788,0,0,1-6.782,15.365,5.026,5.026,0,0,0-1.13-.127c-.165,0-.328.008-.49.024A53.408,53.408,0,0,0,74.725,48.176a5.015,5.015,0,0,0,.318-3.12,49.416,49.416,0,0,1,10.715-4.7,4.952,4.952,0,0,0,7.164,1.389c.581.508,1.147,1.036,1.687,1.576A4.957,4.957,0,0,0,93.992,47.053Zm-8.946-9.542a52.3,52.3,0,0,0-11.46,5,4.979,4.979,0,0,0-6.71,0,52.419,52.419,0,0,0-11.99-5.161,4.659,4.659,0,0,0-.069-.5,34.637,34.637,0,0,1,30.358-.232A5.028,5.028,0,0,0,85.046,37.511ZM67.674,50.371a4.952,4.952,0,0,0,5.113,0A50.486,50.486,0,0,1,85.081,66.586c-.079.068-.157.139-.232.212a70.954,70.954,0,0,0-23.5-7.094,4.971,4.971,0,0,0-.909-1.514A49.973,49.973,0,0,1,67.674,50.371ZM61.511,62.677A68.044,68.044,0,0,1,83.443,69.37a5.018,5.018,0,0,0,.725,3.714,68.669,68.669,0,0,1-30.173,21.8,4.906,4.906,0,0,0-3.228-2.025,49.849,49.849,0,0,1,4.771-26.6,4.994,4.994,0,0,0,5.973-3.581Zm37.28-14.693a2.022,2.022,0,0,1-.013-4.043,2.022,2.022,0,0,1,.013,4.043Zm-6.814-10.22a2,2,0,1,1-4.009.013,2,2,0,1,1,4.009-.013Zm-42,57.954a2.066,2.066,0,0,1,2,2.022,2,2,0,1,1-2-2.022Zm-2.108-2.452a4.864,4.864,0,0,0-.857.521C40.355,87.7,35.71,77.165,35.629,67.975a4.824,4.824,0,0,0,3.458-4.417c1.476-.229,8.724-1.326,12.76-1.42a4.966,4.966,0,0,0,1.182,2.582A52.769,52.769,0,0,0,47.864,93.266ZM36.153,63.25a1.957,1.957,0,0,1-1.992,2.021,2.021,2.021,0,0,1-.013-4.042A1.96,1.96,0,0,1,36.153,63.25ZM51.976,37.777a2,2,0,1,1-4.009.013,1.959,1.959,0,0,1,2-2.022h0A1.956,1.956,0,0,1,51.976,37.777Z" fill="none" stroke="#415364" stroke-miterlimit="10" stroke-width="0.147"></path>
  </g>
</svg>
