<?xml version="1.0" encoding="UTF-8"?>
<svg xmlns="http://www.w3.org/2000/svg" xmlns:xlink="http://www.w3.org/1999/xlink" id="icn5" width="53.014" height="53" viewBox="0 0 53.014 53">
  <defs>
    <clipPath id="clip-path">
      <rect id="Rectangle_4179" data-name="Rectangle 4179" width="53.014" height="53" fill="#00bbb4"></rect>
    </clipPath>
  </defs>
  <g id="Group_3675" data-name="Group 3675" clip-path="url(#clip-path)">
    <path id="Path_1918" data-name="Path 1918" d="M16.9,38.051a19.273,19.273,0,0,0,2.24.13,18.907,18.907,0,0,0,10.312-3.06l2.438,2.439L46.1,51.772a4.02,4.02,0,0,0,5.784-5.585q-.05-.051-.1-.1L35.132,29.434A19.089,19.089,0,1,0,16.9,38.051m17.043-6.968,1.508,1.507L32.6,35.432,31.1,33.926a19.234,19.234,0,0,0,2.841-2.843M50.954,48.93a1.993,1.993,0,0,1-.588,1.421,2.056,2.056,0,0,1-2.842,0l-13.5-13.5,2.843-2.842,13.5,13.5a1.994,1.994,0,0,1,.588,1.421M2.127,17.113a17.085,17.085,0,1,1,15,18.941,17.085,17.085,0,0,1-15-18.941" fill="#00bbb4"></path>
    <path id="Path_1919" data-name="Path 1919" d="M10.987,8.841A12.975,12.975,0,0,1,20.6,6.106a1.006,1.006,0,0,0,.231-2A15.076,15.076,0,0,0,4.122,17.344h0a15.077,15.077,0,0,0-.1,2.156,1,1,0,0,0,1,.978h.028a1,1,0,0,0,.977-1.031,13.576,13.576,0,0,1,.084-1.87,12.982,12.982,0,0,1,4.872-8.737" fill="#00bbb4"></path>
    <path id="Path_1920" data-name="Path 1920" d="M21.785,20.537a2.958,2.958,0,0,0-.8-.223,3.009,3.009,0,0,0-2.48.887l-3.509-1.64A3.015,3.015,0,1,0,9.475,20.9L7.624,23.3a1,1,0,0,0,1.592,1.225l1.841-2.392a3.052,3.052,0,0,0,.589.129,2.952,2.952,0,0,0,.351.021,3.007,3.007,0,0,0,2.135-.9l3.5,1.638a3.016,3.016,0,0,0,2.648,3.286,2.906,2.906,0,0,0,.349.021,3.008,3.008,0,0,0,2.647-4.444l1.994-2.2a2.948,2.948,0,0,0,4.154-2.549l2.492-.676a1.006,1.006,0,0,0-.527-1.941l-2.489.677a3,3,0,0,0-5.113,3.132Zm-9.906-.268a1,1,0,0,1,.114-2,1.146,1.146,0,0,1,.117.006,1.005,1.005,0,1,1-.231,2M21.255,24.1a1.005,1.005,0,1,1-.626-1.794,1.17,1.17,0,0,1,.119.007,1,1,0,0,1,.5,1.787Zm4.2-7.414a1.006,1.006,0,1,1,.134.758,1.006,1.006,0,0,1-.134-.758" fill="#00bbb4"></path>
  </g>
</svg>
