<?xml version="1.0" encoding="UTF-8"?>
<svg xmlns="http://www.w3.org/2000/svg" xmlns:xlink="http://www.w3.org/1999/xlink" width="53" height="53" viewBox="0 0 53 53">
  <defs>
    <clipPath id="clip-path">
      <rect id="Rectangle_644" data-name="Rectangle 644" width="51.989" height="51.968" fill="#fff"></rect>
    </clipPath>
  </defs>
  <g id="icn5" transform="translate(-619 -1005)">
    <rect id="Rectangle_3722" data-name="Rectangle 3722" width="53" height="53" transform="translate(619 1005)" fill="#fff" opacity="0"></rect>
    <g id="icn5-2" data-name="icn5" transform="translate(620 1005)">
      <g id="Group_2506" data-name="Group 2506" clip-path="url(#clip-path)">
        <path id="Path_280" data-name="Path 280" d="M167.4,134.381a9.924,9.924,0,0,0-14.035-.009l-14.229,14.433a1.2,1.2,0,0,0,1.692,1.694l3.869-4.087,10.642,10.656-8.665,8.654a7.53,7.53,0,0,1-10.643-10.656l1.729-1.726a1.2,1.2,0,0,0-1.692-1.694l-1.729,1.726a9.925,9.925,0,1,0,14.026,14.045l19.025-19a9.925,9.925,0,0,0,.009-14.036m.508,7.018a7.482,7.482,0,0,1-2.209,5.323l-8.665,8.654-10.643-10.656,8.665-8.654a7.53,7.53,0,0,1,12.852,5.333" transform="translate(-118.311 -118.351)" fill="#fff"></path>
        <path id="Path_281" data-name="Path 281" d="M17.558,117.041h0a10.281,10.281,0,1,0,0,14.546,10.215,10.215,0,0,0,0-14.546m-5.087,6.823.022-.022a1.173,1.173,0,0,0-.023-1.671,1.2,1.2,0,0,0-1.693,0l-6.855,6.812a7.887,7.887,0,0,1,6.362-12.556,7.931,7.931,0,0,1,4.668,1.527l-1.426,1.425a1.2,1.2,0,0,0,1.693,1.693l1.426-1.426A7.891,7.891,0,0,1,5.617,130.675Z" transform="translate(0 -102.654)" fill="#fff"></path>
        <path id="Path_282" data-name="Path 282" d="M159.322,10.655a20.541,20.541,0,0,0,8.223,1.7h.027q.2,0,.4,0a20.331,20.331,0,0,0,7.87-1.436c2.545-1.105,3.875-2.723,3.993-4.547a3.581,3.581,0,0,0-1.971-3.458,1.23,1.23,0,0,0-1.654.362,1.2,1.2,0,0,0,.362,1.654,1.408,1.408,0,0,1,.869,1.4c-.013.808-.967,1.7-2.552,2.389a17.334,17.334,0,0,1-6.095,1.222l.12-7.5a15.751,15.751,0,0,1,4.534.816,1.2,1.2,0,0,0,.8-2.256,19.407,19.407,0,0,0-6.5-1,20.571,20.571,0,0,0-8.284,1.433c-2.546,1.106-3.964,2.72-3.993,4.547s1.337,3.486,3.845,4.672m-1.451-4.634c.013-.807.967-1.7,2.552-2.389a17.325,17.325,0,0,1,6.095-1.222l-.12,7.5a17.32,17.32,0,0,1-6.053-1.416c-1.562-.738-2.487-1.661-2.475-2.469" transform="translate(-139.962 0)" fill="#fff"></path>
      </g>
    </g>
  </g>
</svg>
