<?xml version="1.0" encoding="UTF-8"?>
<svg xmlns="http://www.w3.org/2000/svg" xmlns:xlink="http://www.w3.org/1999/xlink" id="icn5" width="53" height="53" viewBox="0 0 53 53">
  <defs>
    <clipPath id="clip-path">
      <rect id="Rectangle_4142" data-name="Rectangle 4142" width="53" height="53" fill="none"></rect>
    </clipPath>
  </defs>
  <g id="Group_3601" data-name="Group 3601" clip-path="url(#clip-path)">
    <g id="Group_3600" data-name="Group 3600">
      <g id="Group_3599" data-name="Group 3599" clip-path="url(#clip-path)">
        <g id="Group_3598" data-name="Group 3598" opacity="0">
          <g id="Group_3597" data-name="Group 3597">
            <g id="Group_3596" data-name="Group 3596" clip-path="url(#clip-path)">
              <rect id="Rectangle_4139" data-name="Rectangle 4139" width="53" height="53" fill="#fff"></rect>
            </g>
          </g>
        </g>
        <path id="Path_1817" data-name="Path 1817" d="M17.851,35.913a1.1,1.1,0,0,0-1.317-.823A9.233,9.233,0,0,1,9.776,18.132a52.516,52.516,0,0,0,3.484,3.941l.026.026a1.624,1.624,0,0,0,1.15.524h.016A1.624,1.624,0,0,0,15.6,22.1l.025-.026c1.013-1.065,2.289-2.405,3.484-3.939A9.275,9.275,0,0,1,23.674,26.1c0,.22-.007.442-.023.661a1.1,1.1,0,0,0,1.018,1.173c.027,0,.053,0,.079,0a1.1,1.1,0,0,0,1.094-1.02c.019-.27.029-.545.029-.816A11.48,11.48,0,0,0,20.4,16.343c2.126-3.259,3.454-7.139,1.413-11.02l0-.008A8.435,8.435,0,0,0,14.461.945h-.033A8.438,8.438,0,0,0,7.079,5.323c-2.04,3.882-.712,7.761,1.414,11.02A11.429,11.429,0,0,0,17.029,37.23a1.1,1.1,0,0,0,.822-1.317M9.019,6.352a6.189,6.189,0,0,1,10.848,0c2.44,4.65-1.418,9.525-5.423,13.781-4.006-4.256-7.865-9.134-5.425-13.777" fill="#fff"></path>
        <path id="Path_1818" data-name="Path 1818" d="M49.906,39.165l-.571-1.676a15.791,15.791,0,0,0-3.758-6.035l-5.716-5.716a3.269,3.269,0,0,0-5.39,1.207,3.513,3.513,0,0,0-4.684,2.5A3.522,3.522,0,0,0,25.751,31.5l-6.159-6.159a3.56,3.56,0,0,0-5.034,5.034L25.091,40.91l-2.426-.925A4.472,4.472,0,0,0,17.918,41a2.375,2.375,0,0,0,.526,3.758l6.825,3.792a25.393,25.393,0,0,0,8.955,2.976l2.81.507a1.1,1.1,0,0,0,.391-2.161l-2.835-.512-.049-.008a23.18,23.18,0,0,1-8.206-2.721l-6.824-3.793a.18.18,0,0,1-.04-.285,2.27,2.27,0,0,1,2.412-.516l5.74,2.186a1.437,1.437,0,0,0,1.529-2.359L16.111,28.824A1.363,1.363,0,0,1,18.039,26.9l8.832,8.833a1.1,1.1,0,0,0,1.555-1.551l0,0-.366-.367a1.323,1.323,0,1,1,1.871-1.87l.8.785.362.362a1.1,1.1,0,0,0,1.553-1.553l-.366-.367A1.323,1.323,0,1,1,34.157,29.3l1.078,1.062.3.3a1.1,1.1,0,1,0,1.553-1.553l-.3-.3a1.074,1.074,0,1,1,1.52-1.519l5.716,5.716A13.579,13.579,0,0,1,47.256,38.2l.571,1.676a1.1,1.1,0,0,0,2.079-.709" fill="#fff"></path>
        <path id="Path_1819" data-name="Path 1819" d="M19.163,9.409a4.719,4.719,0,1,0-4.719,4.719,4.718,4.718,0,0,0,4.719-4.719m-7.241,0a2.523,2.523,0,1,1,2.522,2.523,2.523,2.523,0,0,1-2.522-2.523" fill="#fff"></path>
      </g>
    </g>
  </g>
</svg>
