<?xml version="1.0" encoding="UTF-8"?>
<svg xmlns="http://www.w3.org/2000/svg" xmlns:xlink="http://www.w3.org/1999/xlink" width="53" height="56.752" viewBox="0 0 53 56.752">
  <defs>
    <clipPath id="clip-path">
      <rect id="Rectangle_4272" data-name="Rectangle 4272" width="53" height="56.752" transform="translate(0 0)" fill="#00bbb4"></rect>
    </clipPath>
  </defs>
  <g id="icn5" transform="translate(0 0)">
    <g id="Group_3735" data-name="Group 3735" clip-path="url(#clip-path)">
      <path id="Path_2263" data-name="Path 2263" d="M49.109,0H14.453a3.9,3.9,0,0,0-3.891,3.891v8.933l-3.22,3.252a3.629,3.629,0,0,0-1.073,2.6v22.94L.985,46.353l-.009.008a3.415,3.415,0,0,0,.034,4.816l4.562,4.561a3.417,3.417,0,0,0,2.437,1.014h.018a3.358,3.358,0,0,0,2.369-.988l1.6-1.771H44.82A3.9,3.9,0,0,0,48.706,50.3h.4A3.9,3.9,0,0,0,53,46.409V3.891A3.9,3.9,0,0,0,49.109,0M21.48,40.139,8.792,54.209a1.177,1.177,0,0,1-1.638-.047L2.59,49.593a1.167,1.167,0,0,1-.05-1.636L16.655,35.31ZM17.74,15.806a1.023,1.023,0,0,1-1.017,1.018H9.75l7.99-8.071ZM44.82,5.085H19.768a3.676,3.676,0,0,0-2.614,1.088l-4.356,4.4V3.892a1.658,1.658,0,0,1,1.655-1.656H49.109a1.657,1.657,0,0,1,1.655,1.656V46.409a1.66,1.66,0,0,1-1.655,1.655h-.4V8.976A3.9,3.9,0,0,0,44.82,5.085M19.768,26.054h0A10.927,10.927,0,0,1,30.694,15.132h0a10.927,10.927,0,0,1,0,21.854h0a10.989,10.989,0,0,1-5.043-1.236c-.284-.284-4.435-4.47-4.718-4.784a10.894,10.894,0,0,1-1.161-4.912m-2.245,6.919,1.046-1.046v.053h.114l6.142,6.143a.034.034,0,0,1,.011.027.032.032,0,0,1-.011.026l-1.042,1.043v-.054h-.113l-6.142-6.143a.037.037,0,0,1,0-.049m5.723,8.545a2.321,2.321,0,0,0,1.952-.551L26.564,39.6a1.979,1.979,0,0,0,.522-.879,13.142,13.142,0,1,0-9.054-9.052,2.048,2.048,0,0,0-.878.518l-1.368,1.368a2.053,2.053,0,0,0-.519,2L8.5,39.611V19.06h8.219a3.261,3.261,0,0,0,3.253-3.253V7.321H44.82a1.66,1.66,0,0,1,1.655,1.655V50.1a1.66,1.66,0,0,1-1.655,1.655H14.01Z" fill="#00bbb4"></path>
      <path id="Path_2264" data-name="Path 2264" d="M30.694,35.059h0a9,9,0,0,0,0-18.007h0a9,9,0,1,0,0,18.007m-6.768-9a6.769,6.769,0,0,1,6.767-6.768h0a6.769,6.769,0,1,1-6.768,6.768" fill="#00bbb4"></path>
    </g>
  </g>
</svg>
