<?xml version="1.0" encoding="UTF-8"?>
<svg xmlns="http://www.w3.org/2000/svg" xmlns:xlink="http://www.w3.org/1999/xlink" id="icn6" width="53" height="53" viewBox="0 0 53 53">
  <defs>
    <clipPath id="clip-path">
      <rect id="Rectangle_4146" data-name="Rectangle 4146" width="53" height="53" fill="#00bbb4"></rect>
    </clipPath>
  </defs>
  <g id="Group_3607" data-name="Group 3607" clip-path="url(#clip-path)">
    <g id="Group_3606" data-name="Group 3606">
      <g id="Group_3605" data-name="Group 3605" clip-path="url(#clip-path)">
        <g id="Group_3604" data-name="Group 3604" opacity="0">
          <g id="Group_3603" data-name="Group 3603">
            <g id="Group_3602" data-name="Group 3602" clip-path="url(#clip-path)">
              <rect id="Rectangle_4143" data-name="Rectangle 4143" width="53" height="53" fill="#00bbb4"></rect>
            </g>
          </g>
        </g>
        <path id="Path_1820" data-name="Path 1820" d="M13.868,39.255h0a.951.951,0,0,0,.244-.725,6.387,6.387,0,0,0-3.641-5.2,3.5,3.5,0,0,0,.822-2.263,3.536,3.536,0,0,0-7.072,0,3.5,3.5,0,0,0,.822,2.263A6.387,6.387,0,0,0,1.4,38.53a.948.948,0,0,0,.944,1.033H13.169a.949.949,0,0,0,.7-.308m-6.11-4.632a4.475,4.475,0,0,1,4.252,3.044h-8.5a4.475,4.475,0,0,1,4.252-3.044m0-1.913A1.64,1.64,0,1,1,9.4,31.07a1.642,1.642,0,0,1-1.64,1.64" fill="#00bbb4"></path>
        <path id="Path_1821" data-name="Path 1821" d="M7.758,26.159a.949.949,0,0,0,.948-.948V10.389H25.833a.948.948,0,1,0,0-1.9H7.758a.949.949,0,0,0-.948.948v15.77a.949.949,0,0,0,.948.948" fill="#00bbb4"></path>
        <path id="Path_1822" data-name="Path 1822" d="M17.786,45.9H8.706V41.733a.948.948,0,1,0-1.9,0V46.85a.949.949,0,0,0,.948.948H17.786a.948.948,0,1,0,0-1.9" fill="#00bbb4"></path>
        <path id="Path_1823" data-name="Path 1823" d="M31.8,29.879H22.181a.948.948,0,1,0,0,1.9H31.8a.948.948,0,0,0,0-1.9" fill="#00bbb4"></path>
        <path id="Path_1824" data-name="Path 1824" d="M31.8,33.516H22.181a.948.948,0,1,0,0,1.9H31.8a.948.948,0,0,0,0-1.9" fill="#00bbb4"></path>
        <path id="Path_1825" data-name="Path 1825" d="M31.305,46.573A6.337,6.337,0,0,0,29.7,45.5a3.536,3.536,0,1,0-5.428,0,6.381,6.381,0,0,0-3.641,5.2.948.948,0,0,0,.944,1.033H32.4a.948.948,0,0,0,.944-1.033,6.356,6.356,0,0,0-2.039-4.121m-4.316.215a4.474,4.474,0,0,1,4.252,3.043h-8.5a4.474,4.474,0,0,1,4.252-3.043m0-1.914a1.64,1.64,0,1,1,1.64-1.64,1.642,1.642,0,0,1-1.64,1.64" fill="#00bbb4"></path>
        <path id="Path_1826" data-name="Path 1826" d="M49.482,34.409a6.386,6.386,0,0,0-1.6-1.076A3.5,3.5,0,0,0,48.7,31.07a3.535,3.535,0,0,0-7.071,0,3.5,3.5,0,0,0,.822,2.263,6.381,6.381,0,0,0-3.641,5.2.947.947,0,0,0,.944,1.033H50.576a.948.948,0,0,0,.945-1.033,6.358,6.358,0,0,0-2.039-4.121m-4.316.214a4.475,4.475,0,0,1,4.252,3.044h-8.5a4.475,4.475,0,0,1,4.252-3.044m0-1.913a1.64,1.64,0,1,1,1.64-1.64,1.642,1.642,0,0,1-1.64,1.64" fill="#00bbb4"></path>
        <path id="Path_1827" data-name="Path 1827" d="M45.166,40.785a.949.949,0,0,0-.948.948V45.9H35.137a.948.948,0,1,0,0,1.9H45.166a.949.949,0,0,0,.948-.948V41.733a.949.949,0,0,0-.948-.948" fill="#00bbb4"></path>
        <path id="Path_1828" data-name="Path 1828" d="M31.8,26.242H22.181a.948.948,0,1,0,0,1.9H31.8a.948.948,0,0,0,0-1.9" fill="#00bbb4"></path>
        <path id="Path_1829" data-name="Path 1829" d="M36.608,37.305V23.517a11.556,11.556,0,1,0-6.768-7.75l-.445.078a2.561,2.561,0,0,0-4.811,0l-.643-.112a1.746,1.746,0,0,0-1.983,1.251H19.629a2.261,2.261,0,0,0-2.258,2.258V37.305a2.261,2.261,0,0,0,2.258,2.258H34.35a2.261,2.261,0,0,0,2.258-2.258M25.987,17.671a.945.945,0,0,0,.338-.725v-.222a.665.665,0,1,1,1.33,0v.222a.948.948,0,0,0,1.111.933l1.423-.249v.61h-6.4v-.61l1.424.249a.946.946,0,0,0,.773-.208m-2.2-.219h0Zm-.948,2.684h8.3a.949.949,0,0,0,.948-.948V18.88H34.35a.362.362,0,0,1,.362.362V37.305a.362.362,0,0,1-.362.362H19.629a.363.363,0,0,1-.362-.362V19.242a.363.363,0,0,1,.362-.362h2.265v.308a.95.95,0,0,0,.948.948m13.764-.988a3.466,3.466,0,0,0,5.207.357l5.513-5.512a3.463,3.463,0,0,0-4.778-5.011,4.442,4.442,0,1,0-5.014,5.009l-.617.617a3.46,3.46,0,0,0-.96,3.049,2.254,2.254,0,0,0-1.607-.673H32.293a9.66,9.66,0,1,1,4.315,4.447V19.242c0-.031,0-.062,0-.094M37.8,17.056a1.555,1.555,0,0,1,.458-1.107l2.086-2.086,2.216,2.216-2.086,2.085A1.566,1.566,0,0,1,37.8,17.056m3.885-4.534,2.086-2.085a1.566,1.566,0,0,1,2.215,2.215L43.9,14.738Zm-.989-2.93a2.547,2.547,0,0,1-1.6,2.364V7.227a2.548,2.548,0,0,1,1.6,2.365M37.2,7.227v4.729a2.548,2.548,0,0,1,0-4.729" fill="#00bbb4"></path>
        <path id="Path_1830" data-name="Path 1830" d="M21.233,23.552a.949.949,0,0,0,.948.948H31.8a.948.948,0,0,0,0-1.9H22.181a.949.949,0,0,0-.948.948" fill="#00bbb4"></path>
      </g>
    </g>
  </g>
</svg>
