<?xml version="1.0" encoding="UTF-8"?>
<svg xmlns="http://www.w3.org/2000/svg" xmlns:xlink="http://www.w3.org/1999/xlink" id="icn6" width="59.016" height="53" viewBox="0 0 59.016 53">
  <defs>
    <clipPath id="clip-path">
      <rect id="Rectangle_4180" data-name="Rectangle 4180" width="59.016" height="53" fill="#00bbb4"></rect>
    </clipPath>
  </defs>
  <g id="Group_3677" data-name="Group 3677" clip-path="url(#clip-path)">
    <path id="Path_1921" data-name="Path 1921" d="M12.092,39.469a1.053,1.053,0,0,0,1.052,1.052h2.692a1.052,1.052,0,1,0,0-2.1H13.144a1.053,1.053,0,0,0-1.052,1.052" fill="#00bbb4"></path>
    <path id="Path_1922" data-name="Path 1922" d="M15.836,29.725H13.144a1.052,1.052,0,0,0,0,2.1h2.692a1.052,1.052,0,0,0,0-2.1" fill="#00bbb4"></path>
    <path id="Path_1923" data-name="Path 1923" d="M47.734,5.557a1.053,1.053,0,0,0,0-2.105H37.943a1.054,1.054,0,0,0-1.052,1.053V25.447H31.4a1.052,1.052,0,1,0,0,2.1h5.494V48.495a1.053,1.053,0,0,0,1.052,1.052h9.791a1.053,1.053,0,0,0,0-2.1h-8.74V27.552h8.74a1.053,1.053,0,0,0,0-2.1h-8.74V5.557Z" fill="#00bbb4"></path>
    <path id="Path_1924" data-name="Path 1924" d="M57.963,0h-6.9a1.054,1.054,0,0,0-1.053,1.052v6.9A1.054,1.054,0,0,0,51.06,9.009h6.9a1.053,1.053,0,0,0,1.053-1.052v-6.9A1.053,1.053,0,0,0,57.963,0M52.112,2.105h4.8v4.8h-4.8Z" fill="#00bbb4"></path>
    <path id="Path_1925" data-name="Path 1925" d="M57.963,22h-6.9a1.054,1.054,0,0,0-1.053,1.052v6.9A1.054,1.054,0,0,0,51.06,31h6.9a1.053,1.053,0,0,0,1.053-1.052v-6.9A1.053,1.053,0,0,0,57.963,22m-5.851,2.1h4.8v4.8h-4.8Z" fill="#00bbb4"></path>
    <path id="Path_1926" data-name="Path 1926" d="M57.963,43.991h-6.9a1.054,1.054,0,0,0-1.053,1.052v6.905A1.054,1.054,0,0,0,51.06,53h6.9a1.053,1.053,0,0,0,1.053-1.052V45.043a1.053,1.053,0,0,0-1.053-1.052m-5.851,2.1h4.8v4.8h-4.8Z" fill="#00bbb4"></path>
    <path id="Path_1927" data-name="Path 1927" d="M15.836,21.033H13.144a1.052,1.052,0,0,0,0,2.1h2.692a1.052,1.052,0,0,0,0-2.1" fill="#00bbb4"></path>
    <path id="Path_1928" data-name="Path 1928" d="M26.978,10.6C24.5,9.078,19.715,8.133,14.49,8.133S4.479,9.078,2,10.6a3.559,3.559,0,0,0-2,2.862V39.538A3.559,3.559,0,0,0,2,42.4c2.478,1.522,7.264,2.467,12.489,2.467S24.5,43.922,26.978,42.4a3.558,3.558,0,0,0,2-2.862V13.462a3.558,3.558,0,0,0-2-2.862m-.463,20.837a5.551,5.551,0,0,1-1.6.969A28.027,28.027,0,0,1,14.49,34.071,28.027,28.027,0,0,1,4.064,32.406a5.523,5.523,0,0,1-1.6-.969c-.256-.244-.36-.416-.36-.591V25.078c2.506,1.485,7.231,2.405,12.385,2.405s9.879-.92,12.385-2.405v5.768c0,.175-.1.347-.36.591m.36,2.333v5.768c0,.175-.1.346-.36.591a5.481,5.481,0,0,1-1.6.97A28.488,28.488,0,0,1,14.49,42.762,28.056,28.056,0,0,1,4.064,41.1a5.448,5.448,0,0,1-1.6-.97c-.256-.245-.36-.416-.36-.591V33.77c2.506,1.486,7.232,2.4,12.385,2.4s9.88-.92,12.385-2.4m-.36-19.717a5.507,5.507,0,0,1-1.6.969A28.027,28.027,0,0,1,14.49,16.687,28.027,28.027,0,0,1,4.064,15.022a5.479,5.479,0,0,1-1.6-.969c-.256-.244-.36-.416-.36-.591s.1-.347.36-.591a5.427,5.427,0,0,1,1.6-.97A28.05,28.05,0,0,1,14.49,10.237,28.464,28.464,0,0,1,24.916,11.9a5.467,5.467,0,0,1,1.6.97c.256.244.36.416.36.591s-.1.347-.36.591m0,8.692a5.468,5.468,0,0,1-1.6.97A28.045,28.045,0,0,1,14.49,25.378,28.045,28.045,0,0,1,4.064,23.715a5.427,5.427,0,0,1-1.6-.97c-.256-.245-.36-.416-.36-.591V16.387c2.507,1.485,7.232,2.4,12.385,2.4s9.879-.919,12.385-2.4v5.767c0,.175-.1.346-.36.591" fill="#00bbb4"></path>
  </g>
</svg>
