<?xml version="1.0" encoding="UTF-8"?>
<svg xmlns="http://www.w3.org/2000/svg" xmlns:xlink="http://www.w3.org/1999/xlink" width="29.545" height="53" viewBox="0 0 29.545 53">
  <defs>
    <clipPath id="clip-path">
      <rect id="Rectangle_4166" data-name="Rectangle 4166" width="29.545" height="53" fill="none"></rect>
    </clipPath>
  </defs>
  <g id="icn6" transform="translate(-625 -1105)">
    <g id="Group_3662" data-name="Group 3662" transform="translate(625 1105)">
      <g id="Group_3662-2" data-name="Group 3662" clip-path="url(#clip-path)">
        <path id="Path_1843" data-name="Path 1843" d="M29.538,30.209V8.9A8.938,8.938,0,0,0,20.645,0H8.875A8.92,8.92,0,0,0,0,8.875V30.2a4.893,4.893,0,0,0,.851,2.753l6.007,9.033a5.268,5.268,0,0,0,4.885,2.228V48.03c-.159,1.89.134,3.264.869,4.083A2.837,2.837,0,0,0,14.758,53a3.055,3.055,0,0,0,3.012-3.016V44.213a5.267,5.267,0,0,0,4.885-2.228l.015-.025c.3-.582,1.115-1.75,2.064-3.1,2.217-3.161,4.975-7.092,4.8-8.648M15.356,50.7a.815.815,0,0,1-.606.255.764.764,0,0,1-.568-.187c-.32-.314-.321-1.015-.322-1.579v-.032h1.808a2.33,2.33,0,0,1-.312,1.543m-1.5-8.457h1.8v4.726h-1.8Zm3.651-1.936a.953.953,0,0,0-.717-.274l-3.992.085a.927.927,0,0,0-.714.269,2.355,2.355,0,0,0-.341,1.68c0,.017,0,.033,0,.05a3.362,3.362,0,0,1-3.1-1.256c-.2-.387-.892-1.381-1.764-2.634-1.011-1.453-2.269-3.26-3.236-4.806C2.162,31.045,2.1,30.442,2.142,30.293l.008-.028L2.056,8.838A6.825,6.825,0,0,1,8.838,2.056H20.676a6.84,6.84,0,0,1,6.783,6.773c-.041.275-.04,1.262-.006,5.133.027,3.187.065,7.551.024,11.1-.056,4.82-.241,6.165-.356,6.529l-.046-.035-6.122,9.2a3.362,3.362,0,0,1-3.108,1.266l0-.1a2.26,2.26,0,0,0-.339-1.626" fill="#fff"></path>
        <path id="Path_1844" data-name="Path 1844" d="M22.5,34.1a2.767,2.767,0,0,0-2.659-2.63l-5.1-.074-5.077.074a2.752,2.752,0,0,0,.008,5.5h10.2A2.755,2.755,0,0,0,22.5,34.1m-1.948.26a.646.646,0,0,1-.642.569l-4.032.012V33.645l4.023.011a.627.627,0,0,1,.6.579l.006.073ZM13.7,33.585v1.293l-4.033-.011h0a.645.645,0,0,1-.644-.64v-.006a.646.646,0,0,1,.633-.636Z" fill="#fff"></path>
        <path id="Path_1845" data-name="Path 1845" d="M22.407,30.486a1.9,1.9,0,0,0,1.9-1.9l.048-20.867a1.907,1.907,0,0,0-1.9-1.9H7.062a1.905,1.905,0,0,0-1.9,1.9l.047,20.866a1.906,1.906,0,0,0,1.9,1.9Zm-.256-22.57,0,20.407H7.291V7.916Z" fill="#fff"></path>
        <path id="Path_1846" data-name="Path 1846" d="M10.557,16.5a1.477,1.477,0,0,0,1.592,1.343h4.49l-2.818,7.047a1.066,1.066,0,0,0,.6,1.366l.016.006a1.011,1.011,0,0,0,.376.071,1.037,1.037,0,0,0,.966-.659l3.135-7.94a1.514,1.514,0,0,0,.1-.5,1.5,1.5,0,0,0-1.465-1.527h-4.47l2.635-5.276.011-.024a1.055,1.055,0,0,0-1.88-.925L10.626,15.73l.043.065a1.471,1.471,0,0,0-.112.707" fill="#fff"></path>
      </g>
    </g>
  </g>
</svg>
