<?xml version="1.0" encoding="UTF-8"?>
<svg xmlns="http://www.w3.org/2000/svg" xmlns:xlink="http://www.w3.org/1999/xlink" id="icn6" width="53" height="53.094" viewBox="0 0 53 53.094">
  <defs>
    <clipPath id="clip-path">
      <rect id="Rectangle_4274" data-name="Rectangle 4274" width="53" height="53.094" transform="translate(0 0)" fill="none"></rect>
    </clipPath>
  </defs>
  <g id="Group_3736" data-name="Group 3736" clip-path="url(#clip-path)">
    <path id="Path_2265" data-name="Path 2265" d="M52.176,42.843a6.946,6.946,0,0,0-6.137-3.678h-.005a6.925,6.925,0,0,0-2.753.576,4.388,4.388,0,0,0-7.82-.622l-4.445,7.263a4.412,4.412,0,0,0,7.526,4.6l1.183-1.931a6.944,6.944,0,0,0,5.624,3.995c.233.023.464.035.695.035a6.961,6.961,0,0,0,6.132-10.242M32.407,49.27a2.418,2.418,0,0,1,.327-1.838l1.7-2.773,4.089,2.505-1.7,2.77,0,0a2.4,2.4,0,0,1-4.415-.668m16.115-7.42a4.952,4.952,0,0,1-2.488,9.231,5.049,5.049,0,0,1-.577-.037Zm-1.911-.634-3.064,9.191a4.912,4.912,0,0,1-2.409-3.66l1.849-3.02a4.381,4.381,0,0,0,.612-1.89,4.745,4.745,0,0,1,3.012-.621m-5.342,1.456-1.7,2.775-4.09-2.5,1.7-2.775a2.4,2.4,0,0,1,3.3-.8,2.4,2.4,0,0,1,.788,3.307" fill="#fff"></path>
    <path id="Path_2266" data-name="Path 2266" d="M34.968,9.8a1.008,1.008,0,0,0-1.007,1.007v5.363a1.008,1.008,0,0,0,1.007,1.006h3.405a1.008,1.008,0,0,0,1.007-1.006V10.805A1.008,1.008,0,0,0,38.373,9.8Zm1.007,2.014h1.391v3.349H35.975Z" fill="#fff"></path>
    <path id="Path_2267" data-name="Path 2267" d="M41.778,17.174h3.4a1.007,1.007,0,0,0,1.006-1.006V6.336a1.008,1.008,0,0,0-1.006-1.007h-3.4a1.008,1.008,0,0,0-1.007,1.007v9.832a1.008,1.008,0,0,0,1.007,1.006m2.4-2.013H42.785V7.343h1.391Z" fill="#fff"></path>
    <path id="Path_2268" data-name="Path 2268" d="M48.587,17.174h3.4A1.008,1.008,0,0,0,53,16.168V1.867A1.008,1.008,0,0,0,51.992.861h-3.4a1.007,1.007,0,0,0-1.006,1.006v14.3a1.007,1.007,0,0,0,1.006,1.006m2.4-2.013H49.594V2.874h1.391Z" fill="#fff"></path>
    <rect id="Rectangle_4273" data-name="Rectangle 4273" width="19.037" height="2.013" transform="translate(33.961 18.736)" fill="#fff"></rect>
    <path id="Path_2269" data-name="Path 2269" d="M31.719,40.867H27.8L17.167,27.4a3.161,3.161,0,1,0-1.58,1.249l4.006,5.075,1.4,16.1a1.161,1.161,0,0,1-2.306.257l-2.3-16.854a1.011,1.011,0,0,0-1-.869h-1.7a1.009,1.009,0,0,0-1,.871l-2.3,16.852a1.161,1.161,0,0,1-2.006.627,1.16,1.16,0,0,1-.3-.884l1.5-17.3V18.891A1.007,1.007,0,0,0,7.652,18.5L3.9,27.5a.974.974,0,0,1-.9.6H3a.978.978,0,0,1-.909-1.342L6.529,15.666a4.058,4.058,0,0,1,3.794-2.578h8.434a4.058,4.058,0,0,1,3.793,2.578l4.436,11.091a.978.978,0,0,1-.909,1.342h0a.973.973,0,0,1-.9-.6L21.429,18.5a1.007,1.007,0,0,0-1.938.386v10.37H21.5V23.925l1.81,4.345a2.992,2.992,0,0,0,5.541-2.26L24.419,14.918a6.048,6.048,0,0,0-5.656-3.843h-.65a6.114,6.114,0,1,0-7.147,0h-.649a6.053,6.053,0,0,0-5.658,3.843L.224,26.009A2.991,2.991,0,0,0,4.153,29.9a2.965,2.965,0,0,0,1.61-1.626l1.811-4.346v8.507L6.081,49.645a3.174,3.174,0,0,0,6.307.7l2.151-15.779L16.691,50.35a3.153,3.153,0,0,0,3.133,2.744,3.2,3.2,0,0,0,.364-.021A3.155,3.155,0,0,0,23,49.645L21.864,36.6l4.653,5.9a1,1,0,0,0,.791.384h4.411ZM15.661,25.7a1.123,1.123,0,1,1-.692-1.036,1.123,1.123,0,0,1,.692,1.036M10.439,6.123a4.1,4.1,0,1,1,4.1,4.1,4.089,4.089,0,0,1-4.1-4.1" fill="#fff"></path>
    <path id="Path_2270" data-name="Path 2270" d="M28.677,4.577h4.188a3.135,3.135,0,0,0,6.1-1.007,3.135,3.135,0,0,0-6.1-1.007H28.158a1.01,1.01,0,0,0-.819.422L22.993,9.07l1.638,1.17ZM34.7,3.57a1.121,1.121,0,1,1,.692,1.036A1.122,1.122,0,0,1,34.7,3.57" fill="#fff"></path>
  </g>
</svg>
