<?xml version="1.0" encoding="UTF-8"?>
<svg xmlns="http://www.w3.org/2000/svg" xmlns:xlink="http://www.w3.org/1999/xlink" id="icn7" width="53" height="53" viewBox="0 0 53 53">
  <defs>
    <clipPath id="clip-path">
      <rect id="Rectangle_4150" data-name="Rectangle 4150" width="53" height="53" fill="#00bbb4"></rect>
    </clipPath>
  </defs>
  <g id="Group_3613" data-name="Group 3613" clip-path="url(#clip-path)">
    <g id="Group_3612" data-name="Group 3612">
      <g id="Group_3611" data-name="Group 3611" clip-path="url(#clip-path)">
        <g id="Group_3610" data-name="Group 3610" opacity="0">
          <g id="Group_3609" data-name="Group 3609">
            <g id="Group_3608" data-name="Group 3608" clip-path="url(#clip-path)">
              <rect id="Rectangle_4147" data-name="Rectangle 4147" width="53" height="53" fill="#00bbb4"></rect>
            </g>
          </g>
        </g>
        <path id="Path_1831" data-name="Path 1831" d="M44.637,29.54V23.459a7.089,7.089,0,1,0-6.821-11.018l-4.6-2.286a7.1,7.1,0,0,0,.01-4.494.97.97,0,0,0-1.787-.13.962.962,0,0,0-.053.74,5.15,5.15,0,0,1,.262,1.623,5.093,5.093,0,0,1-.8,2.749A5.789,5.789,0,0,0,29.9,9.091a3.7,3.7,0,0,0,.335-1.545,3.738,3.738,0,0,0-7.476,0A3.684,3.684,0,0,0,23.1,9.092a5.828,5.828,0,0,0-.953,1.551,5.088,5.088,0,0,1-.8-2.749,5.151,5.151,0,0,1,8.569-3.855A.969.969,0,1,0,31.2,2.589,7.09,7.09,0,0,0,19.78,10.155l-4.6,2.286A7.088,7.088,0,1,0,8.362,23.459V29.54A7.09,7.09,0,1,0,15.294,40.4l4.525,2.342a7.027,7.027,0,0,0-.409,2.369,7.09,7.09,0,0,0,14.18,0,7.027,7.027,0,0,0-.409-2.369L37.706,40.4A7.089,7.089,0,1,0,44.637,29.54m-.968,4.876a1.8,1.8,0,1,1-1.8,1.8,1.8,1.8,0,0,1,1.8-1.8m-2.781,6.359a3.791,3.791,0,0,1,.645-1.493,3.729,3.729,0,0,0,4.271,0,3.777,3.777,0,0,1,.645,1.493l.021.11a5.14,5.14,0,0,1-5.6,0Zm6.518-4.559a3.737,3.737,0,1,0-7.475,0,3.684,3.684,0,0,0,.336,1.546,5.8,5.8,0,0,0-.953,1.551,5.145,5.145,0,0,1-.338-4.875.969.969,0,1,0-1.765-.8,7.085,7.085,0,0,0-.322,5l-4.6,2.382a7.082,7.082,0,0,0-11.577,0l-4.6-2.382a7.078,7.078,0,0,0-.375-5.115.969.969,0,1,0-1.75.832,5.149,5.149,0,0,1-.3,4.961,5.786,5.786,0,0,0-.953-1.552,3.683,3.683,0,0,0,.336-1.545,3.738,3.738,0,0,0-7.476,0,3.688,3.688,0,0,0,.335,1.545,5.8,5.8,0,0,0-.953,1.552,5.1,5.1,0,0,1-.8-2.75,5.151,5.151,0,0,1,8.066-4.248.969.969,0,1,0,1.1-1.6A7.113,7.113,0,0,0,10.3,29.539v-6.08a7.09,7.09,0,0,0,5.751-9.284l4.595-2.287a7.081,7.081,0,0,0,11.706,0l4.6,2.287A7.093,7.093,0,0,0,42.7,23.459V29.54A7.087,7.087,0,0,0,39.542,30.8a.97.97,0,0,0,1.13,1.576,5.106,5.106,0,0,1,3-.964,5.158,5.158,0,0,1,5.152,5.152,5.1,5.1,0,0,1-.8,2.75,5.817,5.817,0,0,0-.953-1.552,3.682,3.682,0,0,0,.335-1.545M26.5,46.558a1.8,1.8,0,1,1,1.8-1.8,1.8,1.8,0,0,1-1.8,1.8m-2.78,2.758a3.775,3.775,0,0,1,.645-1.493,3.725,3.725,0,0,0,4.27,0,3.777,3.777,0,0,1,.645,1.492l.021.11a5.131,5.131,0,0,1-5.6,0Zm6.518-4.558a3.738,3.738,0,0,0-7.476,0A3.7,3.7,0,0,0,23.1,46.3a5.824,5.824,0,0,0-.952,1.552,5.091,5.091,0,0,1-.8-2.749,5.152,5.152,0,0,1,10.3,0,5.088,5.088,0,0,1-.8,2.749A5.828,5.828,0,0,0,29.9,46.3a3.69,3.69,0,0,0,.336-1.546M9.331,34.416a1.8,1.8,0,1,1-1.8,1.8,1.8,1.8,0,0,1,1.8-1.8m-2.78,6.359A3.8,3.8,0,0,1,7.2,39.281a3.725,3.725,0,0,0,4.271,0,3.8,3.8,0,0,1,.645,1.493l.021.11a5.138,5.138,0,0,1-5.6,0Zm2.78-26.486a1.8,1.8,0,1,1-1.8,1.8,1.8,1.8,0,0,1,1.8-1.8m-2.78,6.358A3.789,3.789,0,0,1,7.2,19.154a3.729,3.729,0,0,0,4.271,0,3.8,3.8,0,0,1,.645,1.493l.021.11a5.138,5.138,0,0,1-5.6,0Zm7.135-1.462a5.8,5.8,0,0,0-.952-1.552,3.7,3.7,0,0,0,.335-1.545,3.738,3.738,0,1,0-7.475,0,3.682,3.682,0,0,0,.335,1.545,5.833,5.833,0,0,0-.953,1.552,5.1,5.1,0,0,1-.8-2.749,5.152,5.152,0,1,1,10.3,0,5.088,5.088,0,0,1-.8,2.749m29.983-1.3a1.8,1.8,0,1,1,1.8-1.8,1.8,1.8,0,0,1-1.8,1.8m-2.781,2.759a3.789,3.789,0,0,1,.645-1.493,3.729,3.729,0,0,0,4.271,0,3.789,3.789,0,0,1,.645,1.493l.021.11a5.143,5.143,0,0,1-5.6,0Zm6.518-4.559a3.737,3.737,0,1,0-7.475,0,3.7,3.7,0,0,0,.335,1.545,5.789,5.789,0,0,0-.952,1.552,5.153,5.153,0,0,1,4.355-7.9,5.158,5.158,0,0,1,5.152,5.152,5.1,5.1,0,0,1-.8,2.751,5.778,5.778,0,0,0-.952-1.554,3.675,3.675,0,0,0,.335-1.545M26.5,9.346a1.8,1.8,0,1,1,1.8-1.8,1.8,1.8,0,0,1-1.8,1.8m0,1.938a3.692,3.692,0,0,0,2.135-.672A3.763,3.763,0,0,1,29.28,12.1l.021.11a5.133,5.133,0,0,1-5.6,0l.021-.109a3.763,3.763,0,0,1,.645-1.493,3.692,3.692,0,0,0,2.135.672" fill="#00bbb4"></path>
      </g>
    </g>
  </g>
</svg>
