<?xml version="1.0" encoding="UTF-8"?>
<svg xmlns="http://www.w3.org/2000/svg" xmlns:xlink="http://www.w3.org/1999/xlink" width="53" height="49.681" viewBox="0 0 53 49.681">
  <defs>
    <clipPath id="clip-path">
      <rect id="Rectangle_4275" data-name="Rectangle 4275" width="53" height="49.681" transform="translate(0 0)" fill="none"></rect>
    </clipPath>
  </defs>
  <g id="icn7" transform="translate(0 0)">
    <g id="Group_3737" data-name="Group 3737" clip-path="url(#clip-path)">
      <path id="Path_2271" data-name="Path 2271" d="M.989,49.681H52.012A.989.989,0,0,0,53,48.693V37.616a6.155,6.155,0,0,0-2.85-5.2l-.064-.041.064-.041a6.122,6.122,0,1,0-6.646,0l.063.041-.063.041a6.164,6.164,0,0,0-2.793,4.358l-.006.043h-3.73A3.585,3.585,0,0,0,33.394,40.4a3.528,3.528,0,0,0,.348,1.534l.034.07H19.226l.034-.07a3.534,3.534,0,0,0,.347-1.534,3.585,3.585,0,0,0-3.581-3.581H12.3l-.006-.043A6.17,6.17,0,0,0,9.5,32.415l-.064-.041.063-.041a6.122,6.122,0,1,0-6.645,0l.064.041-.064.041A6.156,6.156,0,0,0,0,37.616V48.693a.99.99,0,0,0,.989.988M42.682,27.194a4.145,4.145,0,1,1,4.145,4.145,4.15,4.15,0,0,1-4.145-4.145m-5.707,11.6h4.667a.989.989,0,0,0,.988-.988v-.188a4.2,4.2,0,1,1,8.394,0V47.705H42.63V43.977h1.6a3.584,3.584,0,0,0,3.581-3.58V37.85a.988.988,0,0,0-1.976,0V40.4a1.607,1.607,0,0,1-1.6,1.6H36.953a1.6,1.6,0,0,1,.022-3.209m3.678,8.913H12.347V43.978H40.653ZM2.029,27.194a4.145,4.145,0,1,1,4.145,4.145,4.15,4.15,0,0,1-4.145-4.145M1.977,37.616a4.2,4.2,0,1,1,8.394,0V37.8a.989.989,0,0,0,.988.988h4.667A1.6,1.6,0,0,1,16.037,42H8.767a1.607,1.607,0,0,1-1.605-1.6V37.85a.988.988,0,0,0-1.976,0V40.4a3.584,3.584,0,0,0,3.581,3.58h1.6v3.728H1.977Z" fill="#fff"></path>
      <path id="Path_2272" data-name="Path 2272" d="M38.2,23.774l-.843-3.259.012-.019A13.174,13.174,0,0,0,26.418,0,13.346,13.346,0,0,0,24.7.111a.988.988,0,0,0,.255,1.96,11.2,11.2,0,0,1,12.657,11.1,11.11,11.11,0,0,1-2.128,6.567.986.986,0,0,0-.157.828l.527,2.038-1.976-.552a1,1,0,0,0-.85.154,11.2,11.2,0,0,1-13.357-.1.991.991,0,0,0-.862-.163l-2.351.657.668-2.587A.99.99,0,0,0,17,19.237a11.2,11.2,0,0,1,.529-12.876.988.988,0,0,0-1.568-1.2A13.18,13.18,0,0,0,15.1,19.918l.011.017-.005.02-.988,3.819a.989.989,0,0,0,1.224,1.2l3.544-.991L18.9,24a13.177,13.177,0,0,0,14.878.1l.019-.012,3.176.888a.988.988,0,0,0,1.223-1.2" fill="#fff"></path>
      <path id="Path_2273" data-name="Path 2273" d="M24.344,21.422h4.148a.99.99,0,0,0,.989-.988v-4.2h4.2a.99.99,0,0,0,.988-.989V11.1a.989.989,0,0,0-.988-.988h-4.2v-4.2a.991.991,0,0,0-.989-.989H24.344a.99.99,0,0,0-.988.989v4.2h-4.2a.99.99,0,0,0-.989.988v4.148a.991.991,0,0,0,.989.989h4.2v4.2a.989.989,0,0,0,.988.988m-4.2-7.162V12.088h4.2a.989.989,0,0,0,.988-.988V6.9H27.5v4.2a.989.989,0,0,0,.988.988h4.2V14.26h-4.2a.989.989,0,0,0-.988.988v4.2H25.332v-4.2a.989.989,0,0,0-.988-.988Z" fill="#fff"></path>
      <path id="Path_2274" data-name="Path 2274" d="M20.585,1.667a.989.989,0,0,0-1.118,1.444.991.991,0,0,0,.859.5.989.989,0,0,0,.259-1.943" fill="#fff"></path>
    </g>
  </g>
</svg>
