<?xml version="1.0" encoding="UTF-8"?>
<svg xmlns="http://www.w3.org/2000/svg" xmlns:xlink="http://www.w3.org/1999/xlink" id="icn7" width="52.994" height="53" viewBox="0 0 52.994 53">
  <defs>
    <clipPath id="clip-path">
      <rect id="Rectangle_4181" data-name="Rectangle 4181" width="52.994" height="53" fill="#00bbb4"></rect>
    </clipPath>
  </defs>
  <g id="Group_3679" data-name="Group 3679" clip-path="url(#clip-path)">
    <path id="Path_1929" data-name="Path 1929" d="M52.915,32.8a2.068,2.068,0,0,0-1.284-1.7l-2.348-.937a15.336,15.336,0,0,0-1.361-3.275l.991-2.321a2.04,2.04,0,0,0-.3-2.134,18.5,18.5,0,0,0-2.238-2.24,2.037,2.037,0,0,0-2.132-.307l-2.323.993a15.453,15.453,0,0,0-3.274-1.361L37.7,17.165a2.078,2.078,0,0,0-.515-.729V7.18c0-2.188-2.065-4.046-5.973-5.372A41.315,41.315,0,0,0,18.592,0,41.3,41.3,0,0,0,5.971,1.808C2.065,3.134,0,4.992,0,7.18V38.793c0,2.188,2.065,4.045,5.973,5.372A41.315,41.315,0,0,0,18.6,45.973c.387,0,.768-.011,1.137-.021l.182-.005a1.931,1.931,0,0,0,.275.43,18.433,18.433,0,0,0,2.239,2.24,2.038,2.038,0,0,0,2.131.307l2.323-.992a15.558,15.558,0,0,0,3.274,1.361l.938,2.346a2.061,2.061,0,0,0,1.711,1.287c.541.049,1.093.074,1.642.074A15.413,15.413,0,0,0,36,52.926a2.065,2.065,0,0,0,1.709-1.289l.938-2.344a15.558,15.558,0,0,0,3.274-1.361l2.319.991a2.044,2.044,0,0,0,2.135-.307,18.489,18.489,0,0,0,2.239-2.238,2.038,2.038,0,0,0,.306-2.13l-.993-2.326a15.405,15.405,0,0,0,1.355-3.277l2.348-.938a2.061,2.061,0,0,0,1.283-1.7,16.211,16.211,0,0,0,0-3.207m-7.092,9.454,1.2,2.8h0a16.526,16.526,0,0,1-1.962,1.962l-2.8-1.2a1.036,1.036,0,0,0-.939.065,13.334,13.334,0,0,1-3.685,1.532,1.033,1.033,0,0,0-.711.62l-1.128,2.826a15.446,15.446,0,0,1-2.779,0h0l-1.128-2.826a1.034,1.034,0,0,0-.712-.62,13.326,13.326,0,0,1-3.687-1.529,1.031,1.031,0,0,0-.938-.065l-2.8,1.195a16.451,16.451,0,0,1-1.961-1.963l1.2-2.805a1.035,1.035,0,0,0-.065-.939,13.341,13.341,0,0,1-1.53-3.687,1.038,1.038,0,0,0-.62-.712l-2.824-1.13a14.168,14.168,0,0,1,0-2.778l2.825-1.128a1.037,1.037,0,0,0,.62-.712,13.3,13.3,0,0,1,1.53-3.686,1.037,1.037,0,0,0,.065-.94l-1.2-2.8h0a16.685,16.685,0,0,1,1.961-1.964l2.8,1.2a1.023,1.023,0,0,0,.939-.065,13.324,13.324,0,0,1,3.685-1.528,1.037,1.037,0,0,0,.712-.62l1.125-2.826a15.377,15.377,0,0,1,2.781,0h0l1.129,2.826a1.033,1.033,0,0,0,.711.62,13.316,13.316,0,0,1,3.687,1.529,1.027,1.027,0,0,0,.938.066l2.8-1.2a16.493,16.493,0,0,1,1.965,1.964l-1.2,2.8a1.037,1.037,0,0,0,.065.94,13.333,13.333,0,0,1,1.529,3.686,1.037,1.037,0,0,0,.62.712l2.826,1.131a14.185,14.185,0,0,1,0,2.772l-2.825,1.129a1.032,1.032,0,0,0-.62.712,13.333,13.333,0,0,1-1.529,3.686,1.033,1.033,0,0,0-.066.939m-10.7-31.63v5.214a17.1,17.1,0,0,0-2.32.041,2.065,2.065,0,0,0-1.708,1.29l-.938,2.344a15.471,15.471,0,0,0-3.274,1.36l-2.32-.99a2.038,2.038,0,0,0-2.136.306,18.617,18.617,0,0,0-2.237,2.238,2.026,2.026,0,0,0-.25.373l-.212.007c-.37.012-.753.024-1.134.024a38.5,38.5,0,0,1-11.98-1.692c-2.848-.973-4.549-2.253-4.549-3.422V10.624C5.133,12.9,11.556,14.36,18.6,14.36S32.059,12.9,35.125,10.624M19.948,24.867l.068,0,.86,2.017a15.434,15.434,0,0,0-1.355,3.278l-2.349.937a2.065,2.065,0,0,0-1.283,1.7c-.013.135-.018.271-.022.4l0,.084c-8.26-.467-13.8-2.968-13.8-5.029V21.161C5.133,23.438,11.556,24.9,18.6,24.9c.456,0,.911-.016,1.352-.031M30.576,10.6A38.514,38.514,0,0,1,18.6,12.294,38.5,38.5,0,0,1,6.616,10.6C3.768,9.628,2.067,8.349,2.067,7.18s1.7-2.448,4.549-3.422A38.507,38.507,0,0,1,18.6,2.067a38.511,38.511,0,0,1,11.98,1.691c2.848.974,4.549,2.253,4.549,3.422s-1.7,2.448-4.549,3.422M2.067,31.647c1.672,1.288,5.546,3.279,13.785,3.7,0,.042,0,.084,0,.126.006.173.012.353.03.532a2.061,2.061,0,0,0,1.287,1.709l2.344.937a15.426,15.426,0,0,0,1.361,3.276l-.836,1.946c-.5.017-.964.031-1.446.031a38.5,38.5,0,0,1-11.98-1.692c-2.848-.973-4.549-2.253-4.549-3.421Z" fill="#00bbb4"></path>
    <path id="Path_1930" data-name="Path 1930" d="M34.4,22.831h0A11.571,11.571,0,1,0,45.973,34.4,11.536,11.536,0,0,0,34.4,22.831m-.011,2.063a9.509,9.509,0,1,1-6.71,2.788,9.52,9.52,0,0,1,6.71-2.788" fill="#00bbb4"></path>
    <path id="Path_1931" data-name="Path 1931" d="M34.4,41.586a7.185,7.185,0,1,0-5.07-2.107,7.2,7.2,0,0,0,5.07,2.107m0-12.3a5.117,5.117,0,1,1-3.611,1.5,5.132,5.132,0,0,1,3.611-1.5" fill="#00bbb4"></path>
    <path id="Path_1932" data-name="Path 1932" d="M4.108,17.074c.289.134.6.271.94.4a1.028,1.028,0,0,0,.355.064,1.033,1.033,0,0,0,.4-1.988c-.286-.112-.561-.231-.819-.353a1.034,1.034,0,0,0-.877,1.873" fill="#00bbb4"></path>
    <path id="Path_1933" data-name="Path 1933" d="M8.7,18.589c.306.072.612.139.909.2a1.034,1.034,0,1,0,.413-2.026c-.262-.053-.54-.113-.843-.183a1.034,1.034,0,0,0-1.133,1.558,1.012,1.012,0,0,0,.115.146H7.4Z" fill="#00bbb4"></path>
  </g>
</svg>
