<?xml version="1.0" encoding="UTF-8"?>
<svg xmlns="http://www.w3.org/2000/svg" xmlns:xlink="http://www.w3.org/1999/xlink" width="182" height="182" viewBox="0 0 182 182">
  <defs>
    <clipPath id="clip-path">
      <rect id="Rectangle_143" data-name="Rectangle 143" width="89.05" height="89.065" fill="#fff"></rect>
    </clipPath>
  </defs>
  <g id="icn7" transform="translate(-502.453 -365)">
    <circle id="Ellipse_4" data-name="Ellipse 4" cx="91" cy="91" r="91" transform="translate(684.453 547) rotate(180)" fill="#0083ad"></circle>
    <g id="Group_236" data-name="Group 236" transform="translate(548.934 411.468)">
      <g id="Group_235" data-name="Group 235" clip-path="url(#clip-path)">
        <path id="Path_200" data-name="Path 200" d="M88.578,86.23,70.313,67.978l.381-.381a1.647,1.647,0,0,0,.168-2.134l-3.026-4.123a7.641,7.641,0,0,0-.542-10.063L30.141,14.112l2.633-2.633a1.641,1.641,0,1,0-2.321-2.321l-6.71,6.71L12.605,4.756,14.561,2.8A1.641,1.641,0,0,0,12.24.479L9.117,3.589.48,12.212a1.636,1.636,0,0,0,1.167,2.8,1.637,1.637,0,0,0,1.167-.476L4.77,12.577,15.9,23.7l-6.709,6.71a1.646,1.646,0,0,0,2.334,2.321l2.605-2.605L51.293,67.294a7.5,7.5,0,0,0,10.049.542l4.118,3.022a1.584,1.584,0,0,0,.971.325,1.716,1.716,0,0,0,1.167-.476l.38-.381L86.241,88.589a1.67,1.67,0,0,0,2.343-.009,1.707,1.707,0,0,0-.005-2.351M65.538,63.757l1.836,2.505-1.1,1.1-2.505-1.836Zm-10.2-4.243a1.641,1.641,0,1,0-2.321-2.321L49.433,60.78l-7.3-7.3L45.722,49.9A1.641,1.641,0,1,0,43.4,47.575l-3.587,3.586-7.3-7.3L36.1,40.278a1.641,1.641,0,0,0-2.321-2.321L30.2,41.543l-7.3-7.3,3.587-3.586a1.641,1.641,0,0,0-2.321-2.321l-3.587,3.587L16.474,27.82l11.36-11.36L65,53.627a4.3,4.3,0,0,1,0,6.081l-5.277,5.277a4.374,4.374,0,0,1-6.111-.025L51.754,63.1ZM18.2,21.395,7.091,10.257l3.18-3.18L21.4,18.2Z" transform="translate(0 0)" fill="#fff"></path>
      </g>
    </g>
  </g>
</svg>
