<?xml version="1.0" encoding="UTF-8"?>
<svg xmlns="http://www.w3.org/2000/svg" xmlns:xlink="http://www.w3.org/1999/xlink" width="53" height="53.004" viewBox="0 0 53 53.004">
  <defs>
    <clipPath id="clip-path">
      <rect id="Rectangle_4276" data-name="Rectangle 4276" width="53" height="53.004" transform="translate(0 0)" fill="none"></rect>
    </clipPath>
  </defs>
  <g id="icn8" transform="translate(0 0)">
    <g id="Group_3739" data-name="Group 3739" clip-path="url(#clip-path)">
      <path id="Path_2275" data-name="Path 2275" d="M1.664,21.328l5.266.763.155,0h0a1.029,1.029,0,0,0,.99-.8,19.153,19.153,0,0,1,30.087-9.968,1.037,1.037,0,0,0,1.364-.092l3.745-3.756a1.021,1.021,0,0,0-.071-1.53A26.512,26.512,0,0,0,.807,20.057a1.032,1.032,0,0,0,.857,1.271m1.46-1.888A24.391,24.391,0,0,1,40.988,6.85l-2.3,2.3A21.218,21.218,0,0,0,6.327,19.905Z" fill="#fff"></path>
      <path id="Path_2276" data-name="Path 2276" d="M27.179,46.572a1.032,1.032,0,0,0-1.023-.908h-.008a19.193,19.193,0,0,1-11.317-3.953,20.066,20.066,0,0,1-1.88-1.645,19.424,19.424,0,0,1-5.6-13.791,1.036,1.036,0,0,0-.888-1.033L1.2,24.487a1.035,1.035,0,0,0-1.179.981A26.468,26.468,0,0,0,5.9,43.205c.6.727,1.214,1.41,1.835,2.03A26.386,26.386,0,0,0,26.437,53h.07l.259-.018a1.032,1.032,0,0,0,.76-.341,1.045,1.045,0,0,0,.259-.806ZM9.238,43.787c-.594-.594-1.166-1.225-1.7-1.875A24.491,24.491,0,0,1,2.088,26.7l3.2.489A21.087,21.087,0,0,0,9.7,39.433a21.875,21.875,0,0,0,1.773,2.118,20.838,20.838,0,0,0,2.11,1.766A21.037,21.037,0,0,0,25.2,47.73l.369,3.2a24.658,24.658,0,0,1-14.45-5.4c-.615-.548-1.267-1.135-1.881-1.749" fill="#fff"></path>
      <path id="Path_2277" data-name="Path 2277" d="M52.6,21.96A26.547,26.547,0,0,0,47.068,9.816a1.031,1.031,0,0,0-1.531-.082L41.781,13.5a1.037,1.037,0,0,0-.082,1.363A19.153,19.153,0,0,1,31.111,45.124a1.036,1.036,0,0,0-.774,1.116l.6,5.266a1.038,1.038,0,0,0,.425.723,1.028,1.028,0,0,0,.593.187h.039a.807.807,0,0,0,.192-.022A26.479,26.479,0,0,0,52.6,21.96m-8.73-7.623,2.3-2.3a24.419,24.419,0,0,1-13.32,38.043L32.488,46.9A21.218,21.218,0,0,0,43.875,14.337" fill="#fff"></path>
      <path id="Path_2278" data-name="Path 2278" d="M19.485,23.731H14.219a1.034,1.034,0,0,0-1.033,1.033V36.173a1.034,1.034,0,0,0,1.033,1.033h5.266a1.034,1.034,0,0,0,1.033-1.033V24.764a1.034,1.034,0,0,0-1.033-1.033M18.452,35.14h-3.2V25.8h3.2Z" fill="#fff"></path>
      <path id="Path_2279" data-name="Path 2279" d="M29.139,15.832H23.873a1.033,1.033,0,0,0-1.032,1.033V36.173a1.033,1.033,0,0,0,1.032,1.033h5.266a1.034,1.034,0,0,0,1.033-1.033V16.865a1.034,1.034,0,0,0-1.033-1.033M28.106,35.14h-3.2V17.9h3.2Z" fill="#fff"></path>
      <path id="Path_2280" data-name="Path 2280" d="M38.794,20.22H33.528a1.034,1.034,0,0,0-1.033,1.033v14.92a1.034,1.034,0,0,0,1.033,1.033h5.266a1.033,1.033,0,0,0,1.032-1.033V21.253a1.034,1.034,0,0,0-1.032-1.033M37.761,35.14h-3.2V22.286h3.2Z" fill="#fff"></path>
    </g>
  </g>
</svg>
