<?xml version="1.0" encoding="UTF-8"?>
<svg xmlns="http://www.w3.org/2000/svg" xmlns:xlink="http://www.w3.org/1999/xlink" id="icn8" width="53" height="53" viewBox="0 0 53 53">
  <defs>
    <clipPath id="clip-path">
      <rect id="Rectangle_4162" data-name="Rectangle 4162" width="53" height="53" fill="#00bbb4"></rect>
    </clipPath>
  </defs>
  <g id="Group_3619" data-name="Group 3619" clip-path="url(#clip-path)">
    <g id="Group_3618" data-name="Group 3618">
      <g id="Group_3617" data-name="Group 3617" clip-path="url(#clip-path)">
        <g id="Group_3616" data-name="Group 3616" opacity="0">
          <g id="Group_3615" data-name="Group 3615">
            <g id="Group_3614" data-name="Group 3614" clip-path="url(#clip-path)">
              <rect id="Rectangle_4151" data-name="Rectangle 4151" width="53" height="53" fill="#00bbb4"></rect>
            </g>
          </g>
        </g>
        <path id="Path_1832" data-name="Path 1832" d="M47.926.8H40.51a4.275,4.275,0,0,0-4.271,4.27v6.19L32.87,14.632a10,10,0,0,0-2.565-1.53,6.742,6.742,0,1,0-7.61,0,10.063,10.063,0,0,0-4.4,3.514,9.938,9.938,0,0,0-1.83,5.764v5.769a4.275,4.275,0,0,0,4.121,4.267v2.746l-5.2,5.2H5.074A4.275,4.275,0,0,0,.8,44.63v3.3a4.275,4.275,0,0,0,4.27,4.27h7.417a4.275,4.275,0,0,0,4.27-4.27v-6.19l3.821-3.82V48.751A3.431,3.431,0,0,0,26.5,51.13a3.432,3.432,0,0,0,5.919-2.379V32.416a4.275,4.275,0,0,0,4.12-4.267V22.38a10.041,10.041,0,0,0-2.291-6.37l3.369-3.369H47.926A4.276,4.276,0,0,0,52.2,8.371v-3.3A4.275,4.275,0,0,0,47.926.8m2.323,4.27v3.3a2.325,2.325,0,0,1-2.323,2.322H38.187V5.074A2.325,2.325,0,0,1,40.51,2.752h7.416a2.325,2.325,0,0,1,2.323,2.322M30.471,19.758V48.751a1.5,1.5,0,0,1-3,0V28.823H25.526V48.751a1.5,1.5,0,1,1-3,0V19.758H20.582V30.466a2.326,2.326,0,0,1-2.173-2.317V22.38a8.091,8.091,0,1,1,16.182,0v5.769a2.325,2.325,0,0,1-2.172,2.317V19.758ZM26.5,2.752a4.794,4.794,0,1,1-4.794,4.794A4.8,4.8,0,0,1,26.5,2.752M14.813,42.308v5.619a2.325,2.325,0,0,1-2.322,2.322H5.074a2.325,2.325,0,0,1-2.322-2.322v-3.3a2.325,2.325,0,0,1,2.322-2.322Z" fill="#00bbb4"></path>
        <rect id="Rectangle_4153" data-name="Rectangle 4153" width="9.365" height="1.948" transform="translate(39.535 4.1)" fill="#00bbb4"></rect>
        <rect id="Rectangle_4154" data-name="Rectangle 4154" width="1.948" height="1.948" transform="translate(46.952 7.396)" fill="#00bbb4"></rect>
        <rect id="Rectangle_4155" data-name="Rectangle 4155" width="6.069" height="1.948" transform="translate(39.535 7.396)" fill="#00bbb4"></rect>
        <rect id="Rectangle_4156" data-name="Rectangle 4156" width="9.365" height="1.948" transform="translate(4.1 46.952)" fill="#00bbb4"></rect>
        <rect id="Rectangle_4157" data-name="Rectangle 4157" width="1.948" height="1.948" transform="translate(4.1 43.656)" fill="#00bbb4"></rect>
        <rect id="Rectangle_4158" data-name="Rectangle 4158" width="6.069" height="1.948" transform="translate(7.396 43.656)" fill="#00bbb4"></rect>
        <path id="Path_1833" data-name="Path 1833" d="M50.548,31.295H48.6V45.3H47.252V32.943H45.3V45.3H43.955V37.888H42.007V45.3H40.659V35.415H38.711V45.3H37.363v-8.24H35.415V45.3H33.766v1.949H52.2V45.3H50.548Z" fill="#00bbb4"></path>
        <rect id="Rectangle_4159" data-name="Rectangle 4159" width="1.948" height="1.948" transform="translate(50.248 48.6)" fill="#00bbb4"></rect>
        <rect id="Rectangle_4160" data-name="Rectangle 4160" width="15.133" height="1.948" transform="translate(33.767 48.6)" fill="#00bbb4"></rect>
        <path id="Path_1834" data-name="Path 1834" d="M10.018,19.233A9.214,9.214,0,1,0,.8,10.018a9.225,9.225,0,0,0,9.215,9.215m4.271-9.215a4.287,4.287,0,0,0-3.3-4.158V2.82a7.248,7.248,0,0,1,5.364,10.735l-2.438-1.829a4.193,4.193,0,0,0,.371-1.708m-4.271,2.323a2.322,2.322,0,1,1,2.322-2.323,2.325,2.325,0,0,1-2.322,2.323M9.044,2.82V5.86a4.268,4.268,0,1,0,3.7,7.421l2.441,1.831a7.191,7.191,0,0,1-5.168,2.173A7.265,7.265,0,0,1,9.044,2.82" fill="#00bbb4"></path>
      </g>
    </g>
  </g>
</svg>
