<?xml version="1.0" encoding="UTF-8"?>
<svg xmlns="http://www.w3.org/2000/svg" xmlns:xlink="http://www.w3.org/1999/xlink" id="icn8" width="49.591" height="53" viewBox="0 0 49.591 53">
  <defs>
    <clipPath id="clip-path">
      <rect id="Rectangle_4182" data-name="Rectangle 4182" width="49.591" height="53" fill="none"></rect>
    </clipPath>
  </defs>
  <g id="Group_3681" data-name="Group 3681" clip-path="url(#clip-path)">
    <path id="Path_1934" data-name="Path 1934" d="M23.9,38.124a1.03,1.03,0,1,0,0,2.06h1.788a1.03,1.03,0,1,0,0-2.06Z" fill="#fff"></path>
    <path id="Path_1935" data-name="Path 1935" d="M46.832,10.931H42.449V5.749a2.194,2.194,0,0,0-2.192-2.191H37.319a1.03,1.03,0,1,0,0,2.06h2.938a.132.132,0,0,1,.132.131V30.606a.131.131,0,0,1-.132.131H9.334a.131.131,0,0,1-.132-.131V5.618H34.117a2.1,2.1,0,0,0-1.241,1.913,2.075,2.075,0,0,0,.048.444l-3.9,3.464a2.092,2.092,0,0,0-2.521.671l-3.09-.731a2.1,2.1,0,0,0-4.113.582c0,.026,0,.052,0,.079l-3.83,2.351A2.1,2.1,0,1,0,16.715,16.3a2.047,2.047,0,0,0-.015-.247L20.385,13.8a2.092,2.092,0,0,0,2.556-.411l3.312.783a2.1,2.1,0,0,0,4.033-.807,1.969,1.969,0,0,0-.017-.266l4.025-3.58a2.061,2.061,0,0,0,.68.114,2.1,2.1,0,1,0,0-4.2c-.052,0-.1,0-.152.008a1.03,1.03,0,0,0-.577-1.883H28.32L27.407,1.9A3.69,3.69,0,0,0,24.178,0H9.5A2.359,2.359,0,0,0,7.142,2.357v8.574H2.759A2.763,2.763,0,0,0,0,13.691V41.3a2.763,2.763,0,0,0,2.759,2.759H19.672A4.272,4.272,0,0,1,17.956,48.4H17a2.6,2.6,0,0,0-2.491,1.6l-.432,1.183A1.348,1.348,0,0,0,15.347,53h18.9a1.347,1.347,0,0,0,1.266-1.811l-.431-1.183a2.6,2.6,0,0,0-2.491-1.6h-.953a4.271,4.271,0,0,1-1.716-4.341h3.868a1.03,1.03,0,1,0,0-2.06H2.759a.7.7,0,0,1-.7-.7v-5H47.531v5a.7.7,0,0,1-.7.7H36.86a1.03,1.03,0,0,0,0,2.06h9.972A2.763,2.763,0,0,0,49.591,41.3V13.691a2.763,2.763,0,0,0-2.759-2.76m-18.607,2.43a.037.037,0,1,1-.037-.038.037.037,0,0,1,.037.038m-6.785-1.4a.038.038,0,1,1-.075,0,.038.038,0,0,1,.075,0M14.655,16.3a.038.038,0,0,1-.038.037.037.037,0,1,1,0-.074.038.038,0,0,1,.038.037M34.936,7.531a.039.039,0,0,1,.038-.038.038.038,0,0,1,0,.075.038.038,0,0,1-.038-.037M9.2,3.558v-1.2a.3.3,0,0,1,.3-.3h5.989a1.631,1.631,0,0,1,1.426.841l.363.657Zm10.429,0c-.357-.643-.574-1.038-.714-1.291L18.8,2.06h1.029a1.63,1.63,0,0,1,1.426.842l.363.656Zm4.344,0c-.355-.64-.571-1.034-.711-1.288-.046-.083-.084-.152-.115-.21h1.029A1.631,1.631,0,0,1,25.6,2.9l.362.656ZM45.883,13.609H42.449v-.617h4.383a.7.7,0,0,1,.7.7V34.246h-.618V14.639a1.031,1.031,0,0,0-1.03-1.03M2.06,34.246V13.691a.7.7,0,0,1,.7-.7H7.142v.617H3.708a1.031,1.031,0,0,0-1.03,1.03V34.246ZM9.334,32.8H40.257a2.194,2.194,0,0,0,2.192-2.192V15.669h2.4V34.246H4.738V15.669h2.4V30.606A2.194,2.194,0,0,0,9.334,32.8m7.03,18.142.083-.227A.621.621,0,0,1,17,50.464H32.588a.617.617,0,0,1,.555.248l.084.228Zm5.4-6.877h6.073a6.13,6.13,0,0,0,1,4.34H20.756a6.125,6.125,0,0,0,1-4.34" fill="#fff"></path>
    <path id="Path_1936" data-name="Path 1936" d="M19.874,15.1a1.491,1.491,0,0,0-1.489,1.489V28.011A1.491,1.491,0,0,0,19.874,29.5h3.057a1.491,1.491,0,0,0,1.489-1.489V16.587A1.491,1.491,0,0,0,22.931,15.1ZM22.36,27.44H20.444V17.158H22.36Z" fill="#fff"></path>
    <path id="Path_1937" data-name="Path 1937" d="M26.66,20.222a1.491,1.491,0,0,0-1.49,1.49v6.3A1.491,1.491,0,0,0,26.66,29.5h3.057a1.491,1.491,0,0,0,1.489-1.489v-6.3a1.491,1.491,0,0,0-1.489-1.49Zm2.486,7.218H27.23V22.282h1.916Z" fill="#fff"></path>
    <path id="Path_1938" data-name="Path 1938" d="M31.956,14.024V28.011a1.491,1.491,0,0,0,1.49,1.489H36.5a1.491,1.491,0,0,0,1.49-1.489V14.024a1.491,1.491,0,0,0-1.49-1.489H33.446a1.491,1.491,0,0,0-1.49,1.489m2.06.572h1.916V27.441H34.016Z" fill="#fff"></path>
    <path id="Path_1939" data-name="Path 1939" d="M12.629,25.806a1.031,1.031,0,0,0-1.03,1.03v1.175A1.491,1.491,0,0,0,13.088,29.5h3.057a1.492,1.492,0,0,0,1.49-1.489V20.686a1.492,1.492,0,0,0-1.49-1.489H13.088A1.491,1.491,0,0,0,11.6,20.686v3.077a1.03,1.03,0,0,0,2.06,0V21.258h1.916V27.44H13.659v-.6a1.031,1.031,0,0,0-1.03-1.03" fill="#fff"></path>
  </g>
</svg>
