<?xml version="1.0" encoding="UTF-8"?>
<svg xmlns="http://www.w3.org/2000/svg" xmlns:xlink="http://www.w3.org/1999/xlink" id="icn9" width="38.211" height="53" viewBox="0 0 38.211 53">
  <defs>
    <clipPath id="clip-path">
      <rect id="Rectangle_4185" data-name="Rectangle 4185" width="38.211" height="53" fill="none"></rect>
    </clipPath>
  </defs>
  <g id="Group_3682" data-name="Group 3682" clip-path="url(#clip-path)">
    <path id="Path_1940" data-name="Path 1940" d="M7.4,15.815A7.6,7.6,0,0,0,20.638,20.9a6.839,6.839,0,0,0,8.175-10.8L20.712,2a6.839,6.839,0,0,0-10.8,8.176A7.59,7.59,0,0,0,7.4,15.815m2.054,0a5.487,5.487,0,0,1,.968-3.126l7.7,7.7A5.478,5.478,0,0,1,15,21.363,5.554,5.554,0,0,1,9.45,15.815m11.6-4.6,2.991-2.991,3.324,3.324A4.785,4.785,0,0,1,21.8,19.2a7.585,7.585,0,0,0-.758-7.979M19.593,9.766a7.587,7.587,0,0,0-7.979-.757,4.785,4.785,0,0,1,7.645-5.557l3.325,3.324Zm-4.6.5a5.553,5.553,0,0,1,5.547,5.547,5.481,5.481,0,0,1-.969,3.127L11.87,11.236A5.488,5.488,0,0,1,15,10.268" fill="#fff"></path>
    <path id="Path_1941" data-name="Path 1941" d="M10.651,27.275a3.354,3.354,0,0,0-3.667-.72V19.924a3.492,3.492,0,1,0-6.984,0V30.042H2.054V19.924a1.438,1.438,0,0,1,2.876,0v9.861l.005.257h.02a3.339,3.339,0,0,0,.957,1.972l6.075,6.075,1.452-1.452L7.364,30.562A1.3,1.3,0,0,1,9.2,28.728L15.773,35.3a2.246,2.246,0,0,1,.662,1.6V50.946H8.628V44.974L3.2,39.543a3.877,3.877,0,0,1-1.143-2.76V31.07H0v5.713A5.921,5.921,0,0,0,1.744,41l4.83,4.829V53H18.489V36.9a4.285,4.285,0,0,0-1.264-3.05Z" fill="#fff"></path>
    <path id="Path_1942" data-name="Path 1942" d="M34.719,16.432a3.5,3.5,0,0,0-3.492,3.492v6.631a3.354,3.354,0,0,0-3.667.72l-6.574,6.574a4.285,4.285,0,0,0-1.264,3.05V43.19h2.054V36.9a2.246,2.246,0,0,1,.662-1.6l6.574-6.574a1.3,1.3,0,0,1,1.835,1.835l-6.075,6.075,1.452,1.452L32.3,32.014a3.332,3.332,0,0,0,.956-1.972h.025V19.924a1.439,1.439,0,0,1,2.877,0V36.783a3.877,3.877,0,0,1-1.143,2.76l-5.431,5.431v5.972H21.776V44.218H19.722V53H31.637V45.824l4.83-4.829a5.918,5.918,0,0,0,1.744-4.213V19.924a3.5,3.5,0,0,0-3.492-3.492" fill="#fff"></path>
    <rect id="Rectangle_4183" data-name="Rectangle 4183" width="2.054" height="2.054" transform="translate(19.62 26.293)" fill="#fff"></rect>
    <rect id="Rectangle_4184" data-name="Rectangle 4184" width="2.054" height="2.054" transform="translate(16.538 26.293)" fill="#fff"></rect>
  </g>
</svg>
