<?xml version="1.0" encoding="UTF-8"?>
<svg xmlns="http://www.w3.org/2000/svg" xmlns:xlink="http://www.w3.org/1999/xlink" width="181" height="182" viewBox="0 0 181 182">
  <defs>
    <clipPath id="clip-path">
      <rect id="Rectangle_4165" data-name="Rectangle 4165" width="48.224" height="86.506" fill="#fff"></rect>
    </clipPath>
  </defs>
  <g id="Group_3661" data-name="Group 3661" transform="translate(-292.453 -365)">
    <g id="Group_3109" data-name="Group 3109">
      <g id="Group_234" data-name="Group 234" transform="translate(473.666 546.526) rotate(180)">
        <ellipse id="Ellipse_10" data-name="Ellipse 10" cx="90.5" cy="91" rx="90.5" ry="91" transform="translate(0.213 -0.474)" fill="#0083ad"></ellipse>
      </g>
    </g>
    <g id="Group_3660" data-name="Group 3660" transform="translate(358.454 413)" clip-path="url(#clip-path)">
      <path id="Path_1839" data-name="Path 1839" d="M48.21,49.308V14.524A14.587,14.587,0,0,0,33.7,0H14.484A14.559,14.559,0,0,0,0,14.486V49.292a7.988,7.988,0,0,0,1.389,4.494l9.8,14.744a8.6,8.6,0,0,0,7.973,3.636v6.229c-.259,3.085.219,5.327,1.418,6.663a4.631,4.631,0,0,0,3.5,1.448A4.984,4.984,0,0,0,29,81.585V72.164a8.6,8.6,0,0,0,7.973-3.636L37,68.488c.482-.95,1.82-2.857,3.369-5.065,3.619-5.159,8.121-11.576,7.841-14.115M25.063,82.75a1.332,1.332,0,0,1-.989.415,1.239,1.239,0,0,1-.927-.305c-.523-.512-.525-1.657-.527-2.577v-.052h2.951a3.8,3.8,0,0,1-.508,2.519m-2.445-13.8h2.934V76.66H22.618Zm5.959-3.161a1.556,1.556,0,0,0-1.171-.448l-6.515.139a1.512,1.512,0,0,0-1.164.439c-.637.653-.591,1.86-.558,2.741,0,.028,0,.055,0,.082a5.488,5.488,0,0,1-5.058-2.049c-.327-.632-1.456-2.255-2.88-4.3-1.65-2.371-3.7-5.321-5.282-7.844-2.425-3.875-2.526-4.859-2.458-5.1l.013-.045L3.355,14.426A11.141,11.141,0,0,1,14.424,3.356H33.746A11.163,11.163,0,0,1,44.817,14.411c-.068.449-.065,2.06-.01,8.378.045,5.2.106,12.325.039,18.125-.092,7.868-.394,10.062-.58,10.657l-.077-.058L34.2,66.536A5.49,5.49,0,0,1,29.125,68.6c0-.053,0-.108.005-.164a3.689,3.689,0,0,0-.554-2.653" transform="translate(0.001)" fill="#fff"></path>
      <path id="Path_1840" data-name="Path 1840" d="M93.135,307.818a4.516,4.516,0,0,0-4.34-4.293l-8.318-.12-8.287.12A4.492,4.492,0,0,0,72.2,312.5h16.64a4.5,4.5,0,0,0,4.291-4.685m-3.179.425a1.055,1.055,0,0,1-1.048.929l-6.58.019v-2.109l6.567.018a1.023,1.023,0,0,1,.975.944l.009.119Zm-11.185-1.26v2.111l-6.582-.019h0a1.052,1.052,0,0,1-1.051-1.044v-.009a1.054,1.054,0,0,1,1.033-1.038Z" transform="translate(-56.413 -252.166)" fill="#fff"></path>
      <path id="Path_1841" data-name="Path 1841" d="M78.014,96.542a3.111,3.111,0,0,0,3.1-3.1l.078-34.059a3.111,3.111,0,0,0-3.1-3.1H52.969a3.11,3.11,0,0,0-3.1,3.1l.078,34.057a3.111,3.111,0,0,0,3.1,3.1ZM77.6,59.7l0,33.309H53.343V59.7Z" transform="translate(-41.443 -46.783)" fill="#fff"></path>
      <path id="Path_1842" data-name="Path 1842" d="M101.987,99.254a2.411,2.411,0,0,0,2.6,2.192h7.329l-4.6,11.5a1.741,1.741,0,0,0,.974,2.23l.026.01a1.691,1.691,0,0,0,2.191-.96l5.116-12.959a2.484,2.484,0,0,0,.161-.821,2.446,2.446,0,0,0-2.392-2.493h-7.3l4.3-8.611.017-.039a1.722,1.722,0,0,0-3.067-1.508l-5.247,10.2.07.106a2.4,2.4,0,0,0-.182,1.154" transform="translate(-84.755 -72.32)" fill="#fff"></path>
    </g>
  </g>
</svg>
