<?xml version="1.0" encoding="UTF-8"?>
<svg xmlns="http://www.w3.org/2000/svg" xmlns:xlink="http://www.w3.org/1999/xlink" width="130.063" height="130.063" viewBox="0 0 130.063 130.063">
  <defs>
    <filter id="Path_1651" x="0" y="0" width="130.063" height="130.063">
      <feOffset dx="3" dy="4"></feOffset>
      <feGaussianBlur stdDeviation="3.5" result="blur"></feGaussianBlur>
      <feFlood flood-opacity="0.161"></feFlood>
      <feComposite operator="in" in2="blur"></feComposite>
      <feComposite in="SourceGraphic"></feComposite>
    </filter>
  </defs>
  <g id="Group_3382" data-name="Group 3382" transform="translate(-994.969 -785.969)">
    <g transform="matrix(1, 0, 0, 1, 994.97, 785.97)" filter="url(#Path_1651)">
      <path id="Path_1651-2" data-name="Path 1651" d="M54.531,0A54.531,54.531,0,1,1,0,54.531,54.532,54.532,0,0,1,54.531,0" transform="translate(7.5 6.5)" fill="rgba(190,204,213,0.35)"></path>
    </g>
    <g id="Group_3387" data-name="Group 3387">
      <path id="Path_1652" data-name="Path 1652" d="M78.849,37.3a23.989,23.989,0,0,0-17.534-6.807,24.509,24.509,0,0,0-23.379,23A24.012,24.012,0,0,0,50.463,75.789a3.744,3.744,0,0,1,1.974,3.265l.008,13a1.122,1.122,0,0,0,1.123,1.122h1.3v.088a7.178,7.178,0,0,0,14.356,0v-.088h1.3a1.123,1.123,0,0,0,1.123-1.123V79.061a3.764,3.764,0,0,1,1.99-3.278A24.135,24.135,0,0,0,78.849,37.3M57.285,54.6h-2.51a2.51,2.51,0,1,1,2.51-2.51Zm7.265,24.218H59.53V56.848h5.019Zm4.844,2.245v3.809H54.686l0-3.809Zm-2.422,12.2a4.932,4.932,0,0,1-9.864,0v-.088h9.864Zm1.123-2.334H54.689l0-3.809H69.394V90.93ZM72.55,73.814a6.012,6.012,0,0,0-3.14,5.007H66.8V56.848h2.51a4.755,4.755,0,1,0-4.756-4.755V54.6H59.53v-2.51a4.756,4.756,0,1,0-4.755,4.755h2.51V78.821H54.666a5.989,5.989,0,0,0-3.124-5A21.782,21.782,0,0,1,40.179,53.6a22.225,22.225,0,0,1,21.2-20.858A21.888,21.888,0,0,1,72.55,73.814M66.8,54.6v-2.51a2.51,2.51,0,1,1,2.51,2.51Z" transform="translate(994.96 786.431)" fill="#004a98"></path>
      <path id="Path_1653" data-name="Path 1653" d="M67.723,25.369a1.122,1.122,0,0,0,1.123-1.123V19.4a1.123,1.123,0,0,0-2.245,0v4.844a1.122,1.122,0,0,0,1.123,1.123" transform="translate(989.277 788.848)" fill="#004a98"></path>
      <path id="Path_1654" data-name="Path 1654" d="M48.787,29.621A1.122,1.122,0,1,0,50.731,28.5L48.309,24.3a1.123,1.123,0,1,0-1.944,1.124Z" transform="translate(993.315 787.766)" fill="#004a98"></path>
      <path id="Path_1655" data-name="Path 1655" d="M31.854,40.76l4.194,2.422a1.123,1.123,0,1,0,1.124-1.945l-4.195-2.422a1.123,1.123,0,1,0-1.123,1.945" transform="translate(996.271 784.811)" fill="#004a98"></path>
      <path id="Path_1656" data-name="Path 1656" d="M32.919,60.173A1.123,1.123,0,0,0,31.8,59.05H26.953a1.123,1.123,0,1,0,0,2.245H31.8a1.123,1.123,0,0,0,1.123-1.123" transform="translate(997.353 780.772)" fill="#004a98"></path>
      <path id="Path_1657" data-name="Path 1657" d="M36.048,76.566l-4.194,2.422a1.123,1.123,0,1,0,1.123,1.945l4.194-2.422a1.123,1.123,0,1,0-1.123-1.945" transform="translate(996.271 777.333)" fill="#004a98"></path>
      <path id="Path_1658" data-name="Path 1658" d="M102.556,78.988l-4.194-2.422a1.123,1.123,0,1,0-1.124,1.945l4.195,2.422a1.123,1.123,0,1,0,1.123-1.945" transform="translate(983.32 777.333)" fill="#004a98"></path>
      <path id="Path_1659" data-name="Path 1659" d="M107.3,59.05h-4.844a1.123,1.123,0,1,0,0,2.245H107.3a1.123,1.123,0,1,0,0-2.245" transform="translate(982.398 780.772)" fill="#004a98"></path>
      <path id="Path_1660" data-name="Path 1660" d="M97.8,43.332a1.119,1.119,0,0,0,.561-.151l4.195-2.422a1.123,1.123,0,1,0-1.124-1.945l-4.193,2.422a1.123,1.123,0,0,0,.561,2.1" transform="translate(983.32 784.811)" fill="#004a98"></path>
      <path id="Path_1661" data-name="Path 1661" d="M84.525,30.032a1.122,1.122,0,0,0,1.533-.411l2.423-4.195A1.122,1.122,0,0,0,86.537,24.3L84.115,28.5a1.123,1.123,0,0,0,.411,1.534" transform="translate(985.838 787.766)" fill="#004a98"></path>
    </g>
    <rect id="Rectangle_3880" data-name="Rectangle 3880" width="110" height="110" transform="translate(1002 792)" fill="none"></rect>
  </g>
</svg>
