<?xml version="1.0" encoding="UTF-8"?>
<svg xmlns="http://www.w3.org/2000/svg" xmlns:xlink="http://www.w3.org/1999/xlink" width="139.875" height="139.875" viewBox="0 0 139.875 139.875">
  <defs>
    <clipPath id="clip-path">
      <rect id="Rectangle_3872" data-name="Rectangle 3872" width="139.875" height="139.875" fill="#ff9e18"></rect>
    </clipPath>
  </defs>
  <g id="Group_3364" data-name="Group 3364" transform="translate(0 0)">
    <g id="Group_3363" data-name="Group 3363" transform="translate(0 0)" clip-path="url(#clip-path)">
      <path id="Path_1649" data-name="Path 1649" d="M126.751,29.147l-.171-.238.171-.236A11.127,11.127,0,0,0,111.2,13.127l-.236.171-.238-.171a69.957,69.957,0,0,0-81.077-.367,2.345,2.345,0,0,0,2.706,3.83A64.375,64.375,0,0,1,58.9,5.615l1.033-.176-.647.825a35.139,35.139,0,0,0-3.262,5.054c-3.3,6.136-6.053,14.662-7.962,24.657l-.058.306L47.7,36.3a11.1,11.1,0,0,0-10.009,8.452l-.074.309H9.594l.239-.563a65.1,65.1,0,0,1,5.906-10.909,2.346,2.346,0,0,0-.639-3.251,2.343,2.343,0,0,0-3.252.636,69.965,69.965,0,0,0,1.278,79.753l.171.238-.173.236a11.129,11.129,0,0,0,15.549,15.547l.236-.171.238.171A69.938,69.938,0,0,0,139.875,69.939a69.377,69.377,0,0,0-13.124-40.793m-9-13.469a6.45,6.45,0,1,1-6.45,6.45,6.457,6.457,0,0,1,6.45-6.45M81.008,5.617a64.161,64.161,0,0,1,26.637,11.062l.281.2-.154.311a11.017,11.017,0,0,0-1.158,4.939,11.149,11.149,0,0,0,11.137,11.137,11,11,0,0,0,4.938-1.158l.309-.154.2.281A65.075,65.075,0,0,1,130.06,44.5l.239.563H93.262l-.047-.353A126.834,126.834,0,0,0,88.093,21.4c-2.149-6.448-4.663-11.543-7.472-15.138l-.644-.822Zm10.178,80.4a6.45,6.45,0,1,1-6.448,6.45,6.457,6.457,0,0,1,6.448-6.45m-10.815,3.8-.074.307H50.779l-.037-.364a194.362,194.362,0,0,1-.993-19.823c0-3.673.107-7.436.319-11.185l.018-.32.317-.055a11.13,11.13,0,0,0,8.916-8.321l.076-.307H89.1l.036.362a193.938,193.938,0,0,1,.993,19.826c0,3.676-.107,7.427-.315,11.151l-.018.325-.323.052a11.1,11.1,0,0,0-9.1,8.352M52.691,36.743C57.206,13.082,64.8,4.687,69.938,4.687c4.787,0,9.912,6.8,13.71,18.2A121.157,121.157,0,0,1,88.477,44.6l.063.459H59.4l-.076-.309a11.211,11.211,0,0,0-6.393-7.566l-.3-.129ZM48.5,40.958a6.449,6.449,0,1,1-6.448,6.45,6.457,6.457,0,0,1,6.448-6.45M7.763,89.845a65.772,65.772,0,0,1,.018-39.814l.089-.28H37.615l.074.307a11.222,11.222,0,0,0,7.422,7.955l.3.1-.018.312c-.218,3.854-.33,7.729-.33,11.518,0,6.72.325,13.364.962,19.742l.045.445H7.854ZM22.128,124.2a6.449,6.449,0,1,1,6.45-6.448,6.457,6.457,0,0,1-6.45,6.448M58.869,134.26A64.17,64.17,0,0,1,32.232,123.2l-.28-.2.152-.309a11,11,0,0,0,1.16-4.939,11.149,11.149,0,0,0-11.137-11.137,11,11,0,0,0-4.938,1.158l-.309.154-.2-.28A65.138,65.138,0,0,1,9.817,95.376l-.238-.563H46.615l.047.351a126.818,126.818,0,0,0,5.122,23.311c2.148,6.448,4.663,11.541,7.472,15.138l.642.822Zm11.069.928c-4.786,0-9.911-6.8-13.708-18.194A121.213,121.213,0,0,1,51.4,95.272l-.063-.459H80.3l.074.307a11.2,11.2,0,0,0,6.558,7.638l.3.126-.061.322c-4.519,23.607-12.107,31.982-17.234,31.982m60.088-39.813A65.038,65.038,0,0,1,80.979,134.25l-1.033.178.649-.826a34.94,34.94,0,0,0,3.233-5.007c3.311-6.134,6.073-14.678,7.985-24.707l.058-.3.3-.026A11.128,11.128,0,0,0,102,95.12l.074-.307h28.191Zm1.963-5.25H102.075L102,89.819a11.238,11.238,0,0,0-7.245-7.9l-.293-.1.018-.307c.222-3.875.333-7.769.333-11.578,0-6.723-.323-13.365-.961-19.744l-.045-.445h38.218l.091.28a65.63,65.63,0,0,1-.036,39.816Z" transform="translate(0 0)" fill="#ff9e18"></path>
      <path id="Path_1650" data-name="Path 1650" d="M14.246,12.583a2.342,2.342,0,0,0-1.656,4,2.425,2.425,0,0,0,3.315,0,2.343,2.343,0,0,0-1.659-4" transform="translate(7.347 7.768)" fill="#ff9e18"></path>
    </g>
  </g>
</svg>
