<?xml version="1.0" encoding="UTF-8"?>
<svg xmlns="http://www.w3.org/2000/svg" xmlns:xlink="http://www.w3.org/1999/xlink" width="29.364" height="53" viewBox="0 0 29.364 53">
  <defs>
    <clipPath id="clip-path">
      <rect id="Rectangle_3963" data-name="Rectangle 3963" width="29.364" height="53" fill="none"></rect>
    </clipPath>
  </defs>
  <g id="med_devices_icn" transform="translate(0 -0.001)">
    <g id="Group_3652" data-name="Group 3652" transform="translate(0 0.001)" clip-path="url(#clip-path)">
      <path id="Path_1684" data-name="Path 1684" d="M20.6,0H8.738A8.762,8.762,0,0,0,0,8.738V30.23a4.745,4.745,0,0,0,.823,2.661l6.051,9.1a5.134,5.134,0,0,0,4.961,2.129v4.09c-.179,2.118.108,4.731,2.83,4.793a2.856,2.856,0,0,0,2.83-2.832V44.119a5.134,5.134,0,0,0,4.961-2.129c.969-1.911,7.163-9.581,6.9-11.738V8.762A8.781,8.781,0,0,0,20.6,0M15.779,47.337H13.553V42.16h2.226Zm-1.114,4.017c-1.21.024-1.1-1.319-1.112-2.226h2.226c.048.774.1,2.179-1.114,2.226M27.675,8.7c-.17.339.447,23.947-.544,23.2L21.079,41a3.611,3.611,0,0,1-3.511,1.331c0-.678.193-1.985-.847-1.985l-4.03.086c-1.028-.012-.859,1.294-.847,1.983a3.61,3.61,0,0,1-3.511-1.329c-.6-1.2-6.944-9.535-6.581-10.818L1.658,8.7A7.068,7.068,0,0,1,8.7,1.658H20.633A7.1,7.1,0,0,1,27.675,8.7M6.91,5.87A1.71,1.71,0,0,0,5.2,7.576l.048,21.03a1.71,1.71,0,0,0,1.706,1.706H22.375a1.71,1.71,0,0,0,1.706-1.706l.048-21.03A1.71,1.71,0,0,0,22.423,5.87ZM22.322,28.546H6.934V7.564H22.325ZM10.742,15.633l3.174-6.171a.856.856,0,0,1,1.525.75l-2.806,5.617h4.84a1.3,1.3,0,0,1,1.27,1.328,1.326,1.326,0,0,1-.086.438l-3.158,8a.838.838,0,0,1-1.085.476l-.015-.006a.872.872,0,0,1-.484-1.112l2.952-7.382h-4.84a1.282,1.282,0,0,1-1.246-1.876Zm3.908,16.007-5.106.074a2.567,2.567,0,0,0,0,5.13H19.81a2.567,2.567,0,0,0-.024-5.13ZM8.676,34.282a.855.855,0,0,1,.845-.847h4.285v1.718l-4.271-.012a.856.856,0,0,1-.859-.852v-.007m12.041.06a.856.856,0,0,1-.852.859h-.006l-4.271.012V33.495l4.271.012a.838.838,0,0,1,.8.774Z" transform="translate(0 -0.001)" fill="#fff"></path>
    </g>
  </g>
</svg>
