<?xml version="1.0" encoding="UTF-8"?>
<svg xmlns="http://www.w3.org/2000/svg" xmlns:xlink="http://www.w3.org/1999/xlink" id="share_in" width="23.291" height="23.291" viewBox="0 0 23.291 23.291">
  <defs>
    <clipPath id="clip-path">
      <rect id="Rectangle_3698" data-name="Rectangle 3698" width="23.291" height="23.291" fill="#0083ad"></rect>
    </clipPath>
  </defs>
  <g id="Group_3064" data-name="Group 3064" clip-path="url(#clip-path)">
    <path id="Path_1115" data-name="Path 1115" d="M11.646,0A11.646,11.646,0,1,0,23.291,11.646,11.647,11.647,0,0,0,11.646,0M8.262,17.6H5.425V9.072H8.262Zm-1.418-9.7H6.825a1.478,1.478,0,1,1,.037-2.948,1.479,1.479,0,1,1-.019,2.948m11.645,9.7H15.653V13.04c0-1.147-.411-1.93-1.437-1.93a1.553,1.553,0,0,0-1.455,1.037,1.937,1.937,0,0,0-.093.692V17.6H9.831s.037-7.732,0-8.533h2.836V10.28a2.816,2.816,0,0,1,2.556-1.408c1.866,0,3.265,1.22,3.265,3.841Z" transform="translate(0 0)" fill="#0083ad"></path>
  </g>
</svg>
